<svg width="120" height="48" viewBox="0 0 120 48" fill="none" xmlns="http://www.w3.org/2000/svg">
<rect width="120" height="48" fill="#393939"/>
<path d="M23.112 31.296H21.67C21.278 31.296 20.984 31.184 20.788 30.96C20.592 30.7453 20.494 30.4747 20.494 30.148V29.154C19.934 29.098 19.4253 28.9487 18.968 28.706C18.5107 28.4633 18.1233 28.132 17.806 27.712C17.4887 27.2827 17.2413 26.7693 17.064 26.172C16.896 25.5653 16.812 24.8793 16.812 24.114C16.812 23.2927 16.91 22.5693 17.106 21.944C17.302 21.3187 17.5773 20.7913 17.932 20.362C18.296 19.9327 18.73 19.6107 19.234 19.396C19.7473 19.172 20.3213 19.06 20.956 19.06C21.5813 19.06 22.1507 19.172 22.664 19.396C23.1773 19.6107 23.6113 19.9327 23.966 20.362C24.33 20.7913 24.61 21.3187 24.806 21.944C25.002 22.5693 25.1 23.2927 25.1 24.114C25.1 25.6167 24.7873 26.7927 24.162 27.642C23.5367 28.482 22.6873 28.9767 21.614 29.126V30.316H23.112V31.296ZM20.956 28.118C21.376 28.118 21.7633 28.0433 22.118 27.894C22.4727 27.7447 22.776 27.53 23.028 27.25C23.2893 26.97 23.49 26.634 23.63 26.242C23.77 25.85 23.84 25.4113 23.84 24.926V23.302C23.84 22.8167 23.77 22.378 23.63 21.986C23.49 21.594 23.2893 21.258 23.028 20.978C22.776 20.698 22.4727 20.4833 22.118 20.334C21.7633 20.1847 21.376 20.11 20.956 20.11C20.536 20.11 20.1487 20.1847 19.794 20.334C19.4393 20.4833 19.1313 20.698 18.87 20.978C18.618 21.258 18.422 21.594 18.282 21.986C18.142 22.378 18.072 22.8167 18.072 23.302V24.926C18.072 25.4113 18.142 25.85 18.282 26.242C18.422 26.634 18.618 26.97 18.87 27.25C19.1313 27.53 19.4393 27.7447 19.794 27.894C20.1487 28.0433 20.536 28.118 20.956 28.118ZM31.7141 27.824H31.6581C31.5834 27.992 31.4901 28.16 31.3781 28.328C31.2754 28.4867 31.1448 28.6313 30.9861 28.762C30.8274 28.8833 30.6361 28.9813 30.4121 29.056C30.1881 29.1307 29.9268 29.168 29.6281 29.168C28.8814 29.168 28.2888 28.93 27.8501 28.454C27.4114 27.9687 27.1921 27.2873 27.1921 26.41V21.776H28.3121V26.214C28.3121 27.5113 28.8628 28.16 29.9641 28.16C30.1881 28.16 30.4028 28.132 30.6081 28.076C30.8228 28.02 31.0094 27.936 31.1681 27.824C31.3361 27.712 31.4668 27.572 31.5601 27.404C31.6628 27.2267 31.7141 27.0167 31.7141 26.774V21.776H32.8341V29H31.7141V27.824ZM35.9391 20.082C35.6965 20.082 35.5191 20.026 35.4071 19.914C35.3045 19.7927 35.2531 19.6387 35.2531 19.452V19.27C35.2531 19.0833 35.3045 18.934 35.4071 18.822C35.5191 18.7007 35.6965 18.64 35.9391 18.64C36.1818 18.64 36.3545 18.7007 36.4571 18.822C36.5691 18.934 36.6251 19.0833 36.6251 19.27V19.452C36.6251 19.6387 36.5691 19.7927 36.4571 19.914C36.3545 20.026 36.1818 20.082 35.9391 20.082ZM35.3791 21.776H36.4991V29H35.3791V21.776ZM41.7271 29.168C41.2231 29.168 40.7705 29.0793 40.3691 28.902C39.9678 28.7247 39.6271 28.4727 39.3471 28.146C39.0765 27.8193 38.8665 27.4227 38.7171 26.956C38.5771 26.4893 38.5071 25.9667 38.5071 25.388C38.5071 24.8093 38.5771 24.2867 38.7171 23.82C38.8665 23.3533 39.0765 22.9567 39.3471 22.63C39.6271 22.3033 39.9678 22.0513 40.3691 21.874C40.7705 21.6967 41.2231 21.608 41.7271 21.608C42.4458 21.608 43.0198 21.7667 43.4491 22.084C43.8878 22.392 44.2145 22.798 44.4291 23.302L43.4911 23.778C43.3605 23.4047 43.1458 23.1153 42.8471 22.91C42.5485 22.7047 42.1751 22.602 41.7271 22.602C41.3911 22.602 41.0971 22.658 40.8451 22.77C40.5931 22.8727 40.3831 23.022 40.2151 23.218C40.0471 23.4047 39.9211 23.6333 39.8371 23.904C39.7531 24.1653 39.7111 24.4547 39.7111 24.772V26.004C39.7111 26.6387 39.8791 27.1613 40.2151 27.572C40.5605 27.9733 41.0645 28.174 41.7271 28.174C42.6325 28.174 43.2858 27.754 43.6871 26.914L44.4991 27.46C44.2658 27.9827 43.9158 28.398 43.4491 28.706C42.9918 29.014 42.4178 29.168 41.7271 29.168ZM46.2402 18.64H47.3602V25.206H47.4162L48.5222 23.974L50.5662 21.776H51.9242L49.2502 24.632L52.1902 29H50.8322L48.4382 25.318L47.3602 26.424V29H46.2402V18.64ZM59.4216 29.168C58.7496 29.168 58.1849 29.042 57.7276 28.79C57.2796 28.5287 56.8922 28.1833 56.5656 27.754L57.3636 27.11C57.6436 27.4647 57.9562 27.74 58.3016 27.936C58.6469 28.1227 59.0482 28.216 59.5056 28.216C59.9816 28.216 60.3502 28.1133 60.6116 27.908C60.8822 27.7027 61.0176 27.4133 61.0176 27.04C61.0176 26.76 60.9242 26.522 60.7376 26.326C60.5602 26.1207 60.2336 25.9807 59.7576 25.906L59.1836 25.822C58.8476 25.7753 58.5396 25.7053 58.2596 25.612C57.9796 25.5093 57.7322 25.3787 57.5176 25.22C57.3122 25.052 57.1489 24.8467 57.0276 24.604C56.9156 24.3613 56.8596 24.072 56.8596 23.736C56.8596 23.3813 56.9249 23.0733 57.0556 22.812C57.1862 22.5413 57.3636 22.3173 57.5876 22.14C57.8209 21.9627 58.0962 21.832 58.4136 21.748C58.7309 21.6547 59.0716 21.608 59.4356 21.608C60.0236 21.608 60.5136 21.7107 60.9056 21.916C61.3069 22.1213 61.6569 22.406 61.9556 22.77L61.2136 23.442C61.0549 23.218 60.8216 23.0173 60.5136 22.84C60.2056 22.6533 59.8182 22.56 59.3516 22.56C58.8849 22.56 58.5302 22.6627 58.2876 22.868C58.0542 23.064 57.9376 23.3347 57.9376 23.68C57.9376 24.0347 58.0542 24.2913 58.2876 24.45C58.5302 24.6087 58.8756 24.7253 59.3236 24.8L59.8836 24.884C60.6862 25.0053 61.2556 25.2387 61.5916 25.584C61.9276 25.92 62.0956 26.3633 62.0956 26.914C62.0956 27.614 61.8576 28.1647 61.3816 28.566C60.9056 28.9673 60.2522 29.168 59.4216 29.168ZM65.7341 29C65.3421 29 65.0435 28.8927 64.8381 28.678C64.6421 28.454 64.5441 28.1647 64.5441 27.81V22.756H63.3541V21.776H64.0261C64.2688 21.776 64.4321 21.7293 64.5161 21.636C64.6095 21.5333 64.6561 21.3607 64.6561 21.118V19.774H65.6641V21.776H67.2461V22.756H65.6641V28.02H67.1341V29H65.7341ZM74.4563 29C74.0363 29 73.733 28.888 73.5463 28.664C73.369 28.44 73.257 28.16 73.2103 27.824H73.1403C72.9817 28.272 72.7203 28.608 72.3563 28.832C71.9923 29.056 71.5583 29.168 71.0543 29.168C70.289 29.168 69.6917 28.972 69.2623 28.58C68.8423 28.188 68.6323 27.656 68.6323 26.984C68.6323 26.3027 68.8797 25.78 69.3743 25.416C69.8783 25.052 70.6577 24.87 71.7123 24.87H73.1403V24.156C73.1403 23.6427 73.0003 23.2507 72.7203 22.98C72.4403 22.7093 72.011 22.574 71.4323 22.574C70.9937 22.574 70.625 22.672 70.3263 22.868C70.037 23.064 69.7943 23.3253 69.5983 23.652L68.9263 23.022C69.1223 22.63 69.435 22.2987 69.8643 22.028C70.2937 21.748 70.835 21.608 71.4883 21.608C72.3657 21.608 73.047 21.8227 73.5323 22.252C74.0177 22.6813 74.2603 23.2787 74.2603 24.044V28.02H75.0863V29H74.4563ZM71.2363 28.216C71.5163 28.216 71.773 28.1833 72.0063 28.118C72.2397 28.0527 72.4403 27.9593 72.6083 27.838C72.7763 27.7167 72.907 27.5767 73.0003 27.418C73.0937 27.2593 73.1403 27.0867 73.1403 26.9V25.71H71.6563C71.0123 25.71 70.541 25.8033 70.2423 25.99C69.953 26.1767 69.8083 26.4473 69.8083 26.802V27.096C69.8083 27.4507 69.9343 27.726 70.1863 27.922C70.4477 28.118 70.7977 28.216 71.2363 28.216ZM76.8448 29V21.776H77.9648V23.106H78.0348C78.1655 22.7607 78.3988 22.4527 78.7348 22.182C79.0708 21.9113 79.5328 21.776 80.1208 21.776H80.5548V22.896H79.8968C79.2902 22.896 78.8142 23.0127 78.4688 23.246C78.1328 23.47 77.9648 23.7547 77.9648 24.1V29H76.8448ZM83.7962 29C83.4042 29 83.1055 28.8927 82.9002 28.678C82.7042 28.454 82.6062 28.1647 82.6062 27.81V22.756H81.4162V21.776H82.0882C82.3308 21.776 82.4942 21.7293 82.5782 21.636C82.6715 21.5333 82.7182 21.3607 82.7182 21.118V19.774H83.7262V21.776H85.3082V22.756H83.7262V28.02H85.1962V29H83.7962Z" fill="white"/>
</svg>
