<svg width="120" height="48" viewBox="0 0 120 48" fill="none" xmlns="http://www.w3.org/2000/svg">
<rect width="120" height="48" fill="#0F62FE"/>
<path d="M17.302 19.228H20.578C21.1847 19.228 21.7353 19.3307 22.23 19.536C22.7247 19.7413 23.1447 20.0493 23.49 20.46C23.8447 20.8613 24.1153 21.37 24.302 21.986C24.4887 22.5927 24.582 23.302 24.582 24.114C24.582 24.926 24.4887 25.64 24.302 26.256C24.1153 26.8627 23.8447 27.3713 23.49 27.782C23.1447 28.1833 22.7247 28.4867 22.23 28.692C21.7353 28.8973 21.1847 29 20.578 29H17.302V19.228ZM20.578 27.964C20.9793 27.964 21.348 27.8987 21.684 27.768C22.02 27.628 22.3093 27.4273 22.552 27.166C22.7947 26.9047 22.9813 26.5873 23.112 26.214C23.252 25.8313 23.322 25.3973 23.322 24.912V23.316C23.322 22.8307 23.252 22.4013 23.112 22.028C22.9813 21.6453 22.7947 21.3233 22.552 21.062C22.3093 20.8007 22.02 20.6047 21.684 20.474C21.348 20.334 20.9793 20.264 20.578 20.264H18.478V27.964H20.578ZM29.4726 29.168C28.9872 29.168 28.5439 29.0793 28.1426 28.902C27.7412 28.7247 27.3959 28.4727 27.1066 28.146C26.8266 27.81 26.6072 27.4133 26.4486 26.956C26.2899 26.4893 26.2106 25.9667 26.2106 25.388C26.2106 24.8187 26.2899 24.3007 26.4486 23.834C26.6072 23.3673 26.8266 22.9707 27.1066 22.644C27.3959 22.308 27.7412 22.0513 28.1426 21.874C28.5439 21.6967 28.9872 21.608 29.4726 21.608C29.9579 21.608 30.3966 21.6967 30.7886 21.874C31.1899 22.0513 31.5352 22.308 31.8246 22.644C32.1139 22.9707 32.3379 23.3673 32.4966 23.834C32.6552 24.3007 32.7346 24.8187 32.7346 25.388C32.7346 25.9667 32.6552 26.4893 32.4966 26.956C32.3379 27.4133 32.1139 27.81 31.8246 28.146C31.5352 28.4727 31.1899 28.7247 30.7886 28.902C30.3966 29.0793 29.9579 29.168 29.4726 29.168ZM29.4726 28.174C30.0792 28.174 30.5739 27.9873 30.9566 27.614C31.3392 27.2407 31.5306 26.6713 31.5306 25.906V24.87C31.5306 24.1047 31.3392 23.5353 30.9566 23.162C30.5739 22.7887 30.0792 22.602 29.4726 22.602C28.8659 22.602 28.3712 22.7887 27.9886 23.162C27.6059 23.5353 27.4146 24.1047 27.4146 24.87V25.906C27.4146 26.6713 27.6059 27.2407 27.9886 27.614C28.3712 27.9873 28.8659 28.174 29.4726 28.174ZM37.4246 29.168C36.9206 29.168 36.4679 29.0793 36.0666 28.902C35.6652 28.7247 35.3246 28.4727 35.0446 28.146C34.7739 27.8193 34.5639 27.4227 34.4146 26.956C34.2746 26.4893 34.2046 25.9667 34.2046 25.388C34.2046 24.8093 34.2746 24.2867 34.4146 23.82C34.5639 23.3533 34.7739 22.9567 35.0446 22.63C35.3246 22.3033 35.6652 22.0513 36.0666 21.874C36.4679 21.6967 36.9206 21.608 37.4246 21.608C38.1432 21.608 38.7172 21.7667 39.1466 22.084C39.5852 22.392 39.9119 22.798 40.1266 23.302L39.1886 23.778C39.0579 23.4047 38.8432 23.1153 38.5446 22.91C38.2459 22.7047 37.8726 22.602 37.4246 22.602C37.0886 22.602 36.7946 22.658 36.5426 22.77C36.2906 22.8727 36.0806 23.022 35.9126 23.218C35.7446 23.4047 35.6186 23.6333 35.5346 23.904C35.4506 24.1653 35.4086 24.4547 35.4086 24.772V26.004C35.4086 26.6387 35.5766 27.1613 35.9126 27.572C36.2579 27.9733 36.7619 28.174 37.4246 28.174C38.3299 28.174 38.9832 27.754 39.3846 26.914L40.1966 27.46C39.9632 27.9827 39.6132 28.398 39.1466 28.706C38.6892 29.014 38.1152 29.168 37.4246 29.168ZM44.1076 29.168C43.4356 29.168 42.8709 29.042 42.4136 28.79C41.9656 28.5287 41.5782 28.1833 41.2516 27.754L42.0496 27.11C42.3296 27.4647 42.6422 27.74 42.9876 27.936C43.3329 28.1227 43.7342 28.216 44.1916 28.216C44.6676 28.216 45.0362 28.1133 45.2976 27.908C45.5682 27.7027 45.7036 27.4133 45.7036 27.04C45.7036 26.76 45.6102 26.522 45.4236 26.326C45.2462 26.1207 44.9196 25.9807 44.4436 25.906L43.8696 25.822C43.5336 25.7753 43.2256 25.7053 42.9456 25.612C42.6656 25.5093 42.4182 25.3787 42.2036 25.22C41.9982 25.052 41.8349 24.8467 41.7136 24.604C41.6016 24.3613 41.5456 24.072 41.5456 23.736C41.5456 23.3813 41.6109 23.0733 41.7416 22.812C41.8722 22.5413 42.0496 22.3173 42.2736 22.14C42.5069 21.9627 42.7822 21.832 43.0996 21.748C43.4169 21.6547 43.7576 21.608 44.1216 21.608C44.7096 21.608 45.1996 21.7107 45.5916 21.916C45.9929 22.1213 46.3429 22.406 46.6416 22.77L45.8996 23.442C45.7409 23.218 45.5076 23.0173 45.1996 22.84C44.8916 22.6533 44.5042 22.56 44.0376 22.56C43.5709 22.56 43.2162 22.6627 42.9736 22.868C42.7402 23.064 42.6236 23.3347 42.6236 23.68C42.6236 24.0347 42.7402 24.2913 42.9736 24.45C43.2162 24.6087 43.5616 24.7253 44.0096 24.8L44.5696 24.884C45.3722 25.0053 45.9416 25.2387 46.2776 25.584C46.6136 25.92 46.7816 26.3633 46.7816 26.914C46.7816 27.614 46.5436 28.1647 46.0676 28.566C45.5916 28.9673 44.9382 29.168 44.1076 29.168Z" fill="white"/>
</svg>
