<svg class="main-svg" xmlns="http://www.w3.org/2000/svg" xmlns:xlink="http://www.w3.org/1999/xlink" width="1012" height="500" style="" viewBox="0 0 1012 500"><rect x="0" y="0" width="1012" height="500" style="fill: rgb(255, 255, 255); fill-opacity: 1;"/><defs id="defs-dee495"><g class="clips"><clipPath id="clipdee495xyplot" class="plotclip"><rect width="852" height="300"/></clipPath><clipPath class="axesclip" id="clipdee495x"><rect x="80" y="0" width="852" height="500"/></clipPath><clipPath class="axesclip" id="clipdee495y"><rect x="0" y="120" width="1012" height="300"/></clipPath><clipPath class="axesclip" id="clipdee495xy"><rect x="80" y="120" width="852" height="300"/></clipPath></g><g class="gradients"/><g class="patterns"/></defs><g class="bglayer"/><g class="layer-below"><g class="imagelayer"/><g class="shapelayer"/></g><g class="cartesianlayer"><g class="subplot xy"><g class="layer-subplot"><g class="shapelayer"/><g class="imagelayer"/></g><g class="minor-gridlayer"><g class="x"/><g class="y"/></g><g class="gridlayer"><g class="x"/><g class="y"><path class="ygrid crisp" transform="translate(0,345)" d="M80,0h852" style="stroke: rgb(238, 238, 238); stroke-opacity: 1; stroke-width: 1px;"/><path class="ygrid crisp" transform="translate(0,270)" d="M80,0h852" style="stroke: rgb(238, 238, 238); stroke-opacity: 1; stroke-width: 1px;"/><path class="ygrid crisp" transform="translate(0,195)" d="M80,0h852" style="stroke: rgb(238, 238, 238); stroke-opacity: 1; stroke-width: 1px;"/></g></g><g class="zerolinelayer"><path class="yzl zl crisp" transform="translate(0,420)" d="M80,0h852" style="stroke: rgb(255, 255, 255); stroke-opacity: 1; stroke-width: 2px;"/></g><g class="layer-between"><g class="shapelayer"/><g class="imagelayer"/></g><path class="xlines-below"/><path class="ylines-below"/><g class="overlines-below"/><g class="xaxislayer-below"/><g class="yaxislayer-below"/><g class="overaxes-below"/><g class="overplot"><g class="xy" transform="translate(80,120)" clip-path="url(#clipdee495xyplot)"><g class="barlayer mlayer"><g class="trace bars" shape-rendering="crispEdges" style="opacity: 0.5;"><g class="points"><g class="point"><path d="M0,300V285H71V300Z" style="vector-effect: none; opacity: 1; stroke-width: 0px; fill: rgb(203, 136, 151); fill-opacity: 1;"/></g><g class="point"><path d="M71,300V270H142V300Z" style="vector-effect: none; opacity: 1; stroke-width: 0px; fill: rgb(203, 136, 151); fill-opacity: 1;"/></g><g class="point"><path d="M142,300V195H213V300Z" style="vector-effect: none; opacity: 1; stroke-width: 0px; fill: rgb(203, 136, 151); fill-opacity: 1;"/></g><g class="point"><path d="M213,300V90H284V300Z" style="vector-effect: none; opacity: 1; stroke-width: 0px; fill: rgb(203, 136, 151); fill-opacity: 1;"/></g><g class="point"><path d="M284,300V75H355V300Z" style="vector-effect: none; opacity: 1; stroke-width: 0px; fill: rgb(203, 136, 151); fill-opacity: 1;"/></g><g class="point"><path d="M355,300V15H426V300Z" style="vector-effect: none; opacity: 1; stroke-width: 0px; fill: rgb(203, 136, 151); fill-opacity: 1;"/></g><g class="point"><path d="M426,300V135H497V300Z" style="vector-effect: none; opacity: 1; stroke-width: 0px; fill: rgb(203, 136, 151); fill-opacity: 1;"/></g><g class="point"><path d="M497,300V15H568V300Z" style="vector-effect: none; opacity: 1; stroke-width: 0px; fill: rgb(203, 136, 151); fill-opacity: 1;"/></g><g class="point"><path d="M568,300V195H639V300Z" style="vector-effect: none; opacity: 1; stroke-width: 0px; fill: rgb(203, 136, 151); fill-opacity: 1;"/></g><g class="point"><path d="M639,300V240H710V300Z" style="vector-effect: none; opacity: 1; stroke-width: 0px; fill: rgb(203, 136, 151); fill-opacity: 1;"/></g><g class="point"><path d="M0,0Z" style="vector-effect: none; opacity: 1; stroke-width: 0px; fill: rgb(203, 136, 151); fill-opacity: 1;"/></g><g class="point"><path d="M781,300V285H852V300Z" style="vector-effect: none; opacity: 1; stroke-width: 0px; fill: rgb(203, 136, 151); fill-opacity: 1;"/></g></g></g><g class="trace bars" shape-rendering="crispEdges" style="opacity: 0.5;"><g class="points"><g class="point"><path d="M0,300V270H71V300Z" style="vector-effect: none; opacity: 1; stroke-width: 0px; fill: rgb(148, 173, 224); fill-opacity: 1;"/></g><g class="point"><path d="M71,300V285H142V300Z" style="vector-effect: none; opacity: 1; stroke-width: 0px; fill: rgb(148, 173, 224); fill-opacity: 1;"/></g><g class="point"><path d="M142,300V195H213V300Z" style="vector-effect: none; opacity: 1; stroke-width: 0px; fill: rgb(148, 173, 224); fill-opacity: 1;"/></g><g class="point"><path d="M213,300V120H284V300Z" style="vector-effect: none; opacity: 1; stroke-width: 0px; fill: rgb(148, 173, 224); fill-opacity: 1;"/></g><g class="point"><path d="M284,300V30H355V300Z" style="vector-effect: none; opacity: 1; stroke-width: 0px; fill: rgb(148, 173, 224); fill-opacity: 1;"/></g><g class="point"><path d="M355,300V15H426V300Z" style="vector-effect: none; opacity: 1; stroke-width: 0px; fill: rgb(148, 173, 224); fill-opacity: 1;"/></g><g class="point"><path d="M426,300V120H497V300Z" style="vector-effect: none; opacity: 1; stroke-width: 0px; fill: rgb(148, 173, 224); fill-opacity: 1;"/></g><g class="point"><path d="M497,300V75H568V300Z" style="vector-effect: none; opacity: 1; stroke-width: 0px; fill: rgb(148, 173, 224); fill-opacity: 1;"/></g><g class="point"><path d="M568,300V180H639V300Z" style="vector-effect: none; opacity: 1; stroke-width: 0px; fill: rgb(148, 173, 224); fill-opacity: 1;"/></g><g class="point"><path d="M639,300V225H710V300Z" style="vector-effect: none; opacity: 1; stroke-width: 0px; fill: rgb(148, 173, 224); fill-opacity: 1;"/></g><g class="point"><path d="M710,300V285H781V300Z" style="vector-effect: none; opacity: 1; stroke-width: 0px; fill: rgb(148, 173, 224); fill-opacity: 1;"/></g></g></g></g></g></g><g class="zerolinelayer-above"/><path class="xlines-above crisp" d="M79,420.5H933M79,119.5H933" style="fill: none; stroke-width: 1px; stroke: rgb(204, 204, 204); stroke-opacity: 1;"/><path class="ylines-above crisp" d="M79.5,120V420M932.5,120V420" style="fill: none; stroke-width: 1px; stroke: rgb(204, 204, 204); stroke-opacity: 1;"/><g class="overlines-above"/><g class="xaxislayer-above"><path class="xtick ticks crisp" d="M0,421v5M0,119v-5" transform="translate(80,0)" style="stroke: rgb(0, 0, 0); stroke-opacity: 0; stroke-width: 1px;"/><path class="xtick ticks crisp" d="M0,421v5M0,119v-5" transform="translate(222,0)" style="stroke: rgb(0, 0, 0); stroke-opacity: 0; stroke-width: 1px;"/><path class="xtick ticks crisp" d="M0,421v5M0,119v-5" transform="translate(364,0)" style="stroke: rgb(0, 0, 0); stroke-opacity: 0; stroke-width: 1px;"/><path class="xtick ticks crisp" d="M0,421v5M0,119v-5" transform="translate(506,0)" style="stroke: rgb(0, 0, 0); stroke-opacity: 0; stroke-width: 1px;"/><path class="xtick ticks crisp" d="M0,421v5M0,119v-5" transform="translate(648,0)" style="stroke: rgb(0, 0, 0); stroke-opacity: 0; stroke-width: 1px;"/><path class="xtick ticks crisp" d="M0,421v5M0,119v-5" transform="translate(790,0)" style="stroke: rgb(0, 0, 0); stroke-opacity: 0; stroke-width: 1px;"/><path class="xtick ticks crisp" d="M0,421v5M0,119v-5" transform="translate(932,0)" style="stroke: rgb(0, 0, 0); stroke-opacity: 0; stroke-width: 1px;"/><g class="xtick"><text text-anchor="middle" x="0" y="440.4" transform="translate(80,0)" style="font-family: 'IBM Plex Sans', sans-serif; font-size: 12px; fill: rgb(119, 119, 119); fill-opacity: 1; white-space: pre;">−30</text></g><g class="xtick"><text text-anchor="middle" x="0" y="440.4" style="font-family: 'IBM Plex Sans', sans-serif; font-size: 12px; fill: rgb(119, 119, 119); fill-opacity: 1; white-space: pre;" transform="translate(222,0)">−20</text></g><g class="xtick"><text text-anchor="middle" x="0" y="440.4" style="font-family: 'IBM Plex Sans', sans-serif; font-size: 12px; fill: rgb(119, 119, 119); fill-opacity: 1; white-space: pre;" transform="translate(364,0)">−10</text></g><g class="xtick"><text text-anchor="middle" x="0" y="440.4" style="font-family: 'IBM Plex Sans', sans-serif; font-size: 12px; fill: rgb(119, 119, 119); fill-opacity: 1; white-space: pre;" transform="translate(506,0)">0</text></g><g class="xtick"><text text-anchor="middle" x="0" y="440.4" style="font-family: 'IBM Plex Sans', sans-serif; font-size: 12px; fill: rgb(119, 119, 119); fill-opacity: 1; white-space: pre;" transform="translate(648,0)">10</text></g><g class="xtick"><text text-anchor="middle" x="0" y="440.4" style="font-family: 'IBM Plex Sans', sans-serif; font-size: 12px; fill: rgb(119, 119, 119); fill-opacity: 1; white-space: pre;" transform="translate(790,0)">20</text></g><g class="xtick"><text text-anchor="middle" x="0" y="440.4" style="font-family: 'IBM Plex Sans', sans-serif; font-size: 12px; fill: rgb(119, 119, 119); fill-opacity: 1; white-space: pre;" transform="translate(932,0)">30</text></g></g><g class="yaxislayer-above"><path class="ytick ticks crisp" d="M79,0h-5M933,0h5" transform="translate(0,420)" style="stroke: rgb(0, 0, 0); stroke-opacity: 0; stroke-width: 1px;"/><path class="ytick ticks crisp" d="M79,0h-5M933,0h5" transform="translate(0,345)" style="stroke: rgb(0, 0, 0); stroke-opacity: 0; stroke-width: 1px;"/><path class="ytick ticks crisp" d="M79,0h-5M933,0h5" transform="translate(0,270)" style="stroke: rgb(0, 0, 0); stroke-opacity: 0; stroke-width: 1px;"/><path class="ytick ticks crisp" d="M79,0h-5M933,0h5" transform="translate(0,195)" style="stroke: rgb(0, 0, 0); stroke-opacity: 0; stroke-width: 1px;"/><path class="ytick ticks crisp" d="M79,0h-5M933,0h5" transform="translate(0,120)" style="stroke: rgb(0, 0, 0); stroke-opacity: 0; stroke-width: 1px;"/><g class="ytick"><text text-anchor="end" x="71.6" y="4.199999999999999" transform="translate(0,420)" style="font-family: 'IBM Plex Sans', sans-serif; font-size: 12px; fill: rgb(119, 119, 119); fill-opacity: 1; white-space: pre;">0</text></g><g class="ytick"><text text-anchor="end" x="71.6" y="4.199999999999999" style="font-family: 'IBM Plex Sans', sans-serif; font-size: 12px; fill: rgb(119, 119, 119); fill-opacity: 1; white-space: pre;" transform="translate(0,345)">5</text></g><g class="ytick"><text text-anchor="end" x="71.6" y="4.199999999999999" style="font-family: 'IBM Plex Sans', sans-serif; font-size: 12px; fill: rgb(119, 119, 119); fill-opacity: 1; white-space: pre;" transform="translate(0,270)">10</text></g><g class="ytick"><text text-anchor="end" x="71.6" y="4.199999999999999" style="font-family: 'IBM Plex Sans', sans-serif; font-size: 12px; fill: rgb(119, 119, 119); fill-opacity: 1; white-space: pre;" transform="translate(0,195)">15</text></g><g class="ytick"><text text-anchor="end" x="71.6" y="4.199999999999999" style="font-family: 'IBM Plex Sans', sans-serif; font-size: 12px; fill: rgb(119, 119, 119); fill-opacity: 1; white-space: pre;" transform="translate(0,120)">20</text></g></g><g class="overaxes-above"/></g></g><g class="polarlayer"/><g class="smithlayer"/><g class="ternarylayer"/><g class="geolayer"/><g class="funnelarealayer"/><g class="pielayer"/><g class="iciclelayer"/><g class="treemaplayer"/><g class="sunburstlayer"/><g class="glimages"/><defs id="topdefs-dee495"><g class="clips"/><clipPath id="legenddee495"><rect width="140" height="29" x="0" y="0"/></clipPath></defs><g class="layer-above"><g class="imagelayer"/><g class="shapelayer"/></g><g class="infolayer"><g class="legend" pointer-events="all" transform="translate(436,82)"><rect class="bg" shape-rendering="crispEdges" style="stroke: rgb(68, 68, 68); stroke-opacity: 1; fill: rgb(255, 255, 255); fill-opacity: 1; stroke-width: 0px;" width="140" height="29" x="0" y="0"/><g class="scrollbox" transform="" clip-path="url(#legenddee495)"><g class="groups"><g class="traces" transform="translate(0,14.5)" style="opacity: 1;"><text class="legendtext" text-anchor="start" x="40" y="4.680000000000001" style="font-family: 'IBM Plex Sans', sans-serif; font-size: 12px; fill: rgb(119, 119, 119); fill-opacity: 1; white-space: pre;">Lion</text><g class="layers" style="opacity: 0.5;"><g class="legendfill"/><g class="legendlines"/><g class="legendsymbols"><g class="legendpoints"><path class="legendundefined" d="M6,6H-6V-6H6Z" transform="translate(20,0)" style="stroke-width: 0px; fill: rgb(203, 136, 151); fill-opacity: 1;"/></g></g></g><rect class="legendtoggle" x="0" y="-9.5" width="65.0546875" height="19" style="fill: rgb(0, 0, 0); fill-opacity: 0;"/></g><g class="traces" transform="translate(67.5546875,14.5)" style="opacity: 1;"><text class="legendtext" text-anchor="start" x="40" y="4.680000000000001" style="font-family: 'IBM Plex Sans', sans-serif; font-size: 12px; fill: rgb(119, 119, 119); fill-opacity: 1; white-space: pre;">Tiger</text><g class="layers" style="opacity: 0.5;"><g class="legendfill"/><g class="legendlines"/><g class="legendsymbols"><g class="legendpoints"><path class="legendundefined" d="M6,6H-6V-6H6Z" transform="translate(20,0)" style="stroke-width: 0px; fill: rgb(148, 173, 224); fill-opacity: 1;"/></g></g></g><rect class="legendtoggle" x="0" y="-9.5" width="69.625" height="19" style="fill: rgb(0, 0, 0); fill-opacity: 0;"/></g></g></g><rect class="scrollbar" rx="20" ry="3" width="0" height="0" style="fill: rgb(128, 139, 164); fill-opacity: 1;" x="0" y="0"/></g><g class="g-gtitle"><text class="gtitle" x="506" y="40" text-anchor="middle" dy="0.7em" style="opacity: 1; font-family: 'IBM Plex Sans', sans-serif; font-size: 17px; fill: rgb(68, 68, 68); fill-opacity: 1; font-weight: 600; white-space: pre;">Histogram</text></g><g class="g-xtitle"/><g class="g-ytitle"/></g></svg>