<svg class="main-svg" xmlns="http://www.w3.org/2000/svg" xmlns:xlink="http://www.w3.org/1999/xlink" width="1012" height="500" style="" viewBox="0 0 1012 500"><rect x="0" y="0" width="1012" height="500" style="fill: rgb(255, 255, 255); fill-opacity: 1;"/><defs id="defs-44209c"><g class="clips"><clipPath id="clip44209cxyplot" class="plotclip"><rect width="852" height="300"/></clipPath><clipPath class="axesclip" id="clip44209cx"><rect x="80" y="0" width="852" height="500"/></clipPath><clipPath class="axesclip" id="clip44209cy"><rect x="0" y="120" width="1012" height="300"/></clipPath><clipPath class="axesclip" id="clip44209cxy"><rect x="80" y="120" width="852" height="300"/></clipPath></g><g class="gradients"/><g class="patterns"/></defs><g class="bglayer"/><g class="layer-below"><g class="imagelayer"/><g class="shapelayer"/></g><g class="cartesianlayer"><g class="subplot xy"><g class="layer-subplot"><g class="shapelayer"/><g class="imagelayer"/></g><g class="minor-gridlayer"><g class="x"/><g class="y"/></g><g class="gridlayer"><g class="x"/><g class="y"><path class="ygrid crisp" transform="translate(0,362.85)" d="M80,0h852" style="stroke: rgb(238, 238, 238); stroke-opacity: 1; stroke-width: 1px;"/><path class="ygrid crisp" transform="translate(0,305.71000000000004)" d="M80,0h852" style="stroke: rgb(238, 238, 238); stroke-opacity: 1; stroke-width: 1px;"/><path class="ygrid crisp" transform="translate(0,248.56)" d="M80,0h852" style="stroke: rgb(238, 238, 238); stroke-opacity: 1; stroke-width: 1px;"/><path class="ygrid crisp" transform="translate(0,191.42000000000002)" d="M80,0h852" style="stroke: rgb(238, 238, 238); stroke-opacity: 1; stroke-width: 1px;"/><path class="ygrid crisp" transform="translate(0,134.27)" d="M80,0h852" style="stroke: rgb(238, 238, 238); stroke-opacity: 1; stroke-width: 1px;"/></g></g><g class="zerolinelayer"/><g class="layer-between"><g class="shapelayer"/><g class="imagelayer"/></g><path class="xlines-below"/><path class="ylines-below"/><g class="overlines-below"/><g class="xaxislayer-below"/><g class="yaxislayer-below"/><g class="overaxes-below"/><g class="overplot"><g class="xy" transform="translate(80,120)" clip-path="url(#clip44209cxyplot)"><g class="boxlayer mlayer"><g class="trace boxes" style="opacity: 1;"><path class="box" d="M143.37,223.83H172.26M143.37,265.17H172.26V162.19H143.37ZM157.82,265.17V283.51M157.82,162.19V123.56M150.59,283.51H165.04M150.59,123.56H165.04" style="vector-effect: none; stroke-width: 1px; stroke: rgb(203, 136, 151); stroke-opacity: 1; fill: rgb(203, 136, 151); fill-opacity: 0.5;"/><path class="box" d="M379.24,129.21H408.13M379.24,148.49H408.13V43.68H379.24ZM393.68,148.49V154.92M393.68,43.68V15.18M386.46,154.92H400.91M386.46,15.18H400.91" style="vector-effect: none; stroke-width: 1px; stroke: rgb(203, 136, 151); stroke-opacity: 1; fill: rgb(203, 136, 151); fill-opacity: 0.5;"/><path class="box" d="M615.1,165.57H644M615.1,260.23H644V114.02H615.1ZM629.55,260.23V291.78M629.55,114.02V96.83M622.33,291.78H636.77M622.33,96.83H636.77" style="vector-effect: none; stroke-width: 1px; stroke: rgb(203, 136, 151); stroke-opacity: 1; fill: rgb(203, 136, 151); fill-opacity: 0.5;"/><g class="points"><path class="point" transform="translate(131.17,283.51)" d="M1.5,0A1.5,1.5 0 1,1 0,-1.5A1.5,1.5 0 0,1 1.5,0Z" style="opacity: 1; stroke-width: 0px; fill: rgb(203, 136, 151); fill-opacity: 1;"/><path class="point" transform="translate(126.16,246.84)" d="M1.5,0A1.5,1.5 0 1,1 0,-1.5A1.5,1.5 0 0,1 1.5,0Z" style="opacity: 1; stroke-width: 0px; fill: rgb(203, 136, 151); fill-opacity: 1;"/><path class="point" transform="translate(132.28,200.82)" d="M1.5,0A1.5,1.5 0 1,1 0,-1.5A1.5,1.5 0 0,1 1.5,0Z" style="opacity: 1; stroke-width: 0px; fill: rgb(203, 136, 151); fill-opacity: 1;"/><path class="point" transform="translate(125.26,123.56)" d="M1.5,0A1.5,1.5 0 1,1 0,-1.5A1.5,1.5 0 0,1 1.5,0Z" style="opacity: 1; stroke-width: 0px; fill: rgb(203, 136, 151); fill-opacity: 1;"/></g><g class="points"><path class="point" transform="translate(363.72,154.92)" d="M1.5,0A1.5,1.5 0 1,1 0,-1.5A1.5,1.5 0 0,1 1.5,0Z" style="opacity: 1; stroke-width: 0px; fill: rgb(203, 136, 151); fill-opacity: 1;"/><path class="point" transform="translate(367.07,129.21)" d="M1.5,0A1.5,1.5 0 1,1 0,-1.5A1.5,1.5 0 0,1 1.5,0Z" style="opacity: 1; stroke-width: 0px; fill: rgb(203, 136, 151); fill-opacity: 1;"/><path class="point" transform="translate(364.63,15.18)" d="M1.5,0A1.5,1.5 0 1,1 0,-1.5A1.5,1.5 0 0,1 1.5,0Z" style="opacity: 1; stroke-width: 0px; fill: rgb(203, 136, 151); fill-opacity: 1;"/></g><g class="points"><path class="point" transform="translate(601.91,291.78)" d="M1.5,0A1.5,1.5 0 1,1 0,-1.5A1.5,1.5 0 0,1 1.5,0Z" style="opacity: 1; stroke-width: 0px; fill: rgb(203, 136, 151); fill-opacity: 1;"/><path class="point" transform="translate(599.27,165.57)" d="M1.5,0A1.5,1.5 0 1,1 0,-1.5A1.5,1.5 0 0,1 1.5,0Z" style="opacity: 1; stroke-width: 0px; fill: rgb(203, 136, 151); fill-opacity: 1;"/><path class="point" transform="translate(597.48,96.83)" d="M1.5,0A1.5,1.5 0 1,1 0,-1.5A1.5,1.5 0 0,1 1.5,0Z" style="opacity: 1; stroke-width: 0px; fill: rgb(203, 136, 151); fill-opacity: 1;"/></g><path class="mean" d="M143.37,213.68H172.26m0,0L157.82,273.39L143.37,213.68L157.82,153.97Z" style="fill: none; vector-effect: non-scaling-stroke; stroke-width: 1; stroke-dasharray: 2px, 1px; stroke: rgb(203, 136, 151); stroke-opacity: 1;"/><path class="mean" d="M379.24,99.77H408.13m0,0L393.68,160.5L379.24,99.77L393.68,39.04Z" style="fill: none; vector-effect: non-scaling-stroke; stroke-width: 1; stroke-dasharray: 2px, 1px; stroke: rgb(203, 136, 151); stroke-opacity: 1;"/><path class="mean" d="M615.1,184.73H644m0,0L629.55,265.46L615.1,184.73L629.55,104Z" style="fill: none; vector-effect: non-scaling-stroke; stroke-width: 1; stroke-dasharray: 2px, 1px; stroke: rgb(203, 136, 151); stroke-opacity: 1;"/></g><g class="trace boxes" style="opacity: 1;"><path class="box" d="M184.65,246.67H213.54M184.65,275.97H213.54V221.42H184.65ZM199.09,275.97V298.66M199.09,221.42V202.79M191.87,298.66H206.32M191.87,202.79H206.32" style="vector-effect: none; stroke-width: 1px; stroke: rgb(148, 173, 224); stroke-opacity: 1; fill: rgb(148, 173, 224); fill-opacity: 0.5;"/><path class="box" d="M420.51,123.36H449.41M420.51,202.92H449.41V91.06H420.51ZM434.96,202.92V229.44M434.96,91.06V80.29M427.74,229.44H442.18M427.74,80.29H442.18" style="vector-effect: none; stroke-width: 1px; stroke: rgb(148, 173, 224); stroke-opacity: 1; fill: rgb(148, 173, 224); fill-opacity: 0.5;"/><path class="box" d="M656.38,264.37H685.27M656.38,278.16H685.27V77.34H656.38ZM670.83,278.16V282.75M670.83,77.34V15M663.6,282.75H678.05M663.6,15H678.05" style="vector-effect: none; stroke-width: 1px; stroke: rgb(148, 173, 224); stroke-opacity: 1; fill: rgb(148, 173, 224); fill-opacity: 0.5;"/><g class="points"><path class="point" transform="translate(172.45,298.66)" d="M1.5,0A1.5,1.5 0 1,1 0,-1.5A1.5,1.5 0 0,1 1.5,0Z" style="opacity: 1; stroke-width: 0px; fill: rgb(148, 173, 224); fill-opacity: 1;"/><path class="point" transform="translate(167.44,253.29)" d="M1.5,0A1.5,1.5 0 1,1 0,-1.5A1.5,1.5 0 0,1 1.5,0Z" style="opacity: 1; stroke-width: 0px; fill: rgb(148, 173, 224); fill-opacity: 1;"/><path class="point" transform="translate(173.56,240.05)" d="M1.5,0A1.5,1.5 0 1,1 0,-1.5A1.5,1.5 0 0,1 1.5,0Z" style="opacity: 1; stroke-width: 0px; fill: rgb(148, 173, 224); fill-opacity: 1;"/><path class="point" transform="translate(166.53,202.79)" d="M1.5,0A1.5,1.5 0 1,1 0,-1.5A1.5,1.5 0 0,1 1.5,0Z" style="opacity: 1; stroke-width: 0px; fill: rgb(148, 173, 224); fill-opacity: 1;"/></g><g class="points"><path class="point" transform="translate(405,229.44)" d="M1.5,0A1.5,1.5 0 1,1 0,-1.5A1.5,1.5 0 0,1 1.5,0Z" style="opacity: 1; stroke-width: 0px; fill: rgb(148, 173, 224); fill-opacity: 1;"/><path class="point" transform="translate(408.34,123.36)" d="M1.5,0A1.5,1.5 0 1,1 0,-1.5A1.5,1.5 0 0,1 1.5,0Z" style="opacity: 1; stroke-width: 0px; fill: rgb(148, 173, 224); fill-opacity: 1;"/><path class="point" transform="translate(405.91,80.29)" d="M1.5,0A1.5,1.5 0 1,1 0,-1.5A1.5,1.5 0 0,1 1.5,0Z" style="opacity: 1; stroke-width: 0px; fill: rgb(148, 173, 224); fill-opacity: 1;"/></g><g class="points"><path class="point" transform="translate(643.19,282.75)" d="M1.5,0A1.5,1.5 0 1,1 0,-1.5A1.5,1.5 0 0,1 1.5,0Z" style="opacity: 1; stroke-width: 0px; fill: rgb(148, 173, 224); fill-opacity: 1;"/><path class="point" transform="translate(640.55,264.37)" d="M1.5,0A1.5,1.5 0 1,1 0,-1.5A1.5,1.5 0 0,1 1.5,0Z" style="opacity: 1; stroke-width: 0px; fill: rgb(148, 173, 224); fill-opacity: 1;"/><path class="point" transform="translate(638.76,15)" d="M1.5,0A1.5,1.5 0 1,1 0,-1.5A1.5,1.5 0 0,1 1.5,0Z" style="opacity: 1; stroke-width: 0px; fill: rgb(148, 173, 224); fill-opacity: 1;"/></g><path class="mean" d="M184.65,248.7H213.54m0,0L199.09,282.97L184.65,248.7L199.09,214.42Z" style="fill: none; vector-effect: non-scaling-stroke; stroke-width: 1; stroke-dasharray: 2px, 1px; stroke: rgb(148, 173, 224); stroke-opacity: 1;"/><path class="mean" d="M420.51,144.36H449.41m0,0L434.96,207.04L420.51,144.36L434.96,81.69Z" style="fill: none; vector-effect: non-scaling-stroke; stroke-width: 1; stroke-dasharray: 2px, 1px; stroke: rgb(148, 173, 224); stroke-opacity: 1;"/><path class="mean" d="M656.38,187.37H685.27m0,0L670.83,309.49L656.38,187.37L670.83,65.26Z" style="fill: none; vector-effect: non-scaling-stroke; stroke-width: 1; stroke-dasharray: 2px, 1px; stroke: rgb(148, 173, 224); stroke-opacity: 1;"/></g><g class="trace boxes" style="opacity: 1;"><path class="box" d="M225.92,187.48H254.82M225.92,227.97H254.82V178.93H225.92ZM240.37,227.97V265.63M240.37,178.93V173.22M233.15,265.63H247.59M233.15,173.22H247.59" style="vector-effect: none; stroke-width: 1px; stroke: rgb(243, 186, 112); stroke-opacity: 1; fill: rgb(243, 186, 112); fill-opacity: 0.5;"/><path class="box" d="M461.79,217.13H490.68M461.79,220.92H490.68V204.62H461.79ZM476.24,220.92V222.19M476.24,204.62V200.45M469.01,222.19H483.46M469.01,200.45H483.46" style="vector-effect: none; stroke-width: 1px; stroke: rgb(243, 186, 112); stroke-opacity: 1; fill: rgb(243, 186, 112); fill-opacity: 0.5;"/><path class="box" d="M697.66,105.44H726.55M697.66,207.08H726.55V63.74H697.66ZM712.1,207.08V240.97M712.1,63.74V49.84M704.88,240.97H719.33M704.88,49.84H719.33" style="vector-effect: none; stroke-width: 1px; stroke: rgb(243, 186, 112); stroke-opacity: 1; fill: rgb(243, 186, 112); fill-opacity: 0.5;"/><g class="points"><path class="point" transform="translate(213.73,265.63)" d="M1.5,0A1.5,1.5 0 1,1 0,-1.5A1.5,1.5 0 0,1 1.5,0Z" style="opacity: 1; stroke-width: 0px; fill: rgb(243, 186, 112); fill-opacity: 1;"/><path class="point" transform="translate(208.71,190.31)" d="M1.5,0A1.5,1.5 0 1,1 0,-1.5A1.5,1.5 0 0,1 1.5,0Z" style="opacity: 1; stroke-width: 0px; fill: rgb(243, 186, 112); fill-opacity: 1;"/><path class="point" transform="translate(214.84,184.65)" d="M1.5,0A1.5,1.5 0 1,1 0,-1.5A1.5,1.5 0 0,1 1.5,0Z" style="opacity: 1; stroke-width: 0px; fill: rgb(243, 186, 112); fill-opacity: 1;"/><path class="point" transform="translate(207.81,173.22)" d="M1.5,0A1.5,1.5 0 1,1 0,-1.5A1.5,1.5 0 0,1 1.5,0Z" style="opacity: 1; stroke-width: 0px; fill: rgb(243, 186, 112); fill-opacity: 1;"/></g><g class="points"><path class="point" transform="translate(446.28,222.19)" d="M1.5,0A1.5,1.5 0 1,1 0,-1.5A1.5,1.5 0 0,1 1.5,0Z" style="opacity: 1; stroke-width: 0px; fill: rgb(243, 186, 112); fill-opacity: 1;"/><path class="point" transform="translate(449.62,217.13)" d="M1.5,0A1.5,1.5 0 1,1 0,-1.5A1.5,1.5 0 0,1 1.5,0Z" style="opacity: 1; stroke-width: 0px; fill: rgb(243, 186, 112); fill-opacity: 1;"/><path class="point" transform="translate(447.18,200.45)" d="M1.5,0A1.5,1.5 0 1,1 0,-1.5A1.5,1.5 0 0,1 1.5,0Z" style="opacity: 1; stroke-width: 0px; fill: rgb(243, 186, 112); fill-opacity: 1;"/></g><g class="points"><path class="point" transform="translate(684.47,240.97)" d="M1.5,0A1.5,1.5 0 1,1 0,-1.5A1.5,1.5 0 0,1 1.5,0Z" style="opacity: 1; stroke-width: 0px; fill: rgb(243, 186, 112); fill-opacity: 1;"/><path class="point" transform="translate(681.83,105.44)" d="M1.5,0A1.5,1.5 0 1,1 0,-1.5A1.5,1.5 0 0,1 1.5,0Z" style="opacity: 1; stroke-width: 0px; fill: rgb(243, 186, 112); fill-opacity: 1;"/><path class="point" transform="translate(680.03,49.84)" d="M1.5,0A1.5,1.5 0 1,1 0,-1.5A1.5,1.5 0 0,1 1.5,0Z" style="opacity: 1; stroke-width: 0px; fill: rgb(243, 186, 112); fill-opacity: 1;"/></g><path class="mean" d="M225.92,203.45H254.82m0,0L240.37,239.87L225.92,203.45L240.37,167.03Z" style="fill: none; vector-effect: non-scaling-stroke; stroke-width: 1; stroke-dasharray: 2px, 1px; stroke: rgb(243, 186, 112); stroke-opacity: 1;"/><path class="mean" d="M461.79,213.26H490.68m0,0L476.24,222.54L461.79,213.26L476.24,203.97Z" style="fill: none; vector-effect: non-scaling-stroke; stroke-width: 1; stroke-dasharray: 2px, 1px; stroke: rgb(243, 186, 112); stroke-opacity: 1;"/><path class="mean" d="M697.66,132.08H726.55m0,0L712.1,212.35L697.66,132.08L712.1,51.81Z" style="fill: none; vector-effect: non-scaling-stroke; stroke-width: 1; stroke-dasharray: 2px, 1px; stroke: rgb(243, 186, 112); stroke-opacity: 1;"/></g><g class="trace boxes" style="opacity: 1;"><path class="box" d="M267.2,277.14H296.09M267.2,283.72H296.09V178.14H267.2ZM281.65,283.72V287.05M281.65,178.14V82.38M274.42,287.05H288.87M274.42,82.38H288.87" style="vector-effect: none; stroke-width: 1px; stroke: rgb(232, 97, 193); stroke-opacity: 1; fill: rgb(232, 97, 193); fill-opacity: 0.5;"/><path class="box" d="M503.07,144.75H531.96M503.07,242.49H531.96V83.61H503.07ZM517.51,242.49V275.08M517.51,83.61V63.23M510.29,275.08H524.74M510.29,63.23H524.74" style="vector-effect: none; stroke-width: 1px; stroke: rgb(232, 97, 193); stroke-opacity: 1; fill: rgb(232, 97, 193); fill-opacity: 0.5;"/><path class="box" d="M738.93,119.21H767.83M738.93,216.31H767.83V104.35H738.93ZM753.38,216.31V248.68M753.38,104.35V99.4M746.16,248.68H760.61M746.16,99.4H760.61" style="vector-effect: none; stroke-width: 1px; stroke: rgb(232, 97, 193); stroke-opacity: 1; fill: rgb(232, 97, 193); fill-opacity: 0.5;"/><g class="points"><path class="point" transform="translate(255,287.05)" d="M1.5,0A1.5,1.5 0 1,1 0,-1.5A1.5,1.5 0 0,1 1.5,0Z" style="opacity: 1; stroke-width: 0px; fill: rgb(232, 97, 193); fill-opacity: 1;"/><path class="point" transform="translate(249.99,280.38)" d="M1.5,0A1.5,1.5 0 1,1 0,-1.5A1.5,1.5 0 0,1 1.5,0Z" style="opacity: 1; stroke-width: 0px; fill: rgb(232, 97, 193); fill-opacity: 1;"/><path class="point" transform="translate(256.11,273.89)" d="M1.5,0A1.5,1.5 0 1,1 0,-1.5A1.5,1.5 0 0,1 1.5,0Z" style="opacity: 1; stroke-width: 0px; fill: rgb(232, 97, 193); fill-opacity: 1;"/><path class="point" transform="translate(249.09,82.38)" d="M1.5,0A1.5,1.5 0 1,1 0,-1.5A1.5,1.5 0 0,1 1.5,0Z" style="opacity: 1; stroke-width: 0px; fill: rgb(232, 97, 193); fill-opacity: 1;"/></g><g class="points"><path class="point" transform="translate(487.55,275.08)" d="M1.5,0A1.5,1.5 0 1,1 0,-1.5A1.5,1.5 0 0,1 1.5,0Z" style="opacity: 1; stroke-width: 0px; fill: rgb(232, 97, 193); fill-opacity: 1;"/><path class="point" transform="translate(490.9,144.75)" d="M1.5,0A1.5,1.5 0 1,1 0,-1.5A1.5,1.5 0 0,1 1.5,0Z" style="opacity: 1; stroke-width: 0px; fill: rgb(232, 97, 193); fill-opacity: 1;"/><path class="point" transform="translate(488.46,63.23)" d="M1.5,0A1.5,1.5 0 1,1 0,-1.5A1.5,1.5 0 0,1 1.5,0Z" style="opacity: 1; stroke-width: 0px; fill: rgb(232, 97, 193); fill-opacity: 1;"/></g><g class="points"><path class="point" transform="translate(725.74,248.68)" d="M1.5,0A1.5,1.5 0 1,1 0,-1.5A1.5,1.5 0 0,1 1.5,0Z" style="opacity: 1; stroke-width: 0px; fill: rgb(232, 97, 193); fill-opacity: 1;"/><path class="point" transform="translate(723.11,119.21)" d="M1.5,0A1.5,1.5 0 1,1 0,-1.5A1.5,1.5 0 0,1 1.5,0Z" style="opacity: 1; stroke-width: 0px; fill: rgb(232, 97, 193); fill-opacity: 1;"/><path class="point" transform="translate(721.31,99.4)" d="M1.5,0A1.5,1.5 0 1,1 0,-1.5A1.5,1.5 0 0,1 1.5,0Z" style="opacity: 1; stroke-width: 0px; fill: rgb(232, 97, 193); fill-opacity: 1;"/></g><path class="mean" d="M267.2,230.93H296.09m0,0L281.65,316.81L267.2,230.93L281.65,145.04Z" style="fill: none; vector-effect: non-scaling-stroke; stroke-width: 1; stroke-dasharray: 2px, 1px; stroke: rgb(232, 97, 193); stroke-opacity: 1;"/><path class="mean" d="M503.07,161.02H531.96m0,0L517.51,248.27L503.07,161.02L517.51,73.77Z" style="fill: none; vector-effect: non-scaling-stroke; stroke-width: 1; stroke-dasharray: 2px, 1px; stroke: rgb(232, 97, 193); stroke-opacity: 1;"/><path class="mean" d="M738.93,155.76H767.83m0,0L753.38,221.96L738.93,155.76L753.38,89.57Z" style="fill: none; vector-effect: non-scaling-stroke; stroke-width: 1; stroke-dasharray: 2px, 1px; stroke: rgb(232, 97, 193); stroke-opacity: 1;"/></g></g></g></g><g class="zerolinelayer-above"/><path class="xlines-above crisp" d="M79,420.5H933M79,119.5H933" style="fill: none; stroke-width: 1px; stroke: rgb(204, 204, 204); stroke-opacity: 1;"/><path class="ylines-above crisp" d="M79.5,120V420M932.5,120V420" style="fill: none; stroke-width: 1px; stroke: rgb(204, 204, 204); stroke-opacity: 1;"/><g class="overlines-above"/><g class="xaxislayer-above"><path class="xtick ticks crisp" d="M0,421v5M0,119v-5" transform="translate(299.73,0)" style="stroke: rgb(0, 0, 0); stroke-opacity: 0; stroke-width: 1px;"/><path class="xtick ticks crisp" d="M0,421v5M0,119v-5" transform="translate(535.6,0)" style="stroke: rgb(0, 0, 0); stroke-opacity: 0; stroke-width: 1px;"/><path class="xtick ticks crisp" d="M0,421v5M0,119v-5" transform="translate(771.47,0)" style="stroke: rgb(0, 0, 0); stroke-opacity: 0; stroke-width: 1px;"/><g class="xtick"><text text-anchor="middle" x="0" y="440.4" transform="translate(299.73,0)" style="font-family: 'IBM Plex Sans', sans-serif; font-size: 12px; fill: rgb(119, 119, 119); fill-opacity: 1; white-space: pre;">A</text></g><g class="xtick"><text text-anchor="middle" x="0" y="440.4" transform="translate(535.6,0)" style="font-family: 'IBM Plex Sans', sans-serif; font-size: 12px; fill: rgb(119, 119, 119); fill-opacity: 1; white-space: pre;">B</text></g><g class="xtick"><text text-anchor="middle" x="0" y="440.4" transform="translate(771.47,0)" style="font-family: 'IBM Plex Sans', sans-serif; font-size: 12px; fill: rgb(119, 119, 119); fill-opacity: 1; white-space: pre;">C</text></g></g><g class="yaxislayer-above"><path class="ytick ticks crisp" d="M79,0h-5M933,0h5" transform="translate(0,420)" style="stroke: rgb(0, 0, 0); stroke-opacity: 0; stroke-width: 1px;"/><path class="ytick ticks crisp" d="M79,0h-5M933,0h5" transform="translate(0,362.85)" style="stroke: rgb(0, 0, 0); stroke-opacity: 0; stroke-width: 1px;"/><path class="ytick ticks crisp" d="M79,0h-5M933,0h5" transform="translate(0,305.71000000000004)" style="stroke: rgb(0, 0, 0); stroke-opacity: 0; stroke-width: 1px;"/><path class="ytick ticks crisp" d="M79,0h-5M933,0h5" transform="translate(0,248.56)" style="stroke: rgb(0, 0, 0); stroke-opacity: 0; stroke-width: 1px;"/><path class="ytick ticks crisp" d="M79,0h-5M933,0h5" transform="translate(0,191.42000000000002)" style="stroke: rgb(0, 0, 0); stroke-opacity: 0; stroke-width: 1px;"/><path class="ytick ticks crisp" d="M79,0h-5M933,0h5" transform="translate(0,134.27)" style="stroke: rgb(0, 0, 0); stroke-opacity: 0; stroke-width: 1px;"/><g class="ytick"><text text-anchor="end" x="71.6" y="4.199999999999999" transform="translate(0,420)" style="font-family: 'IBM Plex Sans', sans-serif; font-size: 12px; fill: rgb(119, 119, 119); fill-opacity: 1; white-space: pre;">0</text></g><g class="ytick"><text text-anchor="end" x="71.6" y="4.199999999999999" style="font-family: 'IBM Plex Sans', sans-serif; font-size: 12px; fill: rgb(119, 119, 119); fill-opacity: 1; white-space: pre;" transform="translate(0,362.85)">0.2</text></g><g class="ytick"><text text-anchor="end" x="71.6" y="4.199999999999999" style="font-family: 'IBM Plex Sans', sans-serif; font-size: 12px; fill: rgb(119, 119, 119); fill-opacity: 1; white-space: pre;" transform="translate(0,305.71000000000004)">0.4</text></g><g class="ytick"><text text-anchor="end" x="71.6" y="4.199999999999999" style="font-family: 'IBM Plex Sans', sans-serif; font-size: 12px; fill: rgb(119, 119, 119); fill-opacity: 1; white-space: pre;" transform="translate(0,248.56)">0.6</text></g><g class="ytick"><text text-anchor="end" x="71.6" y="4.199999999999999" style="font-family: 'IBM Plex Sans', sans-serif; font-size: 12px; fill: rgb(119, 119, 119); fill-opacity: 1; white-space: pre;" transform="translate(0,191.42000000000002)">0.8</text></g><g class="ytick"><text text-anchor="end" x="71.6" y="4.199999999999999" style="font-family: 'IBM Plex Sans', sans-serif; font-size: 12px; fill: rgb(119, 119, 119); fill-opacity: 1; white-space: pre;" transform="translate(0,134.27)">1</text></g></g><g class="overaxes-above"/></g></g><g class="polarlayer"/><g class="smithlayer"/><g class="ternarylayer"/><g class="geolayer"/><g class="funnelarealayer"/><g class="pielayer"/><g class="iciclelayer"/><g class="treemaplayer"/><g class="sunburstlayer"/><g class="glimages"/><defs id="topdefs-44209c"><g class="clips"/><clipPath id="legend44209c"><rect width="315" height="29" x="0" y="0"/></clipPath></defs><g class="layer-above"><g class="imagelayer"/><g class="shapelayer"/></g><g class="infolayer"><g class="legend" pointer-events="all" transform="translate(348.5,82)"><rect class="bg" shape-rendering="crispEdges" style="stroke: rgb(68, 68, 68); stroke-opacity: 1; fill: rgb(255, 255, 255); fill-opacity: 1; stroke-width: 0px;" width="315" height="29" x="0" y="0"/><g class="scrollbox" transform="" clip-path="url(#legend44209c)"><g class="groups"><g class="traces" transform="translate(0,14.5)" style="opacity: 1;"><text class="legendtext" text-anchor="start" x="40" y="4.680000000000001" style="font-family: 'IBM Plex Sans', sans-serif; font-size: 12px; fill: rgb(119, 119, 119); fill-opacity: 1; white-space: pre;">Lion</text><g class="layers" style="opacity: 1;"><g class="legendfill"/><g class="legendlines"/><g class="legendsymbols"><g class="legendpoints"><path class="legendbox" d="M6,6H-6V-6H6Z" transform="translate(20,0)" style="stroke-width: 1px; fill: rgb(203, 136, 151); fill-opacity: 0.5; stroke: rgb(203, 136, 151); stroke-opacity: 1;"/></g></g></g><rect class="legendtoggle" x="0" y="-9.5" width="65.0546875" height="19" style="fill: rgb(0, 0, 0); fill-opacity: 0;"/></g><g class="traces" transform="translate(67.5546875,14.5)" style="opacity: 1;"><text class="legendtext" text-anchor="start" x="40" y="4.680000000000001" style="font-family: 'IBM Plex Sans', sans-serif; font-size: 12px; fill: rgb(119, 119, 119); fill-opacity: 1; white-space: pre;">Tiger</text><g class="layers" style="opacity: 1;"><g class="legendfill"/><g class="legendlines"/><g class="legendsymbols"><g class="legendpoints"><path class="legendbox" d="M6,6H-6V-6H6Z" transform="translate(20,0)" style="stroke-width: 1px; fill: rgb(148, 173, 224); fill-opacity: 0.5; stroke: rgb(148, 173, 224); stroke-opacity: 1;"/></g></g></g><rect class="legendtoggle" x="0" y="-9.5" width="69.625" height="19" style="fill: rgb(0, 0, 0); fill-opacity: 0;"/></g><g class="traces" transform="translate(139.6796875,14.5)" style="opacity: 1;"><text class="legendtext" text-anchor="start" x="40" y="4.680000000000001" style="font-family: 'IBM Plex Sans', sans-serif; font-size: 12px; fill: rgb(119, 119, 119); fill-opacity: 1; white-space: pre;">Elephant</text><g class="layers" style="opacity: 1;"><g class="legendfill"/><g class="legendlines"/><g class="legendsymbols"><g class="legendpoints"><path class="legendbox" d="M6,6H-6V-6H6Z" transform="translate(20,0)" style="stroke-width: 1px; fill: rgb(243, 186, 112); fill-opacity: 0.5; stroke: rgb(243, 186, 112); stroke-opacity: 1;"/></g></g></g><rect class="legendtoggle" x="0" y="-9.5" width="90.5625" height="19" style="fill: rgb(0, 0, 0); fill-opacity: 0;"/></g><g class="traces" transform="translate(232.7421875,14.5)" style="opacity: 1;"><text class="legendtext" text-anchor="start" x="40" y="4.680000000000001" style="font-family: 'IBM Plex Sans', sans-serif; font-size: 12px; fill: rgb(119, 119, 119); fill-opacity: 1; white-space: pre;">Giraffe</text><g class="layers" style="opacity: 1;"><g class="legendfill"/><g class="legendlines"/><g class="legendsymbols"><g class="legendpoints"><path class="legendbox" d="M6,6H-6V-6H6Z" transform="translate(20,0)" style="stroke-width: 1px; fill: rgb(232, 97, 193); fill-opacity: 0.5; stroke: rgb(232, 97, 193); stroke-opacity: 1;"/></g></g></g><rect class="legendtoggle" x="0" y="-9.5" width="78.921875" height="19" style="fill: rgb(0, 0, 0); fill-opacity: 0;"/></g></g></g><rect class="scrollbar" rx="20" ry="3" width="0" height="0" style="fill: rgb(128, 139, 164); fill-opacity: 1;" x="0" y="0"/></g><g class="g-gtitle"><text class="gtitle" x="506" y="40" text-anchor="middle" dy="0.7em" style="opacity: 1; font-family: 'IBM Plex Sans', sans-serif; font-size: 17px; fill: rgb(68, 68, 68); fill-opacity: 1; font-weight: 600; white-space: pre;">Boxplot with mean &amp; standard deviation</text></g><g class="g-xtitle"/><g class="g-ytitle"/></g></svg>