<svg class="main-svg" xmlns="http://www.w3.org/2000/svg" xmlns:xlink="http://www.w3.org/1999/xlink" width="1012" height="500" style="" viewBox="0 0 1012 500"><rect x="0" y="0" width="1012" height="500" style="fill: rgb(255, 255, 255); fill-opacity: 1;"/><defs id="defs-0ba52e"><g class="clips"><clipPath id="clip0ba52exyplot" class="plotclip"><rect width="852" height="340"/></clipPath><clipPath class="axesclip" id="clip0ba52ex"><rect x="80" y="0" width="852" height="500"/></clipPath><clipPath class="axesclip" id="clip0ba52ey"><rect x="0" y="80" width="1012" height="340"/></clipPath><clipPath class="axesclip" id="clip0ba52exy"><rect x="80" y="80" width="852" height="340"/></clipPath></g><g class="gradients"/><g class="patterns"/></defs><g class="bglayer"/><g class="layer-below"><g class="imagelayer"/><g class="shapelayer"/></g><g class="cartesianlayer"><g class="subplot xy"><g class="layer-subplot"><g class="shapelayer"/><g class="imagelayer"/></g><g class="minor-gridlayer"><g class="x"/><g class="y"/></g><g class="gridlayer"><g class="x"/><g class="y"><path class="ygrid crisp" transform="translate(0,354.49)" d="M80,0h852" style="stroke: rgb(238, 238, 238); stroke-opacity: 1; stroke-width: 1px;"/><path class="ygrid crisp" transform="translate(0,288.98)" d="M80,0h852" style="stroke: rgb(238, 238, 238); stroke-opacity: 1; stroke-width: 1px;"/><path class="ygrid crisp" transform="translate(0,223.47)" d="M80,0h852" style="stroke: rgb(238, 238, 238); stroke-opacity: 1; stroke-width: 1px;"/><path class="ygrid crisp" transform="translate(0,157.95999999999998)" d="M80,0h852" style="stroke: rgb(238, 238, 238); stroke-opacity: 1; stroke-width: 1px;"/><path class="ygrid crisp" transform="translate(0,92.45)" d="M80,0h852" style="stroke: rgb(238, 238, 238); stroke-opacity: 1; stroke-width: 1px;"/></g></g><g class="zerolinelayer"/><g class="layer-between"><g class="shapelayer"/><g class="imagelayer"/></g><path class="xlines-below"/><path class="ylines-below"/><g class="overlines-below"/><g class="xaxislayer-below"/><g class="yaxislayer-below"/><g class="overaxes-below"/><g class="overplot"><g class="xy" transform="translate(80,80)" clip-path="url(#clip0ba52exyplot)"><g class="boxlayer mlayer"><g class="trace boxes" style="opacity: 1;"><path class="box" d="M50.06,221.28H84.85M50.06,281.45H84.85V148.27H50.06ZM67.45,281.45V322.24M67.45,148.27V94.64M58.75,322.24H76.15M58.75,94.64H76.15" style="vector-effect: none; stroke-width: 1px; stroke: rgb(203, 136, 151); stroke-opacity: 1; fill: rgb(203, 136, 151); fill-opacity: 0.5;"/><path class="box" d="M334.06,276.13H368.85M334.06,279.8H368.85V137.94H334.06ZM351.45,279.8V281.02M351.45,137.94V91.88M342.75,281.02H360.15M342.75,91.88H360.15" style="vector-effect: none; stroke-width: 1px; stroke: rgb(203, 136, 151); stroke-opacity: 1; fill: rgb(203, 136, 151); fill-opacity: 0.5;"/><path class="box" d="M618.06,160.01H652.85M618.06,260.65H652.85V52.75H618.06ZM635.45,260.65V294.19M635.45,52.75V17M626.75,294.19H644.15M626.75,17H644.15" style="vector-effect: none; stroke-width: 1px; stroke: rgb(203, 136, 151); stroke-opacity: 1; fill: rgb(203, 136, 151); fill-opacity: 0.5;"/><path class="mean" d="M50.06,214.86H84.85m0,0L67.45,296.74L50.06,214.86L67.45,132.98Z" style="fill: none; vector-effect: non-scaling-stroke; stroke-width: 1; stroke-dasharray: 2px, 1px; stroke: rgb(203, 136, 151); stroke-opacity: 1;"/><path class="mean" d="M334.06,216.34H368.85m0,0L351.45,304.37L334.06,216.34L351.45,128.31Z" style="fill: none; vector-effect: non-scaling-stroke; stroke-width: 1; stroke-dasharray: 2px, 1px; stroke: rgb(203, 136, 151); stroke-opacity: 1;"/><path class="mean" d="M618.06,157.07H652.85m0,0L635.45,270.25L618.06,157.07L635.45,43.88Z" style="fill: none; vector-effect: non-scaling-stroke; stroke-width: 1; stroke-dasharray: 2px, 1px; stroke: rgb(203, 136, 151); stroke-opacity: 1;"/></g><g class="trace boxes" style="opacity: 1;"><path class="box" d="M99.76,258.2H134.54M99.76,290.01H134.54V221.13H99.76ZM117.15,290.01V313.42M117.15,221.13V192.46M108.45,313.42H125.85M108.45,192.46H125.85" style="vector-effect: none; stroke-width: 1px; stroke: rgb(148, 173, 224); stroke-opacity: 1; fill: rgb(148, 173, 224); fill-opacity: 0.5;"/><path class="box" d="M383.76,78.95H418.55M383.76,188.97H418.55V76.63H383.76ZM401.15,188.97V225.64M401.15,76.63V75.85M392.45,225.64H409.85M392.45,75.85H409.85" style="vector-effect: none; stroke-width: 1px; stroke: rgb(148, 173, 224); stroke-opacity: 1; fill: rgb(148, 173, 224); fill-opacity: 0.5;"/><path class="box" d="M667.76,202.05H702.55M667.76,299.29H702.55V83.23H667.76ZM685.15,299.29V331.7M685.15,83.23V43.63M676.45,331.7H693.85M676.45,43.63H693.85" style="vector-effect: none; stroke-width: 1px; stroke: rgb(148, 173, 224); stroke-opacity: 1; fill: rgb(148, 173, 224); fill-opacity: 0.5;"/><path class="mean" d="M99.76,255.57H134.54m0,0L117.15,298.83L99.76,255.57L117.15,212.31Z" style="fill: none; vector-effect: non-scaling-stroke; stroke-width: 1; stroke-dasharray: 2px, 1px; stroke: rgb(148, 173, 224); stroke-opacity: 1;"/><path class="mean" d="M383.76,126.82H418.55m0,0L401.15,196.71L383.76,126.82L401.15,56.92Z" style="fill: none; vector-effect: non-scaling-stroke; stroke-width: 1; stroke-dasharray: 2px, 1px; stroke: rgb(148, 173, 224); stroke-opacity: 1;"/><path class="mean" d="M667.76,192.46H702.55m0,0L685.15,310.26L667.76,192.46L685.15,74.66Z" style="fill: none; vector-effect: non-scaling-stroke; stroke-width: 1; stroke-dasharray: 2px, 1px; stroke: rgb(148, 173, 224); stroke-opacity: 1;"/></g><g class="trace boxes" style="opacity: 1;"><path class="box" d="M149.46,70.7H184.25M149.46,133.42H184.25V53.42H149.46ZM166.85,133.42V182.48M166.85,53.42V49.8M158.15,182.48H175.55M158.15,49.8H175.55" style="vector-effect: none; stroke-width: 1px; stroke: rgb(243, 186, 112); stroke-opacity: 1; fill: rgb(243, 186, 112); fill-opacity: 0.5;"/><path class="box" d="M433.46,241.51H468.25M433.46,250.9H468.25V115.05H433.46ZM450.85,250.9V254.03M450.85,115.05V72.89M442.15,254.03H459.55M442.15,72.89H459.55" style="vector-effect: none; stroke-width: 1px; stroke: rgb(243, 186, 112); stroke-opacity: 1; fill: rgb(243, 186, 112); fill-opacity: 0.5;"/><path class="box" d="M717.46,106.99H752.24M717.46,245.58H752.24V95.04H717.46ZM734.85,245.58V291.78M734.85,95.04V91.06M726.15,291.78H743.55M726.15,91.06H743.55" style="vector-effect: none; stroke-width: 1px; stroke: rgb(243, 186, 112); stroke-opacity: 1; fill: rgb(243, 186, 112); fill-opacity: 0.5;"/><path class="mean" d="M149.46,93.42H184.25m0,0L166.85,146.43L149.46,93.42L166.85,40.41Z" style="fill: none; vector-effect: non-scaling-stroke; stroke-width: 1; stroke-dasharray: 2px, 1px; stroke: rgb(243, 186, 112); stroke-opacity: 1;"/><path class="mean" d="M433.46,189.48H468.25m0,0L450.85,272.07L433.46,189.48L450.85,106.88Z" style="fill: none; vector-effect: non-scaling-stroke; stroke-width: 1; stroke-dasharray: 2px, 1px; stroke: rgb(243, 186, 112); stroke-opacity: 1;"/><path class="mean" d="M717.46,163.28H752.24m0,0L734.85,254.37L717.46,163.28L734.85,72.18Z" style="fill: none; vector-effect: non-scaling-stroke; stroke-width: 1; stroke-dasharray: 2px, 1px; stroke: rgb(243, 186, 112); stroke-opacity: 1;"/></g><g class="trace boxes" style="opacity: 1;"><path class="box" d="M199.15,241.8H233.95M199.15,280.11H233.95V121.42H199.15ZM216.55,280.11V288.46M216.55,121.42V30.99M207.85,288.46H225.25M207.85,30.99H225.25" style="vector-effect: none; stroke-width: 1px; stroke: rgb(232, 97, 193); stroke-opacity: 1; fill: rgb(232, 97, 193); fill-opacity: 0.5;"/><path class="box" d="M483.16,242.73H517.94M483.16,307H517.94V184.68H483.16ZM500.55,307V328.42M500.55,184.68V165.33M491.85,328.42H509.25M491.85,165.33H509.25" style="vector-effect: none; stroke-width: 1px; stroke: rgb(232, 97, 193); stroke-opacity: 1; fill: rgb(232, 97, 193); fill-opacity: 0.5;"/><path class="box" d="M767.16,222.77H801.95M767.16,236.06H801.95V76.94H767.16ZM784.55,236.06V240.49M784.55,76.94V28.33M775.85,240.49H793.25M775.85,28.33H793.25" style="vector-effect: none; stroke-width: 1px; stroke: rgb(232, 97, 193); stroke-opacity: 1; fill: rgb(232, 97, 193); fill-opacity: 0.5;"/><path class="mean" d="M199.15,200.76H233.95m0,0L216.55,302.84L199.15,200.76L216.55,98.69Z" style="fill: none; vector-effect: non-scaling-stroke; stroke-width: 1; stroke-dasharray: 2px, 1px; stroke: rgb(232, 97, 193); stroke-opacity: 1;"/><path class="mean" d="M483.16,245.5H517.94m0,0L500.55,312.1L483.16,245.5L500.55,178.89Z" style="fill: none; vector-effect: non-scaling-stroke; stroke-width: 1; stroke-dasharray: 2px, 1px; stroke: rgb(232, 97, 193); stroke-opacity: 1;"/><path class="mean" d="M767.16,163.86H801.95m0,0L784.55,259.97L767.16,163.86L784.55,67.76Z" style="fill: none; vector-effect: non-scaling-stroke; stroke-width: 1; stroke-dasharray: 2px, 1px; stroke: rgb(232, 97, 193); stroke-opacity: 1;"/></g></g></g></g><g class="zerolinelayer-above"/><path class="xlines-above crisp" d="M79,420.5H933M79,79.5H933" style="fill: none; stroke-width: 1px; stroke: rgb(204, 204, 204); stroke-opacity: 1;"/><path class="ylines-above crisp" d="M79.5,80V420M932.5,80V420" style="fill: none; stroke-width: 1px; stroke: rgb(204, 204, 204); stroke-opacity: 1;"/><g class="overlines-above"/><g class="xaxislayer-above"><path class="xtick ticks crisp" d="M0,421v5M0,79v-5" transform="translate(222,0)" style="stroke: rgb(0, 0, 0); stroke-opacity: 0; stroke-width: 1px;"/><path class="xtick ticks crisp" d="M0,421v5M0,79v-5" transform="translate(506,0)" style="stroke: rgb(0, 0, 0); stroke-opacity: 0; stroke-width: 1px;"/><path class="xtick ticks crisp" d="M0,421v5M0,79v-5" transform="translate(790,0)" style="stroke: rgb(0, 0, 0); stroke-opacity: 0; stroke-width: 1px;"/><g class="xtick"><text text-anchor="middle" x="0" y="440.4" transform="translate(222,0)" style="font-family: 'IBM Plex Sans', sans-serif; font-size: 12px; fill: rgb(119, 119, 119); fill-opacity: 1; white-space: pre;">A</text></g><g class="xtick"><text text-anchor="middle" x="0" y="440.4" transform="translate(506,0)" style="font-family: 'IBM Plex Sans', sans-serif; font-size: 12px; fill: rgb(119, 119, 119); fill-opacity: 1; white-space: pre;">B</text></g><g class="xtick"><text text-anchor="middle" x="0" y="440.4" transform="translate(790,0)" style="font-family: 'IBM Plex Sans', sans-serif; font-size: 12px; fill: rgb(119, 119, 119); fill-opacity: 1; white-space: pre;">C</text></g></g><g class="yaxislayer-above"><path class="ytick ticks crisp" d="M79,0h-5M933,0h5" transform="translate(0,420)" style="stroke: rgb(0, 0, 0); stroke-opacity: 0; stroke-width: 1px;"/><path class="ytick ticks crisp" d="M79,0h-5M933,0h5" transform="translate(0,354.49)" style="stroke: rgb(0, 0, 0); stroke-opacity: 0; stroke-width: 1px;"/><path class="ytick ticks crisp" d="M79,0h-5M933,0h5" transform="translate(0,288.98)" style="stroke: rgb(0, 0, 0); stroke-opacity: 0; stroke-width: 1px;"/><path class="ytick ticks crisp" d="M79,0h-5M933,0h5" transform="translate(0,223.47)" style="stroke: rgb(0, 0, 0); stroke-opacity: 0; stroke-width: 1px;"/><path class="ytick ticks crisp" d="M79,0h-5M933,0h5" transform="translate(0,157.95999999999998)" style="stroke: rgb(0, 0, 0); stroke-opacity: 0; stroke-width: 1px;"/><path class="ytick ticks crisp" d="M79,0h-5M933,0h5" transform="translate(0,92.45)" style="stroke: rgb(0, 0, 0); stroke-opacity: 0; stroke-width: 1px;"/><g class="ytick"><text text-anchor="end" x="71.6" y="4.199999999999999" transform="translate(0,420)" style="font-family: 'IBM Plex Sans', sans-serif; font-size: 12px; fill: rgb(119, 119, 119); fill-opacity: 1; white-space: pre;">0</text></g><g class="ytick"><text text-anchor="end" x="71.6" y="4.199999999999999" style="font-family: 'IBM Plex Sans', sans-serif; font-size: 12px; fill: rgb(119, 119, 119); fill-opacity: 1; white-space: pre;" transform="translate(0,354.49)">0.2</text></g><g class="ytick"><text text-anchor="end" x="71.6" y="4.199999999999999" style="font-family: 'IBM Plex Sans', sans-serif; font-size: 12px; fill: rgb(119, 119, 119); fill-opacity: 1; white-space: pre;" transform="translate(0,288.98)">0.4</text></g><g class="ytick"><text text-anchor="end" x="71.6" y="4.199999999999999" style="font-family: 'IBM Plex Sans', sans-serif; font-size: 12px; fill: rgb(119, 119, 119); fill-opacity: 1; white-space: pre;" transform="translate(0,223.47)">0.6</text></g><g class="ytick"><text text-anchor="end" x="71.6" y="4.199999999999999" style="font-family: 'IBM Plex Sans', sans-serif; font-size: 12px; fill: rgb(119, 119, 119); fill-opacity: 1; white-space: pre;" transform="translate(0,157.95999999999998)">0.8</text></g><g class="ytick"><text text-anchor="end" x="71.6" y="4.199999999999999" style="font-family: 'IBM Plex Sans', sans-serif; font-size: 12px; fill: rgb(119, 119, 119); fill-opacity: 1; white-space: pre;" transform="translate(0,92.45)">1</text></g></g><g class="overaxes-above"/></g></g><g class="polarlayer"/><g class="smithlayer"/><g class="ternarylayer"/><g class="geolayer"/><g class="funnelarealayer"/><g class="pielayer"/><g class="iciclelayer"/><g class="treemaplayer"/><g class="sunburstlayer"/><g class="glimages"/><defs id="topdefs-0ba52e"><g class="clips"/><clipPath id="legend0ba52e"><rect width="315" height="29" x="0" y="0"/></clipPath></defs><g class="layer-above"><g class="imagelayer"/><g class="shapelayer"/></g><g class="infolayer"><g class="legend" pointer-events="all" transform="translate(348.5,40.79999999999998)"><rect class="bg" shape-rendering="crispEdges" style="stroke: rgb(68, 68, 68); stroke-opacity: 1; fill: rgb(255, 255, 255); fill-opacity: 1; stroke-width: 0px;" width="315" height="29" x="0" y="0"/><g class="scrollbox" transform="" clip-path="url(#legend0ba52e)"><g class="groups"><g class="traces" transform="translate(0,14.5)" style="opacity: 1;"><text class="legendtext" text-anchor="start" x="40" y="4.680000000000001" style="font-family: 'IBM Plex Sans', sans-serif; font-size: 12px; fill: rgb(119, 119, 119); fill-opacity: 1; white-space: pre;">Lion</text><g class="layers" style="opacity: 1;"><g class="legendfill"/><g class="legendlines"/><g class="legendsymbols"><g class="legendpoints"><path class="legendbox" d="M6,6H-6V-6H6Z" transform="translate(20,0)" style="stroke-width: 1px; fill: rgb(203, 136, 151); fill-opacity: 0.5; stroke: rgb(203, 136, 151); stroke-opacity: 1;"/></g></g></g><rect class="legendtoggle" x="0" y="-9.5" width="65.0546875" height="19" style="fill: rgb(0, 0, 0); fill-opacity: 0;"/></g><g class="traces" transform="translate(67.5546875,14.5)" style="opacity: 1;"><text class="legendtext" text-anchor="start" x="40" y="4.680000000000001" style="font-family: 'IBM Plex Sans', sans-serif; font-size: 12px; fill: rgb(119, 119, 119); fill-opacity: 1; white-space: pre;">Tiger</text><g class="layers" style="opacity: 1;"><g class="legendfill"/><g class="legendlines"/><g class="legendsymbols"><g class="legendpoints"><path class="legendbox" d="M6,6H-6V-6H6Z" transform="translate(20,0)" style="stroke-width: 1px; fill: rgb(148, 173, 224); fill-opacity: 0.5; stroke: rgb(148, 173, 224); stroke-opacity: 1;"/></g></g></g><rect class="legendtoggle" x="0" y="-9.5" width="69.625" height="19" style="fill: rgb(0, 0, 0); fill-opacity: 0;"/></g><g class="traces" transform="translate(139.6796875,14.5)" style="opacity: 1;"><text class="legendtext" text-anchor="start" x="40" y="4.680000000000001" style="font-family: 'IBM Plex Sans', sans-serif; font-size: 12px; fill: rgb(119, 119, 119); fill-opacity: 1; white-space: pre;">Elephant</text><g class="layers" style="opacity: 1;"><g class="legendfill"/><g class="legendlines"/><g class="legendsymbols"><g class="legendpoints"><path class="legendbox" d="M6,6H-6V-6H6Z" transform="translate(20,0)" style="stroke-width: 1px; fill: rgb(243, 186, 112); fill-opacity: 0.5; stroke: rgb(243, 186, 112); stroke-opacity: 1;"/></g></g></g><rect class="legendtoggle" x="0" y="-9.5" width="90.5625" height="19" style="fill: rgb(0, 0, 0); fill-opacity: 0;"/></g><g class="traces" transform="translate(232.7421875,14.5)" style="opacity: 1;"><text class="legendtext" text-anchor="start" x="40" y="4.680000000000001" style="font-family: 'IBM Plex Sans', sans-serif; font-size: 12px; fill: rgb(119, 119, 119); fill-opacity: 1; white-space: pre;">Giraffe</text><g class="layers" style="opacity: 1;"><g class="legendfill"/><g class="legendlines"/><g class="legendsymbols"><g class="legendpoints"><path class="legendbox" d="M6,6H-6V-6H6Z" transform="translate(20,0)" style="stroke-width: 1px; fill: rgb(232, 97, 193); fill-opacity: 0.5; stroke: rgb(232, 97, 193); stroke-opacity: 1;"/></g></g></g><rect class="legendtoggle" x="0" y="-9.5" width="78.921875" height="19" style="fill: rgb(0, 0, 0); fill-opacity: 0;"/></g></g></g><rect class="scrollbar" rx="20" ry="3" width="0" height="0" style="fill: rgb(128, 139, 164); fill-opacity: 1;" x="0" y="0"/></g><g class="g-gtitle"/><g class="g-xtitle"/><g class="g-ytitle"/></g></svg>