<?xml version="1.0" encoding="UTF-8"?>
<svg xmlns="http://www.w3.org/2000/svg" viewBox="-211.219 -210.422 488.073 449.678" width="400" height="300">>
<defs>
<style>
.node-0{fill:#dcdcc8;stroke:#000000;stroke-width:2.500px;opacity:1.0;}
.node-1{fill:#dcdcc8;stroke:#000000;stroke-width:2.500px;opacity:1.0;}
.node-2{fill:#dcdcc8;stroke:#000000;stroke-width:2.500px;opacity:1.0;}
.node-3{fill:#dcdcc8;stroke:#000000;stroke-width:2.500px;opacity:1.0;}
.node-4{fill:#dcdcc8;stroke:#000000;stroke-width:2.500px;opacity:1.0;}
.node-5{fill:#dcdcc8;stroke:#000000;stroke-width:2.500px;opacity:1.0;}
.node-6{fill:#dcdcc8;stroke:#000000;stroke-width:2.500px;opacity:1.0;}
.node-7{fill:#dcdcc8;stroke:#000000;stroke-width:2.500px;opacity:1.0;}
.node-8{fill:#dcdcc8;stroke:#000000;stroke-width:2.500px;opacity:1.0;}
.node-9{fill:#dcdcc8;stroke:#000000;stroke-width:2.500px;opacity:1.0;}
.node-10{fill:#dcdcc8;stroke:#000000;stroke-width:2.500px;opacity:1.0;}
.node-11{fill:#dcdcc8;stroke:#000000;stroke-width:2.500px;opacity:1.0;}
.node-12{fill:#dcdcc8;stroke:#000000;stroke-width:2.500px;opacity:1.0;}
.node-13{fill:#dcdcc8;stroke:#000000;stroke-width:2.500px;opacity:1.0;}
.node-14{fill:#dcdcc8;stroke:#000000;stroke-width:2.500px;opacity:1.0;}
.node-15{fill:#dcdcc8;stroke:#000000;stroke-width:2.500px;opacity:1.0;}
.node-16{fill:#dcdcc8;stroke:#000000;stroke-width:2.500px;opacity:1.0;}
.node-17{fill:#dcdcc8;stroke:#000000;stroke-width:2.500px;opacity:1.0;}
.node-18{fill:#dcdcc8;stroke:#000000;stroke-width:2.500px;opacity:1.0;}
.node-19{fill:#dcdcc8;stroke:#000000;stroke-width:2.500px;opacity:1.0;}
.node-20{fill:#dcdcc8;stroke:#000000;stroke-width:2.500px;opacity:1.0;}
.node-21{fill:#dcdcc8;stroke:#000000;stroke-width:2.500px;opacity:1.0;}
.node-22{fill:#dcdcc8;stroke:#000000;stroke-width:2.500px;opacity:1.0;}
.node-23{fill:#dcdcc8;stroke:#000000;stroke-width:2.500px;opacity:1.0;}
.node-24{fill:#dcdcc8;stroke:#000000;stroke-width:2.500px;opacity:1.0;}
.node-25{fill:#dcdcc8;stroke:#000000;stroke-width:2.500px;opacity:1.0;}
.node-26{fill:#dcdcc8;stroke:#000000;stroke-width:2.500px;opacity:1.0;}
.node-27{fill:#dcdcc8;stroke:#000000;stroke-width:2.500px;opacity:1.0;}
.node-28{fill:#dcdcc8;stroke:#000000;stroke-width:2.500px;opacity:1.0;}
.node-29{fill:#dcdcc8;stroke:#000000;stroke-width:2.500px;opacity:1.0;}
.node-30{fill:#dcdcc8;stroke:#000000;stroke-width:2.500px;opacity:1.0;}
.node-31{fill:#dcdcc8;stroke:#000000;stroke-width:2.500px;opacity:1.0;}
.node-32{fill:#dcdcc8;stroke:#000000;stroke-width:2.500px;opacity:1.0;}
.node-33{fill:#dcdcc8;stroke:#000000;stroke-width:2.500px;opacity:1.0;}
.node-34{fill:#dcdcc8;stroke:#000000;stroke-width:2.500px;opacity:1.0;}
.node-35{fill:#dcdcc8;stroke:#000000;stroke-width:2.500px;opacity:1.0;}
.node-36{fill:#dcdcc8;stroke:#000000;stroke-width:2.500px;opacity:1.0;}
.node-37{fill:#dcdcc8;stroke:#000000;stroke-width:2.500px;opacity:1.0;}
.node-38{fill:#dcdcc8;stroke:#000000;stroke-width:2.500px;opacity:1.0;}
.node-39{fill:#dcdcc8;stroke:#000000;stroke-width:2.500px;opacity:1.0;}
.node-40{fill:#dcdcc8;stroke:#000000;stroke-width:2.500px;opacity:1.0;}
.node-41{fill:#dcdcc8;stroke:#000000;stroke-width:2.500px;opacity:1.0;}
.node-42{fill:#dcdcc8;stroke:#000000;stroke-width:2.500px;opacity:1.0;}
.node-43{fill:#dcdcc8;stroke:#000000;stroke-width:2.500px;opacity:1.0;}
.node-44{fill:#dcdcc8;stroke:#000000;stroke-width:2.500px;opacity:1.0;}
.node-45{fill:#dcdcc8;stroke:#000000;stroke-width:2.500px;opacity:1.0;}
.node-46{fill:#dcdcc8;stroke:#000000;stroke-width:2.500px;opacity:1.0;}
.node-47{fill:#dcdcc8;stroke:#000000;stroke-width:2.500px;opacity:1.0;}
.node-48{fill:#dcdcc8;stroke:#000000;stroke-width:2.500px;opacity:1.0;}
.node-49{fill:#dcdcc8;stroke:#000000;stroke-width:2.500px;opacity:1.0;}
.node-50{fill:#dcdcc8;stroke:#000000;stroke-width:2.500px;opacity:1.0;}
</style>

</defs>
<polygon class="node-0" points="-55.274,-119.904 -55.074,-123.079 -54.478,-126.204 -53.495,-129.230 -52.140,-132.109 -50.435,-134.795 -48.408,-137.246 -46.088,-139.424 -43.515,-141.294 -40.727,-142.826 -37.769,-143.998 -34.687,-144.789 -31.531,-145.187 -28.350,-145.187 -25.193,-144.789 -22.112,-143.998 -19.154,-142.826 -16.366,-141.294 -13.792,-139.424 -11.473,-137.246 -9.445,-134.795 -7.741,-132.109 -6.386,-129.230 -5.403,-126.204 -4.807,-123.079 -4.607,-119.904 -4.807,-116.729 -5.403,-113.604 -6.386,-110.578 -7.741,-107.700 -9.445,-105.014 -11.473,-102.562 -13.792,-100.384 -16.366,-98.514 -19.154,-96.982 -22.112,-95.811 -25.193,-95.020 -28.350,-94.621 -31.531,-94.621 -34.687,-95.020 -37.769,-95.811 -40.727,-96.982 -43.515,-98.514 -46.088,-100.384 -48.408,-102.562 -50.435,-105.014 -52.140,-107.700 -53.495,-110.578 -54.478,-113.604 -55.074,-116.729"/>
<polygon class="node-1" points="-206.219,102.348 -206.019,99.173 -205.423,96.048 -204.440,93.022 -203.085,90.143 -201.381,87.457 -199.353,85.006 -197.034,82.828 -194.460,80.958 -191.672,79.425 -188.714,78.254 -185.633,77.463 -182.476,77.064 -179.295,77.064 -176.139,77.463 -173.057,78.254 -170.099,79.425 -167.311,80.958 -164.738,82.828 -162.418,85.006 -160.391,87.457 -158.686,90.143 -157.331,93.022 -156.348,96.048 -155.752,99.173 -155.552,102.348 -155.752,105.523 -156.348,108.648 -157.331,111.674 -158.686,114.552 -160.391,117.238 -162.418,119.690 -164.738,121.867 -167.311,123.737 -170.099,125.270 -173.057,126.441 -176.139,127.232 -179.295,127.631 -182.476,127.631 -185.633,127.232 -188.714,126.441 -191.672,125.270 -194.460,123.737 -197.034,121.867 -199.353,119.690 -201.381,117.238 -203.085,114.552 -204.440,111.674 -205.423,108.648 -206.019,105.523"/>
<polygon class="node-2" points="-161.742,96.202 -161.708,93.906 -161.433,91.915 -160.936,90.355 -160.247,89.324 -159.410,88.887 -151.731,87.692 -136.490,85.322 -128.687,84.109 -126.307,83.741 -118.742,82.577 -117.828,82.607 -116.861,83.254 -115.904,84.476 -115.016,86.196 -114.253,88.307 -113.662,90.676 -113.282,93.154 -113.135,95.584 -113.232,97.816 -113.565,99.708 -114.115,101.141 -114.846,102.025 -115.712,102.306 -117.888,102.660 -130.768,104.671 -141.004,106.264 -151.246,107.857 -153.558,108.193 -156.824,108.640 -157.782,108.148 -158.748,107.066 -159.659,105.464 -160.459,103.441 -161.098,101.124 -161.534,98.659"/>
<polygon class="node-3" points="-49.653,-99.917 -49.509,-102.315 -48.754,-104.581 -44.825,-112.461 -43.765,-114.572 -41.960,-118.097 -40.420,-119.928 -38.445,-121.311 -36.157,-122.160 -33.701,-122.421 -31.231,-122.078 -28.903,-121.152 -26.862,-119.703 -25.236,-117.820 -24.129,-115.621 -23.609,-113.247 -23.710,-110.844 -24.424,-108.565 -27.221,-102.950 -29.930,-97.522 -31.379,-94.761 -32.952,-92.958 -34.954,-91.609 -37.258,-90.800 -39.719,-90.580 -42.184,-90.964 -44.498,-91.928 -46.514,-93.411 -48.106,-95.320 -49.175,-97.535"/>
<polygon class="node-4" points="-154.235,-25.232 -154.036,-28.407 -153.439,-31.532 -152.456,-34.557 -151.102,-37.436 -149.397,-40.122 -147.369,-42.573 -145.050,-44.751 -142.476,-46.621 -139.688,-48.154 -136.730,-49.325 -133.649,-50.116 -130.493,-50.515 -127.311,-50.515 -124.155,-50.116 -121.074,-49.325 -118.116,-48.154 -115.328,-46.621 -112.754,-44.751 -110.435,-42.573 -108.407,-40.122 -106.702,-37.436 -105.348,-34.557 -104.365,-31.532 -103.768,-28.407 -103.569,-25.232 -103.569,-25.232 -103.768,-22.056 -104.365,-18.931 -105.348,-15.906 -106.702,-13.027 -108.407,-10.341 -110.435,-7.890 -112.754,-5.712 -115.328,-3.842 -118.116,-2.309 -121.074,-1.138 -124.155,-0.347 -127.311,0.052 -130.493,0.052 -133.649,-0.347 -136.730,-1.138 -139.688,-2.309 -142.476,-3.842 -145.050,-5.712 -147.369,-7.890 -149.397,-10.341 -151.102,-13.027 -152.456,-15.906 -153.439,-18.931 -154.036,-22.056"/>
<polygon class="node-5" points="-120.349,89.765 -118.291,84.901 -117.249,82.437 -97.564,35.940 -94.452,28.591 -94.213,28.492 -93.700,28.522 -92.945,28.680 -91.996,28.956 -90.912,29.332 -89.762,29.785 -88.618,30.286 -87.552,30.804 -86.630,31.306 -85.911,31.761 -85.439,32.140 -85.245,32.419 -87.341,37.427 -92.497,49.617 -97.679,61.860 -104.934,78.999 -111.144,93.609 -111.251,93.766 -111.642,93.796 -112.291,93.696 -113.157,93.472 -114.187,93.140 -115.315,92.719 -116.471,92.236 -117.582,91.722 -118.578,91.208 -119.397,90.728 -119.987,90.311 -120.311,89.983"/>
<polygon class="node-6" points="-145.337,92.410 -145.114,88.859 -144.447,85.364 -143.347,81.980 -141.832,78.760 -139.926,75.756 -137.658,73.014 -135.064,70.579 -132.185,68.487 -129.067,66.773 -125.759,65.463 -122.313,64.578 -118.783,64.132 -115.225,64.132 -111.694,64.578 -108.248,65.463 -104.940,66.773 -101.822,68.487 -98.943,70.579 -96.350,73.014 -94.081,75.756 -92.175,78.760 -90.660,81.980 -89.560,85.364 -88.894,88.859 -88.670,92.410 -88.894,95.961 -89.560,99.456 -90.660,102.840 -92.175,106.059 -94.081,109.064 -96.350,111.805 -98.943,114.241 -101.822,116.332 -104.940,118.047 -108.248,119.356 -111.694,120.241 -115.225,120.687 -118.783,120.687 -122.313,120.241 -125.759,119.356 -129.067,118.047 -132.185,116.332 -135.064,114.241 -137.658,111.805 -139.926,109.064 -141.832,106.059 -143.347,102.840 -144.447,99.456 -145.114,95.961"/>
<polygon class="node-7" points="-123.689,0.399 -123.476,-0.381 -122.749,-1.445 -121.553,-2.727 -119.964,-4.146 -118.082,-5.612 -116.024,-7.034 -113.921,-8.323 -111.904,-9.396 -110.100,-10.188 -108.622,-10.647 -107.563,-10.746 -106.991,-10.478 -93.409,9.815 -84.247,23.528 -82.953,25.515 -82.706,26.006 -82.986,26.826 -83.777,27.922 -85.028,29.226 -86.661,30.656 -88.573,32.122 -90.643,33.532 -92.743,34.797 -94.740,35.838 -96.508,36.589 -97.936,37.003 -98.936,37.055 -99.443,36.740 -102.430,32.285 -108.488,23.235 -120.547,5.218 -122.125,2.858"/>
<polygon class="node-8" points="-103.276,206.213 -102.356,203.862 -92.282,179.257 -88.630,170.339 -83.111,156.870 -80.397,150.278 -80.268,150.089 -79.856,150.025 -79.187,150.091 -78.302,150.283 -77.257,150.589 -76.118,150.989 -74.956,151.459 -73.845,151.968 -72.854,152.485 -72.045,152.978 -71.470,153.415 -71.164,153.768 -71.147,154.017 -72.051,156.235 -80.285,176.347 -94.016,209.884 -94.246,210.030 -94.752,210.048 -95.503,209.937 -96.451,209.703 -97.537,209.362 -98.692,208.934 -99.844,208.447 -100.921,207.931 -101.855,207.419 -102.586,206.943 -103.070,206.532"/>
<polygon class="node-9" points="-125.102,208.973 -124.902,205.797 -124.306,202.672 -123.323,199.647 -121.968,196.768 -120.264,194.082 -118.236,191.631 -115.917,189.453 -113.343,187.583 -110.555,186.050 -107.597,184.879 -104.516,184.088 -101.359,183.689 -98.178,183.689 -95.022,184.088 -91.940,184.879 -88.982,186.050 -86.194,187.583 -83.620,189.453 -81.301,191.631 -79.273,194.082 -77.569,196.768 -76.214,199.647 -75.231,202.672 -74.635,205.797 -74.435,208.973 -74.635,212.148 -75.231,215.273 -76.214,218.298 -77.569,221.177 -79.273,223.863 -81.301,226.314 -83.620,228.492 -86.194,230.362 -88.982,231.895 -91.940,233.066 -95.022,233.857 -98.178,234.256 -101.359,234.256 -104.516,233.857 -107.597,233.066 -110.555,231.895 -113.343,230.362 -115.917,228.492 -118.236,226.314 -120.264,223.863 -121.968,221.177 -123.323,218.298 -124.306,215.273 -124.902,212.148"/>
<polygon class="node-10" points="-110.986,119.370 -110.665,118.525 -109.834,117.411 -108.546,116.098 -106.882,114.669 -104.947,113.214 -102.861,111.823 -100.757,110.586 -98.766,109.578 -97.013,108.864 -95.609,108.488 -94.642,108.475 -94.172,108.824 -84.621,123.253 -76.578,135.409 -71.789,142.657 -68.596,147.493 -68.474,148.072 -68.880,148.965 -69.790,150.117 -71.145,151.454 -72.861,152.894 -74.829,154.345 -76.927,155.716 -79.021,156.921 -80.982,157.885 -82.685,158.546 -84.023,158.864 -84.913,158.818 -85.298,158.412 -86.799,156.206 -96.439,141.632 -107.704,124.599 -109.257,122.245 -110.778,119.894"/>
<polygon class="node-11" points="-119.436,31.229 -119.213,27.678 -118.546,24.182 -117.447,20.798 -115.932,17.579 -114.025,14.575 -111.757,11.833 -109.163,9.397 -106.285,7.306 -103.167,5.592 -99.858,4.282 -96.412,3.397 -92.882,2.951 -89.324,2.951 -85.794,3.397 -82.348,4.282 -79.039,5.592 -75.921,7.306 -73.043,9.397 -70.449,11.833 -68.181,14.575 -66.274,17.579 -64.759,20.798 -63.660,24.182 -62.993,27.678 -62.770,31.229 -62.770,31.229 -62.993,34.780 -63.660,38.275 -64.759,41.659 -66.274,44.878 -68.181,47.883 -70.449,50.624 -73.043,53.060 -75.921,55.151 -79.039,56.865 -82.348,58.175 -85.794,59.060 -89.324,59.506 -92.882,59.506 -96.412,59.060 -99.858,58.175 -103.167,56.865 -106.285,55.151 -109.163,53.060 -111.757,50.624 -114.025,47.883 -115.932,44.878 -117.447,41.659 -118.546,38.275 -119.213,34.780"/>
<polygon class="node-12" points="-112.472,66.627 -109.392,59.331 -107.287,54.387 -98.246,58.420 -99.140,60.763 -102.268,68.142 -103.418,70.654 -103.839,70.669 -104.515,70.555 -105.403,70.318 -106.447,69.974 -107.582,69.545 -108.737,69.057 -109.838,68.542 -110.817,68.030 -111.613,67.556 -112.174,67.147 -112.467,66.831"/>
<polygon class="node-13" points="-132.874,-47.017 -132.785,-48.459 -124.496,-78.071 -122.647,-84.640 -122.070,-85.951 -120.920,-87.026 -119.270,-87.797 -117.223,-88.216 -114.908,-88.256 -112.471,-87.915 -110.065,-87.215 -107.840,-86.199 -105.937,-84.931 -104.475,-83.491 -103.546,-81.970 -103.209,-80.462 -103.484,-79.063 -104.068,-76.915 -104.611,-74.914 -112.892,-45.330 -113.813,-42.354 -114.796,-41.200 -116.304,-40.331 -118.243,-39.801 -120.491,-39.645 -122.907,-39.871 -125.339,-40.466 -127.635,-41.393 -129.649,-42.592 -131.256,-43.989 -132.354,-45.495"/>
<polygon class="node-14" points="-105.217,153.076 -104.993,149.525 -104.327,146.030 -103.227,142.646 -101.712,139.426 -99.805,136.422 -97.537,133.680 -94.944,131.245 -92.065,129.153 -88.947,127.439 -85.639,126.129 -82.192,125.244 -78.662,124.798 -75.104,124.798 -71.574,125.244 -68.128,126.129 -64.820,127.439 -61.702,129.153 -58.823,131.245 -56.229,133.680 -53.961,136.422 -52.055,139.426 -50.540,142.646 -49.440,146.030 -48.773,149.525 -48.550,153.076 -48.773,156.627 -49.440,160.122 -50.540,163.506 -52.055,166.726 -53.961,169.730 -56.229,172.471 -58.823,174.907 -61.702,176.998 -64.820,178.713 -68.128,180.022 -71.574,180.907 -75.104,181.353 -78.662,181.353 -82.192,180.907 -85.639,180.022 -88.947,178.713 -92.065,176.998 -94.944,174.907 -97.537,172.471 -99.805,169.730 -101.712,166.726 -103.227,163.506 -104.327,160.122 -104.993,156.627"/>
<polygon class="node-15" points="-96.380,185.760 -95.460,183.491 -93.598,178.955 -92.632,176.674 -83.449,180.543 -85.285,185.026 -87.143,189.539 -87.442,189.655 -92.643,190.802 -93.798,190.317 -96.244,186.053"/>
<polygon class="node-16" points="-69.651,26.002 -69.611,23.663 -69.354,21.611 -68.895,19.974 -68.263,18.856 -67.498,18.327 -64.575,17.963 -45.178,15.628 -25.994,13.349 -22.623,12.966 -21.747,13.433 -20.873,14.493 -20.056,16.080 -19.346,18.095 -18.789,20.410 -18.420,22.881 -18.261,25.353 -18.323,27.669 -18.602,29.684 -19.080,31.272 -19.727,32.333 -20.503,32.800 -45.558,35.818 -56.597,37.147 -65.208,38.154 -66.081,37.750 -66.958,36.748 -67.783,35.210 -68.506,33.233 -69.080,30.942 -69.470,28.480"/>
<polygon class="node-17" points="-68.103,-100.190 -67.880,-103.741 -67.213,-107.236 -66.114,-110.620 -64.599,-113.839 -62.692,-116.844 -60.424,-119.585 -57.830,-122.021 -54.952,-124.112 -51.834,-125.826 -48.525,-127.136 -45.079,-128.021 -41.549,-128.467 -37.991,-128.467 -34.461,-128.021 -31.014,-127.136 -27.706,-125.826 -24.588,-124.112 -21.710,-122.021 -19.116,-119.585 -16.848,-116.844 -14.941,-113.839 -13.426,-110.620 -12.327,-107.236 -11.660,-103.741 -11.437,-100.190 -11.660,-96.639 -12.327,-93.144 -13.426,-89.760 -14.941,-86.540 -16.848,-83.536 -19.116,-80.794 -21.710,-78.359 -24.588,-76.267 -27.706,-74.553 -31.014,-73.243 -34.461,-72.358 -37.991,-71.912 -41.549,-71.912 -45.079,-72.358 -48.525,-73.243 -51.834,-74.553 -54.952,-76.267 -57.830,-78.359 -60.424,-80.794 -62.692,-83.536 -64.599,-86.540 -66.114,-89.760 -67.213,-93.144 -67.880,-96.639"/>
<polygon class="node-18" points="-24.796,21.241 -21.726,13.698 -19.692,8.718 -2.276,-33.750 -0.219,-38.754 0.798,-41.224 0.901,-41.255 1.288,-41.167 1.935,-40.964 2.800,-40.660 3.831,-40.273 4.962,-39.827 6.121,-39.351 7.237,-38.875 8.238,-38.429 9.063,-38.039 9.659,-37.732 9.988,-37.527 10.031,-37.435 7.996,-32.448 -2.245,-7.472 -4.292,-2.481 -14.535,22.497 -15.562,25.001 -15.753,24.996 -16.223,24.872 -16.941,24.637 -17.864,24.305 -18.932,23.897 -20.079,23.439 -21.233,22.960 -22.321,22.490 -23.275,22.058 -24.035,21.691 -24.553,21.413"/>
<polygon class="node-19" points="-115.736,-90.058 -115.685,-91.229 -115.463,-91.833 -109.431,-93.349 -97.781,-96.222 -68.512,-103.420 -68.084,-103.212 -67.533,-102.407 -66.893,-101.056 -66.205,-99.243 -65.511,-97.083 -64.855,-94.710 -64.278,-92.275 -63.817,-89.930 -63.501,-87.823 -63.349,-86.085 -63.371,-84.827 -63.565,-84.127 -63.920,-84.029 -66.565,-83.327 -75.368,-81.152 -87.179,-78.235 -98.846,-75.365 -107.623,-73.207 -110.625,-72.475 -111.074,-72.782 -111.642,-73.681 -112.293,-75.114 -112.986,-76.992 -113.676,-79.197 -114.322,-81.590 -114.882,-84.020 -115.321,-86.336 -115.612,-88.392"/>
<polygon class="node-20" points="-32.241,-72.942 -31.842,-73.767 -30.954,-74.880 -29.634,-76.213 -27.964,-77.680 -26.050,-79.191 -24.012,-80.649 -21.977,-81.964 -20.074,-83.053 -18.423,-83.847 -17.126,-84.296 -16.266,-84.373 -15.896,-84.072 -10.702,-76.897 8.483,-50.221 10.245,-47.761 11.776,-45.533 12.023,-45.143 11.756,-44.403 10.991,-43.358 9.776,-42.075 8.188,-40.634 6.327,-39.126 4.309,-37.645 2.261,-36.284 0.311,-35.129 -1.416,-34.253 -2.814,-33.710 -3.795,-33.535 -4.295,-33.739 -9.512,-40.992 -25.214,-62.823 -28.708,-67.682 -32.128,-72.458"/>
<polygon class="node-21" points="-57.383,147.374 -57.272,145.050 -56.891,143.020 -56.265,141.411 -55.432,140.323 -54.446,139.826 -41.154,137.958 -11.900,133.846 -10.819,134.008 -9.718,134.781 -8.667,136.119 -7.730,137.935 -6.968,140.117 -6.428,142.527 -6.144,145.013 -6.134,147.421 -6.398,149.597 -6.921,151.406 -7.668,152.733 -8.593,153.496 -11.697,154.013 -41.001,158.132 -48.966,159.251 -52.058,159.625 -53.156,159.191 -54.244,158.161 -55.252,156.600 -56.119,154.608 -56.788,152.308 -57.219,149.845"/>
<polygon class="node-22" points="-50.107,22.883 -49.884,19.332 -49.217,15.837 -48.117,12.453 -46.602,9.233 -44.696,6.229 -42.428,3.488 -39.834,1.052 -36.955,-1.040 -33.837,-2.754 -30.529,-4.064 -27.083,-4.948 -23.553,-5.394 -19.995,-5.394 -16.465,-4.948 -13.018,-4.064 -9.710,-2.754 -6.592,-1.040 -3.713,1.052 -1.120,3.488 1.148,6.229 3.055,9.233 4.570,12.453 5.670,15.837 6.336,19.332 6.560,22.883 6.560,22.883 6.336,26.434 5.670,29.929 4.570,33.313 3.055,36.533 1.148,39.537 -1.120,42.279 -3.713,44.714 -6.592,46.806 -9.710,48.520 -13.018,49.830 -16.465,50.715 -19.995,51.160 -23.553,51.160 -27.083,50.715 -30.529,49.830 -33.837,48.520 -36.955,46.806 -39.834,44.714 -42.428,42.279 -44.696,39.537 -46.602,36.533 -48.117,33.313 -49.217,29.929 -49.884,26.434"/>
<polygon class="node-23" points="-141.292,-82.192 -141.068,-85.743 -140.402,-89.238 -139.302,-92.622 -137.787,-95.842 -135.881,-98.846 -133.613,-101.587 -131.019,-104.023 -128.140,-106.114 -125.022,-107.829 -121.714,-109.138 -118.268,-110.023 -114.738,-110.469 -111.179,-110.469 -107.649,-110.023 -104.203,-109.138 -100.895,-107.829 -97.777,-106.114 -94.898,-104.023 -92.304,-101.587 -90.036,-98.846 -88.130,-95.842 -86.615,-92.622 -85.515,-89.238 -84.849,-85.743 -84.625,-82.192 -84.849,-78.641 -85.515,-75.146 -86.615,-71.762 -88.130,-68.542 -90.036,-65.538 -92.304,-62.796 -94.898,-60.361 -97.777,-58.269 -100.895,-56.555 -104.203,-55.245 -107.649,-54.360 -111.179,-53.914 -114.738,-53.914 -118.268,-54.360 -121.714,-55.245 -125.022,-56.555 -128.140,-58.269 -131.019,-60.361 -133.613,-62.796 -135.881,-65.538 -137.787,-68.542 -139.302,-71.762 -140.402,-75.146 -141.068,-78.641"/>
<polygon class="node-24" points="-24.499,-39.561 -24.276,-43.112 -23.609,-46.608 -22.510,-49.991 -20.995,-53.211 -19.088,-56.215 -16.820,-58.957 -14.226,-61.393 -11.348,-63.484 -8.230,-65.198 -4.921,-66.508 -1.475,-67.393 2.055,-67.839 5.613,-67.839 9.143,-67.393 12.589,-66.508 15.898,-65.198 19.016,-63.484 21.894,-61.393 24.488,-58.957 26.756,-56.215 28.663,-53.211 30.178,-49.991 31.277,-46.608 31.944,-43.112 32.167,-39.561 32.167,-39.561 31.944,-36.010 31.277,-32.515 30.178,-29.131 28.663,-25.912 26.756,-22.907 24.488,-20.166 21.894,-17.730 19.016,-15.639 15.898,-13.925 12.589,-12.615 9.143,-11.730 5.613,-11.284 2.055,-11.284 -1.475,-11.730 -4.921,-12.615 -8.230,-13.925 -11.348,-15.639 -14.226,-17.730 -16.820,-20.166 -19.088,-22.907 -20.995,-25.912 -22.510,-29.131 -23.609,-32.515 -24.276,-36.010"/>
<polygon class="node-25" points="-17.730,-4.172 -16.709,-6.717 -15.697,-9.198 -12.621,-16.701 -12.432,-16.697 -3.431,-12.886 -4.394,-10.408 -5.419,-7.909 -7.473,-2.936 -8.691,-0.416 -9.164,-0.542 -9.886,-0.779 -10.811,-1.112 -11.881,-1.520 -13.029,-1.979 -14.182,-2.458 -15.268,-2.928 -16.220,-3.359 -16.976,-3.725 -17.491,-4.001"/>
<polygon class="node-26" points="-13.834,141.324 -10.833,133.944 11.174,79.829 11.377,79.732 11.859,79.760 12.589,79.910 13.521,80.174 14.596,80.534 15.748,80.967 16.903,81.448 17.990,81.945 18.939,82.427 19.691,82.864 20.199,83.229 20.432,83.498 20.373,83.655 19.439,86.051 0.430,132.793 -2.565,140.155 -4.635,145.150 -4.981,145.185 -5.593,145.095 -6.431,144.886 -7.443,144.572 -8.565,144.172 -9.728,143.711 -10.858,143.218 -11.883,142.725 -12.740,142.262 -13.375,141.858 -13.747,141.538"/>
<polygon class="node-27" points="-15.931,51.180 -15.585,50.139 -14.716,48.879 -13.378,47.477 -11.657,46.022 -9.659,44.605 -7.510,43.315 -5.346,42.234 -3.302,41.429 -1.507,40.951 -0.074,40.830 0.908,41.073 1.376,41.666 2.724,43.794 17.249,67.565 22.966,76.936 23.177,77.684 22.842,78.718 21.984,79.975 20.656,81.375 18.942,82.829 16.949,84.248 14.802,85.541 12.637,86.628 10.589,87.440 8.787,87.925 7.345,88.055 6.352,87.820 5.872,87.234 4.499,85.052 -10.016,61.299 -15.733,51.934"/>
<polygon class="node-28" points="-38.836,143.748 -38.612,140.197 -37.946,136.702 -36.846,133.318 -35.331,130.098 -33.425,127.094 -31.157,124.352 -28.563,121.917 -25.684,119.825 -22.566,118.111 -19.258,116.801 -15.812,115.916 -12.282,115.470 -8.724,115.470 -5.193,115.916 -1.747,116.801 1.561,118.111 4.679,119.825 7.558,121.917 10.152,124.352 12.420,127.094 14.326,130.098 15.841,133.318 16.941,136.702 17.607,140.197 17.831,143.748 17.607,147.299 16.941,150.794 15.841,154.178 14.326,157.397 12.420,160.402 10.152,163.143 7.558,165.579 4.679,167.670 1.561,169.385 -1.747,170.694 -5.193,171.579 -8.724,172.025 -12.282,172.025 -15.812,171.579 -19.258,170.694 -22.566,169.385 -25.684,167.670 -28.563,165.579 -31.157,163.143 -33.425,160.402 -35.331,157.397 -36.846,154.178 -37.946,150.794 -38.612,147.299"/>
<polygon class="node-29" points="-39.820,-123.215 -39.345,-124.662 -35.279,-133.378 -31.220,-142.060 -23.962,-157.572 -23.091,-159.340 -22.368,-160.675 -21.109,-161.691 -19.393,-162.325 -17.328,-162.537 -15.044,-162.314 -12.684,-161.670 -10.397,-160.645 -8.327,-159.304 -6.603,-157.731 -5.333,-156.024 -4.598,-154.292 -4.444,-152.643 -4.880,-151.180 -6.855,-146.944 -20.339,-118.124 -21.215,-116.314 -21.976,-114.999 -23.269,-114.007 -25.012,-113.400 -27.096,-113.217 -29.389,-113.469 -31.749,-114.141 -34.026,-115.189 -36.077,-116.549 -37.774,-118.134 -39.009,-119.845 -39.706,-121.575"/>
<polygon class="node-30" points="24.307,-57.356 24.584,-58.662 25.157,-59.447 27.892,-60.638 40.691,-66.071 50.706,-70.314 53.532,-71.511 60.815,-74.591 63.271,-75.606 64.081,-75.875 65.104,-75.559 66.275,-74.679 67.521,-73.290 68.764,-71.479 69.925,-69.360 70.931,-67.066 71.720,-64.741 72.242,-62.531 72.463,-60.575 72.371,-58.997 71.970,-57.894 71.287,-57.337 66.228,-55.187 53.552,-49.804 38.163,-43.279 33.030,-41.106 32.087,-41.184 30.967,-41.840 29.743,-43.031 28.489,-44.683 27.286,-46.692 26.208,-48.932 25.324,-51.262 24.689,-53.536 24.342,-55.611"/>
<polygon class="node-31" points="-13.828,82.253 -13.604,78.701 -12.937,75.206 -11.838,71.822 -10.323,68.603 -8.416,65.599 -6.148,62.857 -3.555,60.421 -0.676,58.330 2.442,56.616 5.750,55.306 9.197,54.421 12.727,53.975 16.285,53.975 19.815,54.421 23.261,55.306 26.569,56.616 29.687,58.330 32.566,60.421 35.160,62.857 37.428,65.599 39.334,68.603 40.849,71.822 41.949,75.206 42.616,78.701 42.839,82.253 42.616,85.804 41.949,89.299 40.849,92.683 39.334,95.902 37.428,98.906 35.160,101.648 32.566,104.084 29.687,106.175 26.569,107.889 23.261,109.199 19.815,110.084 16.285,110.530 12.727,110.530 9.197,110.084 5.750,109.199 2.442,107.889 -0.676,106.175 -3.555,104.084 -6.148,101.648 -8.416,98.906 -10.323,95.902 -11.838,92.683 -12.937,89.299 -13.604,85.804"/>
<polygon class="node-32" points="-6.438,117.838 -2.436,108.019 -1.423,105.608 7.635,109.370 6.813,111.767 5.825,114.212 3.830,119.120 2.496,121.674 1.926,121.604 1.122,121.414 0.134,121.116 -0.975,120.729 -2.137,120.276 -3.276,119.786 -4.324,119.291 -5.212,118.821 -5.886,118.405 -6.304,118.071"/>
<polygon class="node-33" points="39.133,-66.575 39.356,-70.126 40.023,-73.621 41.123,-77.005 42.638,-80.225 44.544,-83.229 46.812,-85.971 49.406,-88.406 52.285,-90.498 55.403,-92.212 58.711,-93.522 62.157,-94.407 65.687,-94.853 69.245,-94.853 72.775,-94.407 76.222,-93.522 79.530,-92.212 82.648,-90.498 85.527,-88.406 88.120,-85.971 90.388,-83.229 92.295,-80.225 93.810,-77.005 94.909,-73.621 95.576,-70.126 95.800,-66.575 95.576,-63.024 94.909,-59.529 93.810,-56.145 92.295,-52.925 90.388,-49.921 88.120,-47.180 85.527,-44.744 82.648,-42.652 79.530,-40.938 76.222,-39.628 72.775,-38.744 69.245,-38.298 65.687,-38.298 62.157,-38.744 58.711,-39.628 55.403,-40.938 52.285,-42.652 49.406,-44.744 46.812,-47.180 44.544,-49.921 42.638,-52.925 41.123,-56.145 40.023,-59.529 39.356,-63.024"/>
<polygon class="node-34" points="88.876,-46.308 88.931,-46.749 89.235,-47.737 89.769,-49.210 90.501,-51.075 91.382,-53.215 92.360,-55.495 93.371,-57.773 94.353,-59.905 95.243,-61.757 95.987,-63.212 96.536,-64.180 96.857,-64.600 101.991,-62.389 114.713,-56.825 132.521,-49.036 135.066,-47.923 135.043,-47.552 134.769,-46.629 134.261,-45.211 133.552,-43.389 132.686,-41.276 131.718,-39.005 130.707,-36.720 129.718,-34.562 128.813,-32.669 128.049,-31.159 127.473,-30.126 127.123,-29.637 121.947,-31.837 116.872,-34.052 99.071,-41.838"/>
<polygon class="node-35" points="102.719,-38.765 102.943,-42.316 103.609,-45.811 104.709,-49.195 106.224,-52.414 108.130,-55.419 110.398,-58.160 112.992,-60.596 115.871,-62.687 118.989,-64.401 122.297,-65.711 125.743,-66.596 129.273,-67.042 132.832,-67.042 136.362,-66.596 139.808,-65.711 143.116,-64.401 146.234,-62.687 149.113,-60.596 151.707,-58.160 153.975,-55.419 155.881,-52.414 157.396,-49.195 158.496,-45.811 159.162,-42.316 159.386,-38.765 159.386,-38.765 159.162,-35.213 158.496,-31.718 157.396,-28.334 155.881,-25.115 153.975,-22.111 151.707,-19.369 149.113,-16.933 146.234,-14.842 143.116,-13.128 139.808,-11.818 136.362,-10.933 132.832,-10.487 129.273,-10.487 125.743,-10.933 122.297,-11.818 118.989,-13.128 115.871,-14.842 112.992,-16.933 110.398,-19.369 108.130,-22.111 106.224,-25.115 104.709,-28.334 103.609,-31.718 102.943,-35.213"/>
<polygon class="node-36" points="-42.173,-155.611 -41.950,-159.162 -41.283,-162.657 -40.184,-166.041 -38.669,-169.261 -36.762,-172.265 -34.494,-175.007 -31.900,-177.442 -29.022,-179.534 -25.904,-181.248 -22.596,-182.558 -19.149,-183.443 -15.619,-183.889 -12.061,-183.889 -8.531,-183.443 -5.085,-182.558 -1.776,-181.248 1.342,-179.534 4.220,-177.442 6.814,-175.007 9.082,-172.265 10.989,-169.261 12.504,-166.041 13.603,-162.657 14.270,-159.162 14.493,-155.611 14.270,-152.060 13.603,-148.565 12.504,-145.181 10.989,-141.962 9.082,-138.957 6.814,-136.216 4.220,-133.780 1.342,-131.689 -1.776,-129.974 -5.085,-128.665 -8.531,-127.780 -12.061,-127.334 -15.619,-127.334 -19.149,-127.780 -22.596,-128.665 -25.904,-129.974 -29.022,-131.689 -31.900,-133.780 -34.494,-136.216 -36.762,-138.957 -38.669,-141.962 -40.184,-145.181 -41.283,-148.565 -41.950,-152.060"/>
<polygon class="node-37" points="47.215,-131.751 47.294,-132.456 47.986,-133.222 49.249,-134.001 51.002,-134.744 53.136,-135.404 55.517,-135.939 57.995,-136.317 60.414,-136.513 62.623,-136.515 64.482,-136.323 65.875,-135.949 66.714,-135.416 66.947,-134.759 67.773,-129.627 71.111,-108.172 71.925,-102.935 72.744,-97.637 73.175,-94.562 72.712,-93.813 71.658,-93.033 70.079,-92.271 68.074,-91.575 65.769,-90.988 63.310,-90.547 60.850,-90.280 58.545,-90.204 56.538,-90.324 54.957,-90.631 53.900,-91.107 53.434,-91.722 49.679,-115.838 48.843,-121.206"/>
<polygon class="node-38" points="8.367,-138.842 8.384,-140.054 8.608,-141.742 9.025,-143.799 9.610,-146.097 10.325,-148.491 11.125,-150.830 11.960,-152.968 12.778,-154.770 13.528,-156.123 14.161,-156.942 14.639,-157.176 37.364,-150.068 51.612,-145.595 60.166,-142.893 60.372,-142.273 60.370,-141.097 60.160,-139.439 59.756,-137.403 59.182,-135.118 58.474,-132.726 57.679,-130.378 56.844,-128.222 56.023,-126.392 55.267,-125.005 54.624,-124.147 54.134,-123.872 51.237,-124.771 28.560,-131.866 11.622,-137.182 8.559,-138.182"/>
<polygon class="node-39" points="144.950,-61.027 145.337,-62.039 147.607,-63.823 151.765,-66.971 153.897,-68.584 172.488,-82.643 176.713,-85.821 177.733,-86.010 179.056,-85.679 180.599,-84.847 182.264,-83.568 183.948,-81.922 185.544,-80.011 186.952,-77.957 188.083,-75.888 188.867,-73.935 189.254,-72.219 189.220,-70.849 188.767,-69.911 182.310,-65.006 172.145,-57.312 157.623,-46.328 156.659,-46.055 155.379,-46.303 153.866,-47.057 152.213,-48.268 150.525,-49.862 148.908,-51.737 147.464,-53.777 146.282,-55.852 145.438,-57.833 144.985,-59.595"/>
<polygon class="node-40" points="28.728,-133.426 28.952,-136.977 29.618,-140.472 30.718,-143.856 32.233,-147.076 34.140,-150.080 36.408,-152.822 39.001,-155.257 41.880,-157.349 44.998,-159.063 48.306,-160.373 51.753,-161.258 55.283,-161.703 58.841,-161.703 62.371,-161.258 65.817,-160.373 69.125,-159.063 72.243,-157.349 75.122,-155.257 77.716,-152.822 79.984,-150.080 81.890,-147.076 83.405,-143.856 84.505,-140.472 85.172,-136.977 85.395,-133.426 85.172,-129.875 84.505,-126.380 83.405,-122.996 81.890,-119.776 79.984,-116.772 77.716,-114.031 75.122,-111.595 72.243,-109.503 69.125,-107.789 65.817,-106.479 62.371,-105.595 58.841,-105.149 55.283,-105.149 51.753,-105.595 48.306,-106.479 44.998,-107.789 41.880,-109.503 39.001,-111.595 36.408,-114.031 34.140,-116.772 32.233,-119.776 30.718,-122.996 29.618,-126.380 28.952,-129.875"/>
<polygon class="node-41" points="154.219,-77.722 154.442,-81.274 155.109,-84.769 156.208,-88.153 157.723,-91.372 159.630,-94.376 161.898,-97.118 164.492,-99.554 167.370,-101.645 170.488,-103.359 173.797,-104.669 177.243,-105.554 180.773,-106.000 184.331,-106.000 187.861,-105.554 191.308,-104.669 194.616,-103.359 197.734,-101.645 200.612,-99.554 203.206,-97.118 205.474,-94.376 207.381,-91.372 208.896,-88.153 209.995,-84.769 210.662,-81.274 210.885,-77.722 210.662,-74.171 209.995,-70.676 208.896,-67.292 207.381,-64.073 205.474,-61.069 203.206,-58.327 200.612,-55.891 197.734,-53.800 194.616,-52.086 191.308,-50.776 187.861,-49.891 184.331,-49.445 180.773,-49.445 177.243,-49.891 173.797,-50.776 170.488,-52.086 167.370,-53.800 164.492,-55.891 161.898,-58.327 159.630,-61.069 157.723,-64.073 156.208,-67.292 155.109,-70.676 154.442,-74.171"/>
<polygon class="node-42" points="204.567,-59.102 204.690,-59.969 205.029,-61.352 205.564,-63.164 206.261,-65.291 207.076,-67.599 207.958,-69.944 208.851,-72.178 209.700,-74.161 210.450,-75.768 211.056,-76.898 211.478,-77.480 211.690,-77.478 214.204,-76.589 216.758,-75.637 242.368,-66.077 249.952,-63.230 250.093,-63.035 250.008,-62.264 249.705,-60.965 249.201,-59.220 248.529,-57.138 247.731,-54.851 246.857,-52.502 245.962,-50.238 245.102,-48.202 244.331,-46.522 243.697,-45.304 243.241,-44.623 242.992,-44.523 240.466,-45.450 225.113,-51.176 212.325,-55.946 204.668,-58.806"/>
<polygon class="node-43" points="70.713,-154.670 70.840,-155.978 71.385,-156.842 73.466,-158.423 95.942,-175.475 100.025,-178.573 102.267,-180.252 103.303,-180.458 104.641,-180.143 106.197,-179.327 107.875,-178.060 109.567,-176.423 111.169,-174.517 112.579,-172.464 113.708,-170.392 114.486,-168.430 114.865,-166.704 114.819,-165.320 114.352,-164.365 101.881,-154.877 87.588,-144.034 83.165,-140.749 82.066,-140.642 80.679,-141.055 79.092,-141.962 77.403,-143.306 75.720,-145.003 74.147,-146.946 72.785,-149.013 71.717,-151.074 71.012,-153.000"/>
<polygon class="node-44" points="221.188,-53.865 221.387,-57.040 221.983,-60.165 222.967,-63.190 224.321,-66.069 226.026,-68.755 228.054,-71.206 230.373,-73.384 232.947,-75.254 235.735,-76.787 238.692,-77.958 241.774,-78.749 244.930,-79.148 248.112,-79.148 251.268,-78.749 254.349,-77.958 257.307,-76.787 260.095,-75.254 262.669,-73.384 264.988,-71.206 267.016,-68.755 268.721,-66.069 270.075,-63.190 271.058,-60.165 271.654,-57.040 271.854,-53.865 271.854,-53.865 271.654,-50.689 271.058,-47.564 270.075,-44.539 268.721,-41.660 267.016,-38.974 264.988,-36.523 262.669,-34.345 260.095,-32.475 257.307,-30.942 254.349,-29.771 251.268,-28.980 248.112,-28.581 244.930,-28.581 241.774,-28.980 238.692,-29.771 235.735,-30.942 232.947,-32.475 230.373,-34.345 228.054,-36.523 226.026,-38.974 224.321,-41.660 222.967,-44.539 221.983,-47.564 221.387,-50.689"/>
<polygon class="node-45" points="161.044,-141.701 161.344,-142.524 162.243,-143.395 163.688,-144.259 165.585,-145.064 167.817,-145.757 170.243,-146.296 172.710,-146.646 175.064,-146.786 177.157,-146.706 178.857,-146.413 180.057,-145.923 180.682,-145.269 182.161,-137.069 183.088,-131.877 185.412,-118.800 186.346,-113.539 187.689,-105.879 187.661,-105.094 187.020,-104.238 185.805,-103.364 184.092,-102.527 181.991,-101.779 179.631,-101.168 177.163,-100.732 174.741,-100.498 172.516,-100.481 170.629,-100.682 169.199,-101.089 168.315,-101.676 168.033,-102.406 167.106,-107.514 163.863,-125.767 161.521,-138.950"/>
<polygon class="node-46" points="79.785,-172.161 80.008,-175.712 80.675,-179.207 81.774,-182.591 83.289,-185.810 85.196,-188.814 87.464,-191.556 90.058,-193.992 92.936,-196.083 96.054,-197.797 99.363,-199.107 102.809,-199.992 106.339,-200.438 109.897,-200.438 113.427,-199.992 116.873,-199.107 120.182,-197.797 123.300,-196.083 126.178,-193.992 128.772,-191.556 131.040,-188.814 132.947,-185.810 134.462,-182.591 135.561,-179.207 136.228,-175.712 136.451,-172.161 136.228,-168.609 135.561,-165.114 134.462,-161.730 132.947,-158.511 131.040,-155.507 128.772,-152.765 126.178,-150.329 123.300,-148.238 120.182,-146.524 116.873,-145.214 113.427,-144.329 109.897,-143.883 106.339,-143.883 102.809,-144.329 99.363,-145.214 96.054,-146.524 92.936,-148.238 90.058,-150.329 87.464,-152.765 85.196,-155.507 83.289,-158.511 81.774,-161.730 80.675,-165.114 80.008,-168.609"/>
<polygon class="node-47" points="129.001,-151.759 129.165,-152.549 129.585,-153.846 130.234,-155.567 131.071,-157.606 132.045,-159.835 133.093,-162.112 134.149,-164.295 135.148,-166.247 136.027,-167.845 136.730,-168.988 137.213,-169.606 137.447,-169.659 142.417,-167.396 165.033,-157.002 167.550,-155.845 175.074,-152.386 175.126,-152.047 174.913,-151.159 174.448,-149.776 173.761,-147.987 172.894,-145.902 171.902,-143.654 170.848,-141.384 169.797,-139.234 168.816,-137.339 167.966,-135.818 167.300,-134.767 166.861,-134.253 166.677,-134.306 164.191,-135.387 131.557,-150.381 129.103,-151.526"/>
<polygon class="node-48" points="142.572,-143.297 142.795,-146.848 143.462,-150.343 144.561,-153.727 146.076,-156.946 147.983,-159.951 150.251,-162.692 152.845,-165.128 155.723,-167.219 158.841,-168.934 162.149,-170.243 165.596,-171.128 169.126,-171.574 172.684,-171.574 176.214,-171.128 179.660,-170.243 182.969,-168.934 186.087,-167.219 188.965,-165.128 191.559,-162.692 193.827,-159.951 195.734,-156.946 197.249,-153.727 198.348,-150.343 199.015,-146.848 199.238,-143.297 199.015,-139.746 198.348,-136.251 197.249,-132.867 195.734,-129.647 193.827,-126.643 191.559,-123.901 188.965,-121.466 186.087,-119.374 182.969,-117.660 179.660,-116.350 176.214,-115.465 172.684,-115.019 169.126,-115.019 165.596,-115.465 162.149,-116.350 158.841,-117.660 155.723,-119.374 152.845,-121.466 150.251,-123.901 147.983,-126.643 146.076,-129.647 144.561,-132.867 143.462,-136.251 142.795,-139.746"/>
<polygon class="node-49" points="184.913,-163.604 184.958,-164.999 185.412,-165.957 187.725,-167.655 212.375,-185.323 216.700,-188.395 217.734,-188.548 219.056,-188.171 220.582,-187.291 222.217,-185.960 223.857,-184.264 225.400,-182.309 226.749,-180.218 227.819,-178.121 228.542,-176.152 228.874,-174.432 228.793,-173.072 228.305,-172.155 226.056,-170.522 207.536,-157.249 201.448,-152.886 197.149,-149.815 196.142,-149.617 194.843,-149.948 193.330,-150.787 191.701,-152.081 190.057,-153.749 188.502,-155.687 187.133,-157.772 186.036,-159.873 185.280,-161.859"/>
<polygon class="node-50" points="196.975,-180.139 197.175,-183.314 197.771,-186.439 198.754,-189.465 200.109,-192.343 201.813,-195.030 203.841,-197.481 206.160,-199.659 208.734,-201.529 211.522,-203.061 214.480,-204.232 217.561,-205.024 220.718,-205.422 223.899,-205.422 227.055,-205.024 230.137,-204.232 233.095,-203.061 235.883,-201.529 238.456,-199.659 240.775,-197.481 242.803,-195.030 244.508,-192.343 245.863,-189.465 246.846,-186.439 247.442,-183.314 247.642,-180.139 247.442,-176.964 246.846,-173.839 245.863,-170.813 244.508,-167.935 242.803,-165.248 240.775,-162.797 238.456,-160.619 235.883,-158.749 233.095,-157.217 230.137,-156.046 227.055,-155.254 223.899,-154.856 220.718,-154.856 217.561,-155.254 214.480,-156.046 211.522,-157.217 208.734,-158.749 206.160,-160.619 203.841,-162.797 201.813,-165.248 200.109,-167.935 198.754,-170.813 197.771,-173.839 197.175,-176.964"/>
</svg>