<?xml version="1.0" encoding="UTF-8"?>
<svg xmlns="http://www.w3.org/2000/svg" viewBox="-238.985 -184.265 594.845 359.664" width="800" height="400">>
<defs>
<style>
.node-0{fill:#c8cbd0;stroke:#000000;stroke-width:2.500px;opacity:1.0;}
.node-1{fill:#c8cbd0;stroke:#000000;stroke-width:2.500px;opacity:1.0;}
.node-2{fill:#c8cbd0;stroke:#000000;stroke-width:2.500px;opacity:1.0;}
.node-3{fill:#c8cbd0;stroke:#000000;stroke-width:2.500px;opacity:1.0;}
.node-4{fill:#c8cbd0;stroke:#000000;stroke-width:2.500px;opacity:1.0;}
.node-5{fill:#c8cbd0;stroke:#000000;stroke-width:2.500px;opacity:1.0;}
.node-6{fill:#c8cbd0;stroke:#000000;stroke-width:2.500px;opacity:1.0;}
.node-7{fill:#c8cbd0;stroke:#000000;stroke-width:2.500px;opacity:1.0;}
.node-8{fill:#c8cbd0;stroke:#000000;stroke-width:2.500px;opacity:1.0;}
.node-9{fill:#c8cbd0;stroke:#000000;stroke-width:2.500px;opacity:1.0;}
.node-10{fill:#c8cbd0;stroke:#000000;stroke-width:2.500px;opacity:1.0;}
.node-11{fill:#c8cbd0;stroke:#000000;stroke-width:2.500px;opacity:1.0;}
.node-12{fill:#c8cbd0;stroke:#000000;stroke-width:2.500px;opacity:1.0;}
.node-13{fill:#c8cbd0;stroke:#000000;stroke-width:2.500px;opacity:1.0;}
.node-14{fill:#c8cbd0;stroke:#000000;stroke-width:2.500px;opacity:1.0;}
.node-15{fill:#c8cbd0;stroke:#000000;stroke-width:2.500px;opacity:1.0;}
.node-16{fill:#c8cbd0;stroke:#000000;stroke-width:2.500px;opacity:1.0;}
.node-17{fill:#c8cbd0;stroke:#000000;stroke-width:2.500px;opacity:1.0;}
.node-18{fill:#c8cbd0;stroke:#000000;stroke-width:2.500px;opacity:1.0;}
.node-19{fill:#c8cbd0;stroke:#000000;stroke-width:2.500px;opacity:1.0;}
.node-20{fill:#c8cbd0;stroke:#000000;stroke-width:2.500px;opacity:1.0;}
.node-21{fill:#c8cbd0;stroke:#000000;stroke-width:2.500px;opacity:1.0;}
.node-22{fill:#c8cbd0;stroke:#000000;stroke-width:2.500px;opacity:1.0;}
.node-23{fill:#c8cbd0;stroke:#000000;stroke-width:2.500px;opacity:1.0;}
.node-24{fill:#c8cbd0;stroke:#000000;stroke-width:2.500px;opacity:1.0;}
.node-25{fill:#c8cbd0;stroke:#000000;stroke-width:2.500px;opacity:1.0;}
.node-26{fill:#c8cbd0;stroke:#000000;stroke-width:2.500px;opacity:1.0;}
.node-27{fill:#c8cbd0;stroke:#000000;stroke-width:2.500px;opacity:1.0;}
.node-28{fill:#c8cbd0;stroke:#000000;stroke-width:2.500px;opacity:1.0;}
.node-29{fill:#c8cbd0;stroke:#000000;stroke-width:2.500px;opacity:1.0;}
.node-30{fill:#c8cbd0;stroke:#000000;stroke-width:2.500px;opacity:1.0;}
.node-31{fill:#c8cbd0;stroke:#000000;stroke-width:2.500px;opacity:1.0;}
.node-32{fill:#c8cbd0;stroke:#000000;stroke-width:2.500px;opacity:1.0;}
.node-33{fill:#c8cbd0;stroke:#000000;stroke-width:2.500px;opacity:1.0;}
.node-34{fill:#c8cbd0;stroke:#000000;stroke-width:2.500px;opacity:1.0;}
.node-35{fill:#c8cbd0;stroke:#000000;stroke-width:2.500px;opacity:1.0;}
.node-36{fill:#c8cbd0;stroke:#000000;stroke-width:2.500px;opacity:1.0;}
.node-37{fill:#c8cbd0;stroke:#000000;stroke-width:2.500px;opacity:1.0;}
.node-38{fill:#c8cbd0;stroke:#000000;stroke-width:2.500px;opacity:1.0;}
.node-39{fill:#c8cbd0;stroke:#000000;stroke-width:2.500px;opacity:1.0;}
.node-40{fill:#c8cbd0;stroke:#000000;stroke-width:2.500px;opacity:1.0;}
.node-41{fill:#c8cbd0;stroke:#000000;stroke-width:2.500px;opacity:1.0;}
.node-42{fill:#c8cbd0;stroke:#000000;stroke-width:2.500px;opacity:1.0;}
.node-43{fill:#c8cbd0;stroke:#000000;stroke-width:2.500px;opacity:1.0;}
.node-44{fill:#c8cbd0;stroke:#000000;stroke-width:2.500px;opacity:1.0;}
.node-45{fill:#c8cbd0;stroke:#000000;stroke-width:2.500px;opacity:1.0;}
.node-46{fill:#c8cbd0;stroke:#000000;stroke-width:2.500px;opacity:1.0;}
</style>

</defs>
<polygon class="node-0" points="211.221,1.942 211.444,-1.609 212.111,-5.104 213.211,-8.488 214.726,-11.708 216.632,-14.712 218.900,-17.454 221.494,-19.889 224.373,-21.981 227.491,-23.695 230.799,-25.005 234.245,-25.890 237.775,-26.336 241.333,-26.336 244.864,-25.890 248.310,-25.005 251.618,-23.695 254.736,-21.981 257.615,-19.889 260.208,-17.454 262.477,-14.712 264.383,-11.708 265.898,-8.488 266.998,-5.104 267.664,-1.609 267.888,1.942 267.888,1.942 267.664,5.493 266.998,8.988 265.898,12.372 264.383,15.591 262.477,18.596 260.208,21.337 257.615,23.773 254.736,25.864 251.618,27.578 248.310,28.888 244.864,29.773 241.333,30.219 237.775,30.219 234.245,29.773 230.799,28.888 227.491,27.578 224.373,25.864 221.494,23.773 218.900,21.337 216.632,18.596 214.726,15.591 213.211,12.372 212.111,8.988 211.444,5.493"/>
<polygon class="node-1" points="171.029,-13.859 171.235,-15.391 171.665,-17.320 172.290,-19.526 173.071,-21.871 173.960,-24.206 174.900,-26.385 175.833,-28.272 176.700,-29.748 177.446,-30.719 178.024,-31.125 180.889,-30.121 188.620,-27.311 198.946,-23.543 217.114,-16.901 217.371,-16.406 217.393,-15.354 217.179,-13.809 216.744,-11.870 216.114,-9.658 215.328,-7.312 214.437,-4.979 213.496,-2.806 212.564,-0.930 211.701,0.532 210.959,1.488 210.386,1.877 207.751,0.936 204.959,-0.065 202.374,-1.007 179.133,-9.489 171.321,-12.345 171.058,-12.822"/>
<polygon class="node-2" points="146.446,-21.726 146.670,-25.277 147.336,-28.772 148.436,-32.156 149.951,-35.376 151.857,-38.380 154.126,-41.122 156.719,-43.557 159.598,-45.649 162.716,-47.363 166.024,-48.673 169.470,-49.557 173.001,-50.003 176.559,-50.003 180.089,-49.557 183.535,-48.673 186.843,-47.363 189.961,-45.649 192.840,-43.557 195.434,-41.122 197.702,-38.380 199.608,-35.376 201.123,-32.156 202.223,-28.772 202.890,-25.277 203.113,-21.726 203.113,-21.726 202.890,-18.175 202.223,-14.680 201.123,-11.296 199.608,-8.076 197.702,-5.072 195.434,-2.331 192.840,0.105 189.961,2.197 186.843,3.911 183.535,5.221 180.089,6.105 176.559,6.551 173.001,6.551 169.470,6.105 166.024,5.221 162.716,3.911 159.598,2.197 156.719,0.105 154.126,-2.331 151.857,-5.072 149.951,-8.076 148.436,-11.296 147.336,-14.680 146.670,-18.175"/>
<polygon class="node-3" points="239.289,26.627 239.800,25.192 240.870,23.703 242.432,22.252 244.387,20.932 246.613,19.825 248.969,19.000 251.309,18.511 253.484,18.386 255.358,18.635 256.813,19.241 257.759,20.167 259.782,25.027 268.992,47.605 271.540,53.863 271.849,55.075 271.565,56.464 270.705,57.944 269.324,59.420 267.508,60.802 265.371,62.000 263.048,62.941 260.684,63.565 258.428,63.834 256.422,63.729 254.792,63.258 253.641,62.450 253.039,61.356 252.317,59.627 251.318,57.203 240.331,30.295 239.368,27.917"/>
<polygon class="node-4" points="300.193,81.717 300.392,78.542 300.989,75.417 301.972,72.391 303.326,69.513 305.031,66.827 307.059,64.375 309.378,62.198 311.952,60.328 314.740,58.795 317.698,57.624 320.779,56.833 323.935,56.434 327.117,56.434 330.273,56.833 333.355,57.624 336.312,58.795 339.100,60.328 341.674,62.198 343.993,64.375 346.021,66.827 347.726,69.513 349.080,72.391 350.064,75.417 350.660,78.542 350.859,81.717 350.660,84.892 350.064,88.017 349.080,91.043 347.726,93.922 346.021,96.608 343.993,99.059 341.674,101.237 339.100,103.107 336.312,104.640 333.355,105.811 330.273,106.602 327.117,107.001 323.935,107.001 320.779,106.602 317.698,105.811 314.740,104.640 311.952,103.107 309.378,101.237 307.059,99.059 305.031,96.608 303.326,93.922 301.972,91.043 300.989,88.017 300.392,84.892"/>
<polygon class="node-5" points="258.595,66.642 258.635,65.528 258.911,63.934 259.408,61.961 260.092,59.733 260.922,57.390 261.845,55.078 262.803,52.944 263.735,51.121 264.585,49.724 265.297,48.841 265.827,48.527 270.936,50.436 301.261,61.874 303.854,62.857 306.419,63.841 306.613,64.419 306.568,65.545 306.286,67.148 305.785,69.128 305.097,71.360 304.264,73.704 303.340,76.013 302.382,78.142 301.450,79.957 300.604,81.343 299.895,82.214 299.369,82.515 289.115,78.657 276.512,73.907 258.794,67.207"/>
<polygon class="node-6" points="234.071,57.899 234.294,54.348 234.961,50.853 236.060,47.469 237.575,44.249 239.482,41.245 241.750,38.504 244.344,36.068 247.222,33.976 250.340,32.262 253.648,30.952 257.095,30.068 260.625,29.622 264.183,29.622 267.713,30.068 271.159,30.952 274.468,32.262 277.586,33.976 280.464,36.068 283.058,38.504 285.326,41.245 287.233,44.249 288.748,47.469 289.847,50.853 290.514,54.348 290.737,57.899 290.737,57.899 290.514,61.450 289.847,64.945 288.748,68.329 287.233,71.549 285.326,74.553 283.058,77.295 280.464,79.730 277.586,81.822 274.468,83.536 271.159,84.846 267.713,85.730 264.183,86.176 260.625,86.176 257.095,85.730 253.648,84.846 250.340,83.536 247.222,81.822 244.344,79.730 241.750,77.295 239.482,74.553 237.575,71.549 236.060,68.329 234.961,64.945 234.294,61.450"/>
<polygon class="node-7" points="124.571,7.243 124.667,5.219 125.257,3.496 126.305,2.181 128.247,0.710 151.808,-16.981 153.288,-17.741 155.058,-17.954 157.005,-17.606 159.006,-16.721 160.937,-15.352 162.677,-13.587 164.114,-11.536 165.160,-9.328 165.749,-7.101 165.844,-4.996 165.438,-3.145 164.557,-1.665 161.953,0.399 160.349,1.610 158.759,2.809 150.395,9.090 145.372,12.861 143.446,14.303 138.087,18.291 136.485,18.847 134.634,18.848 132.652,18.292 130.662,17.216 128.790,15.685 127.153,13.798 125.854,11.671 124.975,9.439"/>
<polygon class="node-8" points="212.899,87.248 213.025,85.257 213.648,83.575 214.728,82.305 223.051,75.833 229.716,70.650 234.566,66.882 240.110,62.609 241.698,62.025 243.544,61.993 245.533,62.515 247.539,63.557 249.436,65.055 251.105,66.914 252.442,69.017 253.362,71.232 253.807,73.421 253.750,75.445 253.194,77.177 252.174,78.509 248.516,81.363 230.349,95.493 228.582,96.863 226.418,98.465 224.788,98.974 222.915,98.928 220.917,98.332 218.918,97.222 217.046,95.669 215.416,93.769 214.133,91.642 213.276,89.422"/>
<polygon class="node-9" points="104.200,9.997 104.424,6.446 105.091,2.951 106.190,-0.433 107.705,-3.653 109.612,-6.657 111.880,-9.398 114.473,-11.834 117.352,-13.926 120.470,-15.640 123.778,-16.950 127.225,-17.834 130.755,-18.280 134.313,-18.280 137.843,-17.834 141.289,-16.950 144.597,-15.640 147.715,-13.926 150.594,-11.834 153.188,-9.398 155.456,-6.657 157.362,-3.653 158.877,-0.433 159.977,2.951 160.644,6.446 160.867,9.997 160.867,9.997 160.644,13.548 159.977,17.043 158.877,20.427 157.362,23.647 155.456,26.651 153.188,29.393 150.594,31.828 147.715,33.920 144.597,35.634 141.289,36.944 137.843,37.829 134.313,38.274 130.755,38.274 127.225,37.829 123.778,36.944 120.470,35.634 117.352,33.920 114.473,31.828 111.880,29.393 109.612,26.651 107.705,23.647 106.190,20.427 105.091,17.043 104.424,13.548"/>
<polygon class="node-10" points="59.907,-5.085 59.992,-6.397 60.296,-8.160 60.799,-10.264 61.470,-12.576 62.266,-14.952 63.138,-17.241 64.030,-19.300 64.888,-20.999 65.656,-22.233 66.286,-22.922 66.740,-23.025 72.239,-21.151 91.581,-14.548 108.161,-8.888 110.707,-7.951 111.075,-7.796 111.229,-7.057 111.159,-5.780 110.870,-4.045 110.380,-1.961 109.720,0.342 108.931,2.718 108.062,5.017 107.169,7.097 106.308,8.825 105.532,10.094 104.890,10.823 104.423,10.967 93.389,7.201 71.289,-0.343 68.543,-1.281 62.924,-3.214 60.399,-4.110 60.045,-4.306"/>
<polygon class="node-11" points="-8.642,37.774 -8.442,34.599 -7.846,31.474 -6.863,28.449 -5.508,25.570 -3.804,22.884 -1.776,20.433 0.543,18.255 3.117,16.385 5.905,14.852 8.863,13.681 11.945,12.890 15.101,12.491 18.282,12.491 21.438,12.890 24.520,13.681 27.478,14.852 30.266,16.385 32.840,18.255 35.159,20.433 37.187,22.884 38.891,25.570 40.246,28.449 41.229,31.474 41.825,34.599 42.025,37.774 42.025,37.774 41.825,40.950 41.229,44.075 40.246,47.100 38.891,49.979 37.187,52.665 35.159,55.116 32.840,57.294 30.266,59.164 27.478,60.697 24.520,61.868 21.438,62.659 18.282,63.058 15.101,63.058 11.945,62.659 8.863,61.868 5.905,60.697 3.117,59.164 0.543,57.294 -1.776,55.116 -3.804,52.665 -5.508,49.979 -6.863,47.100 -7.846,44.075 -8.442,40.950"/>
<polygon class="node-12" points="26.158,12.610 28.013,10.528 35.498,2.280 44.852,-7.990 50.467,-14.153 56.087,-20.316 56.433,-20.093 57.221,-19.461 58.402,-18.459 59.901,-17.151 61.624,-15.618 63.463,-13.957 65.302,-12.272 67.026,-10.670 68.526,-9.250 69.709,-8.102 70.500,-7.299 70.848,-6.890 68.991,-4.805 67.120,-2.739 46.537,19.859 40.918,26.024 40.597,25.825 39.833,25.214 38.673,24.232 37.189,22.939 35.476,21.416 33.640,19.759 31.798,18.073 30.065,16.463 28.549,15.031 27.346,13.866 26.532,13.042"/>
<polygon class="node-13" points="35.135,-13.579 35.358,-17.130 36.025,-20.625 37.124,-24.009 38.639,-27.229 40.546,-30.233 42.814,-32.975 45.408,-35.410 48.286,-37.502 51.404,-39.216 54.712,-40.526 58.159,-41.411 61.689,-41.857 65.247,-41.857 68.777,-41.411 72.223,-40.526 75.532,-39.216 78.650,-37.502 81.528,-35.410 84.122,-32.975 86.390,-30.233 88.297,-27.229 89.812,-24.009 90.911,-20.625 91.578,-17.130 91.801,-13.579 91.801,-13.579 91.578,-10.028 90.911,-6.533 89.812,-3.149 88.297,0.070 86.390,3.075 84.122,5.816 81.528,8.252 78.650,10.343 75.532,12.058 72.223,13.367 68.777,14.252 65.247,14.698 61.689,14.698 58.159,14.252 54.712,13.367 51.404,12.058 48.286,10.343 45.408,8.252 42.814,5.816 40.546,3.075 38.639,0.070 37.124,-3.149 36.025,-6.533 35.358,-10.028"/>
<polygon class="node-14" points="-52.129,30.191 -51.980,28.397 -51.676,26.247 -51.237,23.874 -50.691,21.429 -50.071,19.064 -49.416,16.928 -48.768,15.156 -48.168,13.859 -47.652,13.118 -47.254,12.980 -26.116,17.782 -4.893,22.612 -4.631,23.057 -4.526,24.086 -4.586,25.635 -4.807,27.605 -5.174,29.874 -5.666,32.299 -6.250,34.727 -6.891,37.005 -7.548,38.992 -8.179,40.561 -8.746,41.614 -9.211,42.086 -12.063,41.482 -14.621,40.903 -25.245,38.490 -49.136,33.051 -51.607,32.454 -51.936,32.285 -52.114,31.514"/>
<polygon class="node-15" points="-123.116,75.750 -122.893,72.199 -122.226,68.704 -121.127,65.320 -119.612,62.100 -117.705,59.096 -115.437,56.355 -112.843,53.919 -109.965,51.827 -106.847,50.113 -103.539,48.804 -100.092,47.919 -96.562,47.473 -93.004,47.473 -89.474,47.919 -86.028,48.804 -82.719,50.113 -79.601,51.827 -76.723,53.919 -74.129,56.355 -71.861,59.096 -69.954,62.100 -68.439,65.320 -67.340,68.704 -66.673,72.199 -66.450,75.750 -66.673,79.301 -67.340,82.796 -68.439,86.180 -69.954,89.400 -71.861,92.404 -74.129,95.146 -76.723,97.581 -79.601,99.673 -82.719,101.387 -86.028,102.697 -89.474,103.582 -93.004,104.028 -96.562,104.028 -100.092,103.582 -103.539,102.697 -106.847,101.387 -109.965,99.673 -112.843,97.581 -115.437,95.146 -117.705,92.404 -119.612,89.400 -121.127,86.180 -122.226,82.796 -122.893,79.301"/>
<polygon class="node-16" points="132.623,35.386 132.991,33.996 133.926,32.522 135.371,31.055 137.234,29.689 139.399,28.509 141.729,27.589 144.078,26.987 146.298,26.741 148.250,26.866 149.811,27.355 150.883,28.177 151.399,29.279 153.141,33.289 158.853,46.916 165.469,62.701 165.680,63.923 165.300,65.316 164.353,66.791 162.898,68.257 161.027,69.620 158.857,70.795 156.526,71.709 154.178,72.304 151.962,72.542 150.017,72.409 148.466,71.912 147.405,71.084 146.180,68.397 144.147,63.553 137.550,47.829 133.739,38.738 132.847,36.605"/>
<polygon class="node-17" points="38.405,-75.658 38.655,-76.182 39.500,-76.816 40.888,-77.521 42.732,-78.253 44.915,-78.964 47.302,-79.611 49.741,-80.153 52.079,-80.556 54.170,-80.794 55.881,-80.853 57.107,-80.729 57.769,-80.430 58.489,-77.631 59.093,-75.111 65.227,-49.357 67.007,-41.764 66.986,-41.290 66.359,-40.693 65.165,-40.009 63.478,-39.282 61.406,-38.558 59.079,-37.882 56.642,-37.296 54.248,-36.838 52.049,-36.536 50.181,-36.409 48.764,-36.465 47.885,-36.701 47.600,-37.102 46.987,-39.668 43.316,-55.033 41.476,-62.757"/>
<polygon class="node-18" points="-84.276,48.037 -78.851,41.676 -71.610,33.191 -66.184,26.835 -57.135,16.245 -56.902,16.282 -56.205,16.722 -55.088,17.539 -53.621,18.681 -51.897,20.076 -50.023,21.637 -48.118,23.265 -46.301,24.859 -44.687,26.318 -43.376,27.551 -42.452,28.479 -41.971,29.046 -41.966,29.214 -43.725,31.325 -61.834,52.545 -67.258,58.899 -69.079,60.953 -69.202,61.012 -69.794,60.664 -70.819,59.930 -72.212,58.858 -73.886,57.515 -75.735,55.984 -77.644,54.362 -79.492,52.751 -81.163,51.252 -82.552,49.959 -83.572,48.954 -84.159,48.300"/>
<polygon class="node-19" points="-77.855,22.713 -77.632,19.162 -76.965,15.667 -75.866,12.283 -74.351,9.063 -72.444,6.059 -70.176,3.318 -67.582,0.882 -64.704,-1.210 -61.586,-2.924 -58.277,-4.233 -54.831,-5.118 -51.301,-5.564 -47.743,-5.564 -44.213,-5.118 -40.766,-4.233 -37.458,-2.924 -34.340,-1.210 -31.462,0.882 -28.868,3.318 -26.600,6.059 -24.693,9.063 -23.178,12.283 -22.079,15.667 -21.412,19.162 -21.189,22.713 -21.189,22.713 -21.412,26.264 -22.079,29.759 -23.178,33.143 -24.693,36.363 -26.600,39.367 -28.868,42.109 -31.462,44.544 -34.340,46.636 -37.458,48.350 -40.766,49.660 -44.213,50.545 -47.743,50.991 -51.301,50.991 -54.831,50.545 -58.277,49.660 -61.586,48.350 -64.704,46.636 -67.582,44.544 -70.176,42.109 -72.444,39.367 -74.351,36.363 -75.866,33.143 -76.965,29.759 -77.632,26.264"/>
<polygon class="node-20" points="-164.851,71.554 -164.843,69.986 -164.693,67.993 -164.411,65.702 -164.014,63.257 -163.528,60.810 -162.982,58.515 -162.412,56.517 -161.852,54.942 -161.339,53.888 -160.904,53.421 -158.141,53.906 -149.963,55.402 -125.529,59.908 -122.823,60.408 -119.946,61.003 -119.718,61.649 -119.628,62.866 -119.681,64.578 -119.873,66.678 -120.193,69.034 -120.621,71.496 -121.129,73.912 -121.686,76.129 -122.257,78.007 -122.806,79.429 -123.298,80.306 -123.702,80.581 -137.293,78.074 -158.971,74.074 -164.449,73.057 -164.717,72.599"/>
<polygon class="node-21" points="192.585,90.158 192.808,86.607 193.475,83.112 194.575,79.728 196.090,76.509 197.996,73.504 200.264,70.763 202.858,68.327 205.737,66.236 208.855,64.522 212.163,63.212 215.609,62.327 219.139,61.881 222.697,61.881 226.228,62.327 229.674,63.212 232.982,64.522 236.100,66.236 238.979,68.327 241.573,70.763 243.841,73.504 245.747,76.509 247.262,79.728 248.362,83.112 249.028,86.607 249.252,90.158 249.028,93.710 248.362,97.205 247.262,100.589 245.747,103.808 243.841,106.812 241.573,109.554 238.979,111.990 236.100,114.081 232.982,115.795 229.674,117.105 226.228,117.990 222.697,118.436 219.139,118.436 215.609,117.990 212.163,117.105 208.855,115.795 205.737,114.081 202.858,111.990 200.264,109.554 197.996,106.812 196.090,103.808 194.575,100.589 193.475,97.205 192.808,93.710"/>
<polygon class="node-22" points="-233.985,113.400 -233.785,110.225 -233.189,107.100 -232.206,104.074 -230.852,101.196 -229.147,98.510 -227.119,96.058 -224.800,93.880 -222.226,92.010 -219.438,90.478 -216.480,89.307 -213.399,88.516 -210.243,88.117 -207.061,88.117 -203.905,88.516 -200.823,89.307 -197.865,90.478 -195.078,92.010 -192.504,93.880 -190.185,96.058 -188.157,98.510 -186.452,101.196 -185.097,104.074 -184.114,107.100 -183.518,110.225 -183.318,113.400 -183.518,116.575 -184.114,119.700 -185.097,122.726 -186.452,125.605 -188.157,128.291 -190.185,130.742 -192.504,132.920 -195.078,134.790 -197.865,136.322 -200.823,137.494 -203.905,138.285 -207.061,138.683 -210.243,138.683 -213.399,138.285 -216.480,137.494 -219.438,136.322 -222.226,134.790 -224.800,132.920 -227.119,130.742 -229.147,128.291 -230.852,125.605 -232.206,122.726 -233.189,119.700 -233.785,116.575"/>
<polygon class="node-23" points="19.807,-77.939 20.030,-81.490 20.697,-84.985 21.796,-88.369 23.311,-91.589 25.218,-94.593 27.486,-97.334 30.080,-99.770 32.958,-101.862 36.076,-103.576 39.384,-104.886 42.831,-105.770 46.361,-106.216 49.919,-106.216 53.449,-105.770 56.895,-104.886 60.204,-103.576 63.322,-101.862 66.200,-99.770 68.794,-97.334 71.062,-94.593 72.969,-91.589 74.484,-88.369 75.583,-84.985 76.250,-81.490 76.473,-77.939 76.250,-74.388 75.583,-70.893 74.484,-67.509 72.969,-64.289 71.062,-61.285 68.794,-58.543 66.200,-56.108 63.322,-54.016 60.204,-52.302 56.895,-50.992 53.449,-50.107 49.919,-49.662 46.361,-49.662 42.831,-50.107 39.384,-50.992 36.076,-52.302 32.958,-54.016 30.080,-56.108 27.486,-58.543 25.218,-61.285 23.311,-64.289 21.796,-67.509 20.697,-70.893 20.030,-74.388"/>
<polygon class="node-24" points="-199.440,88.596 -195.741,84.560 -184.696,72.530 -179.165,66.506 -169.936,56.467 -169.563,56.663 -168.752,57.273 -167.554,58.258 -166.043,59.555 -164.315,61.084 -162.479,62.748 -160.649,64.443 -158.941,66.063 -157.463,67.504 -156.306,68.678 -155.544,69.510 -155.224,69.947 -158.935,74.022 -162.586,78.006 -173.661,90.073 -179.170,96.058 -184.755,102.108 -185.214,101.831 -186.104,101.145 -187.369,100.096 -188.929,98.747 -190.686,97.184 -192.530,95.506 -194.346,93.818 -196.018,92.225 -197.441,90.828 -198.528,89.714 -199.208,88.954"/>
<polygon class="node-25" points="59.269,-105.077 61.129,-107.165 68.544,-115.349 70.396,-117.391 85.229,-133.734 87.089,-135.758 87.244,-135.782 87.855,-135.386 88.883,-134.595 90.264,-133.458 91.912,-132.048 93.722,-130.452 95.581,-128.771 97.372,-127.111 98.982,-125.576 100.311,-124.263 101.275,-123.253 101.813,-122.610 101.891,-122.376 94.484,-114.193 90.784,-110.107 79.651,-97.822 74.063,-91.679 73.646,-91.896 72.791,-92.522 71.552,-93.517 70.007,-94.819 68.254,-96.347 66.402,-98.004 64.567,-99.686 62.866,-101.287 61.404,-102.707 60.274,-103.857 59.547,-104.664"/>
<polygon class="node-26" points="-190.920,63.238 -190.697,59.687 -190.030,56.191 -188.931,52.807 -187.416,49.588 -185.509,46.584 -183.241,43.842 -180.647,41.406 -177.769,39.315 -174.651,37.601 -171.343,36.291 -167.896,35.406 -164.366,34.960 -160.808,34.960 -157.278,35.406 -153.832,36.291 -150.523,37.601 -147.405,39.315 -144.527,41.406 -141.933,43.842 -139.665,46.584 -137.758,49.588 -136.243,52.807 -135.144,56.191 -134.477,59.687 -134.254,63.238 -134.254,63.238 -134.477,66.789 -135.144,70.284 -136.243,73.668 -137.758,76.887 -139.665,79.892 -141.933,82.633 -144.527,85.069 -147.405,87.160 -150.523,88.874 -153.832,90.184 -157.278,91.069 -160.808,91.515 -164.366,91.515 -167.896,91.069 -171.343,90.184 -174.651,88.874 -177.769,87.160 -180.647,85.069 -183.241,82.633 -185.509,79.892 -187.416,76.887 -188.931,73.668 -190.030,70.284 -190.697,66.789"/>
<polygon class="node-27" points="-81.603,-38.561 -81.434,-39.112 -80.681,-39.835 -79.394,-40.684 -77.651,-41.607 -75.564,-42.545 -73.263,-43.439 -70.893,-44.234 -68.602,-44.878 -66.535,-45.333 -64.821,-45.568 -63.568,-45.570 -62.856,-45.338 -61.837,-42.620 -59.100,-34.823 -54.584,-21.941 -50.030,-8.940 -49.122,-6.335 -49.375,-5.757 -50.207,-5.013 -51.565,-4.150 -53.363,-3.221 -55.489,-2.286 -57.809,-1.402 -60.177,-0.626 -62.445,-0.006 -64.469,0.418 -66.124,0.621 -67.304,0.590 -67.936,0.325 -69.831,-4.986 -72.537,-12.703"/>
<polygon class="node-28" points="69.166,-129.099 69.366,-132.274 69.962,-135.400 70.945,-138.425 72.300,-141.304 74.005,-143.990 76.032,-146.441 78.352,-148.619 80.925,-150.489 83.713,-152.022 86.671,-153.193 89.753,-153.984 92.909,-154.383 96.090,-154.383 99.247,-153.984 102.328,-153.193 105.286,-152.022 108.074,-150.489 110.648,-148.619 112.967,-146.441 114.995,-143.990 116.699,-141.304 118.054,-138.425 119.037,-135.400 119.633,-132.274 119.833,-129.099 119.633,-125.924 119.037,-122.799 118.054,-119.774 116.699,-116.895 114.995,-114.209 112.967,-111.758 110.648,-109.580 108.074,-107.710 105.286,-106.177 102.328,-105.006 99.247,-104.215 96.090,-103.816 92.909,-103.816 89.753,-104.215 86.671,-105.006 83.713,-106.177 80.925,-107.710 78.352,-109.580 76.032,-111.758 74.005,-114.209 72.300,-116.895 70.945,-119.774 69.962,-122.799 69.366,-125.924"/>
<polygon class="node-29" points="152.519,74.643 152.695,73.161 153.096,71.270 153.697,69.087 154.459,66.749 155.336,64.405 156.272,62.200 157.208,60.273 158.085,58.746 158.848,57.715 159.450,57.243 159.853,57.362 162.217,58.160 167.458,60.060 185.503,66.632 198.370,71.333 198.712,71.616 198.824,72.473 198.700,73.850 198.347,75.660 197.788,77.790 197.057,80.106 196.201,82.462 195.273,84.710 194.332,86.709 193.437,88.334 192.644,89.482 192.003,90.081 191.554,90.094 186.503,88.272 183.886,87.322 152.871,76.033 152.579,75.620"/>
<polygon class="node-30" points="-25.637,-88.339 -25.479,-90.116 -25.150,-92.250 -24.672,-94.607 -24.074,-97.040 -23.395,-99.395 -22.676,-101.524 -21.963,-103.294 -21.301,-104.593 -20.731,-105.339 -20.289,-105.487 10.889,-97.635 16.537,-96.213 25.117,-94.042 25.392,-93.543 25.492,-92.466 25.412,-90.881 25.155,-88.887 24.739,-86.609 24.189,-84.191 23.540,-81.783 22.833,-79.538 22.112,-77.597 21.422,-76.081 20.808,-75.086 20.306,-74.675 14.403,-76.147 -5.248,-81.100 -8.297,-81.870 -22.497,-85.458 -25.048,-86.116 -25.415,-86.274 -25.615,-87.031"/>
<polygon class="node-31" points="-195.029,2.359 -195.028,1.857 -194.438,1.168 -193.298,0.336 -191.678,-0.587 -189.680,-1.544 -187.431,-2.473 -185.070,-3.317 -182.748,-4.022 -180.608,-4.545 -178.787,-4.852 -177.398,-4.924 -176.529,-4.757 -176.234,-4.361 -173.487,3.229 -163.313,31.611 -162.438,34.055 -162.484,34.573 -163.117,35.274 -164.297,36.115 -165.949,37.043 -167.970,37.999 -170.233,38.924 -172.596,39.759 -174.910,40.452 -177.029,40.959 -178.822,41.249 -180.174,41.303 -181.002,41.118 -181.252,40.706 -183.088,35.695 -183.998,33.161 -185.845,28.013 -190.469,15.121 -194.152,4.852"/>
<polygon class="node-32" points="-100.494,-41.849 -100.270,-45.401 -99.604,-48.896 -98.504,-52.280 -96.989,-55.499 -95.082,-58.503 -92.814,-61.245 -90.221,-63.681 -87.342,-65.772 -84.224,-67.486 -80.916,-68.796 -77.469,-69.681 -73.939,-70.127 -70.381,-70.127 -66.851,-69.681 -63.405,-68.796 -60.097,-67.486 -56.979,-65.772 -54.100,-63.681 -51.506,-61.245 -49.238,-58.503 -47.332,-55.499 -45.817,-52.280 -44.717,-48.896 -44.050,-45.401 -43.827,-41.849 -43.827,-41.849 -44.050,-38.298 -44.717,-34.803 -45.817,-31.419 -47.332,-28.200 -49.238,-25.196 -51.506,-22.454 -54.100,-20.018 -56.979,-17.927 -60.097,-16.213 -63.405,-14.903 -66.851,-14.018 -70.381,-13.572 -73.939,-13.572 -77.469,-14.018 -80.916,-14.903 -84.224,-16.213 -87.342,-17.927 -90.221,-20.018 -92.814,-22.454 -95.082,-25.196 -96.989,-28.200 -98.504,-31.419 -99.604,-34.803 -100.270,-38.298"/>
<polygon class="node-33" points="127.941,66.631 128.165,63.080 128.832,59.585 129.931,56.201 131.446,52.981 133.353,49.977 135.621,47.235 138.214,44.800 141.093,42.708 144.211,40.994 147.519,39.684 150.966,38.800 154.496,38.354 158.054,38.354 161.584,38.800 165.030,39.684 168.338,40.994 171.457,42.708 174.335,44.800 176.929,47.235 179.197,49.977 181.103,52.981 182.618,56.201 183.718,59.585 184.385,63.080 184.608,66.631 184.385,70.182 183.718,73.677 182.618,77.061 181.103,80.281 179.197,83.285 176.929,86.026 174.335,88.462 171.457,90.554 168.338,92.268 165.030,93.578 161.584,94.462 158.054,94.908 154.496,94.908 150.966,94.462 147.519,93.578 144.211,92.268 141.093,90.554 138.214,88.462 135.621,86.026 133.353,83.285 131.446,80.281 129.931,77.061 128.832,73.677 128.165,70.182"/>
<polygon class="node-34" points="-59.776,-70.130 -55.831,-74.497 -41.996,-89.609 -32.127,-100.376 -30.150,-102.529 -29.948,-102.482 -29.294,-102.016 -28.230,-101.159 -26.824,-99.966 -25.162,-98.511 -23.350,-96.885 -21.502,-95.192 -19.734,-93.537 -18.156,-92.025 -16.868,-90.750 -15.951,-89.792 -15.463,-89.212 -15.433,-89.046 -19.342,-84.740 -43.049,-58.843 -45.043,-56.672 -45.411,-56.871 -46.218,-57.482 -47.414,-58.468 -48.923,-59.765 -50.651,-61.292 -52.490,-62.954 -54.322,-64.645 -56.035,-66.261 -57.519,-67.698 -58.682,-68.868 -59.450,-69.695"/>
<polygon class="node-35" points="-41.073,-154.642 -41.056,-154.893 -40.738,-155.215 -40.139,-155.587 -39.298,-155.986 -38.267,-156.387 -37.110,-156.764 -35.901,-157.095 -34.716,-157.358 -33.628,-157.536 -32.707,-157.619 -32.010,-157.602 -31.581,-157.485 -31.447,-157.275 -30.837,-155.062 -27.625,-143.383 -23.156,-127.089 -16.775,-103.825 -16.139,-101.504 -15.520,-99.214 -15.534,-98.964 -15.848,-98.643 -16.442,-98.272 -17.281,-97.873 -18.310,-97.472 -19.465,-97.094 -20.674,-96.762 -21.860,-96.498 -22.949,-96.319 -23.873,-96.234 -24.574,-96.250 -25.007,-96.366 -25.145,-96.575 -28.332,-108.158 -31.522,-119.787 -34.712,-131.416 -39.175,-147.691"/>
<polygon class="node-36" points="-51.103,-95.802 -50.880,-99.354 -50.213,-102.849 -49.114,-106.233 -47.599,-109.452 -45.692,-112.456 -43.424,-115.198 -40.830,-117.634 -37.952,-119.725 -34.834,-121.439 -31.525,-122.749 -28.079,-123.634 -24.549,-124.080 -20.991,-124.080 -17.461,-123.634 -14.015,-122.749 -10.706,-121.439 -7.588,-119.725 -4.710,-117.634 -2.116,-115.198 0.152,-112.456 2.059,-109.452 3.574,-106.233 4.673,-102.849 5.340,-99.354 5.563,-95.802 5.340,-92.251 4.673,-88.756 3.574,-85.372 2.059,-82.153 0.152,-79.149 -2.116,-76.407 -4.710,-73.971 -7.588,-71.880 -10.706,-70.166 -14.015,-68.856 -17.461,-67.971 -20.991,-67.525 -24.549,-67.525 -28.079,-67.971 -31.525,-68.856 -34.834,-70.166 -37.952,-71.880 -40.830,-73.971 -43.424,-76.407 -45.692,-79.149 -47.599,-82.153 -49.114,-85.372 -50.213,-88.756 -50.880,-92.251"/>
<polygon class="node-37" points="-142.518,-45.698 -142.500,-47.347 -142.345,-49.402 -142.062,-51.733 -141.670,-54.193 -141.193,-56.629 -140.660,-58.887 -140.107,-60.826 -139.566,-62.323 -139.073,-63.285 -138.658,-63.650 -119.493,-60.301 -100.456,-56.960 -97.618,-56.448 -97.357,-55.934 -97.227,-54.836 -97.235,-53.222 -97.380,-51.194 -97.653,-48.880 -98.038,-46.423 -98.510,-43.980 -99.039,-41.703 -99.592,-39.736 -100.135,-38.202 -100.633,-37.198 -101.055,-36.786 -109.332,-38.215 -128.398,-41.558 -136.533,-42.993 -142.147,-43.999 -142.398,-44.559"/>
<polygon class="node-38" points="-214.002,-1.114 -213.778,-4.665 -213.111,-8.160 -212.012,-11.544 -210.497,-14.763 -208.590,-17.768 -206.322,-20.509 -203.729,-22.945 -200.850,-25.036 -197.732,-26.751 -194.424,-28.060 -190.977,-28.945 -187.447,-29.391 -183.889,-29.391 -180.359,-28.945 -176.913,-28.060 -173.605,-26.751 -170.487,-25.036 -167.608,-22.945 -165.014,-20.509 -162.746,-17.768 -160.840,-14.763 -159.325,-11.544 -158.225,-8.160 -157.558,-4.665 -157.335,-1.114 -157.335,-1.114 -157.558,2.437 -158.225,5.932 -159.325,9.316 -160.840,12.536 -162.746,15.540 -165.014,18.282 -167.608,20.717 -170.487,22.809 -173.605,24.523 -176.913,25.833 -180.359,26.718 -183.889,27.164 -187.447,27.164 -190.977,26.718 -194.424,25.833 -197.732,24.523 -200.850,22.809 -203.729,20.717 -206.322,18.282 -208.590,15.540 -210.497,12.536 -212.012,9.316 -213.111,5.932 -213.778,2.437"/>
<polygon class="node-39" points="220.844,115.226 221.062,113.864 221.857,112.394 223.179,110.908 224.944,109.500 227.042,108.258 229.341,107.259 231.696,106.568 233.960,106.226 235.990,106.257 237.659,106.657 238.862,107.401 239.523,108.444 240.345,110.359 241.281,112.565 253.403,141.151 253.619,142.378 253.244,143.777 252.303,145.261 250.854,146.735 248.988,148.107 246.823,149.292 244.495,150.214 242.149,150.815 239.934,151.059 237.988,150.929 236.434,150.434 235.370,149.604 234.862,148.493 233.998,146.581 231.342,140.344 228.473,133.586 226.606,129.184 225.663,126.958 223.927,122.841 221.217,116.394"/>
<polygon class="node-40" points="-175.059,-28.721 -173.297,-30.813 -149.708,-58.219 -147.901,-60.288 -147.703,-60.276 -147.040,-59.857 -145.954,-59.058 -144.515,-57.928 -142.812,-56.539 -140.952,-54.977 -139.052,-53.342 -137.232,-51.735 -135.605,-50.259 -134.275,-49.004 -133.325,-48.051 -132.813,-47.460 -132.774,-47.266 -139.989,-38.858 -143.624,-34.630 -156.316,-19.890 -159.943,-15.689 -160.170,-15.726 -160.859,-16.168 -161.967,-16.988 -163.425,-18.136 -165.140,-19.538 -167.006,-21.106 -168.904,-22.743 -170.716,-24.344 -172.328,-25.811 -173.638,-27.049 -174.564,-27.982 -175.048,-28.551"/>
<polygon class="node-41" points="-168.651,-53.800 -168.427,-57.351 -167.761,-60.846 -166.661,-64.230 -165.146,-67.450 -163.240,-70.454 -160.972,-73.196 -158.378,-75.631 -155.499,-77.723 -152.381,-79.437 -149.073,-80.747 -145.627,-81.632 -142.097,-82.077 -138.539,-82.077 -135.008,-81.632 -131.562,-80.747 -128.254,-79.437 -125.136,-77.723 -122.257,-75.631 -119.663,-73.196 -117.395,-70.454 -115.489,-67.450 -113.974,-64.230 -112.874,-60.846 -112.208,-57.351 -111.984,-53.800 -111.984,-53.800 -112.208,-50.249 -112.874,-46.754 -113.974,-43.370 -115.489,-40.150 -117.395,-37.146 -119.663,-34.405 -122.257,-31.969 -125.136,-29.877 -128.254,-28.163 -131.562,-26.853 -135.008,-25.969 -138.539,-25.523 -142.097,-25.523 -145.627,-25.969 -149.073,-26.853 -152.381,-28.163 -155.499,-29.877 -158.378,-31.969 -160.972,-34.405 -163.240,-37.146 -165.146,-40.150 -166.661,-43.370 -167.761,-46.754 -168.427,-50.249"/>
<polygon class="node-42" points="-64.061,-153.982 -63.861,-157.157 -63.265,-160.282 -62.282,-163.308 -60.927,-166.186 -59.223,-168.873 -57.195,-171.324 -54.876,-173.502 -52.302,-175.372 -49.514,-176.904 -46.556,-178.075 -43.474,-178.867 -40.318,-179.265 -37.137,-179.265 -33.981,-178.867 -30.899,-178.075 -27.941,-176.904 -25.153,-175.372 -22.579,-173.502 -20.260,-171.324 -18.232,-168.873 -16.528,-166.186 -15.173,-163.308 -14.190,-160.282 -13.594,-157.157 -13.394,-153.982 -13.594,-150.807 -14.190,-147.682 -15.173,-144.656 -16.528,-141.778 -18.232,-139.091 -20.260,-136.640 -22.579,-134.462 -25.153,-132.592 -27.941,-131.060 -30.899,-129.889 -33.981,-129.097 -37.137,-128.699 -40.318,-128.699 -43.474,-129.097 -46.556,-129.889 -49.514,-131.060 -52.302,-132.592 -54.876,-134.462 -57.195,-136.640 -59.223,-139.091 -60.927,-141.778 -62.282,-144.656 -63.265,-147.682 -63.861,-150.807"/>
<polygon class="node-43" points="-39.610,-127.328 -39.555,-127.589 -38.011,-129.492 -35.725,-129.946 -30.071,-130.123 -29.974,-129.903 -28.696,-125.332 -28.058,-123.006 -27.781,-120.169 -28.380,-119.797 -29.221,-119.398 -30.253,-118.997 -31.409,-118.619 -32.618,-118.288 -33.804,-118.026 -34.891,-117.847 -35.812,-117.764 -36.509,-117.782 -36.938,-117.899 -37.072,-118.109 -38.981,-125.027"/>
<polygon class="node-44" points="-175.107,-112.256 -174.833,-112.876 -173.993,-113.686 -172.640,-114.637 -170.859,-115.668 -168.762,-116.716 -166.480,-117.713 -164.158,-118.598 -161.941,-119.315 -159.968,-119.819 -158.363,-120.077 -157.227,-120.075 -156.632,-119.811 -154.583,-114.831 -142.298,-84.947 -141.385,-82.600 -141.270,-82.131 -141.737,-81.443 -142.756,-80.580 -144.263,-79.595 -146.163,-78.551 -148.337,-77.513 -150.648,-76.546 -152.951,-75.711 -155.102,-75.061 -156.965,-74.637 -158.423,-74.464 -159.385,-74.554 -159.789,-74.902 -169.958,-99.660 -174.040,-109.599"/>
<polygon class="node-45" points="-191.162,-115.921 -190.962,-119.097 -190.366,-122.222 -189.383,-125.247 -188.028,-128.126 -186.324,-130.812 -184.296,-133.263 -181.977,-135.441 -179.403,-137.311 -176.615,-138.844 -173.657,-140.015 -170.576,-140.806 -167.419,-141.205 -164.238,-141.205 -161.082,-140.806 -158.000,-140.015 -155.042,-138.844 -152.254,-137.311 -149.681,-135.441 -147.362,-133.263 -145.334,-130.812 -143.629,-128.126 -142.274,-125.247 -141.291,-122.222 -140.695,-119.097 -140.495,-115.921 -140.695,-112.746 -141.291,-109.621 -142.274,-106.596 -143.629,-103.717 -145.334,-101.031 -147.362,-98.580 -149.681,-96.402 -152.254,-94.532 -155.042,-92.999 -158.000,-91.828 -161.082,-91.037 -164.238,-90.638 -167.419,-90.638 -170.576,-91.037 -173.657,-91.828 -176.615,-92.999 -179.403,-94.532 -181.977,-96.402 -184.296,-98.580 -186.324,-101.031 -188.028,-103.717 -189.383,-106.596 -190.366,-109.621 -190.962,-112.746"/>
<polygon class="node-46" points="218.890,145.115 219.090,141.940 219.686,138.815 220.669,135.790 222.024,132.911 223.728,130.225 225.756,127.774 228.075,125.596 230.649,123.726 233.437,122.193 236.395,121.022 239.476,120.231 242.633,119.832 245.814,119.832 248.970,120.231 252.052,121.022 255.010,122.193 257.798,123.726 260.371,125.596 262.691,127.774 264.718,130.225 266.423,132.911 267.778,135.790 268.761,138.815 269.357,141.940 269.557,145.115 269.357,148.291 268.761,151.416 267.778,154.441 266.423,157.320 264.718,160.006 262.691,162.457 260.371,164.635 257.798,166.505 255.010,168.038 252.052,169.209 248.970,170.000 245.814,170.399 242.633,170.399 239.476,170.000 236.395,169.209 233.437,168.038 230.649,166.505 228.075,164.635 225.756,162.457 223.728,160.006 222.024,157.320 220.669,154.441 219.686,151.416 219.090,148.291"/>
</svg>