<?xml version="1.0" encoding="utf-8" standalone="no"?>
<!DOCTYPE svg PUBLIC "-//W3C//DTD SVG 1.1//EN"
  "http://www.w3.org/Graphics/SVG/1.1/DTD/svg11.dtd">
<svg xmlns:xlink="http://www.w3.org/1999/xlink" width="460.8pt" height="345.6pt" viewBox="0 0 460.8 345.6" xmlns="http://www.w3.org/2000/svg" version="1.1">
 <metadata>
  <rdf:RDF xmlns:dc="http://purl.org/dc/elements/1.1/" xmlns:cc="http://creativecommons.org/ns#" xmlns:rdf="http://www.w3.org/1999/02/22-rdf-syntax-ns#">
   <cc:Work>
    <dc:type rdf:resource="http://purl.org/dc/dcmitype/StillImage"/>
    <dc:date>2025-09-04T17:21:09.231572</dc:date>
    <dc:format>image/svg+xml</dc:format>
    <dc:creator>
     <cc:Agent>
      <dc:title>Matplotlib v3.10.1, https://matplotlib.org/</dc:title>
     </cc:Agent>
    </dc:creator>
   </cc:Work>
  </rdf:RDF>
 </metadata>
 <defs>
  <style type="text/css">*{stroke-linejoin: round; stroke-linecap: butt}</style>
 </defs>
 <g id="figure_1">
  <g id="patch_1">
   <path d="M 0 345.6 
L 460.8 345.6 
L 460.8 0 
L 0 0 
z
" style="fill: #ffffff"/>
  </g>
  <g id="axes_1">
   <g id="patch_2">
    <path d="M 369.216 174.528 
C 369.216 157.055246 365.774248 139.752393 359.087715 123.609673 
C 352.401182 107.466954 342.599903 92.798303 330.2448 80.4432 
C 317.889697 68.088097 303.221046 58.286818 287.078327 51.600285 
C 270.935607 44.913752 253.632754 41.472 236.16 41.472 
C 218.687246 41.472 201.384393 44.913752 185.241673 51.600285 
C 169.098954 58.286818 154.430303 68.088097 142.0752 80.4432 
C 129.720097 92.798303 119.918818 107.466954 113.232285 123.609673 
C 106.545752 139.752393 103.104 157.055246 103.104 174.528 
C 103.104 192.000754 106.545752 209.303607 113.232285 225.446327 
C 119.918818 241.589046 129.720097 256.257697 142.0752 268.6128 
C 154.430303 280.967903 169.098954 290.769182 185.241673 297.455715 
C 201.384393 304.142248 218.687246 307.584 236.16 307.584 
C 253.632754 307.584 270.935607 304.142248 287.078327 297.455715 
C 303.221046 290.769182 317.889697 280.967903 330.2448 268.6128 
C 342.599903 256.257697 352.401182 241.589046 359.087715 225.446327 
C 365.774248 209.303607 369.216 192.000754 369.216 174.528 
M 236.16 174.528 
C 236.16 174.528 236.16 174.528 236.16 174.528 
C 236.16 174.528 236.16 174.528 236.16 174.528 
C 236.16 174.528 236.16 174.528 236.16 174.528 
C 236.16 174.528 236.16 174.528 236.16 174.528 
C 236.16 174.528 236.16 174.528 236.16 174.528 
C 236.16 174.528 236.16 174.528 236.16 174.528 
C 236.16 174.528 236.16 174.528 236.16 174.528 
C 236.16 174.528 236.16 174.528 236.16 174.528 
C 236.16 174.528 236.16 174.528 236.16 174.528 
C 236.16 174.528 236.16 174.528 236.16 174.528 
C 236.16 174.528 236.16 174.528 236.16 174.528 
C 236.16 174.528 236.16 174.528 236.16 174.528 
C 236.16 174.528 236.16 174.528 236.16 174.528 
C 236.16 174.528 236.16 174.528 236.16 174.528 
C 236.16 174.528 236.16 174.528 236.16 174.528 
C 236.16 174.528 236.16 174.528 236.16 174.528 
z
" style="fill: #ffffff"/>
   </g>
   <g id="patch_3">
    <path d="M 236.16 174.528 
C 236.16 174.528 236.16 174.528 236.16 174.528 
C 236.16 174.528 236.16 174.528 236.16 174.528 
L 259.360317 172.272484 
C 259.383937 172.515443 259.40374 172.758757 259.419717 173.002337 
C 259.435694 173.245917 259.447844 173.489733 259.456162 173.733695 
z
" clip-path="url(#pe4111afab7)" style="fill: #d8bfd8; opacity: 0.4; stroke: #d8bfd8; stroke-linejoin: miter"/>
   </g>
   <g id="patch_4">
    <path d="M 236.16 174.528 
C 236.16 174.528 236.16 174.528 236.16 174.528 
C 236.16 174.528 236.16 174.528 236.16 174.528 
L 260.846986 170.55305 
C 260.888613 170.811577 260.926176 171.070742 260.959661 171.330449 
C 260.993146 171.590156 261.02255 171.850372 261.047861 172.111003 
z
" clip-path="url(#pe4111afab7)" style="fill: #d8bfd8; opacity: 0.4; stroke: #d8bfd8; stroke-linejoin: miter"/>
   </g>
   <g id="patch_5">
    <path d="M 236.16 174.528 
C 236.16 174.528 236.16 174.528 236.16 174.528 
C 236.16 174.528 236.16 174.528 236.16 174.528 
L 252.695084 170.789214 
C 252.734238 170.962372 252.770669 171.136135 252.804363 171.310438 
C 252.838058 171.484741 252.869013 171.659562 252.897217 171.834838 
z
" clip-path="url(#pe4111afab7)" style="fill: #d8bfd8; opacity: 0.4; stroke: #d8bfd8; stroke-linejoin: miter"/>
   </g>
   <g id="patch_6">
    <path d="M 236.16 174.528 
C 236.16 174.528 236.16 174.528 236.16 174.528 
C 236.16 174.528 236.16 174.528 236.16 174.528 
L 252.428186 169.760015 
C 252.478117 169.930379 252.525369 170.101516 252.569924 170.273364 
C 252.61448 170.445212 252.656333 170.617749 252.695468 170.790912 
z
" clip-path="url(#pe4111afab7)" style="fill: #d8bfd8; opacity: 0.4; stroke: #d8bfd8; stroke-linejoin: miter"/>
   </g>
   <g id="patch_7">
    <path d="M 236.16 174.528 
C 236.16 174.528 236.16 174.528 236.16 174.528 
C 236.16 174.528 236.16 174.528 236.16 174.528 
L 262.058102 165.138055 
C 262.156435 165.409265 262.250502 165.682003 262.340268 165.956168 
C 262.430034 166.230333 262.515487 166.50589 262.596597 166.78274 
z
" clip-path="url(#pe4111afab7)" style="fill: #d8bfd8; opacity: 0.4; stroke: #d8bfd8; stroke-linejoin: miter"/>
   </g>
   <g id="patch_8">
    <path d="M 236.16 174.528 
C 236.16 174.528 236.16 174.528 236.16 174.528 
C 236.16 174.528 236.16 174.528 236.16 174.528 
L 259.086971 164.547944 
C 259.191484 164.788039 259.292219 165.029762 259.389139 165.273022 
C 259.486059 165.516282 259.579152 165.761049 259.668383 166.007234 
z
" clip-path="url(#pe4111afab7)" style="fill: #d8bfd8; opacity: 0.4; stroke: #d8bfd8; stroke-linejoin: miter"/>
   </g>
   <g id="patch_9">
    <path d="M 236.16 174.528 
C 236.16 174.528 236.16 174.528 236.16 174.528 
C 236.16 174.528 236.16 174.528 236.16 174.528 
L 253.889553 165.448497 
C 253.984635 165.634164 254.076795 165.821314 254.165999 166.009876 
C 254.255202 166.198438 254.341438 166.38839 254.424674 166.579661 
z
" clip-path="url(#pe4111afab7)" style="fill: #d8bfd8; opacity: 0.4; stroke: #d8bfd8; stroke-linejoin: miter"/>
   </g>
   <g id="patch_10">
    <path d="M 236.16 174.528 
C 236.16 174.528 236.16 174.528 236.16 174.528 
C 236.16 174.528 236.16 174.528 236.16 174.528 
L 256.929231 162.19044 
C 257.058432 162.407939 257.184209 162.627455 257.306514 162.848905 
C 257.42882 163.070356 257.54764 163.293713 257.662929 163.518896 
z
" clip-path="url(#pe4111afab7)" style="fill: #d8bfd8; opacity: 0.4; stroke: #d8bfd8; stroke-linejoin: miter"/>
   </g>
   <g id="patch_11">
    <path d="M 236.16 174.528 
C 236.16 174.528 236.16 174.528 236.16 174.528 
C 236.16 174.528 236.16 174.528 236.16 174.528 
L 254.014441 162.345911 
C 254.142014 162.532886 254.266643 162.721853 254.38828 162.912743 
C 254.509917 163.103633 254.628548 163.296422 254.744129 163.491039 
z
" clip-path="url(#pe4111afab7)" style="fill: #d8bfd8; opacity: 0.4; stroke: #d8bfd8; stroke-linejoin: miter"/>
   </g>
   <g id="patch_12">
    <path d="M 236.16 174.528 
C 236.16 174.528 236.16 174.528 236.16 174.528 
C 236.16 174.528 236.16 174.528 236.16 174.528 
L 253.550078 160.99027 
C 253.691848 161.172382 253.830748 161.35671 253.966727 161.543186 
C 254.102707 161.729661 254.235749 161.918261 254.365804 162.108916 
z
" clip-path="url(#pe4111afab7)" style="fill: #d8bfd8; opacity: 0.4; stroke: #d8bfd8; stroke-linejoin: miter"/>
   </g>
   <g id="patch_13">
    <path d="M 236.16 174.528 
C 236.16 174.528 236.16 174.528 236.16 174.528 
C 236.16 174.528 236.16 174.528 236.16 174.528 
L 248.222969 163.857853 
C 248.334709 163.984179 248.444458 164.112252 248.552174 164.242026 
C 248.659891 164.371799 248.765563 164.503256 248.86915 164.636349 
z
" clip-path="url(#pe4111afab7)" style="fill: #d8bfd8; opacity: 0.4; stroke: #d8bfd8; stroke-linejoin: miter"/>
   </g>
   <g id="patch_14">
    <path d="M 236.16 174.528 
C 236.16 174.528 236.16 174.528 236.16 174.528 
C 236.16 174.528 236.16 174.528 236.16 174.528 
L 254.711629 155.919248 
C 254.906503 156.113524 255.098314 156.31085 255.286989 156.511151 
C 255.475665 156.711453 255.661183 156.914706 255.843474 157.120835 
z
" clip-path="url(#pe4111afab7)" style="fill: #d8bfd8; opacity: 0.4; stroke: #d8bfd8; stroke-linejoin: miter"/>
   </g>
   <g id="patch_15">
    <path d="M 236.16 174.528 
C 236.16 174.528 236.16 174.528 236.16 174.528 
C 236.16 174.528 236.16 174.528 236.16 174.528 
L 250.710434 157.975967 
C 250.88377 158.128342 251.054702 158.28343 251.223166 158.441174 
C 251.391631 158.598919 251.557607 158.7593 251.721033 158.922258 
z
" clip-path="url(#pe4111afab7)" style="fill: #d8bfd8; opacity: 0.4; stroke: #d8bfd8; stroke-linejoin: miter"/>
   </g>
   <g id="patch_16">
    <path d="M 236.16 174.528 
C 236.16 174.528 236.16 174.528 236.16 174.528 
C 236.16 174.528 236.16 174.528 236.16 174.528 
L 251.718694 154.414597 
C 251.929326 154.57753 252.137385 154.743762 252.342794 154.913232 
C 252.548204 155.082701 252.750939 155.255387 252.950924 155.431224 
z
" clip-path="url(#pe4111afab7)" style="fill: #d8bfd8; opacity: 0.4; stroke: #d8bfd8; stroke-linejoin: miter"/>
   </g>
   <g id="patch_17">
    <path d="M 236.16 174.528 
C 236.16 174.528 236.16 174.528 236.16 174.528 
C 236.16 174.528 236.16 174.528 236.16 174.528 
L 249.238288 155.232911 
C 249.44035 155.36987 249.640248 155.509994 249.837908 155.653231 
C 250.035568 155.796469 250.230966 155.942803 250.42403 156.092178 
z
" clip-path="url(#pe4111afab7)" style="fill: #d8bfd8; opacity: 0.4; stroke: #d8bfd8; stroke-linejoin: miter"/>
   </g>
   <g id="patch_18">
    <path d="M 236.16 174.528 
C 236.16 174.528 236.16 174.528 236.16 174.528 
C 236.16 174.528 236.16 174.528 236.16 174.528 
L 248.864303 152.990865 
C 249.089844 153.123906 249.313281 153.260483 249.534532 153.400544 
C 249.755783 153.540604 249.97482 153.684132 250.191562 153.831073 
z
" clip-path="url(#pe4111afab7)" style="fill: #d8bfd8; opacity: 0.4; stroke: #d8bfd8; stroke-linejoin: miter"/>
   </g>
   <g id="patch_19">
    <path d="M 236.16 174.528 
C 236.16 174.528 236.16 174.528 236.16 174.528 
C 236.16 174.528 236.16 174.528 236.16 174.528 
L 251.52162 144.302667 
C 251.838146 144.463536 252.152125 144.629368 252.463441 144.800101 
C 252.774757 144.970834 253.083372 145.146446 253.389172 145.326874 
z
" clip-path="url(#pe4111afab7)" style="fill: #d8bfd8; opacity: 0.4; stroke: #d8bfd8; stroke-linejoin: miter"/>
   </g>
   <g id="patch_20">
    <path d="M 236.16 174.528 
C 236.16 174.528 236.16 174.528 236.16 174.528 
C 236.16 174.528 236.16 174.528 236.16 174.528 
L 246.909312 149.6249 
C 247.170102 149.737469 247.429108 149.854127 247.686233 149.974832 
C 247.943359 150.095537 248.198572 150.220274 248.451779 150.348995 
z
" clip-path="url(#pe4111afab7)" style="fill: #d8bfd8; opacity: 0.4; stroke: #d8bfd8; stroke-linejoin: miter"/>
   </g>
   <g id="patch_21">
    <path d="M 236.16 174.528 
C 236.16 174.528 236.16 174.528 236.16 174.528 
C 236.16 174.528 236.16 174.528 236.16 174.528 
L 245.470279 148.601152 
C 245.74179 148.698651 246.011752 148.800409 246.280067 148.906389 
C 246.548381 149.012368 246.815014 149.122555 247.079867 149.23691 
z
" clip-path="url(#pe4111afab7)" style="fill: #d8bfd8; opacity: 0.4; stroke: #d8bfd8; stroke-linejoin: miter"/>
   </g>
   <g id="patch_22">
    <path d="M 236.16 174.528 
C 236.16 174.528 236.16 174.528 236.16 174.528 
C 236.16 174.528 236.16 174.528 236.16 174.528 
L 245.831792 141.148327 
C 246.18135 141.249612 246.529296 141.356381 246.8755 141.468596 
C 247.221705 141.580811 247.566125 141.698457 247.908634 141.821491 
z
" clip-path="url(#pe4111afab7)" style="fill: #d8bfd8; opacity: 0.4; stroke: #d8bfd8; stroke-linejoin: miter"/>
   </g>
   <g id="patch_23">
    <path d="M 236.16 174.528 
C 236.16 174.528 236.16 174.528 236.16 174.528 
C 236.16 174.528 236.16 174.528 236.16 174.528 
L 243.259271 142.675986 
C 243.592832 142.750331 243.925204 142.829911 244.256264 142.914697 
C 244.587325 142.999482 244.917033 143.089463 245.245267 143.184606 
z
" clip-path="url(#pe4111afab7)" style="fill: #d8bfd8; opacity: 0.4; stroke: #d8bfd8; stroke-linejoin: miter"/>
   </g>
   <g id="patch_24">
    <path d="M 236.16 174.528 
C 236.16 174.528 236.16 174.528 236.16 174.528 
C 236.16 174.528 236.16 174.528 236.16 174.528 
L 241.843336 138.525936 
C 242.220357 138.585453 242.596419 138.650889 242.971384 138.722219 
C 243.346349 138.793549 243.72017 138.870765 244.09271 138.953838 
z
" clip-path="url(#pe4111afab7)" style="fill: #d8bfd8; opacity: 0.4; stroke: #d8bfd8; stroke-linejoin: miter"/>
   </g>
   <g id="patch_25">
    <path d="M 236.16 174.528 
C 236.16 174.528 236.16 174.528 236.16 174.528 
C 236.16 174.528 236.16 174.528 236.16 174.528 
L 240.131232 132.333197 
C 240.573104 132.374784 241.014295 132.42331 241.454643 132.478757 
C 241.894991 132.534203 242.33444 132.596563 242.772829 132.665814 
z
" clip-path="url(#pe4111afab7)" style="fill: #d8bfd8; opacity: 0.4; stroke: #d8bfd8; stroke-linejoin: miter"/>
   </g>
   <g id="patch_26">
    <path d="M 236.16 174.528 
C 236.16 174.528 236.16 174.528 236.16 174.528 
C 236.16 174.528 236.16 174.528 236.16 174.528 
L 237.623326 127.507554 
C 238.115734 127.522878 238.60787 127.545936 239.099552 127.57672 
C 239.591235 127.607503 240.082404 127.646009 240.572877 127.692221 
z
" clip-path="url(#pe4111afab7)" style="fill: #d8bfd8; opacity: 0.4; stroke: #d8bfd8; stroke-linejoin: miter"/>
   </g>
   <g id="patch_27">
    <path d="M 236.16 174.528 
C 236.16 174.528 236.16 174.528 236.16 174.528 
C 236.16 174.528 236.16 174.528 236.16 174.528 
L 234.391473 118.612684 
C 234.977028 118.594163 235.562839 118.584842 236.148688 118.584724 
C 236.734536 118.584605 237.320351 118.593689 237.905914 118.611973 
z
" clip-path="url(#pe4111afab7)" style="fill: #d8bfd8; opacity: 0.4; stroke: #d8bfd8; stroke-linejoin: miter"/>
   </g>
   <g id="patch_28">
    <path d="M 236.16 174.528 
C 236.16 174.528 236.16 174.528 236.16 174.528 
C 236.16 174.528 236.16 174.528 236.16 174.528 
L 231.408772 124.318587 
C 231.934574 124.268831 232.461126 124.227338 232.988232 124.194122 
C 233.515338 124.160907 234.042933 124.135974 234.570822 124.119332 
z
" clip-path="url(#pe4111afab7)" style="fill: #d8bfd8; opacity: 0.4; stroke: #d8bfd8; stroke-linejoin: miter"/>
   </g>
   <g id="patch_29">
    <path d="M 236.16 174.528 
C 236.16 174.528 236.16 174.528 236.16 174.528 
C 236.16 174.528 236.16 174.528 236.16 174.528 
L 225.154601 105.041216 
C 225.88228 104.925966 226.611724 104.822153 227.342664 104.729816 
C 228.073604 104.637479 228.805949 104.55663 229.539429 104.487298 
z
" clip-path="url(#pe4111afab7)" style="fill: #d8bfd8; opacity: 0.4; stroke: #d8bfd8; stroke-linejoin: miter"/>
   </g>
   <g id="patch_30">
    <path d="M 236.16 174.528 
C 236.16 174.528 236.16 174.528 236.16 174.528 
C 236.16 174.528 236.16 174.528 236.16 174.528 
L 219.156911 98.422709 
C 219.953901 98.244649 220.753638 98.07912 221.555826 97.926182 
C 222.358015 97.773245 223.162557 97.632917 223.969154 97.505253 
z
" clip-path="url(#pe4111afab7)" style="fill: #d8bfd8; opacity: 0.4; stroke: #d8bfd8; stroke-linejoin: miter"/>
   </g>
   <g id="patch_31">
    <path d="M 236.16 174.528 
C 236.16 174.528 236.16 174.528 236.16 174.528 
C 236.16 174.528 236.16 174.528 236.16 174.528 
L 214.773928 100.859313 
C 215.545401 100.635354 216.320344 100.423527 217.09847 100.223911 
C 217.876597 100.024295 218.657811 99.836915 219.441824 99.661839 
z
" clip-path="url(#pe4111afab7)" style="fill: #d8bfd8; opacity: 0.4; stroke: #d8bfd8; stroke-linejoin: miter"/>
   </g>
   <g id="patch_32">
    <path d="M 236.16 174.528 
C 236.16 174.528 236.16 174.528 236.16 174.528 
C 236.16 174.528 236.16 174.528 236.16 174.528 
L 205.751289 89.981999 
C 206.636671 89.663553 207.527001 89.359035 208.421948 89.068557 
C 209.316896 88.778078 210.216351 88.501676 211.119981 88.239452 
z
" clip-path="url(#pe4111afab7)" style="fill: #d8bfd8; opacity: 0.4; stroke: #d8bfd8; stroke-linejoin: miter"/>
   </g>
   <g id="patch_33">
    <path d="M 236.16 174.528 
C 236.16 174.528 236.16 174.528 236.16 174.528 
C 236.16 174.528 236.16 174.528 236.16 174.528 
L 202.360784 96.333831 
C 203.179648 95.97988 204.004022 95.638813 204.8336 95.310756 
C 205.663178 94.9827 206.497858 94.667696 207.337332 94.365859 
z
" clip-path="url(#pe4111afab7)" style="fill: #d8bfd8; opacity: 0.4; stroke: #d8bfd8; stroke-linejoin: miter"/>
   </g>
   <g id="patch_34">
    <path d="M 236.16 174.528 
C 236.16 174.528 236.16 174.528 236.16 174.528 
C 236.16 174.528 236.16 174.528 236.16 174.528 
L 190.605797 85.008539 
C 191.543262 84.531487 192.488163 84.06919 193.44015 83.62182 
C 194.392137 83.174449 195.351092 82.742061 196.316662 82.324814 
z
" clip-path="url(#pe4111afab7)" style="fill: #d8bfd8; opacity: 0.4; stroke: #d8bfd8; stroke-linejoin: miter"/>
   </g>
   <g id="patch_35">
    <path d="M 236.16 174.528 
C 236.16 174.528 236.16 174.528 236.16 174.528 
C 236.16 174.528 236.16 174.528 236.16 174.528 
L 182.928474 84.391043 
C 183.872405 83.833592 184.825035 83.291003 185.78601 82.763477 
C 186.746986 82.235951 187.716189 81.723553 188.69326 81.226472 
z
" clip-path="url(#pe4111afab7)" style="fill: #d8bfd8; opacity: 0.4; stroke: #d8bfd8; stroke-linejoin: miter"/>
   </g>
   <g id="patch_36">
    <path d="M 236.16 174.528 
C 236.16 174.528 236.16 174.528 236.16 174.528 
C 236.16 174.528 236.16 174.528 236.16 174.528 
L 168.339995 74.578738 
C 169.386683 73.868514 170.444463 73.174775 171.512943 72.497779 
C 172.581423 71.820782 173.660471 71.160612 174.749689 70.517511 
z
" clip-path="url(#pe4111afab7)" style="fill: #d8bfd8; opacity: 0.4; stroke: #d8bfd8; stroke-linejoin: miter"/>
   </g>
   <g id="patch_37">
    <path d="M 236.16 174.528 
C 236.16 174.528 236.16 174.528 236.16 174.528 
C 236.16 174.528 236.16 174.528 236.16 174.528 
L 158.575022 74.335537 
C 159.624256 73.523053 160.686189 72.7271 161.760427 71.947973 
C 162.834664 71.168847 163.921074 70.406643 165.019255 69.661643 
z
" clip-path="url(#pe4111afab7)" style="fill: #d8bfd8; opacity: 0.4; stroke: #d8bfd8; stroke-linejoin: miter"/>
   </g>
   <g id="patch_38">
    <path d="M 236.16 174.528 
C 236.16 174.528 236.16 174.528 236.16 174.528 
C 236.16 174.528 236.16 174.528 236.16 174.528 
L 160.846073 88.94124 
C 161.742354 88.152538 162.650969 87.377964 163.571581 86.617804 
C 164.492193 85.857645 165.42469 85.111993 166.368725 84.381125 
z
" clip-path="url(#pe4111afab7)" style="fill: #d8bfd8; opacity: 0.4; stroke: #d8bfd8; stroke-linejoin: miter"/>
   </g>
   <g id="patch_39">
    <path d="M 236.16 174.528 
C 236.16 174.528 236.16 174.528 236.16 174.528 
C 236.16 174.528 236.16 174.528 236.16 174.528 
L 152.335845 90.530973 
C 153.215478 89.65315 154.108846 88.7892 155.015618 87.93944 
C 155.92239 87.089681 156.842454 86.254217 157.77547 85.43336 
z
" clip-path="url(#pe4111afab7)" style="fill: #d8bfd8; opacity: 0.4; stroke: #d8bfd8; stroke-linejoin: miter"/>
   </g>
   <g id="patch_40">
    <path d="M 236.16 174.528 
C 236.16 174.528 236.16 174.528 236.16 174.528 
C 236.16 174.528 236.16 174.528 236.16 174.528 
L 141.200916 90.618938 
C 142.079627 89.624508 142.973906 88.643943 143.88342 87.677605 
C 144.792933 86.711267 145.717571 85.759276 146.656989 84.821983 
z
" clip-path="url(#pe4111afab7)" style="fill: #d8bfd8; opacity: 0.4; stroke: #d8bfd8; stroke-linejoin: miter"/>
   </g>
   <g id="patch_41">
    <path d="M 236.16 174.528 
C 236.16 174.528 236.16 174.528 236.16 174.528 
C 236.16 174.528 236.16 174.528 236.16 174.528 
L 136.462147 96.996942 
C 137.274067 95.952887 138.102337 94.92165 138.946651 93.903614 
C 139.790965 92.885577 140.651218 91.880866 141.527093 90.889852 
z
" clip-path="url(#pe4111afab7)" style="fill: #d8bfd8; opacity: 0.4; stroke: #d8bfd8; stroke-linejoin: miter"/>
   </g>
   <g id="patch_42">
    <path d="M 236.16 174.528 
C 236.16 174.528 236.16 174.528 236.16 174.528 
C 236.16 174.528 236.16 174.528 236.16 174.528 
L 134.249423 105.070103 
C 134.9768 104.002876 135.720895 102.94714 136.481435 101.903287 
C 137.241975 100.859434 138.018865 99.827593 138.811818 98.808144 
z
" clip-path="url(#pe4111afab7)" style="fill: #d8bfd8; opacity: 0.4; stroke: #d8bfd8; stroke-linejoin: miter"/>
   </g>
   <g id="patch_43">
    <path d="M 236.16 174.528 
C 236.16 174.528 236.16 174.528 236.16 174.528 
C 236.16 174.528 236.16 174.528 236.16 174.528 
L 132.64706 113.109133 
C 133.290251 112.025126 133.950429 110.951289 134.627351 109.88802 
C 135.304273 108.82475 135.997856 107.77218 136.707842 106.730698 
z
" clip-path="url(#pe4111afab7)" style="fill: #d8bfd8; opacity: 0.4; stroke: #d8bfd8; stroke-linejoin: miter"/>
   </g>
   <g id="patch_44">
    <path d="M 236.16 174.528 
C 236.16 174.528 236.16 174.528 236.16 174.528 
C 236.16 174.528 236.16 174.528 236.16 174.528 
L 124.849878 117.59607 
C 125.44608 116.430409 126.060556 115.274186 126.693078 114.127827 
C 127.3256 112.981469 127.976091 111.845117 128.644309 110.719192 
z
" clip-path="url(#pe4111afab7)" style="fill: #d8bfd8; opacity: 0.4; stroke: #d8bfd8; stroke-linejoin: miter"/>
   </g>
   <g id="patch_45">
    <path d="M 236.16 174.528 
C 236.16 174.528 236.16 174.528 236.16 174.528 
C 236.16 174.528 236.16 174.528 236.16 174.528 
L 136.269637 131.106201 
C 136.724358 130.060131 137.195483 129.021267 137.682838 127.989995 
C 138.170193 126.958724 138.673717 125.935171 139.193225 124.919717 
z
" clip-path="url(#pe4111afab7)" style="fill: #d8bfd8; opacity: 0.4; stroke: #d8bfd8; stroke-linejoin: miter"/>
   </g>
   <g id="patch_46">
    <path d="M 236.16 174.528 
C 236.16 174.528 236.16 174.528 236.16 174.528 
C 236.16 174.528 236.16 174.528 236.16 174.528 
L 141.714188 140.338707 
C 142.072225 139.349653 142.445776 138.366283 142.834703 137.388963 
C 143.22363 136.411643 143.627885 135.440492 144.047318 134.47587 
z
" clip-path="url(#pe4111afab7)" style="fill: #d8bfd8; opacity: 0.4; stroke: #d8bfd8; stroke-linejoin: miter"/>
   </g>
   <g id="patch_47">
    <path d="M 236.16 174.528 
C 236.16 174.528 236.16 174.528 236.16 174.528 
C 236.16 174.528 236.16 174.528 236.16 174.528 
L 148.298753 148.825434 
C 148.567915 147.905334 148.851514 146.989519 149.149444 146.078328 
C 149.447374 145.167137 149.7596 144.260682 150.086004 143.359299 
z
" clip-path="url(#pe4111afab7)" style="fill: #d8bfd8; opacity: 0.4; stroke: #d8bfd8; stroke-linejoin: miter"/>
   </g>
   <g id="patch_48">
    <path d="M 236.16 174.528 
C 236.16 174.528 236.16 174.528 236.16 174.528 
C 236.16 174.528 236.16 174.528 236.16 174.528 
L 147.687166 154.570355 
C 147.896167 153.643851 148.119708 152.720687 148.357707 151.801204 
C 148.595707 150.881722 148.848135 149.966035 149.114898 149.054482 
z
" clip-path="url(#pe4111afab7)" style="fill: #d8bfd8; opacity: 0.4; stroke: #d8bfd8; stroke-linejoin: miter"/>
   </g>
   <g id="patch_49">
    <path d="M 236.16 174.528 
C 236.16 174.528 236.16 174.528 236.16 174.528 
C 236.16 174.528 236.16 174.528 236.16 174.528 
L 167.95141 163.580947 
C 168.06605 162.866654 168.191902 162.154206 168.328922 161.443866 
C 168.465942 160.733526 168.614111 160.025382 168.773375 159.319696 
z
" clip-path="url(#pe4111afab7)" style="fill: #d8bfd8; opacity: 0.4; stroke: #d8bfd8; stroke-linejoin: miter"/>
   </g>
   <g id="patch_50">
    <path d="M 236.16 174.528 
C 236.16 174.528 236.16 174.528 236.16 174.528 
C 236.16 174.528 236.16 174.528 236.16 174.528 
L 169.508539 168.082318 
C 169.576039 167.384331 169.6545 166.687448 169.743891 165.991925 
C 169.833283 165.296403 169.933594 164.602328 170.044788 163.909957 
z
" clip-path="url(#pe4111afab7)" style="fill: #d8bfd8; opacity: 0.4; stroke: #d8bfd8; stroke-linejoin: miter"/>
   </g>
   <g id="patch_51">
    <path d="M 236.16 174.528 
C 236.16 174.528 236.16 174.528 236.16 174.528 
C 236.16 174.528 236.16 174.528 236.16 174.528 
L 172.20057 172.373138 
C 172.223137 171.703343 172.256223 171.033943 172.299816 170.365187 
C 172.34341 169.696431 172.397506 169.028401 172.462085 168.361345 
z
" clip-path="url(#pe4111afab7)" style="fill: #d8bfd8; opacity: 0.4; stroke: #d8bfd8; stroke-linejoin: miter"/>
   </g>
   <g id="patch_52">
    <path d="M 236.16 174.528 
C 236.16 174.528 236.16 174.528 236.16 174.528 
C 236.16 174.528 236.16 174.528 236.16 174.528 
L 182.358497 176.091418 
C 182.342124 175.527999 182.334603 174.964357 182.335936 174.400701 
C 182.33727 173.837045 182.347457 173.273445 182.366494 172.710109 
z
" clip-path="url(#pe4111afab7)" style="fill: #d8bfd8; opacity: 0.4; stroke: #d8bfd8; stroke-linejoin: miter"/>
   </g>
   <g id="patch_53">
    <path d="M 236.16 174.528 
C 236.16 174.528 236.16 174.528 236.16 174.528 
C 236.16 174.528 236.16 174.528 236.16 174.528 
L 191.424931 178.645352 
C 191.381813 178.176877 191.346057 177.707755 191.317676 177.238158 
C 191.289294 176.76856 191.268291 176.298546 191.254675 175.828289 
z
" clip-path="url(#pe4111afab7)" style="fill: #d8bfd8; opacity: 0.4; stroke: #d8bfd8; stroke-linejoin: miter"/>
   </g>
   <g id="patch_54">
    <path d="M 236.16 174.528 
C 236.16 174.528 236.16 174.528 236.16 174.528 
C 236.16 174.528 236.16 174.528 236.16 174.528 
L 193.446081 181.180716 
C 193.376413 180.733408 193.313775 180.285033 193.258191 179.835757 
C 193.202607 179.386481 193.154084 178.936359 193.11264 178.485559 
z
" clip-path="url(#pe4111afab7)" style="fill: #d8bfd8; opacity: 0.4; stroke: #d8bfd8; stroke-linejoin: miter"/>
   </g>
   <g id="patch_55">
    <path d="M 236.16 174.528 
C 236.16 174.528 236.16 174.528 236.16 174.528 
C 236.16 174.528 236.16 174.528 236.16 174.528 
L 200.154912 182.475094 
C 200.071688 182.098042 199.994393 181.719706 199.923054 181.340225 
C 199.851715 180.960745 199.786341 180.580168 199.726957 180.198634 
z
" clip-path="url(#pe4111afab7)" style="fill: #d8bfd8; opacity: 0.4; stroke: #d8bfd8; stroke-linejoin: miter"/>
   </g>
   <g id="patch_56">
    <path d="M 236.16 174.528 
C 236.16 174.528 236.16 174.528 236.16 174.528 
C 236.16 174.528 236.16 174.528 236.16 174.528 
L 197.465425 185.65343 
C 197.348917 185.248213 197.238782 184.841191 197.13506 184.432514 
C 197.031338 184.023837 196.934042 183.613557 196.843208 183.201824 
z
" clip-path="url(#pe4111afab7)" style="fill: #d8bfd8; opacity: 0.4; stroke: #d8bfd8; stroke-linejoin: miter"/>
   </g>
   <g id="patch_57">
    <path d="M 236.16 174.528 
C 236.16 174.528 236.16 174.528 236.16 174.528 
C 236.16 174.528 236.16 174.528 236.16 174.528 
L 201.831481 186.775518 
C 201.703223 186.416023 201.580619 186.054536 201.463716 185.691189 
C 201.346813 185.327843 201.235625 184.962683 201.130193 184.595845 
z
" clip-path="url(#pe4111afab7)" style="fill: #d8bfd8; opacity: 0.4; stroke: #d8bfd8; stroke-linejoin: miter"/>
   </g>
   <g id="patch_58">
    <path d="M 236.16 174.528 
C 236.16 174.528 236.16 174.528 236.16 174.528 
C 236.16 174.528 236.16 174.528 236.16 174.528 
L 212.403176 184.724516 
C 212.296396 184.47573 212.19353 184.225282 212.094618 183.973265 
C 211.995705 183.721248 211.900757 183.467692 211.80981 183.212692 
z
" clip-path="url(#pe4111afab7)" style="fill: #d8bfd8; opacity: 0.4; stroke: #d8bfd8; stroke-linejoin: miter"/>
   </g>
   <g id="patch_59">
    <path d="M 236.16 174.528 
C 236.16 174.528 236.16 174.528 236.16 174.528 
C 236.16 174.528 236.16 174.528 236.16 174.528 
L 211.198043 187.149937 
C 211.065864 186.888531 210.937799 186.625064 210.813896 186.359635 
C 210.689993 186.094206 210.570267 185.826847 210.454762 185.557656 
z
" clip-path="url(#pe4111afab7)" style="fill: #d8bfd8; opacity: 0.4; stroke: #d8bfd8; stroke-linejoin: miter"/>
   </g>
   <g id="patch_60">
    <path d="M 236.16 174.528 
C 236.16 174.528 236.16 174.528 236.16 174.528 
C 236.16 174.528 236.16 174.528 236.16 174.528 
L 212.769342 188.260779 
C 212.625529 188.015827 212.485574 187.768632 212.349527 187.519284 
C 212.213479 187.269936 212.081357 187.018467 211.95321 186.764968 
z
" clip-path="url(#pe4111afab7)" style="fill: #d8bfd8; opacity: 0.4; stroke: #d8bfd8; stroke-linejoin: miter"/>
   </g>
   <g id="patch_61">
    <path d="M 236.16 174.528 
C 236.16 174.528 236.16 174.528 236.16 174.528 
C 236.16 174.528 236.16 174.528 236.16 174.528 
L 217.189317 187.329445 
C 217.055258 187.13078 216.924328 186.930022 216.796575 186.727245 
C 216.668822 186.524467 216.544263 186.319695 216.422942 186.113005 
z
" clip-path="url(#pe4111afab7)" style="fill: #d8bfd8; opacity: 0.4; stroke: #d8bfd8; stroke-linejoin: miter"/>
   </g>
   <g id="patch_62">
    <path d="M 236.16 174.528 
C 236.16 174.528 236.16 174.528 236.16 174.528 
C 236.16 174.528 236.16 174.528 236.16 174.528 
L 212.992773 192.372807 
C 212.805899 192.130196 212.622847 191.884664 212.443686 191.636302 
C 212.264524 191.38794 212.089275 191.136779 211.918004 190.882912 
z
" clip-path="url(#pe4111afab7)" style="fill: #d8bfd8; opacity: 0.4; stroke: #d8bfd8; stroke-linejoin: miter"/>
   </g>
   <g id="patch_63">
    <path d="M 236.16 174.528 
C 236.16 174.528 236.16 174.528 236.16 174.528 
C 236.16 174.528 236.16 174.528 236.16 174.528 
L 221.810214 187.090185 
C 221.67866 186.939912 221.549476 186.787581 221.422707 186.633249 
C 221.295939 186.478917 221.171602 186.322604 221.049744 186.164366 
z
" clip-path="url(#pe4111afab7)" style="fill: #d8bfd8; opacity: 0.4; stroke: #d8bfd8; stroke-linejoin: miter"/>
   </g>
   <g id="patch_64">
    <path d="M 236.16 174.528 
C 236.16 174.528 236.16 174.528 236.16 174.528 
C 236.16 174.528 236.16 174.528 236.16 174.528 
L 216.610797 193.937054 
C 216.407542 193.732331 216.207515 193.524428 216.01079 193.313422 
C 215.814066 193.102415 215.620668 192.888332 215.430668 192.67125 
z
" clip-path="url(#pe4111afab7)" style="fill: #d8bfd8; opacity: 0.4; stroke: #d8bfd8; stroke-linejoin: miter"/>
   </g>
   <g id="patch_65">
    <path d="M 236.16 174.528 
C 236.16 174.528 236.16 174.528 236.16 174.528 
C 236.16 174.528 236.16 174.528 236.16 174.528 
L 219.554643 193.223176 
C 219.358863 193.049282 219.165827 192.872323 218.975607 192.692365 
C 218.785386 192.512406 218.598004 192.329471 218.41353 192.143627 
z
" clip-path="url(#pe4111afab7)" style="fill: #d8bfd8; opacity: 0.4; stroke: #d8bfd8; stroke-linejoin: miter"/>
   </g>
   <g id="patch_66">
    <path d="M 236.16 174.528 
C 236.16 174.528 236.16 174.528 236.16 174.528 
C 236.16 174.528 236.16 174.528 236.16 174.528 
L 222.586472 191.890151 
C 222.404652 191.748006 222.225076 191.603014 222.047811 191.455229 
C 221.870546 191.307443 221.695613 191.156882 221.523078 191.003602 
z
" clip-path="url(#pe4111afab7)" style="fill: #d8bfd8; opacity: 0.4; stroke: #d8bfd8; stroke-linejoin: miter"/>
   </g>
   <g id="patch_67">
    <path d="M 236.16 174.528 
C 236.16 174.528 236.16 174.528 236.16 174.528 
C 236.16 174.528 236.16 174.528 236.16 174.528 
L 222.982812 193.755683 
C 222.781456 193.617689 222.58228 193.47654 222.385358 193.33229 
C 222.188436 193.188039 221.993792 193.040704 221.801498 192.890339 
z
" clip-path="url(#pe4111afab7)" style="fill: #d8bfd8; opacity: 0.4; stroke: #d8bfd8; stroke-linejoin: miter"/>
   </g>
   <g id="patch_68">
    <path d="M 236.16 174.528 
C 236.16 174.528 236.16 174.528 236.16 174.528 
C 236.16 174.528 236.16 174.528 236.16 174.528 
L 220.087301 201.458507 
C 219.805279 201.29019 219.525919 201.117454 219.249324 200.940362 
C 218.972729 200.763271 218.698932 200.581845 218.428036 200.396152 
z
" clip-path="url(#pe4111afab7)" style="fill: #d8bfd8; opacity: 0.4; stroke: #d8bfd8; stroke-linejoin: miter"/>
   </g>
   <g id="patch_69">
    <path d="M 236.16 174.528 
C 236.16 174.528 236.16 174.528 236.16 174.528 
C 236.16 174.528 236.16 174.528 236.16 174.528 
L 226.268159 193.746113 
C 226.066904 193.642524 225.867288 193.535779 225.669385 193.42592 
C 225.471482 193.31606 225.275318 193.203098 225.080963 193.087076 
z
" clip-path="url(#pe4111afab7)" style="fill: #d8bfd8; opacity: 0.4; stroke: #d8bfd8; stroke-linejoin: miter"/>
   </g>
   <g id="patch_70">
    <path d="M 236.16 174.528 
C 236.16 174.528 236.16 174.528 236.16 174.528 
C 236.16 174.528 236.16 174.528 236.16 174.528 
L 228.172175 192.77544 
C 227.981085 192.69179 227.79132 192.605144 227.602951 192.515533 
C 227.414582 192.425922 227.227633 192.333357 227.042171 192.237874 
z
" clip-path="url(#pe4111afab7)" style="fill: #d8bfd8; opacity: 0.4; stroke: #d8bfd8; stroke-linejoin: miter"/>
   </g>
   <g id="patch_71">
    <path d="M 236.16 174.528 
C 236.16 174.528 236.16 174.528 236.16 174.528 
C 236.16 174.528 236.16 174.528 236.16 174.528 
L 229.767626 192.04589 
C 229.584175 191.978948 229.401787 191.909128 229.22053 191.836457 
C 229.039273 191.763785 228.859168 191.688271 228.680282 191.609942 
z
" clip-path="url(#pe4111afab7)" style="fill: #d8bfd8; opacity: 0.4; stroke: #d8bfd8; stroke-linejoin: miter"/>
   </g>
   <g id="patch_72">
    <path d="M 236.16 174.528 
C 236.16 174.528 236.16 174.528 236.16 174.528 
C 236.16 174.528 236.16 174.528 236.16 174.528 
L 230.518249 193.631535 
C 230.318193 193.572454 230.119078 193.510234 229.920976 193.444897 
C 229.722875 193.379561 229.525812 193.311117 229.329861 193.239591 
z
" clip-path="url(#pe4111afab7)" style="fill: #d8bfd8; opacity: 0.4; stroke: #d8bfd8; stroke-linejoin: miter"/>
   </g>
   <g id="patch_73">
    <path d="M 236.16 174.528 
C 236.16 174.528 236.16 174.528 236.16 174.528 
C 236.16 174.528 236.16 174.528 236.16 174.528 
L 231.160982 196.426734 
C 230.931654 196.374384 230.703163 196.318434 230.475593 196.258906 
C 230.248022 196.199377 230.021401 196.136278 229.795813 196.069631 
z
" clip-path="url(#pe4111afab7)" style="fill: #d8bfd8; opacity: 0.4; stroke: #d8bfd8; stroke-linejoin: miter"/>
   </g>
   <g id="patch_74">
    <path d="M 236.16 174.528 
C 236.16 174.528 236.16 174.528 236.16 174.528 
C 236.16 174.528 236.16 174.528 236.16 174.528 
L 232.816538 195.023907 
C 232.601901 194.988893 232.387827 194.95051 232.174396 194.908772 
C 231.960965 194.867034 231.748202 194.821946 231.536187 194.773525 
z
" clip-path="url(#pe4111afab7)" style="fill: #d8bfd8; opacity: 0.4; stroke: #d8bfd8; stroke-linejoin: miter"/>
   </g>
   <g id="patch_75">
    <path d="M 236.16 174.528 
C 236.16 174.528 236.16 174.528 236.16 174.528 
C 236.16 174.528 236.16 174.528 236.16 174.528 
L 234.233597 193.927974 
C 234.030437 193.9078 233.827606 193.884437 233.62518 193.857892 
C 233.422753 193.831346 233.220757 193.801623 233.019264 193.768733 
z
" clip-path="url(#pe4111afab7)" style="fill: #d8bfd8; opacity: 0.4; stroke: #d8bfd8; stroke-linejoin: miter"/>
   </g>
   <g id="patch_76">
    <path d="M 236.16 174.528 
C 236.16 174.528 236.16 174.528 236.16 174.528 
C 236.16 174.528 236.16 174.528 236.16 174.528 
L 235.484248 193.163511 
C 235.289093 193.156435 235.094062 193.146293 234.899226 193.13309 
C 234.70439 193.119887 234.509773 193.103624 234.315448 193.084308 
z
" clip-path="url(#pe4111afab7)" style="fill: #d8bfd8; opacity: 0.4; stroke: #d8bfd8; stroke-linejoin: miter"/>
   </g>
   <g id="patch_77">
    <path d="M 236.16 174.528 
C 236.16 174.528 236.16 174.528 236.16 174.528 
C 236.16 174.528 236.16 174.528 236.16 174.528 
L 236.586464 190.627235 
C 236.41787 190.631701 236.249216 190.633519 236.080565 190.632687 
C 235.911913 190.631855 235.743285 190.628374 235.574743 190.622245 
z
" clip-path="url(#pe4111afab7)" style="fill: #d8bfd8; opacity: 0.4; stroke: #d8bfd8; stroke-linejoin: miter"/>
   </g>
   <g id="patch_78">
    <path d="M 236.16 174.528 
C 236.16 174.528 236.16 174.528 236.16 174.528 
C 236.16 174.528 236.16 174.528 236.16 174.528 
L 238.689876 202.810528 
C 238.393695 202.837021 238.097118 202.858861 237.800252 202.876038 
C 237.503385 202.893215 237.206268 202.905727 236.909009 202.913571 
z
" clip-path="url(#pe4111afab7)" style="fill: #d8bfd8; opacity: 0.4; stroke: #d8bfd8; stroke-linejoin: miter"/>
   </g>
   <g id="patch_79">
    <path d="M 236.16 174.528 
C 236.16 174.528 236.16 174.528 236.16 174.528 
C 236.16 174.528 236.16 174.528 236.16 174.528 
L 239.752254 197.988079 
C 239.506576 198.025697 239.260322 198.059455 239.013583 198.089338 
C 238.766844 198.119221 238.519651 198.145227 238.272095 198.167345 
z
" clip-path="url(#pe4111afab7)" style="fill: #d8bfd8; opacity: 0.4; stroke: #d8bfd8; stroke-linejoin: miter"/>
   </g>
   <g id="patch_80">
    <path d="M 236.16 174.528 
C 236.16 174.528 236.16 174.528 236.16 174.528 
C 236.16 174.528 236.16 174.528 236.16 174.528 
L 239.590759 190.26322 
C 239.425977 190.299148 239.26064 190.332484 239.094811 190.363218 
C 238.928981 190.393952 238.762679 190.422079 238.595966 190.447589 
z
" clip-path="url(#pe4111afab7)" style="fill: #d8bfd8; opacity: 0.4; stroke: #d8bfd8; stroke-linejoin: miter"/>
   </g>
   <g id="patch_81">
    <path d="M 236.16 174.528 
C 236.16 174.528 236.16 174.528 236.16 174.528 
C 236.16 174.528 236.16 174.528 236.16 174.528 
L 241.847122 194.500921 
C 241.637962 194.560478 241.427879 194.616745 241.216951 194.669702 
C 241.006023 194.72266 240.794277 194.7723 240.581789 194.818606 
z
" clip-path="url(#pe4111afab7)" style="fill: #d8bfd8; opacity: 0.4; stroke: #d8bfd8; stroke-linejoin: miter"/>
   </g>
   <g id="patch_82">
    <path d="M 236.16 174.528 
C 236.16 174.528 236.16 174.528 236.16 174.528 
C 236.16 174.528 236.16 174.528 236.16 174.528 
L 242.522448 192.506991 
C 242.334169 192.573619 242.144854 192.637287 241.954575 192.697968 
C 241.764296 192.75865 241.573075 192.81634 241.380983 192.871015 
z
" clip-path="url(#pe4111afab7)" style="fill: #d8bfd8; opacity: 0.4; stroke: #d8bfd8; stroke-linejoin: miter"/>
   </g>
   <g id="patch_83">
    <path d="M 236.16 174.528 
C 236.16 174.528 236.16 174.528 236.16 174.528 
C 236.16 174.528 236.16 174.528 236.16 174.528 
L 245.797025 197.141272 
C 245.560214 197.242192 245.321833 197.339387 245.081969 197.43282 
C 244.842106 197.526252 244.600789 197.615911 244.358109 197.701763 
z
" clip-path="url(#pe4111afab7)" style="fill: #d8bfd8; opacity: 0.4; stroke: #d8bfd8; stroke-linejoin: miter"/>
   </g>
   <g id="patch_84">
    <path d="M 236.16 174.528 
C 236.16 174.528 236.16 174.528 236.16 174.528 
C 236.16 174.528 236.16 174.528 236.16 174.528 
L 245.863763 193.841761 
C 245.661505 193.94338 245.457664 194.041817 245.252315 194.137033 
C 245.046965 194.23225 244.840133 194.324235 244.631894 194.412954 
z
" clip-path="url(#pe4111afab7)" style="fill: #d8bfd8; opacity: 0.4; stroke: #d8bfd8; stroke-linejoin: miter"/>
   </g>
   <g id="patch_85">
    <path d="M 236.16 174.528 
C 236.16 174.528 236.16 174.528 236.16 174.528 
C 236.16 174.528 236.16 174.528 236.16 174.528 
L 244.705426 189.169148 
C 244.552102 189.258638 244.39738 189.345713 244.24132 189.430342 
C 244.08526 189.514971 243.92788 189.597144 243.769239 189.676829 
z
" clip-path="url(#pe4111afab7)" style="fill: #d8bfd8; opacity: 0.4; stroke: #d8bfd8; stroke-linejoin: miter"/>
   </g>
   <g id="patch_86">
    <path d="M 236.16 174.528 
C 236.16 174.528 236.16 174.528 236.16 174.528 
C 236.16 174.528 236.16 174.528 236.16 174.528 
L 248.204216 192.475736 
C 248.016264 192.601865 247.826342 192.725035 247.634521 192.845198 
C 247.4427 192.965361 247.249003 193.082504 247.053502 193.196583 
z
" clip-path="url(#pe4111afab7)" style="fill: #d8bfd8; opacity: 0.4; stroke: #d8bfd8; stroke-linejoin: miter"/>
   </g>
   <g id="patch_87">
    <path d="M 236.16 174.528 
C 236.16 174.528 236.16 174.528 236.16 174.528 
C 236.16 174.528 236.16 174.528 236.16 174.528 
L 249.305635 191.685408 
C 249.12596 191.823071 248.944133 191.957904 248.760221 192.089856 
C 248.57631 192.221808 248.390338 192.350863 248.202373 192.476973 
z
" clip-path="url(#pe4111afab7)" style="fill: #d8bfd8; opacity: 0.4; stroke: #d8bfd8; stroke-linejoin: miter"/>
   </g>
   <g id="patch_88">
    <path d="M 236.16 174.528 
C 236.16 174.528 236.16 174.528 236.16 174.528 
C 236.16 174.528 236.16 174.528 236.16 174.528 
L 248.128623 188.27079 
C 247.984706 188.396128 247.838829 188.519197 247.691046 188.639952 
C 247.543263 188.760708 247.393592 188.879134 247.242089 188.995188 
z
" clip-path="url(#pe4111afab7)" style="fill: #d8bfd8; opacity: 0.4; stroke: #d8bfd8; stroke-linejoin: miter"/>
   </g>
   <g id="patch_89">
    <path d="M 236.16 174.528 
C 236.16 174.528 236.16 174.528 236.16 174.528 
C 236.16 174.528 236.16 174.528 236.16 174.528 
L 252.242696 190.810219 
C 252.072186 190.97864 251.89904 191.144373 251.723324 191.307355 
C 251.547607 191.470337 251.369341 191.630549 251.188592 191.787931 
z
" clip-path="url(#pe4111afab7)" style="fill: #d8bfd8; opacity: 0.4; stroke: #d8bfd8; stroke-linejoin: miter"/>
   </g>
   <g id="patch_90">
    <path d="M 236.16 174.528 
C 236.16 174.528 236.16 174.528 236.16 174.528 
C 236.16 174.528 236.16 174.528 236.16 174.528 
L 250.702614 187.511928 
C 250.566644 187.664221 250.42829 187.814369 250.287604 187.962316 
C 250.146917 188.110263 250.003915 188.255991 249.85865 188.399445 
z
" clip-path="url(#pe4111afab7)" style="fill: #d8bfd8; opacity: 0.4; stroke: #d8bfd8; stroke-linejoin: miter"/>
   </g>
   <g id="patch_91">
    <path d="M 236.16 174.528 
C 236.16 174.528 236.16 174.528 236.16 174.528 
C 236.16 174.528 236.16 174.528 236.16 174.528 
L 251.821165 186.836629 
C 251.692266 187.000635 251.5608 187.162607 251.426814 187.322484 
C 251.292827 187.482361 251.156338 187.640124 251.017396 187.795713 
z
" clip-path="url(#pe4111afab7)" style="fill: #d8bfd8; opacity: 0.4; stroke: #d8bfd8; stroke-linejoin: miter"/>
   </g>
   <g id="patch_92">
    <path d="M 236.16 174.528 
C 236.16 174.528 236.16 174.528 236.16 174.528 
C 236.16 174.528 236.16 174.528 236.16 174.528 
L 254.306856 187.033062 
C 254.1759 187.223099 254.041968 187.411068 253.905108 187.596898 
C 253.768248 187.782728 253.628477 187.966397 253.485848 188.147837 
z
" clip-path="url(#pe4111afab7)" style="fill: #d8bfd8; opacity: 0.4; stroke: #d8bfd8; stroke-linejoin: miter"/>
   </g>
   <g id="patch_93">
    <path d="M 236.16 174.528 
C 236.16 174.528 236.16 174.528 236.16 174.528 
C 236.16 174.528 236.16 174.528 236.16 174.528 
L 251.421412 183.689554 
C 251.32547 183.849374 251.227024 184.007678 251.12611 184.164406 
C 251.025196 184.321134 250.921826 184.476267 250.816038 184.629747 
z
" clip-path="url(#pe4111afab7)" style="fill: #d8bfd8; opacity: 0.4; stroke: #d8bfd8; stroke-linejoin: miter"/>
   </g>
   <g id="patch_94">
    <path d="M 236.16 174.528 
C 236.16 174.528 236.16 174.528 236.16 174.528 
C 236.16 174.528 236.16 174.528 236.16 174.528 
L 251.965715 182.714827 
C 251.879981 182.880347 251.791652 183.044511 251.700762 183.207256 
C 251.609871 183.370002 251.516429 183.53131 251.420471 183.691121 
z
" clip-path="url(#pe4111afab7)" style="fill: #d8bfd8; opacity: 0.4; stroke: #d8bfd8; stroke-linejoin: miter"/>
   </g>
   <g id="patch_95">
    <path d="M 236.16 174.528 
C 236.16 174.528 236.16 174.528 236.16 174.528 
C 236.16 174.528 236.16 174.528 236.16 174.528 
L 254.386873 182.562645 
C 254.302733 182.75352 254.215599 182.943062 254.125505 183.1312 
C 254.035411 183.319338 253.942366 183.50605 253.846407 183.691265 
z
" clip-path="url(#pe4111afab7)" style="fill: #d8bfd8; opacity: 0.4; stroke: #d8bfd8; stroke-linejoin: miter"/>
   </g>
   <g id="patch_96">
    <path d="M 236.16 174.528 
C 236.16 174.528 236.16 174.528 236.16 174.528 
C 236.16 174.528 236.16 174.528 236.16 174.528 
L 254.45694 181.257932 
C 254.386463 181.449542 254.312981 181.640032 254.23652 181.829332 
C 254.160059 182.018633 254.080629 182.206721 253.99826 182.393527 
z
" clip-path="url(#pe4111afab7)" style="fill: #d8bfd8; opacity: 0.4; stroke: #d8bfd8; stroke-linejoin: miter"/>
   </g>
   <g id="patch_97">
    <path d="M 236.16 174.528 
C 236.16 174.528 236.16 174.528 236.16 174.528 
C 236.16 174.528 236.16 174.528 236.16 174.528 
L 252.812096 179.492295 
C 252.760109 179.666679 252.705386 179.840235 252.647947 180.0129 
C 252.590508 180.185565 252.530361 180.357317 252.467527 180.528093 
z
" clip-path="url(#pe4111afab7)" style="fill: #d8bfd8; opacity: 0.4; stroke: #d8bfd8; stroke-linejoin: miter"/>
   </g>
   <g id="patch_98">
    <path d="M 236.16 174.528 
C 236.16 174.528 236.16 174.528 236.16 174.528 
C 236.16 174.528 236.16 174.528 236.16 174.528 
L 256.807008 179.297078 
C 256.757065 179.513297 256.703729 179.728719 256.647019 179.943263 
C 256.59031 180.157807 256.530233 180.371447 256.466813 180.584104 
z
" clip-path="url(#pe4111afab7)" style="fill: #d8bfd8; opacity: 0.4; stroke: #d8bfd8; stroke-linejoin: miter"/>
   </g>
   <g id="patch_99">
    <path d="M 236.16 174.528 
C 236.16 174.528 236.16 174.528 236.16 174.528 
C 236.16 174.528 236.16 174.528 236.16 174.528 
L 257.065363 177.993378 
C 257.029073 178.212303 256.989346 178.430644 256.946197 178.648321 
C 256.903048 178.865998 256.856483 179.082984 256.806518 179.299198 
z
" clip-path="url(#pe4111afab7)" style="fill: #d8bfd8; opacity: 0.4; stroke: #d8bfd8; stroke-linejoin: miter"/>
   </g>
   <g id="patch_100">
    <path d="M 236.16 174.528 
C 236.16 174.528 236.16 174.528 236.16 174.528 
C 236.16 174.528 236.16 174.528 236.16 174.528 
L 256.819853 176.633085 
C 256.797809 176.849439 256.772367 177.065433 256.743537 177.280988 
C 256.714707 177.496543 256.682493 177.711631 256.646907 177.926174 
z
" clip-path="url(#pe4111afab7)" style="fill: #d8bfd8; opacity: 0.4; stroke: #d8bfd8; stroke-linejoin: miter"/>
   </g>
   <g id="patch_101">
    <path d="M 236.16 174.528 
C 236.16 174.528 236.16 174.528 236.16 174.528 
C 236.16 174.528 236.16 174.528 236.16 174.528 
L 255.217209 175.268038 
C 255.209459 175.467609 255.198575 175.667045 255.18456 175.866274 
C 255.170545 176.065503 255.153402 176.264499 255.133136 176.46319 
z
" clip-path="url(#pe4111afab7)" style="fill: #d8bfd8; opacity: 0.4; stroke: #d8bfd8; stroke-linejoin: miter"/>
   </g>
   <g id="patch_102">
    <path d="M 236.16 174.528 
C 236.16 174.528 236.16 174.528 236.16 174.528 
C 236.16 174.528 236.16 174.528 236.16 174.528 
L 257.344575 174.021248 
C 257.349882 174.243097 257.351704 174.465016 257.35004 174.686922 
C 257.348375 174.908828 257.343225 175.130695 257.334592 175.352439 
z
" clip-path="url(#pe4111afab7)" style="fill: #d8bfd8; opacity: 0.4; stroke: #d8bfd8; stroke-linejoin: miter"/>
   </g>
   <g id="matplotlib.axis_1">
    <g id="xtick_1">
     <g id="line2d_1">
      <path d="M 236.16 174.528 
L 369.216 174.528 
" clip-path="url(#pe4111afab7)" style="fill: none; stroke: #b0b0b0; stroke-width: 0.8; stroke-linecap: square"/>
     </g>
     <g id="text_1">
      <text style="font-size: 10px; font-family: 'DejaVu Sans', 'Bitstream Vera Sans', 'Computer Modern Sans Serif', 'Lucida Grande', 'Verdana', 'Geneva', 'Lucid', 'Arial', 'Helvetica', 'Avant Garde', sans-serif; text-anchor: middle" x="383.216" y="177.287375" transform="rotate(-0 383.216 177.287375)">0°</text>
     </g>
    </g>
    <g id="xtick_2">
     <g id="line2d_2">
      <path d="M 236.16 174.528 
L 330.2448 80.4432 
" clip-path="url(#pe4111afab7)" style="fill: none; stroke: #b0b0b0; stroke-width: 0.8; stroke-linecap: square"/>
     </g>
     <g id="text_2">
      <text style="font-size: 10px; font-family: 'DejaVu Sans', 'Bitstream Vera Sans', 'Computer Modern Sans Serif', 'Lucida Grande', 'Verdana', 'Geneva', 'Lucid', 'Arial', 'Helvetica', 'Avant Garde', sans-serif; text-anchor: middle" x="340.144295" y="73.30308" transform="rotate(-0 340.144295 73.30308)">45°</text>
     </g>
    </g>
    <g id="xtick_3">
     <g id="line2d_3">
      <path d="M 236.16 174.528 
L 236.16 41.472 
" clip-path="url(#pe4111afab7)" style="fill: none; stroke: #b0b0b0; stroke-width: 0.8; stroke-linecap: square"/>
     </g>
     <g id="text_3">
      <text style="font-size: 10px; font-family: 'DejaVu Sans', 'Bitstream Vera Sans', 'Computer Modern Sans Serif', 'Lucida Grande', 'Verdana', 'Geneva', 'Lucid', 'Arial', 'Helvetica', 'Avant Garde', sans-serif; text-anchor: middle" x="236.16" y="30.231375" transform="rotate(-0 236.16 30.231375)">90°</text>
     </g>
    </g>
    <g id="xtick_4">
     <g id="line2d_4">
      <path d="M 236.16 174.528 
L 142.0752 80.4432 
" clip-path="url(#pe4111afab7)" style="fill: none; stroke: #b0b0b0; stroke-width: 0.8; stroke-linecap: square"/>
     </g>
     <g id="text_4">
      <text style="font-size: 10px; font-family: 'DejaVu Sans', 'Bitstream Vera Sans', 'Computer Modern Sans Serif', 'Lucida Grande', 'Verdana', 'Geneva', 'Lucid', 'Arial', 'Helvetica', 'Avant Garde', sans-serif; text-anchor: middle" x="132.175705" y="73.30308" transform="rotate(-0 132.175705 73.30308)">135°</text>
     </g>
    </g>
    <g id="xtick_5">
     <g id="line2d_5">
      <path d="M 236.16 174.528 
L 103.104 174.528 
" clip-path="url(#pe4111afab7)" style="fill: none; stroke: #b0b0b0; stroke-width: 0.8; stroke-linecap: square"/>
     </g>
     <g id="text_5">
      <text style="font-size: 10px; font-family: 'DejaVu Sans', 'Bitstream Vera Sans', 'Computer Modern Sans Serif', 'Lucida Grande', 'Verdana', 'Geneva', 'Lucid', 'Arial', 'Helvetica', 'Avant Garde', sans-serif; text-anchor: middle" x="89.104" y="177.287375" transform="rotate(-0 89.104 177.287375)">180°</text>
     </g>
    </g>
    <g id="xtick_6">
     <g id="line2d_6">
      <path d="M 236.16 174.528 
L 142.0752 268.6128 
" clip-path="url(#pe4111afab7)" style="fill: none; stroke: #b0b0b0; stroke-width: 0.8; stroke-linecap: square"/>
     </g>
     <g id="text_6">
      <text style="font-size: 10px; font-family: 'DejaVu Sans', 'Bitstream Vera Sans', 'Computer Modern Sans Serif', 'Lucida Grande', 'Verdana', 'Geneva', 'Lucid', 'Arial', 'Helvetica', 'Avant Garde', sans-serif; text-anchor: middle" x="132.175705" y="281.27167" transform="rotate(-0 132.175705 281.27167)">225°</text>
     </g>
    </g>
    <g id="xtick_7">
     <g id="line2d_7">
      <path d="M 236.16 174.528 
L 236.16 307.584 
" clip-path="url(#pe4111afab7)" style="fill: none; stroke: #b0b0b0; stroke-width: 0.8; stroke-linecap: square"/>
     </g>
     <g id="text_7">
      <text style="font-size: 10px; font-family: 'DejaVu Sans', 'Bitstream Vera Sans', 'Computer Modern Sans Serif', 'Lucida Grande', 'Verdana', 'Geneva', 'Lucid', 'Arial', 'Helvetica', 'Avant Garde', sans-serif; text-anchor: middle" x="236.16" y="324.343375" transform="rotate(-0 236.16 324.343375)">270°</text>
     </g>
    </g>
    <g id="xtick_8">
     <g id="line2d_8">
      <path d="M 236.16 174.528 
L 330.2448 268.6128 
" clip-path="url(#pe4111afab7)" style="fill: none; stroke: #b0b0b0; stroke-width: 0.8; stroke-linecap: square"/>
     </g>
     <g id="text_8">
      <text style="font-size: 10px; font-family: 'DejaVu Sans', 'Bitstream Vera Sans', 'Computer Modern Sans Serif', 'Lucida Grande', 'Verdana', 'Geneva', 'Lucid', 'Arial', 'Helvetica', 'Avant Garde', sans-serif; text-anchor: middle" x="340.144295" y="281.27167" transform="rotate(-0 340.144295 281.27167)">315°</text>
     </g>
    </g>
   </g>
   <g id="matplotlib.axis_2">
    <g id="ytick_1">
     <g id="line2d_9">
      <path d="M 257.534994 174.528 
C 257.534994 171.721062 256.982088 168.941417 255.907919 166.348144 
C 254.833751 163.754871 253.259208 161.398402 251.274403 159.413597 
C 249.289598 157.428792 246.933129 155.854249 244.339856 154.780081 
C 241.746583 153.705912 238.966938 153.153006 236.16 153.153006 
C 233.353062 153.153006 230.573417 153.705912 227.980144 154.780081 
C 225.386871 155.854249 223.030402 157.428792 221.045597 159.413597 
C 219.060792 161.398402 217.486249 163.754871 216.412081 166.348144 
C 215.337912 168.941417 214.785006 171.721062 214.785006 174.528 
C 214.785006 177.334938 215.337912 180.114583 216.412081 182.707856 
C 217.486249 185.301129 219.060792 187.657598 221.045597 189.642403 
C 223.030402 191.627208 225.386871 193.201751 227.980144 194.275919 
C 230.573417 195.350088 233.353062 195.902994 236.16 195.902994 
C 238.966938 195.902994 241.746583 195.350088 244.339856 194.275919 
C 246.933129 193.201751 249.289598 191.627208 251.274403 189.642403 
C 253.259208 187.657598 254.833751 185.301129 255.907919 182.707856 
C 256.982088 180.114583 257.534994 177.334938 257.534994 174.528 
" clip-path="url(#pe4111afab7)" style="fill: none; stroke: #b0b0b0; stroke-width: 0.8; stroke-linecap: square"/>
     </g>
    </g>
    <g id="ytick_2">
     <g id="line2d_10">
      <path d="M 278.909988 174.528 
C 278.909988 168.914123 277.804177 163.354834 275.655839 158.168288 
C 273.507501 152.981742 270.358417 148.268804 266.388806 144.299194 
C 262.419196 140.329583 257.706258 137.180499 252.519712 135.032161 
C 247.333166 132.883823 241.773877 131.778012 236.16 131.778012 
C 230.546123 131.778012 224.986834 132.883823 219.800288 135.032161 
C 214.613742 137.180499 209.900804 140.329583 205.931194 144.299194 
C 201.961583 148.268804 198.812499 152.981742 196.664161 158.168288 
C 194.515823 163.354834 193.410012 168.914123 193.410012 174.528 
C 193.410012 180.141877 194.515823 185.701166 196.664161 190.887712 
C 198.812499 196.074258 201.961583 200.787196 205.931194 204.756806 
C 209.900804 208.726417 214.613742 211.875501 219.800288 214.023839 
C 224.986834 216.172177 230.546123 217.277988 236.16 217.277988 
C 241.773877 217.277988 247.333166 216.172177 252.519712 214.023839 
C 257.706258 211.875501 262.419196 208.726417 266.388806 204.756806 
C 270.358417 200.787196 273.507501 196.074258 275.655839 190.887712 
C 277.804177 185.701166 278.909988 180.141877 278.909988 174.528 
" clip-path="url(#pe4111afab7)" style="fill: none; stroke: #b0b0b0; stroke-width: 0.8; stroke-linecap: square"/>
     </g>
    </g>
    <g id="ytick_3">
     <g id="line2d_11">
      <path d="M 300.284982 174.528 
C 300.284982 166.107185 298.626265 157.768251 295.403758 149.988432 
C 292.181252 142.208613 287.457625 135.139206 281.50321 129.18479 
C 275.548794 123.230375 268.479387 118.506748 260.699568 115.284242 
C 252.919749 112.061735 244.580815 110.403018 236.16 110.403018 
C 227.739185 110.403018 219.400251 112.061735 211.620432 115.284242 
C 203.840613 118.506748 196.771206 123.230375 190.81679 129.18479 
C 184.862375 135.139206 180.138748 142.208613 176.916242 149.988432 
C 173.693735 157.768251 172.035018 166.107185 172.035018 174.528 
C 172.035018 182.948815 173.693735 191.287749 176.916242 199.067568 
C 180.138748 206.847387 184.862375 213.916794 190.81679 219.87121 
C 196.771206 225.825625 203.840613 230.549252 211.620432 233.771758 
C 219.400251 236.994265 227.739185 238.652982 236.16 238.652982 
C 244.580815 238.652982 252.919749 236.994265 260.699568 233.771758 
C 268.479387 230.549252 275.548794 225.825625 281.50321 219.87121 
C 287.457625 213.916794 292.181252 206.847387 295.403758 199.067568 
C 298.626265 191.287749 300.284982 182.948815 300.284982 174.528 
" clip-path="url(#pe4111afab7)" style="fill: none; stroke: #b0b0b0; stroke-width: 0.8; stroke-linecap: square"/>
     </g>
    </g>
    <g id="ytick_4">
     <g id="line2d_12">
      <path d="M 321.659976 174.528 
C 321.659976 163.300246 319.448353 152.181668 315.151678 141.808576 
C 310.855002 131.435484 304.556834 122.009608 296.617613 114.070387 
C 288.678392 106.131166 279.252516 99.832998 268.879424 95.536322 
C 258.506332 91.239647 247.387754 89.028024 236.16 89.028024 
C 224.932246 89.028024 213.813668 91.239647 203.440576 95.536322 
C 193.067484 99.832998 183.641608 106.131166 175.702387 114.070387 
C 167.763166 122.009608 161.464998 131.435484 157.168322 141.808576 
C 152.871647 152.181668 150.660024 163.300246 150.660024 174.528 
C 150.660024 185.755754 152.871647 196.874332 157.168322 207.247424 
C 161.464998 217.620516 167.763166 227.046392 175.702387 234.985613 
C 183.641608 242.924834 193.067484 249.223002 203.440576 253.519678 
C 213.813668 257.816353 224.932246 260.027976 236.16 260.027976 
C 247.387754 260.027976 258.506332 257.816353 268.879424 253.519678 
C 279.252516 249.223002 288.678392 242.924834 296.617613 234.985613 
C 304.556834 227.046392 310.855002 217.620516 315.151678 207.247424 
C 319.448353 196.874332 321.659976 185.755754 321.659976 174.528 
" clip-path="url(#pe4111afab7)" style="fill: none; stroke: #b0b0b0; stroke-width: 0.8; stroke-linecap: square"/>
     </g>
    </g>
    <g id="ytick_5">
     <g id="line2d_13">
      <path d="M 343.03497 174.528 
C 343.03497 160.493308 340.270442 146.595085 334.899597 133.62872 
C 329.528753 120.662355 321.656042 108.88001 311.732016 98.955984 
C 301.80799 89.031958 290.025645 81.159247 277.05928 75.788403 
C 264.092915 70.417558 250.194692 67.65303 236.16 67.65303 
C 222.125308 67.65303 208.227085 70.417558 195.26072 75.788403 
C 182.294355 81.159247 170.51201 89.031958 160.587984 98.955984 
C 150.663958 108.88001 142.791247 120.662355 137.420403 133.62872 
C 132.049558 146.595085 129.28503 160.493308 129.28503 174.528 
C 129.28503 188.562692 132.049558 202.460915 137.420403 215.42728 
C 142.791247 228.393645 150.663958 240.17599 160.587984 250.100016 
C 170.51201 260.024042 182.294355 267.896753 195.26072 273.267597 
C 208.227085 278.638442 222.125308 281.40297 236.16 281.40297 
C 250.194692 281.40297 264.092915 278.638442 277.05928 273.267597 
C 290.025645 267.896753 301.80799 260.024042 311.732016 250.100016 
C 321.656042 240.17599 329.528753 228.393645 334.899597 215.42728 
C 340.270442 202.460915 343.03497 188.562692 343.03497 174.528 
" clip-path="url(#pe4111afab7)" style="fill: none; stroke: #b0b0b0; stroke-width: 0.8; stroke-linecap: square"/>
     </g>
    </g>
    <g id="ytick_6">
     <g id="line2d_14">
      <path d="M 364.409964 174.528 
C 364.409964 157.686369 361.09253 141.008502 354.647517 125.448864 
C 348.202504 109.889225 338.755251 95.750412 326.846419 83.841581 
C 314.937588 71.932749 300.798775 62.485496 285.239136 56.040483 
C 269.679498 49.59547 253.001631 46.278036 236.16 46.278036 
C 219.318369 46.278036 202.640502 49.59547 187.080864 56.040483 
C 171.521225 62.485496 157.382412 71.932749 145.473581 83.841581 
C 133.564749 95.750412 124.117496 109.889225 117.672483 125.448864 
C 111.22747 141.008502 107.910036 157.686369 107.910036 174.528 
C 107.910036 191.369631 111.22747 208.047498 117.672483 223.607136 
C 124.117496 239.166775 133.564749 253.305588 145.473581 265.214419 
C 157.382412 277.123251 171.521225 286.570504 187.080864 293.015517 
C 202.640502 299.46053 219.318369 302.777964 236.16 302.777964 
C 253.001631 302.777964 269.679498 299.46053 285.239136 293.015517 
C 300.798775 286.570504 314.937588 277.123251 326.846419 265.214419 
C 338.755251 253.305588 348.202504 239.166775 354.647517 223.607136 
C 361.09253 208.047498 364.409964 191.369631 364.409964 174.528 
" clip-path="url(#pe4111afab7)" style="fill: none; stroke: #b0b0b0; stroke-width: 0.8; stroke-linecap: square"/>
     </g>
    </g>
   </g>
   <g id="patch_103">
    <path d="M 369.216 174.528 
C 369.216 157.055246 365.774248 139.752393 359.087715 123.609673 
C 352.401182 107.466954 342.599903 92.798303 330.2448 80.4432 
C 317.889697 68.088097 303.221046 58.286818 287.078327 51.600285 
C 270.935607 44.913752 253.632754 41.472 236.16 41.472 
C 218.687246 41.472 201.384393 44.913752 185.241673 51.600285 
C 169.098954 58.286818 154.430303 68.088097 142.0752 80.4432 
C 129.720097 92.798303 119.918818 107.466954 113.232285 123.609673 
C 106.545752 139.752393 103.104 157.055246 103.104 174.528 
C 103.104 192.000754 106.545752 209.303607 113.232285 225.446327 
C 119.918818 241.589046 129.720097 256.257697 142.0752 268.6128 
C 154.430303 280.967903 169.098954 290.769182 185.241673 297.455715 
C 201.384393 304.142248 218.687246 307.584 236.16 307.584 
C 253.632754 307.584 270.935607 304.142248 287.078327 297.455715 
C 303.221046 290.769182 317.889697 280.967903 330.2448 268.6128 
C 342.599903 256.257697 352.401182 241.589046 359.087715 225.446327 
C 365.774248 209.303607 369.216 192.000754 369.216 174.528 
" style="fill: none; stroke: #000000; stroke-width: 0.8; stroke-linejoin: miter; stroke-linecap: square"/>
   </g>
   <g id="text_9">
    <text style="font-size: 12px; font-family: 'DejaVu Sans', 'Bitstream Vera Sans', 'Computer Modern Sans Serif', 'Lucida Grande', 'Verdana', 'Geneva', 'Lucid', 'Arial', 'Helvetica', 'Avant Garde', sans-serif; text-anchor: middle" x="236.16" y="16.632937" transform="rotate(-0 236.16 16.632937)">Rayleigh: 0.45, p: 0.0000, n: 10087</text>
   </g>
  </g>
 </g>
 <defs>
  <clipPath id="pe4111afab7">
   <path d="M 369.216 174.528 
C 369.216 157.055246 365.774248 139.752393 359.087715 123.609673 
C 352.401182 107.466954 342.599903 92.798303 330.2448 80.4432 
C 317.889697 68.088097 303.221046 58.286818 287.078327 51.600285 
C 270.935607 44.913752 253.632754 41.472 236.16 41.472 
C 218.687246 41.472 201.384393 44.913752 185.241673 51.600285 
C 169.098954 58.286818 154.430303 68.088097 142.0752 80.4432 
C 129.720097 92.798303 119.918818 107.466954 113.232285 123.609673 
C 106.545752 139.752393 103.104 157.055246 103.104 174.528 
C 103.104 192.000754 106.545752 209.303607 113.232285 225.446327 
C 119.918818 241.589046 129.720097 256.257697 142.0752 268.6128 
C 154.430303 280.967903 169.098954 290.769182 185.241673 297.455715 
C 201.384393 304.142248 218.687246 307.584 236.16 307.584 
C 253.632754 307.584 270.935607 304.142248 287.078327 297.455715 
C 303.221046 290.769182 317.889697 280.967903 330.2448 268.6128 
C 342.599903 256.257697 352.401182 241.589046 359.087715 225.446327 
C 365.774248 209.303607 369.216 192.000754 369.216 174.528 
M 236.16 174.528 
C 236.16 174.528 236.16 174.528 236.16 174.528 
C 236.16 174.528 236.16 174.528 236.16 174.528 
C 236.16 174.528 236.16 174.528 236.16 174.528 
C 236.16 174.528 236.16 174.528 236.16 174.528 
C 236.16 174.528 236.16 174.528 236.16 174.528 
C 236.16 174.528 236.16 174.528 236.16 174.528 
C 236.16 174.528 236.16 174.528 236.16 174.528 
C 236.16 174.528 236.16 174.528 236.16 174.528 
C 236.16 174.528 236.16 174.528 236.16 174.528 
C 236.16 174.528 236.16 174.528 236.16 174.528 
C 236.16 174.528 236.16 174.528 236.16 174.528 
C 236.16 174.528 236.16 174.528 236.16 174.528 
C 236.16 174.528 236.16 174.528 236.16 174.528 
C 236.16 174.528 236.16 174.528 236.16 174.528 
C 236.16 174.528 236.16 174.528 236.16 174.528 
C 236.16 174.528 236.16 174.528 236.16 174.528 
z
"/>
  </clipPath>
 </defs>
</svg>
