<?xml version="1.0" encoding="UTF-8"?>
<svg id="Layer_1" data-name="Layer 1" xmlns="http://www.w3.org/2000/svg" viewBox="0 0 578.43 197.23">
  <defs>
    <style>
      .cls-1 {
        fill: #fbb040;
        stroke-width: 2.77px;
      }

      .cls-1, .cls-2, .cls-3, .cls-4 {
        stroke: #2e3192;
        stroke-miterlimit: 10;
      }

      .cls-2 {
        fill: none;
      }

      .cls-2, .cls-3 {
        stroke-linecap: round;
        stroke-width: 4.15px;
      }

      .cls-3, .cls-5 {
        fill: #1c75bc;
      }

      .cls-4 {
        stroke-width: 2.08px;
      }

      .cls-4, .cls-6 {
        fill: #fff;
      }

      .cls-7 {
        fill: #2e3192;
      }
    </style>
  </defs>
  <path class="cls-3" d="M88.04,110.31c13.49,1.81,14.71,13.02,16.47,12.3,3.15-1.3,8.34-11.78-.71-23.66"/>
  <path class="cls-3" d="M31.01,75.55c-8.17-18.78-20.6-12.61-20.6-14.53,0-6.79,23.99-18.42,38.52-10.56"/>
  <path class="cls-5" d="M114.63,61.97c-6.65-8.61-33.01-34.01-64.32-10.12-35.22,26.87-28.49,79.89,4.65,101.36,11,6.38,20.51,10.41,40.14,8.93,11.9-.9,13.77,7.49,26.17,15.37,2.88,1.83,9.21.75,9.92-.95.33-.78-2.52-2.61-4.41-4.41-4.65-4.41-3.57-10.84-6.07-13.57-2.02-2.2-5.28-2.75-5.28-2.75,0,0,5.29-2.63,6.35-5.12,1.61-3.81,1.83-8.85,3.78-12.01,2.23-3.6,4.36-7.99,3.21-9.43-.95-1.19-9.62,1.15-14.26,6.79-6.38,7.76-9.26,13.64-15.58,16.32-5.83,2.47-15.73-4.38-16.46-5.09-16.79-16.33,3.56-41.19,27.76-52.51,5.46-2.29,18.86-8.55,25.38-16.25,6.39-8.09,5.01-14.2,1.55-17.41-4.65-4.32-22.05-.33-30.74,5.14"/>
  <path class="cls-6" d="M67.75,110.17c1.45-4.51,7.98-16.62,18.95-22.78,5.53-3.1,10.01-5.32,11.36-5.98.31-.15.65-.22.99-.2,2.17.12,7.4,1.13,17.35-1.68,8.62-2.43,17.89-12.07,20.71-15.14.46-.5.63-1.2.46-1.86l-.41-1.54c3.46,3.22,4.84,9.32-1.55,17.41-6.52,7.7-19.91,13.96-25.38,16.25-24.2,11.32-44.55,36.18-27.76,52.51-7.31,0-11.98-7.15-13.8-11.21-1.37-3.07-2.78-10.58-2.56-13.33.47-5.81.72-9.62,1.63-12.47Z"/>
  <path class="cls-2" d="M114.63,61.97c-6.65-8.61-33.01-34.01-64.32-10.12-35.22,26.87-28.49,79.89,4.65,101.36,11,6.38,20.51,10.41,40.14,8.93,11.9-.9,13.77,7.49,26.17,15.37,2.88,1.83,9.21.75,9.92-.95.33-.78-2.52-2.61-4.41-4.41-4.65-4.41-3.57-10.84-6.07-13.57-2.02-2.2-5.28-2.75-5.28-2.75,0,0,5.29-2.63,6.35-5.12,1.61-3.81,1.83-8.85,3.78-12.01,2.23-3.6,4.36-7.99,3.21-9.43-.95-1.19-9.62,1.15-14.26,6.79-6.38,7.76-9.26,13.64-15.58,16.32-5.83,2.47-15.73-4.38-16.46-5.09-16.79-16.33,3.56-41.19,27.76-52.51,5.46-2.29,18.86-8.55,25.38-16.25,6.39-8.09,5.01-14.2,1.55-17.41-4.65-4.32-22.05-.33-30.74,5.14"/>
  <path class="cls-2" d="M98.46,81.21c1.72-.13,6.95,1.42,17.93-1.67,9.68-2.73,20.18-14.56,21.45-15.95"/>
  <path class="cls-3" d="M54.96,103.07c-5.24,10.24-6.55,26.8-2.98,27.35,2.12.32,21.56-11.98,16.32-32.95"/>
  <ellipse class="cls-4" cx="85.76" cy="64.96" rx="5.74" ry="7.32"/>
  <ellipse class="cls-7" cx="87.12" cy="63.58" rx="3.72" ry="4.74"/>
  <path class="cls-1" d="M135.06,52.71s-4.87-1.57-6.77-2.19c-6.61-2.14-9.21-12.39-5.81-22.91s11.51-17.31,18.12-15.17c2.7.87,6.77,2.19,6.77,2.19"/>
  <ellipse class="cls-1" cx="141.21" cy="33.67" rx="20.01" ry="12.57" transform="translate(65.75 157.68) rotate(-72.09)"/>
  <g>
    <path class="cls-7" d="M235.59,100.54c-2.27-19.59-5.82-27.53-27.11-27.53h-17.03c-6.67,0-6.95.99-6.95,5.68v35.91h12.21c13.62,0,15.04-4.68,15.04-16.6h3.55v37.61h-3.55c0-12.06-1.42-16.6-15.04-16.6h-12.21v34.91c0,4.97,0,6.81,13.48,6.81h4.68v4.4c-5.11-.43-18.02-.43-23.84-.43s-16.61,0-21.57.43v-4.4h3.41c10.93,0,11.21-1.56,11.21-6.67v-74.37c0-5.11-.28-6.67-11.21-6.67h-3.41v-4.4h77.92l3.97,31.93h-3.55Z"/>
    <path class="cls-7" d="M265.67,164.69l-15.76.43v-4.4c9.51,0,11.07,0,11.07-6.39v-73.8c0-6.95-1.14-7.95-11.07-7.95v-4.4l20.44-1.56v87.71c0,6.39,1.56,6.39,11.07,6.39v4.4l-15.75-.43Z"/>
    <path class="cls-7" d="M304.98,164.69l-15.61.43v-4.4c9.51,0,11.07,0,11.07-6.39v-38.18c0-6.95-1.28-7.81-10.5-7.81v-4.4l19.87-1.56v52.09c0,5.53.57,6.24,9.94,6.24v4.4c-4.83-.14-9.79-.43-14.76-.43ZM304.27,86.92c-4.26,0-7.52-3.69-7.52-7.52,0-3.55,2.84-7.52,7.66-7.52,4.26,0,7.52,3.69,7.52,7.52,0,3.55-2.84,7.52-7.66,7.52Z"/>
    <path class="cls-7" d="M366.43,166.68c-10.79,0-16.75-7.66-17.45-9.93v25.12c0,6.39,1.56,6.39,11.07,6.39v4.4l-16.04-.42-15.9.42v-4.4c9.51,0,11.07,0,11.07-6.39v-66.42c0-6.24-.99-7.1-11.07-7.1v-4.4l20.44-1.56v9.37c2.84-3.12,8.8-9.37,19.87-9.37,15.89,0,29.66,14.05,29.66,32.08s-14.76,32.22-31.65,32.22ZM367.28,105.94c-7.24,0-14.19,4.12-18.31,11.35v31.65c0,2.84,0,2.98,1.99,5.96,3.83,5.82,9.22,8.66,14.9,8.66,10.5,0,20.44-11.92,20.44-29.1,0-16.04-8.66-28.53-19.02-28.53Z"/>
    <path class="cls-7" d="M459.25,120.27h-23.99v33.78c0,5.11.29,6.67,11.21,6.67h3.41v4.4c-4.97-.43-15.61-.43-21-.43s-15.9,0-20.86.43v-4.4h3.41c10.93,0,11.21-1.56,11.21-6.67v-74.79c0-5.11-.28-6.67-11.21-6.67h-3.41v-4.4h50.1c19.44,0,33.49,12.49,33.49,26.4s-15.33,25.69-32.36,25.69ZM454.42,72.59h-12.63c-6.67,0-6.95.99-6.95,5.68v38.32h19.59c22.57,0,22.57-15.33,22.57-22s0-22-22.57-22Z"/>
    <path class="cls-7" d="M558.59,117.43l-24.98,60.6c-3.41,8.09-9.22,16.18-18.17,16.18-7.1,0-13.06-5.11-13.06-11.5,0-4.26,3.12-6.1,5.96-6.1,3.26,0,5.96,2.27,5.96,5.96,0,2.27-1.13,5.39-5.53,5.96,2.7,2.55,5.96,2.55,6.67,2.55,9.08,0,13.06-9.79,16.18-17.6l3.55-8.37-21.29-51.8c-1.99-4.97-4.69-4.97-11.5-4.97v-4.4c4.26.28,9.93.42,13.77.42l15.47-.42v4.4c-2.7,0-7.95,0-7.95,3.69,0,.57.28,1.14.85,2.55l15.75,38.18,14.33-34.91c.71-1.7.85-1.99.85-3.41,0-3.55-2.27-5.96-6.67-6.1v-4.4l12.35.42c3.27,0,7.38-.14,10.65-.42v4.4c-2.27,0-9.51.14-13.2,9.08Z"/>
  </g>
</svg>