<?xml version="1.0" encoding="UTF-8"?>
<svg id="Layer_1" data-name="Layer 1" xmlns="http://www.w3.org/2000/svg" viewBox="0 0 250 250">
  <defs>
    <style>
      .cls-1 {
        fill: #fbb040;
        stroke-width: 2.77px;
      }

      .cls-1, .cls-2, .cls-3, .cls-4 {
        stroke: #2e3192;
        stroke-miterlimit: 10;
      }

      .cls-5 {
        font-family: LatinModernMath-Regular, 'Latin Modern Math';
        font-size: 67.59px;
      }

      .cls-5, .cls-6 {
        fill: #2e3192;
      }

      .cls-2 {
        fill: none;
      }

      .cls-2, .cls-3 {
        stroke-linecap: round;
        stroke-width: 4.15px;
      }

      .cls-3, .cls-7 {
        fill: #1c75bc;
      }

      .cls-4 {
        stroke-width: 2.08px;
      }

      .cls-4, .cls-8 {
        fill: #fff;
      }
    </style>
  </defs>
  <path class="cls-3" d="M132.87,104.44c13.49,1.81,14.71,13.02,16.47,12.3,3.15-1.3,8.34-11.78-.71-23.66"/>
  <path class="cls-3" d="M75.84,69.69c-8.17-18.78-20.6-12.61-20.6-14.53,0-6.79,23.99-18.42,38.52-10.56"/>
  <path class="cls-7" d="M159.46,56.11c-6.65-8.61-33.01-34.01-64.32-10.12-35.22,26.87-28.49,79.89,4.65,101.36,11,6.38,20.51,10.41,40.14,8.93,11.9-.9,13.77,7.49,26.17,15.37,2.88,1.83,9.21.75,9.92-.95.33-.78-2.52-2.61-4.41-4.41-4.65-4.41-3.57-10.84-6.07-13.57-2.02-2.2-5.28-2.75-5.28-2.75,0,0,5.29-2.63,6.35-5.12,1.61-3.81,1.83-8.85,3.78-12.01,2.23-3.6,4.36-7.99,3.21-9.43-.95-1.19-9.62,1.15-14.26,6.79-6.38,7.76-9.26,13.64-15.58,16.32-5.83,2.47-15.73-4.38-16.46-5.09-16.79-16.33,3.56-41.19,27.76-52.51,5.46-2.29,18.86-8.55,25.38-16.25,6.39-8.09,5.01-14.2,1.55-17.41-4.65-4.32-22.05-.33-30.74,5.14"/>
  <path class="cls-8" d="M112.58,104.31c1.45-4.51,7.98-16.62,18.95-22.78,5.53-3.1,10.01-5.32,11.36-5.98.31-.15.65-.22.99-.2,2.17.12,7.4,1.13,17.35-1.68,8.62-2.43,17.89-12.07,20.71-15.14.46-.5.63-1.2.46-1.86l-.41-1.54c3.46,3.22,4.84,9.32-1.55,17.41-6.52,7.7-19.91,13.96-25.38,16.25-24.2,11.32-44.55,36.18-27.76,52.51-7.31,0-11.98-7.15-13.8-11.21-1.37-3.07-2.78-10.58-2.56-13.33.47-5.81.72-9.62,1.63-12.47Z"/>
  <path class="cls-2" d="M159.46,56.11c-6.65-8.61-33.01-34.01-64.32-10.12-35.22,26.87-28.49,79.89,4.65,101.36,11,6.38,20.51,10.41,40.14,8.93,11.9-.9,13.77,7.49,26.17,15.37,2.88,1.83,9.21.75,9.92-.95.33-.78-2.52-2.61-4.41-4.41-4.65-4.41-3.57-10.84-6.07-13.57-2.02-2.2-5.28-2.75-5.28-2.75,0,0,5.29-2.63,6.35-5.12,1.61-3.81,1.83-8.85,3.78-12.01,2.23-3.6,4.36-7.99,3.21-9.43-.95-1.19-9.62,1.15-14.26,6.79-6.38,7.76-9.26,13.64-15.58,16.32-5.83,2.47-15.73-4.38-16.46-5.09-16.79-16.33,3.56-41.19,27.76-52.51,5.46-2.29,18.86-8.55,25.38-16.25,6.39-8.09,5.01-14.2,1.55-17.41-4.65-4.32-22.05-.33-30.74,5.14"/>
  <path class="cls-2" d="M143.29,75.34c1.72-.13,6.95,1.42,17.93-1.67,9.68-2.73,20.18-14.56,21.45-15.95"/>
  <path class="cls-3" d="M99.79,97.2c-5.24,10.24-6.55,26.8-2.98,27.35,2.12.32,21.56-11.98,16.32-32.95"/>
  <ellipse class="cls-4" cx="130.59" cy="59.1" rx="5.74" ry="7.32"/>
  <ellipse class="cls-6" cx="131.95" cy="57.71" rx="3.72" ry="4.74"/>
  <path class="cls-1" d="M179.89,46.84s-4.87-1.57-6.77-2.19c-6.61-2.14-9.21-12.39-5.81-22.91s11.51-17.31,18.12-15.17c2.7.87,6.77,2.19,6.77,2.19"/>
  <ellipse class="cls-1" cx="186.04" cy="27.8" rx="20.01" ry="12.57" transform="translate(102.37 196.28) rotate(-72.09)"/>
  <text class="cls-5" transform="translate(24.49 230.5)"><tspan x="0" y="0">FlipPy</tspan></text>
</svg>