<?xml version="1.0" encoding="UTF-8" standalone="no"?>
<svg
   id="SVGDoc"
   width="52.477772"
   height="46.82663"
   version="1.1"
   viewBox="0 0 52.477772 46.82663"
   sodipodi:docname="app_icon_brand.svg"
   inkscape:version="1.4 (86a8ad7, 2024-10-11)"
   xmlns:inkscape="http://www.inkscape.org/namespaces/inkscape"
   xmlns:sodipodi="http://sodipodi.sourceforge.net/DTD/sodipodi-0.dtd"
   xmlns="http://www.w3.org/2000/svg"
   xmlns:svg="http://www.w3.org/2000/svg">
  <defs
     id="defs3" />
  <sodipodi:namedview
     id="namedview3"
     pagecolor="#ffffff"
     bordercolor="#000000"
     borderopacity="0.25"
     inkscape:showpageshadow="2"
     inkscape:pageopacity="0.0"
     inkscape:pagecheckerboard="0"
     inkscape:deskcolor="#d1d1d1"
     inkscape:zoom="21.611111"
     inkscape:cx="26.236504"
     inkscape:cy="23.390746"
     inkscape:window-width="2560"
     inkscape:window-height="1369"
     inkscape:window-x="-8"
     inkscape:window-y="-7"
     inkscape:window-maximized="1"
     inkscape:current-layer="SVGDoc" />
  <desc
     id="desc1">Generated with Avocode.</desc>
  <g
     transform="translate(-1.4729061e-4)"
     id="g3">
    <g
       transform="translate(2.2121e-5,-0.50471)"
       id="g1">
      <title
         id="title1">Pfad 33</title>
      <path
         d="M 9.2752,3.0413 9.30142,2.93101 9.3183,2.87138 9.33878,2.80636 9.36105,2.73918 9.37973,2.67559 9.4153,2.59368 9.43937,2.53584 9.47853,2.44244 9.54391,2.31383 C 9.60354,2.19816 9.63911,2.14211 9.67252,2.08643 9.84424,1.81592 10.03068,1.59392 10.24155,1.39813 10.32525,1.31802 10.4147,1.2433 10.5081,1.17433 10.78974,0.95987 11.07893,0.80108 11.38105,0.68936 11.65335,0.59057 11.88829,0.53812 12.12324,0.51405 12.2073,0.5083 12.291,0.50471 12.37147,0.50471 h 38.064 c 1.4025,0 2.2905,1.1359 1.9808,2.5366 l -0.39912,1.822 c -0.30787,1.4007 -1.6952,2.5366 -3.0981,2.5366 h -25.624 l -6.1954,28.172 c -0.30967,1.4007 -1.6956,2.5362 -3.0963,2.5362 h -9.9052 c -1.4007,0 -2.2866,-1.1356 -1.9787,-2.5362 l 6.7533,-30.691 z"
         fill="#1b465d"
         id="path1" />
    </g>
    <g
       transform="translate(2.2121e-5,-0.50471)"
       id="g2">
      <title
         id="title2">Pfad 34</title>
      <path
         d="m 43.203,44.793 -0.02802,0.10992 -0.01473,0.06179 -0.02048,0.06502 -0.02227,0.06538 -0.02443,0.06718 -0.02982,0.07832 -0.02442,0.06143 -0.03916,0.08981 -0.06323,0.12861 c -0.06359,0.11568 -0.0952,0.1753 -0.13256,0.22919 -0.16956,0.26871 -0.3578,0.49251 -0.56688,0.6883 -0.08406,0.07832 -0.17531,0.15304 -0.26656,0.22381 -0.28379,0.21446 -0.56903,0.37325 -0.87295,0.48676 -0.2723,0.0952 -0.50724,0.14944 -0.74434,0.17352 -0.08191,0.0057 -0.16597,0.0093 -0.24608,0.0093 h -38.066 c -1.4025,0 -2.2901,-1.1359 -1.9787,-2.5384 l 0.39911,-1.8185 c 0.30966,-1.4043 1.6952,-2.5402 3.0977,-2.5402 h 25.624 l 6.1958,-28.17 c 0.30787,-1.4025 1.6952,-2.5384 3.0959,-2.5384 h 9.9056 c 1.4007,0 2.2866,1.1359 1.9787,2.5384 l -6.7533,30.69 z"
         fill="#298043"
         id="path2" />
    </g>
  </g>
</svg>
