<?xml version="1.0" encoding="UTF-8"?>
<svg id="SVGDoc" width="54" height="54" version="1.1" viewBox="0 0 54 54" xmlns="http://www.w3.org/2000/svg">
 <desc>Generated with Avocode.</desc>
 <g transform="translate(.76097 3.5867)">
  <g transform="translate(2.2121e-5 -.50471)">
   <title>Pfad 33</title>
   <path d="m9.2752 3.0413 0.02622-0.11029 0.01688-0.05963 0.02048-0.06502 0.02227-0.06718 0.01868-0.06359 0.03557-0.08191 0.02407-0.05784 0.03916-0.0934 0.06538-0.12861c0.05963-0.11567 0.0952-0.17172 0.12861-0.2274 0.17172-0.27051 0.35816-0.49251 0.56903-0.6883 0.0837-0.08011 0.17315-0.15483 0.26655-0.2238 0.28164-0.21446 0.57083-0.37325 0.87295-0.48497 0.2723-0.09879 0.50724-0.15124 0.74219-0.17531 0.08406-0.00575 0.16776-0.00934 0.24823-0.00934h38.064c1.4025 0 2.2905 1.1359 1.9808 2.5366l-0.39912 1.822c-0.30787 1.4007-1.6952 2.5366-3.0981 2.5366h-25.624l-6.1954 28.172c-0.30967 1.4007-1.6956 2.5362-3.0963 2.5362h-9.9052c-1.4007 0-2.2866-1.1356-1.9787-2.5362l6.7533-30.691z" fill="#1b465d"/>
  </g>
  <g transform="translate(2.2121e-5 -.50471)">
   <title>Pfad 34</title>
   <path d="m43.203 44.793-0.02802 0.10992-0.01473 0.06179-0.02048 0.06502-0.02227 0.06538-0.02443 0.06718-0.02982 0.07832-0.02442 0.06143-0.03916 0.08981-0.06323 0.12861c-0.06359 0.11568-0.0952 0.1753-0.13256 0.22919-0.16956 0.26871-0.3578 0.49251-0.56688 0.6883-0.08406 0.07832-0.17531 0.15304-0.26656 0.22381-0.28379 0.21446-0.56903 0.37325-0.87295 0.48676-0.2723 0.0952-0.50724 0.14944-0.74434 0.17352-0.08191 0.0057-0.16597 0.0093-0.24608 0.0093h-38.066c-1.4025 0-2.2901-1.1359-1.9787-2.5384l0.39911-1.8185c0.30966-1.4043 1.6952-2.5402 3.0977-2.5402h25.624l6.1958-28.17c0.30787-1.4025 1.6952-2.5384 3.0959-2.5384h9.9056c1.4007 0 2.2866 1.1359 1.9787 2.5384l-6.7533 30.69z" fill="#298043"/>
  </g>
 </g>
</svg>
