<?xml version="1.0" encoding="UTF-8"?>
<!-- Created with Inkscape (http://www.inkscape.org/) -->
<svg width="48.004" height="66.496" version="1.1" viewBox="0 0 12.701 17.594" xmlns="http://www.w3.org/2000/svg">
 <g transform="translate(-100.14 -95.25)">
  <g transform="scale(-1)" fill="#2db159">
   <path d="m-110.86-104.05a0.79375 0.75605 0 0 1-0.79375 0.75605 0.79375 0.75605 0 0 1-0.79375-0.75605 0.79375 0.75605 0 0 1 0.79375-0.75604 0.79375 0.75605 0 0 1 0.79375 0.75604z"/>
   <path d="m-111.65-105.2c-0.64267 0-1.1914 0.50961-1.1914 1.1523-1e-5 0.64274 0.54873 1.1524 1.1914 1.1524 0.64268 0 1.1914-0.50961 1.1914-1.1524-1e-5 -0.64273-0.54874-1.1523-1.1914-1.1523zm0 0.79297c0.23408 0 0.39649 0.16701 0.39649 0.35937 0 0.19238-0.16241 0.35938-0.39649 0.35938-0.23407 0-0.39648-0.167-0.39648-0.35938 0-0.19236 0.16241-0.35937 0.39648-0.35937z"/>
   <path d="m-102.92-111.69a0.79375 0.75605 0 0 1-0.79375 0.75605 0.79375 0.75605 0 0 1-0.79375-0.75605 0.79375 0.75605 0 0 1 0.79375-0.75604 0.79375 0.75605 0 0 1 0.79375 0.75604z"/>
   <path d="m-103.72-112.84c-0.64267 0-1.1914 0.50961-1.1914 1.1523-1e-5 0.64274 0.54873 1.1543 1.1914 1.1543 0.64268 0 1.1914-0.51156 1.1914-1.1543-1e-5 -0.64273-0.54874-1.1523-1.1914-1.1523zm0 0.79492c0.23408 0 0.39649 0.16506 0.39649 0.35742 0 0.19237-0.16241 0.35938-0.39649 0.35938-0.23407 0-0.39648-0.16701-0.39648-0.35938 0-0.19236 0.16241-0.35742 0.39648-0.35742z"/>
   <path d="m-100.54-106.57a0.79375 0.75605 0 0 1-0.79375 0.75605 0.79375 0.75605 0 0 1-0.79375-0.75605 0.79375 0.75605 0 0 1 0.79375-0.75604 0.79375 0.75605 0 0 1 0.79375 0.75604z"/>
   <path d="m-101.34-107.72c-0.64267 0-1.1894 0.50961-1.1894 1.1523 0 0.64274 0.54678 1.1523 1.1894 1.1523 0.64268 0 1.1914-0.5096 1.1914-1.1523-1e-5 -0.64273-0.54874-1.1523-1.1914-1.1523zm0 0.79297c0.23408 0 0.39649 0.167 0.39649 0.35937s-0.16241 0.35938-0.39649 0.35938-0.39648-0.16701-0.39648-0.35938 0.16241-0.35937 0.39648-0.35937z"/>
   <path d="m-100.54-101.53a0.79375 0.75605 0 0 1-0.79375 0.75604 0.79375 0.75605 0 0 1-0.79375-0.75604 0.79375 0.75605 0 0 1 0.79375-0.75605 0.79375 0.75605 0 0 1 0.79375 0.75605z"/>
   <path d="m-101.34-102.68c-0.64267 0-1.1894 0.5096-1.1894 1.1523 1e-5 0.64273 0.54678 1.1523 1.1894 1.1523s1.1914-0.50961 1.1914-1.1523c0-0.64274-0.54873-1.1523-1.1914-1.1523zm0 0.79296c0.23408 0 0.39649 0.16701 0.39649 0.35938s-0.16241 0.35937-0.39649 0.35937c-0.23407 0-0.39648-0.167-0.39648-0.35937s0.1624-0.35938 0.39648-0.35938z"/>
   <path d="m-102.92-96.403a0.79375 0.75605 0 0 1-0.79375 0.75605 0.79375 0.75605 0 0 1-0.79375-0.75605 0.79375 0.75605 0 0 1 0.79375-0.75605 0.79375 0.75605 0 0 1 0.79375 0.75605z"/>
   <path d="m-103.72-97.557c-0.64267 0-1.1914 0.51156-1.1914 1.1543 0 0.64274 0.54873 1.1523 1.1914 1.1523 0.64268 0 1.1914-0.50961 1.1914-1.1523 0-0.64274-0.54873-1.1543-1.1914-1.1543zm0 0.79492c0.23408 0 0.39649 0.167 0.39649 0.35938s-0.16241 0.35938-0.39649 0.35938c-0.23407 0-0.39648-0.167-0.39648-0.35938s0.16241-0.35938 0.39648-0.35938z"/>
  </g>
  <g transform="rotate(-29.889 112.47 102.71)">
   <g stroke-miterlimit="10">
    <path d="m111.06 103.54-6.1516-6.0457" fill="#fff"/>
    <path d="m105.21 97.193-0.59375 0.60352 6.1504 6.0469 0.59375-0.60352z" fill="#2db159"/>
   </g>
   <g fill="#2db159">
    <path d="m106.2 97.578-1.8838-0.58738 0.59531 1.6801z"/>
    <path d="m104.1 96.785 0.74609 2.1094 1.6191-1.3711zm0.42578 0.41016 1.4023 0.43555-0.96093 0.81641z"/>
   </g>
  </g>
 </g>
</svg>
