<?xml version="1.0" encoding="UTF-8" standalone="no"?>
<!-- Created with Inkscape (http://www.inkscape.org/) -->

<svg
   width="90.905304mm"
   height="76.573593mm"
   viewBox="0 0 90.905302 76.573593"
   version="1.1"
   id="svg1"
   xml:space="preserve"
   inkscape:version="1.4 (e7c3feb1, 2024-10-09)"
   sodipodi:docname="pydropsonde_logo.svg"
   xmlns:inkscape="http://www.inkscape.org/namespaces/inkscape"
   xmlns:sodipodi="http://sodipodi.sourceforge.net/DTD/sodipodi-0.dtd"
   xmlns:xlink="http://www.w3.org/1999/xlink"
   xmlns="http://www.w3.org/2000/svg"
   xmlns:svg="http://www.w3.org/2000/svg"><sodipodi:namedview
     id="namedview1"
     pagecolor="#ffffff"
     bordercolor="#000000"
     borderopacity="0.25"
     inkscape:showpageshadow="2"
     inkscape:pageopacity="0.0"
     inkscape:pagecheckerboard="0"
     inkscape:deskcolor="#d1d1d1"
     inkscape:document-units="mm"
     showguides="true"
     inkscape:zoom="1.9090414"
     inkscape:cx="156.88502"
     inkscape:cy="136.97975"
     inkscape:window-width="1920"
     inkscape:window-height="1200"
     inkscape:window-x="0"
     inkscape:window-y="0"
     inkscape:window-maximized="0"
     inkscape:current-layer="g18"><sodipodi:guide
       position="7.1402657,9.8086724"
       orientation="0,-1"
       id="guide16"
       inkscape:locked="false" /><sodipodi:guide
       position="23.813578,51.303064"
       orientation="0,-1"
       id="guide19"
       inkscape:locked="false" /><sodipodi:guide
       position="6.7321085,51.350226"
       orientation="1,0"
       id="guide20"
       inkscape:locked="false" /></sodipodi:namedview><defs
     id="defs1"><linearGradient
       id="linearGradient22"
       inkscape:collect="always"><stop
         style="stop-color:#ffe476;stop-opacity:1;"
         offset="0.13782991"
         id="stop22" /><stop
         style="stop-color:#ffd43b;stop-opacity:1;"
         offset="0.87683284"
         id="stop23" /></linearGradient><linearGradient
       id="linearGradient20"
       inkscape:collect="always"><stop
         style="stop-color:#8c8c8c;stop-opacity:1;"
         offset="0"
         id="stop20" /><stop
         style="stop-color:#7a7a7a;stop-opacity:1;"
         offset="1"
         id="stop21" /></linearGradient><linearGradient
       id="linearGradient19"
       inkscape:collect="always"><stop
         style="stop-color:#4b8bbe;stop-opacity:1;"
         offset="0.05571847"
         id="stop19" /><stop
         style="stop-color:#306998;stop-opacity:1;"
         offset="1"
         id="stop18" /></linearGradient><linearGradient
       id="linearGradient10"
       inkscape:collect="always"><stop
         style="stop-color:#94b2ca;stop-opacity:1;"
         offset="0"
         id="stop17" /><stop
         style="stop-color:#306998;stop-opacity:1;"
         offset="1"
         id="stop10" /></linearGradient><linearGradient
       id="linearGradient7"
       inkscape:collect="always"><stop
         style="stop-color:#306998;stop-opacity:1;"
         offset="0.1799363"
         id="stop7" /><stop
         style="stop-color:#4b8bbe;stop-opacity:1;"
         offset="1"
         id="stop8" /></linearGradient><rect
       x="102.50337"
       y="632.24768"
       width="41.345898"
       height="32.73217"
       id="rect7" /><linearGradient
       inkscape:collect="always"
       xlink:href="#linearGradient7"
       id="linearGradient8"
       x1="178.35606"
       y1="224.04761"
       x2="185.36481"
       y2="224.04761"
       gradientUnits="userSpaceOnUse" /><linearGradient
       inkscape:collect="always"
       xlink:href="#linearGradient19"
       id="linearGradient9"
       gradientUnits="userSpaceOnUse"
       x1="178.69856"
       y1="224.50427"
       x2="185.36481"
       y2="224.04761" /><linearGradient
       inkscape:collect="always"
       xlink:href="#linearGradient10"
       id="linearGradient11"
       x1="121.48851"
       y1="145.05458"
       x2="148.15868"
       y2="145.05458"
       gradientUnits="userSpaceOnUse"
       gradientTransform="rotate(37.458247,140.48487,114.91072)" /><linearGradient
       inkscape:collect="always"
       xlink:href="#linearGradient7"
       id="linearGradient12"
       gradientUnits="userSpaceOnUse"
       x1="178.35606"
       y1="224.04761"
       x2="185.36481"
       y2="224.04761"
       gradientTransform="translate(0.43813779,-0.49724488)" /><linearGradient
       inkscape:collect="always"
       xlink:href="#linearGradient20"
       id="linearGradient21"
       x1="112.33881"
       y1="138.76784"
       x2="116.03253"
       y2="140.42142"
       gradientUnits="userSpaceOnUse" /><linearGradient
       inkscape:collect="always"
       xlink:href="#linearGradient22"
       id="linearGradient23"
       x1="117.18546"
       y1="117.43993"
       x2="135.81882"
       y2="130.45071"
       gradientUnits="userSpaceOnUse" /></defs><g
     inkscape:label="Ebene 1"
     inkscape:groupmode="layer"
     id="layer1"
     transform="translate(-43.761391,-118.59205)"><g
       id="g17"
       inkscape:label="py"><path
         d="m 94.077416,168.63357 -21.830114,-24.77099 8.956288,-0.0193 17.851816,20.12189 z"
         id="text6-2"
         style="-inkscape-font-specification:'sans-serif, Normal';fill:#ffd43b;fill-opacity:1;stroke-width:0.264583"
         aria-label="PY"
         sodipodi:nodetypes="ccccc" /><path
         d="m 77.316643,159.37107 c 0,2.27377 -0.401928,4.38676 -1.205784,6.33898 -0.780889,1.92925 -1.88332,3.60587 -3.307294,5.02985 -1.768483,1.76848 -3.858509,3.10058 -6.270078,3.99631 -2.411568,0.87276 -5.454738,1.30914 -9.129509,1.30914 h -6.821294 v 19.12029 h -6.821293 c 0,0 -0.137938,-45.71315 0.104133,-48.79056 0.247192,-3.14251 13.814062,-2.50695 13.814062,-2.50695 3.077621,0 5.684411,0.26413 7.820372,0.79238 2.135961,0.50528 4.030764,1.30913 5.684411,2.41156 1.952222,1.30914 3.456581,2.93982 4.513078,4.89204 1.079464,1.95223 1.619196,4.42121 1.619196,7.40696 z m -7.096901,0.17226 c 0,-1.76849 -0.310059,-3.3073 -0.930177,-4.61643 -0.620117,-1.30914 -1.561777,-2.37712 -2.82498,-3.20394 -1.102431,-0.71199 -2.365634,-1.21727 -3.789607,-1.51585 -1.401007,-0.32154 -3.180974,-0.48231 -5.339902,-0.48231 h -6.752392 v 20.49833 h 5.753314 c 2.756078,0 4.995391,-0.24116 6.71794,-0.72347 1.722549,-0.50528 3.123556,-1.29765 4.20302,-2.37712 1.079464,-1.10243 1.837385,-2.26228 2.273764,-3.47955 0.459347,-1.21727 0.68902,-2.58382 0.68902,-4.09966 z"
         style="-inkscape-font-specification:'sans-serif, Normal';fill:#ffd43b;fill-opacity:1;stroke-width:0.264583"
         id="path1-9"
         sodipodi:nodetypes="scscscccsccccsssccsccscccs" /></g><text
       xml:space="preserve"
       transform="scale(0.26458333)"
       id="text7"
       style="text-align:start;writing-mode:lr-tb;direction:ltr;white-space:pre;shape-inside:url(#rect7);display:inline;fill:#000000" /><g
       id="g16"
       inkscape:label="dropsonde"
       transform="translate(-1.1521205,1.1521205)"><path
         style="fill:none;fill-opacity:1;stroke:#646464;stroke-width:0.264583;stroke-opacity:1"
         d="m 106.02587,154.98358 5.30067,-8.76378"
         id="path12"
         sodipodi:nodetypes="cc" /><g
         id="g18"><path
           style="fill:url(#linearGradient21);stroke:none;stroke-width:0.264583;stroke-opacity:1"
           d="m 115.96274,136.35435 c 0,0 -3.70052,-0.192 -3.62272,1.06419 0.07,1.13005 0.0469,4.21688 0.0469,4.21688 l 3.88539,0.32322 z"
           id="path18"
           sodipodi:nodetypes="csccc" /><path
           style="fill:url(#linearGradient23);fill-opacity:1;stroke:none;stroke-width:0.264583;stroke-opacity:1"
           d="m 114.61604,117.43993 7.27444,10.52316 13.87251,4.98692 c 0,0 -5.05472,-7.48689 -8.57921,-10.0719 -3.52449,-2.58502 -12.56774,-5.43818 -12.56774,-5.43818 z"
           id="path17"
           sodipodi:nodetypes="ccczc" /><path
           style="fill:url(#linearGradient11)"
           d="m 111.46386,145.58787 c 0.6613,-0.86312 0.92579,-2.89697 0.9231,-3.95245 1.23292,-0.4244 2.48858,-0.60159 3.64557,-1.214 l -0.4533,-2.55107 c -0.97985,-0.4785 -1.77868,-0.35516 -3.23921,-0.45181 -0.27703,-4.37497 -0.73423,-11.20958 1.08438,-16.5316 0.50316,-1.35606 0.97712,-2.68638 1.05324,-2.95628 l 0.1384,-0.49073 1.25563,1.13346 c 5.28887,4.77428 9.46173,8.17036 11.98386,9.75305 5.04241,3.16424 7.0187,4.32323 7.63862,4.47963 1.33369,0.21974 -1.80208,3.37974 -2.89763,4.70617 -1.09552,1.32645 -4.30028,3.45847 -11.65051,4.80328 -6.60998,1.20937 -7.62867,1.59704 -8.83943,3.36398 -0.47529,0.69369 -0.85585,1.04373 -1.05871,0.97378 -0.21552,-0.0743 -0.0826,-0.41459 0.41599,-1.06541 z"
           id="path5"
           sodipodi:nodetypes="sccccsscssszssss" /></g><g
         id="g6"
         transform="matrix(0.99358107,0.73551944,-0.68645167,1.0646026,68.102562,-199.4192)"
         style="fill:url(#linearGradient8)"><path
           style="fill:url(#linearGradient9)"
           d="m 179.56278,241.20835 c -0.0649,-0.197 -0.15908,-1.22138 -0.20932,-2.27641 l -0.0914,-1.91822 h 0.88451 0.88452 l -0.0821,-0.99219 -0.0821,-0.99219 -0.82213,-0.39687 -0.82214,-0.39687 -0.16807,-4.36563 c -0.42086,-10.93175 -0.74741,-22.21865 -0.65119,-22.50732 0.11486,-0.34456 5.4851,-0.37514 5.81539,-0.0331 0.12802,0.13258 1.0335,23.93797 1.01587,26.70762 -0.001,0.1819 -0.27594,0.33073 -0.61064,0.33073 -0.89904,0 -1.17701,0.42604 -0.9977,1.52917 l 0.1594,0.98063 0.78956,0.13663 0.78957,0.13663 v 1.92437 1.92436 l -2.38125,0.0781 c -1.30969,0.0429 -2.5886,0.17048 -2.84204,0.28344 -0.30023,0.13381 -0.50189,0.0806 -0.57875,-0.15282 z"
           id="path3" /><path
           style="fill:url(#linearGradient12)"
           d="m 180.11442,241.84095 c 0,-0.12748 1.08165,-0.25149 2.40366,-0.27559 1.60911,-0.0293 2.34737,0.0473 2.23335,0.23178 -0.20629,0.33377 -4.63701,0.37563 -4.63701,0.0438 z"
           id="path1" /></g></g></g></svg>
