<svg x="0" y="0" width="512" height="512" version="1.1"
    xmlns="http://www.w3.org/2000/svg"
    xmlns:xlink="http://www.w3.org/1999/xlink" viewBox="0 0 512 512">
    <title>question icon</title>
    <desc>question icon from the IconExperience.com G-Collection. Copyright by INCORS GmbH (www.incors.com).</desc>
    <g>
        <path d="M256,16c132.55,0 240,107.45 240,240c0,132.55 -107.45,240 -240,240c-132.55,0 -240,-107.45 -240,-240c0,-132.55 107.45,-240 240,-240z" fill="#546e7a"/>
        <path d="M86.3,425.7l339.4,-339.4c43.45,43.4 70.3,103.45 70.3,169.7c0,132.55 -107.45,240 -240,240c-66.25,0 -126.25,-26.85 -169.7,-70.3z" fill="#445a64"/>
        <path d="M223.85,311.2c0,-19.8 2.2,-35.5 6.75,-46.95c4.45,-11.45 11.7,-21.4 21.7,-29.8c10.1,-8.45 17.75,-16.15 22.95,-23.1c5.2,-7 7.85,-14.75 7.85,-23.15c0,-20.45 -8.85,-30.75 -26.45,-30.75c-8.15,0 -14.75,3 -19.75,8.95c-5.05,6 -7.7,14.1 -8,24.25l-68.75,0c0.3,-27.15 8.85,-48.25 25.65,-63.4c16.8,-15.15 40.4,-22.7 70.85,-22.7c30.2,0 53.65,7 70.25,20.95c16.6,13.95 24.95,33.9 24.95,59.65c0,11.25 -2.25,21.55 -6.75,30.8c-4.45,9.2 -11.65,18.65 -21.55,28.25l-23.4,21.8c-6.65,6.4 -11.25,12.9 -13.8,19.65c-2.65,6.75 -4.05,15.2 -4.3,25.55z M215.5,373.1c0,-10.1 3.65,-18.3 10.9,-24.75c7.25,-6.45 16.35,-9.65 27.15,-9.65c10.85,0 19.9,3.2 27.15,9.65c7.25,6.45 10.95,14.65 10.95,24.75c0,10 -3.7,18.25 -10.95,24.7c-7.25,6.45 -16.3,9.65 -27.15,9.65c-10.8,0 -19.9,-3.2 -27.15,-9.65c-7.25,-6.45 -10.9,-14.7 -10.9,-24.7z" fill="#ffffff"/>
        <path d="M223.85,311.2c0,-9 0.45,-17.15 1.4,-24.45l124.1,-124.1c1.65,6.9 2.5,14.45 2.5,22.5c0,11.25 -2.25,21.55 -6.75,30.8c-4.45,9.2 -11.65,18.65 -21.55,28.25l-23.4,21.8c-6.65,6.4 -11.25,12.9 -13.8,19.65c-2.65,6.75 -4.05,15.2 -4.3,25.55z M215.5,373.1c0,-10.1 3.65,-18.3 10.9,-24.75c7.25,-6.45 16.35,-9.65 27.15,-9.65c10.85,0 19.9,3.2 27.15,9.65c7.25,6.45 10.95,14.65 10.95,24.75c0,10 -3.7,18.25 -10.95,24.7c-7.25,6.45 -16.3,9.65 -27.15,9.65c-10.8,0 -19.9,-3.2 -27.15,-9.65c-7.25,-6.45 -10.9,-14.7 -10.9,-24.7z" fill="#ebedef"/>
    </g>
</svg>