<?xml version="1.0" encoding="UTF-8"?>
<svg width="150" height="150" version="1.1" viewBox="0 0 150 150" xmlns="http://www.w3.org/2000/svg">
 <path d="m140.79 75a65.789 65.789 0 0 1-65.789 65.789 65.789 65.789 0 0 1-65.789-65.789 65.789 65.789 0 0 1 65.789-65.789 65.789 65.789 0 0 1 65.789 65.789z" color="#010000" fill="#010000" fill-opacity=".25" stroke-linecap="round" stroke-width="10.007" style="-inkscape-stroke:none"/>
 <path d="m75 0c-41.362 0-75 33.638-75 75s33.638 75 75 75 75-33.638 75-75-33.638-75-75-75zm0 10.008c35.954 0 64.992 29.039 64.992 64.992 0 35.954-29.039 64.992-64.992 64.992-35.954 0-64.992-29.039-64.992-64.992 0-35.954 29.039-64.992 64.992-64.992z" color="#000000" fill="#fe0000" fill-opacity=".2" stroke-linecap="round" style="-inkscape-stroke:none"/>
 <circle cx="75" cy="75" r="35" fill="#f78a09"/>
</svg>
