<svg x="0" y="0" width="512" height="512" version="1.1"
    xmlns="http://www.w3.org/2000/svg"
    xmlns:xlink="http://www.w3.org/1999/xlink" viewBox="0 0 512 512">
    <title>navigate cross icon</title>
    <desc>navigate cross icon from the IconExperience.com G-Collection. Copyright by INCORS GmbH (www.incors.com).</desc>
    <g>
        <path d="M52.35,97.6l45.25,-45.25c6.25,-6.25 16.4,-6.25 22.65,0l135.75,135.75l135.75,-135.75c6.25,-6.25 16.4,-6.25 22.65,0l45.25,45.25c6.25,6.25 6.2,16.4 0,22.65l-135.75,135.75l135.75,135.75c6.25,6.25 6.2,16.4 0,22.65l-45.25,45.25c-6.25,6.2 -16.4,6.25 -22.65,0l-135.75,-135.75l-135.75,135.75c-6.25,6.2 -16.4,6.2 -22.65,0l-45.25,-45.25c-6.2,-6.25 -6.25,-16.4 0,-22.65l135.75,-135.75l-135.75,-135.75c-6.25,-6.25 -6.25,-16.4 0,-22.65z" fill="#4ec1f5"/>
        <path d="M437,75l22.65,22.6c6.25,6.25 6.25,16.4 0,22.65l-135.75,135.75l135.75,135.75c6.25,6.25 6.25,16.4 0,22.65l-45.25,45.25c-6.25,6.25 -16.4,6.25 -22.65,0l-135.75,-135.75l-135.75,135.75c-6.25,6.2 -16.4,6.2 -22.65,0l-22.6,-22.65z" fill="#0299e3"/>
    </g>
</svg>