<svg x="0" y="0" width="512" height="512" version="1.1"
    xmlns="http://www.w3.org/2000/svg"
    xmlns:xlink="http://www.w3.org/1999/xlink" viewBox="0 0 512 512">
    <title>navigate left icon</title>
    <desc>navigate left icon from the IconExperience.com G-Collection. Copyright by INCORS GmbH (www.incors.com).</desc>
    <g>
        <path d="M331.7,486.6l-219.3,-219.3c-6.2,-6.2 -6.2,-16.4 0,-22.6l219.3,-219.3c6.25,-6.25 16.4,-6.25 22.65,0l45.25,45.2c6.2,6.25 6.2,16.4 0,22.65l-162.75,162.75l162.75,162.75c6.2,6.25 6.2,16.4 0,22.65l-45.25,45.2c-6.25,6.25 -16.4,6.25 -22.65,0z" fill="#4ec1f5"/>
        <path d="M331.7,486.6l-219.3,-219.3c-3.1,-3.1 -4.65,-7.2 -4.65,-11.3l129.1,0l162.75,162.75c6.2,6.25 6.2,16.4 0,22.65l-45.25,45.2c-6.25,6.25 -16.4,6.25 -22.65,0z" fill="#0299e3"/>
    </g>
</svg>