<?xml version="1.0" encoding="utf-8" standalone="no"?>
<!DOCTYPE svg PUBLIC "-//W3C//DTD SVG 1.1//EN"
  "http://www.w3.org/Graphics/SVG/1.1/DTD/svg11.dtd">
<svg xmlns:xlink="http://www.w3.org/1999/xlink" width="360pt" height="216pt" viewBox="0 0 360 216" xmlns="http://www.w3.org/2000/svg" version="1.1">
 <metadata>
  <rdf:RDF xmlns:dc="http://purl.org/dc/elements/1.1/" xmlns:cc="http://creativecommons.org/ns#" xmlns:rdf="http://www.w3.org/1999/02/22-rdf-syntax-ns#">
   <cc:Work>
    <dc:type rdf:resource="http://purl.org/dc/dcmitype/StillImage"/>
    <dc:date>2025-08-28T15:03:19.862273</dc:date>
    <dc:format>image/svg+xml</dc:format>
    <dc:creator>
     <cc:Agent>
      <dc:title>Matplotlib v3.10.1, https://matplotlib.org/</dc:title>
     </cc:Agent>
    </dc:creator>
   </cc:Work>
  </rdf:RDF>
 </metadata>
 <defs>
  <style type="text/css">*{stroke-linejoin: round; stroke-linecap: butt}</style>
 </defs>
 <g id="figure_1">
  <g id="patch_1">
   <path d="M 0 216 
L 360 216 
L 360 0 
L 0 0 
z
" style="fill: #ffffff"/>
  </g>
  <g id="axes_1">
   <g id="patch_2">
    <path d="M 45 108.666269 
L 324 108.666269 
L 324 25.92 
L 45 25.92 
z
" style="fill: #d7eefc"/>
   </g>
   <g id="matplotlib.axis_1">
    <g id="xtick_1">
     <g id="line2d_1">
      <defs>
       <path id="m342d8125d2" d="M 0 0 
L 0 3.5 
" style="stroke: #000000; stroke-width: 0.8"/>
      </defs>
      <g>
       <use xlink:href="#m342d8125d2" x="84.309921" y="108.666269" style="stroke: #000000; stroke-width: 0.8"/>
      </g>
     </g>
    </g>
    <g id="xtick_2">
     <g id="line2d_2">
      <g>
       <use xlink:href="#m342d8125d2" x="125.671313" y="108.666269" style="stroke: #000000; stroke-width: 0.8"/>
      </g>
     </g>
    </g>
    <g id="xtick_3">
     <g id="line2d_3">
      <g>
       <use xlink:href="#m342d8125d2" x="167.032705" y="108.666269" style="stroke: #000000; stroke-width: 0.8"/>
      </g>
     </g>
    </g>
    <g id="xtick_4">
     <g id="line2d_4">
      <g>
       <use xlink:href="#m342d8125d2" x="208.394097" y="108.666269" style="stroke: #000000; stroke-width: 0.8"/>
      </g>
     </g>
    </g>
    <g id="xtick_5">
     <g id="line2d_5">
      <g>
       <use xlink:href="#m342d8125d2" x="249.755489" y="108.666269" style="stroke: #000000; stroke-width: 0.8"/>
      </g>
     </g>
    </g>
    <g id="xtick_6">
     <g id="line2d_6">
      <g>
       <use xlink:href="#m342d8125d2" x="291.116881" y="108.666269" style="stroke: #000000; stroke-width: 0.8"/>
      </g>
     </g>
    </g>
   </g>
   <g id="matplotlib.axis_2">
    <g id="ytick_1">
     <g id="line2d_7">
      <defs>
       <path id="mf0743a093a" d="M 0 0 
L -3.5 0 
" style="stroke: #000000; stroke-width: 0.8"/>
      </defs>
      <g>
       <use xlink:href="#mf0743a093a" x="45" y="104.905075" style="stroke: #000000; stroke-width: 0.8"/>
      </g>
     </g>
     <g id="text_1">
      <text style="font-size: 10px; font-family: 'Arial'; text-anchor: end" x="38" y="108.483981" transform="rotate(-0 38 108.483981)">0</text>
     </g>
    </g>
    <g id="ytick_2">
     <g id="line2d_8">
      <g>
       <use xlink:href="#mf0743a093a" x="45" y="80.784193" style="stroke: #000000; stroke-width: 0.8"/>
      </g>
     </g>
     <g id="text_2">
      <text style="font-size: 10px; font-family: 'Arial'; text-anchor: end" x="38" y="84.363099" transform="rotate(-0 38 84.363099)">2</text>
     </g>
    </g>
    <g id="ytick_3">
     <g id="line2d_9">
      <g>
       <use xlink:href="#mf0743a093a" x="45" y="56.66331" style="stroke: #000000; stroke-width: 0.8"/>
      </g>
     </g>
     <g id="text_3">
      <text style="font-size: 10px; font-family: 'Arial'; text-anchor: end" x="38" y="60.242217" transform="rotate(-0 38 60.242217)">4</text>
     </g>
    </g>
    <g id="ytick_4">
     <g id="line2d_10">
      <g>
       <use xlink:href="#mf0743a093a" x="45" y="32.542428" style="stroke: #000000; stroke-width: 0.8"/>
      </g>
     </g>
     <g id="text_4">
      <text style="font-size: 10px; font-family: 'Arial'; text-anchor: end" x="38" y="36.121335" transform="rotate(-0 38 36.121335)">6</text>
     </g>
    </g>
   </g>
   <g id="line2d_11">
    <path d="M 45 104.37121 
L 49.102941 104.373596 
L 53.205882 104.377475 
L 57.308824 104.381914 
L 61.411765 104.382916 
L 65.514706 104.36723 
L 69.617647 104.296169 
L 73.720588 104.073756 
L 77.823529 103.529983 
L 81.926471 102.533362 
L 86.029412 101.178402 
L 90.132353 99.672634 
L 94.235294 98.110072 
L 98.338235 96.481286 
L 102.441176 94.74359 
L 106.544118 92.840916 
L 110.647059 90.706815 
L 114.75 88.275277 
L 118.852941 85.502962 
L 122.955882 82.3992 
L 127.058824 79.053412 
L 131.161765 75.639657 
L 135.264706 72.379255 
L 139.367647 69.468072 
L 143.470588 67.010508 
L 147.573529 65.007153 
L 151.676471 63.406871 
L 155.779412 62.194962 
L 159.882353 61.47393 
L 163.985294 61.490631 
L 168.088235 62.564921 
L 172.191176 64.913788 
L 176.294118 68.461403 
L 180.397059 72.794597 
L 184.5 77.327985 
L 188.602941 81.546351 
L 192.705882 85.145959 
L 196.808824 88.036062 
L 200.911765 90.275338 
L 205.014706 92.009287 
L 209.117647 93.420653 
L 213.220588 94.682269 
L 217.323529 95.916026 
L 221.426471 97.175135 
L 225.529412 98.452923 
L 229.632353 99.703831 
L 233.735294 100.865448 
L 237.838235 101.880291 
L 241.941176 102.714005 
L 246.044118 103.362476 
L 250.147059 103.845704 
L 254.25 104.195149 
L 258.352941 104.442727 
L 262.455882 104.615026 
L 266.558824 104.73196 
L 270.661765 104.807443 
L 274.764706 104.849667 
L 278.867647 104.859693 
L 282.970588 104.832928 
L 287.073529 104.773977 
L 291.176471 104.707047 
L 295.279412 104.653368 
L 299.382353 104.616547 
L 303.485294 104.592076 
L 307.588235 104.575386 
L 311.691176 104.563513 
L 315.794118 104.554721 
L 319.897059 104.547996 
L 324 104.542732 
" clip-path="url(#p68ccef79db)" style="fill: none; stroke: #1f77b4; stroke-width: 1.5; stroke-linecap: square"/>
   </g>
   <g id="line2d_12">
    <path d="M 45 103.869955 
L 49.102941 103.880247 
L 53.205882 103.896238 
L 57.308824 103.920618 
L 61.411765 103.957507 
L 65.514706 104.012342 
L 69.617647 104.088374 
L 73.720588 104.172149 
L 77.823529 104.204917 
L 81.926471 104.09173 
L 86.029412 103.811864 
L 90.132353 103.462845 
L 94.235294 103.149247 
L 98.338235 102.919968 
L 102.441176 102.778576 
L 106.544118 102.698142 
L 110.647059 102.628619 
L 114.75 102.502544 
L 118.852941 102.241781 
L 122.955882 101.765518 
L 127.058824 100.997998 
L 131.161765 99.873165 
L 135.264706 98.334447 
L 139.367647 96.331995 
L 143.470588 93.822826 
L 147.573529 90.77702 
L 151.676471 87.190366 
L 155.779412 83.108059 
L 159.882353 78.667109 
L 163.985294 74.149113 
L 168.088235 69.996772 
L 172.191176 66.725311 
L 176.294118 64.715999 
L 180.397059 64.009878 
L 184.5 64.273616 
L 188.602941 64.96726 
L 192.705882 65.574959 
L 196.808824 65.77228 
L 200.911765 65.516735 
L 205.014706 65.081305 
L 209.117647 64.998191 
L 213.220588 65.868121 
L 217.323529 68.095231 
L 221.426471 71.710976 
L 225.529412 76.38635 
L 229.632353 81.580416 
L 233.735294 86.721056 
L 237.838235 91.351549 
L 241.941176 95.20926 
L 246.044118 98.225159 
L 250.147059 100.466186 
L 254.25 102.063942 
L 258.352941 103.161811 
L 262.455882 103.888036 
L 266.558824 104.347277 
L 270.661765 104.62067 
L 274.764706 104.767088 
L 278.867647 104.822566 
L 282.970588 104.804171 
L 287.073529 104.732209 
L 291.176471 104.646092 
L 295.279412 104.576595 
L 299.382353 104.529118 
L 303.485294 104.497834 
L 307.588235 104.476755 
L 311.691176 104.461991 
L 315.794118 104.451266 
L 319.897059 104.443251 
L 324 104.43715 
" clip-path="url(#p68ccef79db)" style="fill: none; stroke: #ff7f0e; stroke-width: 1.5; stroke-linecap: square"/>
   </g>
   <g id="line2d_13">
    <path d="M 45 103.664778 
L 49.102941 103.698722 
L 53.205882 103.738167 
L 57.308824 103.786194 
L 61.411765 103.84806 
L 65.514706 103.932745 
L 69.617647 104.05428 
L 73.720588 104.227897 
L 77.823529 104.449009 
L 81.926471 104.664594 
L 86.029412 104.808402 
L 90.132353 104.874233 
L 94.235294 104.896801 
L 98.338235 104.903131 
L 102.441176 104.904666 
L 106.544118 104.904997 
L 110.647059 104.905061 
L 114.75 104.905072 
L 118.852941 104.905074 
L 122.955882 104.905075 
L 127.058824 104.905075 
L 131.161765 104.905075 
L 135.264706 104.905075 
L 139.367647 104.905075 
L 143.470588 104.905075 
L 147.573529 104.905075 
L 151.676471 104.905075 
L 155.779412 104.905075 
L 159.882353 104.905074 
L 163.985294 104.905073 
L 168.088235 104.905065 
L 172.191176 104.905025 
L 176.294118 104.904853 
L 180.397059 104.904197 
L 184.5 104.901932 
L 188.602941 104.894812 
L 192.705882 104.874178 
L 196.808824 104.818762 
L 200.911765 104.680711 
L 205.014706 104.362573 
L 209.117647 103.686658 
L 213.220588 102.365039 
L 217.323529 99.986658 
L 221.426471 96.049844 
L 225.529412 90.081007 
L 229.632353 81.858473 
L 233.735294 71.665521 
L 237.838235 60.391439 
L 241.941176 49.349675 
L 246.044118 39.902025 
L 250.147059 33.127435 
L 254.25 29.681194 
L 258.352941 29.805902 
L 262.455882 33.374665 
L 266.558824 39.902071 
L 270.661765 48.574481 
L 274.764706 58.436159 
L 278.867647 68.740553 
L 282.970588 78.984792 
L 287.073529 88.183735 
L 291.176471 94.976295 
L 295.279412 99.101573 
L 299.382353 101.3427 
L 303.485294 102.521367 
L 307.588235 103.148515 
L 311.691176 103.492723 
L 315.794118 103.688857 
L 319.897059 103.804831 
L 324 103.875693 
" clip-path="url(#p68ccef79db)" style="fill: none; stroke: #2ca02c; stroke-width: 1.5; stroke-linecap: square"/>
   </g>
   <g id="patch_3">
    <path d="M 45 108.666269 
L 45 25.92 
" style="fill: none; stroke: #000000; stroke-width: 0.8; stroke-linejoin: miter; stroke-linecap: square"/>
   </g>
   <g id="patch_4">
    <path d="M 45 108.666269 
L 324 108.666269 
" style="fill: none; stroke: #000000; stroke-width: 0.8; stroke-linejoin: miter; stroke-linecap: square"/>
   </g>
   <g id="text_5">
    <text style="font-size: 10px; font-family: 'Arial'; text-anchor: start" x="53.288877" y="37.203586" transform="rotate(-0 53.288877 37.203586)">control interval</text>
   </g>
  </g>
  <g id="axes_2">
   <g id="patch_5">
    <path d="M 45 192.24 
L 324 192.24 
L 324 109.493731 
L 45 109.493731 
z
" style="fill: #f4d4f3"/>
   </g>
   <g id="matplotlib.axis_3">
    <g id="xtick_7">
     <g id="line2d_14">
      <g>
       <use xlink:href="#m342d8125d2" x="84.309921" y="192.24" style="stroke: #000000; stroke-width: 0.8"/>
      </g>
     </g>
     <g id="text_6">
      <text style="font-size: 10px; font-family: 'Arial'; text-anchor: middle" x="84.309921" y="206.397813" transform="rotate(-0 84.309921 206.397813)">20</text>
     </g>
    </g>
    <g id="xtick_8">
     <g id="line2d_15">
      <g>
       <use xlink:href="#m342d8125d2" x="125.671313" y="192.24" style="stroke: #000000; stroke-width: 0.8"/>
      </g>
     </g>
     <g id="text_7">
      <text style="font-size: 10px; font-family: 'Arial'; text-anchor: middle" x="125.671313" y="206.397813" transform="rotate(-0 125.671313 206.397813)">40</text>
     </g>
    </g>
    <g id="xtick_9">
     <g id="line2d_16">
      <g>
       <use xlink:href="#m342d8125d2" x="167.032705" y="192.24" style="stroke: #000000; stroke-width: 0.8"/>
      </g>
     </g>
     <g id="text_8">
      <text style="font-size: 10px; font-family: 'Arial'; text-anchor: middle" x="167.032705" y="206.397813" transform="rotate(-0 167.032705 206.397813)">60</text>
     </g>
    </g>
    <g id="xtick_10">
     <g id="line2d_17">
      <g>
       <use xlink:href="#m342d8125d2" x="208.394097" y="192.24" style="stroke: #000000; stroke-width: 0.8"/>
      </g>
     </g>
     <g id="text_9">
      <text style="font-size: 10px; font-family: 'Arial'; text-anchor: middle" x="208.394097" y="206.397813" transform="rotate(-0 208.394097 206.397813)">80</text>
     </g>
    </g>
    <g id="xtick_11">
     <g id="line2d_18">
      <g>
       <use xlink:href="#m342d8125d2" x="249.755489" y="192.24" style="stroke: #000000; stroke-width: 0.8"/>
      </g>
     </g>
     <g id="text_10">
      <text style="font-size: 10px; font-family: 'Arial'; text-anchor: middle" x="249.755489" y="206.397813" transform="rotate(-0 249.755489 206.397813)">100</text>
     </g>
    </g>
    <g id="xtick_12">
     <g id="line2d_19">
      <g>
       <use xlink:href="#m342d8125d2" x="291.116881" y="192.24" style="stroke: #000000; stroke-width: 0.8"/>
      </g>
     </g>
     <g id="text_11">
      <text style="font-size: 10px; font-family: 'Arial'; text-anchor: middle" x="291.116881" y="206.397813" transform="rotate(-0 291.116881 206.397813)">120</text>
     </g>
    </g>
    <g id="text_12">
     <text style="font-size: 10px; font-family: 'Arial'; text-anchor: middle" x="184.5" y="219.665" transform="rotate(-0 184.5 219.665)">Position (cm)</text>
    </g>
   </g>
   <g id="matplotlib.axis_4">
    <g id="ytick_5">
     <g id="line2d_20">
      <g>
       <use xlink:href="#mf0743a093a" x="45" y="188.478806" style="stroke: #000000; stroke-width: 0.8"/>
      </g>
     </g>
     <g id="text_13">
      <text style="font-size: 10px; font-family: 'Arial'; text-anchor: end" x="38" y="192.057712" transform="rotate(-0 38 192.057712)">0</text>
     </g>
    </g>
    <g id="ytick_6">
     <g id="line2d_21">
      <g>
       <use xlink:href="#mf0743a093a" x="45" y="165.330899" style="stroke: #000000; stroke-width: 0.8"/>
      </g>
     </g>
     <g id="text_14">
      <text style="font-size: 10px; font-family: 'Arial'; text-anchor: end" x="38" y="168.909806" transform="rotate(-0 38 168.909806)">2</text>
     </g>
    </g>
    <g id="ytick_7">
     <g id="line2d_22">
      <g>
       <use xlink:href="#mf0743a093a" x="45" y="142.182993" style="stroke: #000000; stroke-width: 0.8"/>
      </g>
     </g>
     <g id="text_15">
      <text style="font-size: 10px; font-family: 'Arial'; text-anchor: end" x="38" y="145.761899" transform="rotate(-0 38 145.761899)">4</text>
     </g>
    </g>
    <g id="ytick_8">
     <g id="line2d_23">
      <g>
       <use xlink:href="#mf0743a093a" x="45" y="119.035086" style="stroke: #000000; stroke-width: 0.8"/>
      </g>
     </g>
     <g id="text_16">
      <text style="font-size: 10px; font-family: 'Arial'; text-anchor: end" x="38" y="122.613992" transform="rotate(-0 38 122.613992)">6</text>
     </g>
    </g>
    <g id="text_17">
     <text style="font-size: 10px; font-family: 'Arial'; text-anchor: start" x="26.334375" y="150.866866" transform="rotate(-90 26.334375 150.866866)">Firing rate (Hz)</text>
    </g>
   </g>
   <g id="line2d_24">
    <path d="M 45 187.969861 
L 49.102941 187.97335 
L 53.205882 187.979199 
L 57.308824 187.9883 
L 61.411765 188.001201 
L 65.514706 188.015468 
L 69.617647 188.01609 
L 73.720588 187.949972 
L 77.823529 187.694662 
L 81.926471 187.113448 
L 86.029412 186.226158 
L 90.132353 185.189993 
L 94.235294 184.099758 
L 98.338235 182.942985 
L 102.441176 181.658609 
L 106.544118 180.182742 
L 110.647059 178.470356 
L 114.75 176.49974 
L 118.852941 174.26542 
L 122.955882 171.767884 
L 127.058824 169.009553 
L 131.161765 166.000909 
L 135.264706 162.771183 
L 139.367647 159.371686 
L 143.470588 155.868918 
L 147.573529 152.343381 
L 151.676471 148.914812 
L 155.779412 145.793162 
L 159.882353 143.321085 
L 163.985294 141.954676 
L 168.088235 142.139289 
L 172.191176 144.095766 
L 176.294118 147.632682 
L 180.397059 152.152696 
L 184.5 156.895515 
L 188.602941 161.244334 
L 192.705882 164.89034 
L 196.808824 167.818923 
L 200.911765 170.207414 
L 205.014706 172.310958 
L 209.117647 174.35972 
L 213.220588 176.478832 
L 217.323529 178.657885 
L 221.426471 180.784248 
L 225.529412 182.713362 
L 229.632353 184.332605 
L 233.735294 185.594442 
L 237.838235 186.516842 
L 241.941176 187.160393 
L 246.044118 187.598415 
L 250.147059 187.895148 
L 254.25 188.097444 
L 258.352941 188.236052 
L 262.455882 188.330373 
L 266.558824 188.392857 
L 270.661765 188.431713 
L 274.764706 188.451554 
L 278.867647 188.452284 
L 282.970588 188.430002 
L 287.073529 188.387311 
L 291.176471 188.340432 
L 295.279412 188.303529 
L 299.382353 188.278701 
L 303.485294 188.26261 
L 307.588235 188.251989 
L 311.691176 188.244738 
L 315.794118 188.239628 
L 319.897059 188.235946 
L 324 188.233263 
" clip-path="url(#p89777e2fe8)" style="fill: none; stroke: #1f77b4; stroke-width: 1.5; stroke-linecap: square"/>
   </g>
   <g id="line2d_25">
    <path d="M 45 187.943575 
L 49.102941 187.946112 
L 53.205882 187.947929 
L 57.308824 187.946001 
L 61.411765 187.932822 
L 65.514706 187.890906 
L 69.617647 187.783259 
L 73.720588 187.547391 
L 77.823529 187.13046 
L 81.926471 186.594238 
L 86.029412 186.117808 
L 90.132353 185.792032 
L 94.235294 185.562766 
L 98.338235 185.345021 
L 102.441176 185.081492 
L 106.544118 184.742306 
L 110.647059 184.313684 
L 114.75 183.78857 
L 118.852941 183.160961 
L 122.955882 182.425145 
L 127.058824 181.579464 
L 131.161765 180.629734 
L 135.264706 179.584794 
L 139.367647 178.441797 
L 143.470588 177.171061 
L 147.573529 175.716166 
L 151.676471 174.015665 
L 155.779412 172.038192 
L 159.882353 169.816047 
L 163.985294 167.462321 
L 168.088235 165.155106 
L 172.191176 163.075856 
L 176.294118 161.316444 
L 180.397059 159.81248 
L 184.5 158.360896 
L 188.602941 156.713987 
L 192.705882 154.689363 
L 196.808824 152.257016 
L 200.911765 149.603437 
L 205.014706 147.159755 
L 209.117647 145.53916 
L 213.220588 145.347699 
L 217.323529 146.943423 
L 221.426471 150.29648 
L 225.529412 155.021567 
L 229.632353 160.522171 
L 233.735294 166.159197 
L 237.838235 171.397376 
L 241.941176 175.897194 
L 246.044118 179.529307 
L 250.147059 182.32293 
L 254.25 184.391383 
L 258.352941 185.872644 
L 262.455882 186.897083 
L 266.558824 187.576239 
L 270.661765 188.001913 
L 274.764706 188.247053 
L 278.867647 188.364586 
L 282.970588 188.389108 
L 287.073529 188.352784 
L 291.176471 188.29644 
L 295.279412 188.248714 
L 299.382353 188.215765 
L 303.485294 188.194034 
L 307.588235 188.179413 
L 311.691176 188.169187 
L 315.794118 188.161762 
L 319.897059 188.156206 
L 324 188.151962 
" clip-path="url(#p89777e2fe8)" style="fill: none; stroke: #ff7f0e; stroke-width: 1.5; stroke-linecap: square"/>
   </g>
   <g id="line2d_26">
    <path d="M 45 187.075006 
L 49.102941 187.108086 
L 53.205882 187.138103 
L 57.308824 187.162066 
L 61.411765 187.174984 
L 65.514706 187.170107 
L 69.617647 187.143683 
L 73.720588 187.112457 
L 77.823529 187.141795 
L 81.926471 187.319152 
L 86.029412 187.629408 
L 90.132353 187.948581 
L 94.235294 188.187785 
L 98.338235 188.335182 
L 102.441176 188.414331 
L 106.544118 188.452322 
L 110.647059 188.468823 
L 114.75 188.47535 
L 118.852941 188.477709 
L 122.955882 188.478488 
L 127.058824 188.478722 
L 131.161765 188.478786 
L 135.264706 188.478802 
L 139.367647 188.478805 
L 143.470588 188.478806 
L 147.573529 188.478806 
L 151.676471 188.478806 
L 155.779412 188.478806 
L 159.882353 188.478806 
L 163.985294 188.478806 
L 168.088235 188.478805 
L 172.191176 188.478799 
L 176.294118 188.478772 
L 180.397059 188.478658 
L 184.5 188.478218 
L 188.602941 188.476664 
L 192.705882 188.471565 
L 196.808824 188.45593 
L 200.911765 188.411119 
L 205.014706 188.291733 
L 209.117647 187.99833 
L 213.220588 187.338043 
L 217.323529 185.98457 
L 221.426471 183.467453 
L 225.529412 179.238307 
L 229.632353 172.851616 
L 233.735294 164.223004 
L 237.838235 153.818032 
L 241.941176 142.617467 
L 246.044118 131.865465 
L 250.147059 122.773511 
L 254.25 116.333495 
L 258.352941 113.254925 
L 262.455882 113.946222 
L 266.558824 118.471894 
L 270.661765 126.493492 
L 274.764706 137.266235 
L 278.867647 149.665646 
L 282.970588 161.998014 
L 287.073529 172.018031 
L 291.176471 178.455762 
L 295.279412 181.999827 
L 299.382353 183.914576 
L 303.485294 185.015128 
L 307.588235 185.695199 
L 311.691176 186.139291 
L 315.794118 186.440469 
L 319.897059 186.650164 
L 324 186.799034 
" clip-path="url(#p89777e2fe8)" style="fill: none; stroke: #2ca02c; stroke-width: 1.5; stroke-linecap: square"/>
   </g>
   <g id="patch_6">
    <path d="M 45 192.24 
L 45 109.493731 
" style="fill: none; stroke: #000000; stroke-width: 0.8; stroke-linejoin: miter; stroke-linecap: square"/>
   </g>
   <g id="patch_7">
    <path d="M 45 192.24 
L 324 192.24 
" style="fill: none; stroke: #000000; stroke-width: 0.8; stroke-linejoin: miter; stroke-linecap: square"/>
   </g>
   <g id="text_18">
    <text style="font-size: 10px; font-family: 'Arial'; text-anchor: start" x="53.288877" y="120.777317" transform="rotate(-0 53.288877 120.777317)">test interval</text>
   </g>
  </g>
  <g id="text_19">
   <text style="font-size: 12px; font-family: 'Arial'; text-anchor: middle" x="180" y="13.055625" transform="rotate(-0 180 13.055625)">{'nwb_file_name': 'Winnie20220717_.nwb'}</text>
  </g>
 </g>
 <defs>
  <clipPath id="p68ccef79db">
   <rect x="45" y="25.92" width="279" height="82.746269"/>
  </clipPath>
  <clipPath id="p89777e2fe8">
   <rect x="45" y="109.493731" width="279" height="82.746269"/>
  </clipPath>
 </defs>
</svg>
