<svg width="92" height="68" viewBox="0 0 92 68" fill="none" xmlns="http://www.w3.org/2000/svg">
<rect width="91.2385" height="67.1694" rx="10" fill="#5FAB9E"/>
<path d="M12.9651 58.8259C12.3072 58.8259 11.7416 58.7409 11.2684 58.571C10.7951 58.4049 10.4008 58.1847 10.0853 57.9105C9.77361 57.6401 9.52544 57.3505 9.34076 57.0415L10.4258 56.2767C10.5489 56.4389 10.7047 56.6243 10.8932 56.8329C11.0818 57.0453 11.3395 57.2288 11.6666 57.3833C11.9975 57.5416 12.4303 57.6208 12.9651 57.6208C13.6807 57.6208 14.2713 57.447 14.7369 57.0994C15.2024 56.7518 15.4352 56.2072 15.4352 55.4656V53.658H15.3198C15.2197 53.8203 15.0774 54.0211 14.8927 54.2606C14.7119 54.4962 14.4502 54.7067 14.1078 54.8921C13.7692 55.0736 13.3114 55.1644 12.7343 55.1644C12.0186 55.1644 11.3761 54.9944 10.8067 54.6545C10.2411 54.3146 9.79285 53.8203 9.46196 53.1714C9.13492 52.5225 8.97141 51.7346 8.97141 50.8076C8.97141 49.8961 9.13108 49.1024 9.45042 48.4265C9.76976 47.7467 10.2141 47.2214 10.7836 46.8506C11.353 46.476 12.0109 46.2887 12.7573 46.2887C13.3345 46.2887 13.7923 46.3852 14.1309 46.5783C14.4733 46.7676 14.735 46.9839 14.9158 47.2272C15.1005 47.4667 15.2428 47.6637 15.3429 47.8181H15.4814V46.4045H16.7972V55.5583C16.7972 56.3231 16.6241 56.9449 16.2778 57.4238C15.9354 57.9066 15.4737 58.26 14.8927 58.4841C14.3156 58.7119 13.673 58.8259 12.9651 58.8259ZM12.9189 53.9361C13.4653 53.9361 13.927 53.8106 14.304 53.5595C14.6811 53.3085 14.9677 52.9474 15.164 52.4762C15.3602 52.0049 15.4583 51.441 15.4583 50.7844C15.4583 50.1433 15.3621 49.5775 15.1697 49.0869C14.9773 48.5964 14.6926 48.2121 14.3156 47.934C13.9385 47.6559 13.473 47.5169 12.9189 47.5169C12.3418 47.5169 11.8609 47.6637 11.4761 47.9572C11.0952 48.2507 10.8086 48.6447 10.6162 49.1391C10.4277 49.6335 10.3334 50.1819 10.3334 50.7844C10.3334 51.4024 10.4296 51.9489 10.622 52.424C10.8182 52.8952 11.1068 53.266 11.4877 53.5364C11.8724 53.8029 12.3495 53.9361 12.9189 53.9361Z" fill="white"/>
<path d="M23.0071 55.4888C22.1529 55.4888 21.4161 55.2995 20.7967 54.921C20.1811 54.5387 19.7059 54.0057 19.3712 53.322C19.0403 52.6345 18.8749 51.835 18.8749 50.9235C18.8749 50.012 19.0403 49.2086 19.3712 48.5134C19.7059 47.8143 20.1715 47.2697 20.7678 46.8796C21.368 46.4856 22.0683 46.2887 22.8686 46.2887C23.3303 46.2887 23.7862 46.3659 24.2363 46.5204C24.6865 46.6749 25.0963 46.9259 25.4656 47.2736C25.835 47.6173 26.1293 48.0731 26.3486 48.6408C26.5679 49.2086 26.6776 49.9077 26.6776 50.7381V51.3174H19.8444V50.1356H25.2925C25.2925 49.6335 25.1925 49.1854 24.9924 48.7915C24.7962 48.3975 24.5153 48.0866 24.1498 47.8587C23.7881 47.6308 23.361 47.5169 22.8686 47.5169C22.3261 47.5169 21.8567 47.6521 21.4604 47.9224C21.0679 48.1889 20.7659 48.5365 20.5543 48.9653C20.3427 49.394 20.2369 49.8536 20.2369 50.3441V51.1321C20.2369 51.8041 20.3523 52.3738 20.5832 52.8412C20.8178 53.3046 21.143 53.658 21.5585 53.9014C21.974 54.1408 22.4569 54.2606 23.0071 54.2606C23.3649 54.2606 23.6881 54.2104 23.9766 54.1099C24.2691 54.0057 24.5211 53.8512 24.7327 53.6465C24.9443 53.4379 25.1078 53.1791 25.2232 52.8701L26.5391 53.2409C26.4006 53.6889 26.1678 54.0829 25.8408 54.4228C25.5137 54.7588 25.1097 55.0215 24.6288 55.2107C24.1479 55.3961 23.6073 55.4888 23.0071 55.4888Z" fill="white"/>
<path d="M30.1115 49.9502V55.3034H28.7495V46.4045H30.0653V47.795H30.1807C30.3885 47.3431 30.704 46.98 31.1272 46.7058C31.5504 46.4277 32.0968 46.2887 32.7663 46.2887C33.3665 46.2887 33.8916 46.4123 34.3418 46.6594C34.792 46.9028 35.1421 47.2736 35.3922 47.7718C35.6423 48.2662 35.7673 48.8919 35.7673 49.6489V55.3034H34.4053V49.7416C34.4053 49.0425 34.2245 48.4979 33.8628 48.1078C33.5011 47.7139 33.0048 47.5169 32.3738 47.5169C31.939 47.5169 31.5504 47.6115 31.208 47.8008C30.8694 47.99 30.602 48.2662 30.4058 48.6292C30.2096 48.9923 30.1115 49.4326 30.1115 49.9502Z" fill="white"/>
<path d="M41.9728 55.4888C41.1187 55.4888 40.3819 55.2995 39.7624 54.921C39.1468 54.5387 38.6717 54.0057 38.3369 53.322C38.0061 52.6345 37.8406 51.835 37.8406 50.9235C37.8406 50.012 38.0061 49.2086 38.3369 48.5134C38.6717 47.8143 39.1372 47.2697 39.7336 46.8796C40.3338 46.4856 41.034 46.2887 41.8343 46.2887C42.296 46.2887 42.7519 46.3659 43.2021 46.5204C43.6523 46.6749 44.062 46.9259 44.4314 47.2736C44.8007 47.6173 45.0951 48.0731 45.3144 48.6408C45.5337 49.2086 45.6433 49.9077 45.6433 50.7381V51.3174H38.8102V50.1356H44.2582C44.2582 49.6335 44.1582 49.1854 43.9581 48.7915C43.7619 48.3975 43.481 48.0866 43.1155 47.8587C42.7539 47.6308 42.3268 47.5169 41.8343 47.5169C41.2918 47.5169 40.8224 47.6521 40.4261 47.9224C40.0337 48.1889 39.7317 48.5365 39.52 48.9653C39.3084 49.394 39.2026 49.8536 39.2026 50.3441V51.1321C39.2026 51.8041 39.3181 52.3738 39.5489 52.8412C39.7836 53.3046 40.1087 53.658 40.5242 53.9014C40.9398 54.1408 41.4226 54.2606 41.9728 54.2606C42.3306 54.2606 42.6538 54.2104 42.9424 54.1099C43.2348 54.0057 43.4868 53.8512 43.6984 53.6465C43.91 53.4379 44.0736 53.1791 44.189 52.8701L45.5048 53.2409C45.3663 53.6889 45.1335 54.0829 44.8065 54.4228C44.4795 54.7588 44.0755 55.0215 43.5945 55.2107C43.1136 55.3961 42.573 55.4888 41.9728 55.4888Z" fill="white"/>
<path d="M47.7152 55.3034V46.4045H49.0311V47.7486H49.1234C49.285 47.3083 49.5774 46.9511 50.0006 46.6768C50.4239 46.4026 50.9009 46.2655 51.4319 46.2655C51.5319 46.2655 51.657 46.2674 51.807 46.2713C51.9571 46.2751 52.0706 46.2809 52.1475 46.2887V47.6791C52.1014 47.6675 51.9956 47.6501 51.8301 47.627C51.6685 47.5999 51.4973 47.5864 51.3165 47.5864C50.8856 47.5864 50.5008 47.6772 50.1622 47.8587C49.8275 48.0364 49.562 48.2836 49.3658 48.6003C49.1734 48.9131 49.0772 49.2704 49.0772 49.6721V55.3034H47.7152Z" fill="white"/>
<path d="M56.3706 55.512C55.8089 55.512 55.2991 55.4058 54.8413 55.1933C54.3834 54.977 54.0198 54.6661 53.7505 54.2606C53.4812 53.8512 53.3465 53.3568 53.3465 52.7774C53.3465 52.2676 53.4465 51.8543 53.6466 51.5376C53.8467 51.217 54.1141 50.966 54.4488 50.7844C54.7836 50.6029 55.1529 50.4677 55.5569 50.3789C55.9647 50.2862 56.3745 50.2128 56.7862 50.1587C57.3248 50.0892 57.7615 50.0371 58.0962 50.0023C58.4348 49.9637 58.6811 49.9 58.835 49.8111C58.9927 49.7223 59.0716 49.5678 59.0716 49.3476V49.3013C59.0716 48.7297 58.9158 48.2855 58.6041 47.9688C58.2963 47.6521 57.8288 47.4937 57.2017 47.4937C56.5515 47.4937 56.0417 47.6366 55.6723 47.9224C55.303 48.2082 55.0433 48.5134 54.8932 48.8378L53.6004 48.3743C53.8313 47.8336 54.1391 47.4126 54.5238 47.1113C54.9124 46.8062 55.3357 46.5938 55.7935 46.474C56.2552 46.3505 56.7092 46.2887 57.1555 46.2887C57.4402 46.2887 57.7673 46.3234 58.1366 46.3929C58.5099 46.4586 58.8696 46.5957 59.2159 46.8043C59.566 47.0128 59.8565 47.3276 60.0873 47.7486C60.3182 48.1696 60.4336 48.7335 60.4336 49.4403V55.3034H59.0716V54.0983H59.0023C58.91 54.2915 58.7561 54.4981 58.5406 54.7183C58.3252 54.9384 58.0385 55.1257 57.6807 55.2802C57.3229 55.4347 56.8862 55.512 56.3706 55.512ZM56.5784 54.2837C57.1171 54.2837 57.5711 54.1775 57.9404 53.9651C58.3136 53.7527 58.5945 53.4784 58.783 53.1424C58.9754 52.8064 59.0716 52.453 59.0716 52.0822V50.8308C59.0139 50.9003 58.8869 50.964 58.6907 51.022C58.4983 51.0761 58.2752 51.1243 58.0212 51.1668C57.7711 51.2054 57.5268 51.2402 57.2883 51.2711C57.0536 51.2981 56.8631 51.3213 56.7169 51.3406C56.363 51.387 56.0321 51.4623 55.7243 51.5666C55.4203 51.667 55.1741 51.8196 54.9855 52.0243C54.8009 52.2251 54.7085 52.4993 54.7085 52.8469C54.7085 53.322 54.8836 53.6812 55.2337 53.9245C55.5877 54.164 56.0359 54.2837 56.5784 54.2837Z" fill="white"/>
<path d="M66.7748 46.4045V47.5632H62.1808V46.4045H66.7748ZM63.5198 44.2725H64.8818V52.7542C64.8818 53.1405 64.9376 53.4302 65.0492 53.6233C65.1646 53.8125 65.3108 53.94 65.4878 54.0057C65.6686 54.0674 65.8591 54.0983 66.0591 54.0983C66.2092 54.0983 66.3323 54.0906 66.4285 54.0752C66.5247 54.0559 66.6016 54.0404 66.6593 54.0288L66.9364 55.2571C66.844 55.2918 66.7151 55.3266 66.5497 55.3613C66.3842 55.4 66.1745 55.4193 65.9206 55.4193C65.5359 55.4193 65.1588 55.3362 64.7894 55.1702C64.4239 55.0041 64.12 54.7511 63.8776 54.4112C63.639 54.0713 63.5198 53.6426 63.5198 53.125V44.2725Z" fill="white"/>
<path d="M72.3296 55.4888C71.5293 55.4888 70.8271 55.2976 70.2231 54.9152C69.6229 54.5329 69.1535 53.9979 68.8149 53.3104C68.4802 52.6229 68.3128 51.8196 68.3128 50.9003C68.3128 49.9733 68.4802 49.1642 68.8149 48.4728C69.1535 47.7815 69.6229 47.2446 70.2231 46.8622C70.8271 46.4798 71.5293 46.2887 72.3296 46.2887C73.1299 46.2887 73.8301 46.4798 74.4303 46.8622C75.0344 47.2446 75.5038 47.7815 75.8385 48.4728C76.1771 49.1642 76.3464 49.9733 76.3464 50.9003C76.3464 51.8196 76.1771 52.6229 75.8385 53.3104C75.5038 53.9979 75.0344 54.5329 74.4303 54.9152C73.8301 55.2976 73.1299 55.4888 72.3296 55.4888ZM72.3296 54.2606C72.9375 54.2606 73.4377 54.1041 73.8301 53.7913C74.2225 53.4784 74.513 53.0671 74.7016 52.5573C74.8901 52.0474 74.9844 51.4951 74.9844 50.9003C74.9844 50.3055 74.8901 49.7513 74.7016 49.2376C74.513 48.7239 74.2225 48.3087 73.8301 47.992C73.4377 47.6752 72.9375 47.5169 72.3296 47.5169C71.7217 47.5169 71.2215 47.6752 70.8291 47.992C70.4366 48.3087 70.1461 48.7239 69.9576 49.2376C69.7691 49.7513 69.6748 50.3055 69.6748 50.9003C69.6748 51.4951 69.7691 52.0474 69.9576 52.5573C70.1461 53.0671 70.4366 53.4784 70.8291 53.7913C71.2215 54.1041 71.7217 54.2606 72.3296 54.2606Z" fill="white"/>
<path d="M78.4255 55.3034V46.4045H79.7413V47.7486H79.8336C79.9952 47.3083 80.2876 46.9511 80.7109 46.6768C81.1341 46.4026 81.6112 46.2655 82.1421 46.2655C82.2422 46.2655 82.3672 46.2674 82.5173 46.2713C82.6673 46.2751 82.7808 46.2809 82.8578 46.2887V47.6791C82.8116 47.6675 82.7058 47.6501 82.5404 47.627C82.3788 47.5999 82.2075 47.5864 82.0267 47.5864C81.5958 47.5864 81.211 47.6772 80.8725 47.8587C80.5377 48.0364 80.2723 48.2836 80.076 48.6003C79.8837 48.9131 79.7875 49.2704 79.7875 49.6721V55.3034H78.4255Z" fill="white"/>
<path d="M22.3891 8.15582C23.0451 8.15582 23.7092 8.18042 24.3816 8.22961C25.0539 8.27881 25.6607 8.4182 26.2018 8.64778C26.743 8.87736 27.1858 9.22994 27.5301 9.7055C27.8745 10.1647 28.0467 10.8124 28.0467 11.6488C28.0467 12.4851 27.8745 13.141 27.5301 13.6166C27.1858 14.0758 26.743 14.4202 26.2018 14.6497C25.6607 14.8793 25.0539 15.0187 24.3816 15.0679C23.7092 15.1171 23.0451 15.1417 22.3891 15.1417H16.5348V21.8324H19.6341C20.2901 21.8324 20.946 21.857 21.602 21.9062C22.2743 21.939 22.8647 22.0702 23.3731 22.2998C23.8978 22.513 24.3242 22.8491 24.6522 23.3083C24.9801 23.7511 25.1441 24.3742 25.1441 25.1778C25.1441 25.9977 24.9801 26.629 24.6522 27.0718C24.3242 27.5146 23.8978 27.8508 23.3731 28.0803C22.8647 28.2935 22.2743 28.4247 21.602 28.4739C20.946 28.5067 20.2901 28.5231 19.6341 28.5231H16.5348V35.6074H22.3891C23.0451 35.6074 23.7092 35.632 24.3816 35.6812C25.0539 35.7304 25.6607 35.8698 26.2018 36.0993C26.743 36.3125 27.1858 36.6569 27.5301 37.1325C27.8745 37.5916 28.0467 38.2312 28.0467 39.0511C28.0467 39.9039 27.8663 40.568 27.5056 41.0436C27.1612 41.5191 26.7184 41.8717 26.1772 42.1013C25.6361 42.3309 25.0293 42.4703 24.357 42.5195C23.6846 42.5687 23.0287 42.5933 22.3891 42.5933H12.7466C11.8283 42.5933 11.115 42.4293 10.6066 42.1013C10.1146 41.7733 9.75387 41.347 9.52428 40.8222C9.2947 40.281 9.15531 39.6743 9.10611 39.0019C9.07332 38.3296 9.05692 37.6408 9.05692 36.9357V13.8134C9.05692 13.1083 9.07332 12.4195 9.10611 11.7472C9.15531 11.0748 9.2947 10.4762 9.52428 9.95148C9.75387 9.41033 10.1146 8.97576 10.6066 8.64778C11.115 8.31981 11.8283 8.15582 12.7466 8.15582H22.3891Z" fill="white"/>
<path d="M33.3599 13.7642C33.3599 13.0591 33.3763 12.3703 33.4091 11.698C33.4583 11.0256 33.5977 10.427 33.8273 9.90229C34.0569 9.37753 34.4176 8.95936 34.9096 8.64778C35.418 8.31981 36.1313 8.15582 37.0496 8.15582H45.167C47.1841 8.25421 48.988 8.68058 50.5786 9.43492C51.251 9.7629 51.9069 10.1729 52.5465 10.6648C53.2024 11.1404 53.7846 11.739 54.293 12.4605C54.8013 13.1656 55.2113 14.002 55.5229 14.9695C55.8345 15.937 55.9902 17.0604 55.9902 18.3395C55.9902 18.6018 55.9656 18.9544 55.9164 19.3972C55.8672 19.8236 55.7607 20.2991 55.5967 20.8239C55.4327 21.3322 55.2113 21.8652 54.9325 22.4228C54.6537 22.9803 54.2848 23.5133 53.8256 24.0216C53.3664 24.53 52.8007 24.9974 52.1283 25.4237C51.4724 25.8501 50.6934 26.1945 49.7915 26.4569C50.3655 26.6864 50.9476 26.9898 51.538 27.367C52.1283 27.7278 52.6613 28.1951 53.1369 28.7691C53.6124 29.343 53.9978 30.0318 54.293 30.8353C54.6045 31.6389 54.7603 32.5736 54.7603 33.6395V37.1325C54.7603 37.3293 54.8095 37.4932 54.9079 37.6244C55.0063 37.7556 55.1047 37.8704 55.2031 37.9688C55.5967 38.3624 55.8263 38.7068 55.8918 39.0019C55.9574 39.2807 55.9902 39.5103 55.9902 39.6907C55.9902 40.2646 55.8754 40.7484 55.6459 41.142C55.4163 41.5355 55.1129 41.8553 54.7357 42.1013C54.375 42.3473 53.9568 42.5195 53.4812 42.6179C53.0221 42.7327 52.5465 42.7901 52.0545 42.7901C51.5134 42.7901 50.964 42.7081 50.4065 42.5441C49.8489 42.3637 49.3405 42.1095 48.8814 41.7815C48.4222 41.4536 48.045 41.0436 47.7499 40.5516C47.4711 40.0597 47.3317 39.4939 47.3317 38.8543V33.6395C47.3317 32.918 47.2825 32.2538 47.1841 31.6471C47.0857 31.0403 46.8971 30.5156 46.6183 30.0728C46.3396 29.63 45.9542 29.2857 45.4622 29.0397C44.9703 28.7937 44.3307 28.6707 43.5436 28.6707H40.7886V36.8865C40.7886 37.608 40.764 38.3132 40.7148 39.0019C40.682 39.6907 40.5508 40.3056 40.3212 40.8468C40.0916 41.3716 39.7226 41.7979 39.2143 42.1259C38.7059 42.4375 37.9844 42.5933 37.0496 42.5933C36.1313 42.5933 35.418 42.4375 34.9096 42.1259C34.4176 41.7979 34.0569 41.3716 33.8273 40.8468C33.5977 40.3056 33.4583 39.6907 33.4091 39.0019C33.3763 38.3132 33.3599 37.608 33.3599 36.8865V13.7642ZM44.1339 23.1607C44.9539 23.1279 45.6918 22.9311 46.3478 22.5703C46.6265 22.4228 46.8971 22.2342 47.1595 22.0046C47.4219 21.775 47.6597 21.488 47.8728 21.1437C48.086 20.7993 48.25 20.3975 48.3648 19.9383C48.496 19.4792 48.5616 18.9462 48.5616 18.3395C48.5616 17.7983 48.496 17.3227 48.3648 16.9128C48.25 16.4864 48.0942 16.1174 47.8974 15.8059C47.7007 15.4943 47.4711 15.2319 47.2087 15.0187C46.9627 14.8055 46.7085 14.6333 46.4461 14.5021C45.823 14.1906 45.1178 14.0102 44.3307 13.961H40.7886V23.1607H44.1339Z" fill="white"/>
<path d="M72.1266 8.15582C73.6189 8.15582 75.0046 8.3444 76.2837 8.72158C77.5792 9.09875 78.7026 9.66451 79.6537 10.4189C80.6212 11.1568 81.3756 12.0833 81.9167 13.1984C82.4743 14.3136 82.7531 15.6173 82.7531 17.1096V32.3604C82.7531 33.6395 82.6137 34.771 82.3349 35.755C82.0561 36.7225 81.6871 37.567 81.228 38.2886C80.7852 38.9937 80.2768 39.6005 79.7029 40.1089C79.1289 40.6008 78.5468 41.0026 77.9564 41.3142C76.5461 42.0685 74.9472 42.4949 73.1598 42.5933H64.9932C64.0584 42.5933 63.3369 42.4375 62.8285 42.1259C62.3202 41.7979 61.9512 41.3716 61.7216 40.8468C61.492 40.3056 61.3526 39.6989 61.3034 39.0265C61.2706 38.3542 61.2542 37.6572 61.2542 36.9357V13.7642C61.2542 13.0591 61.2706 12.3703 61.3034 11.698C61.3526 11.0256 61.492 10.427 61.7216 9.90229C61.9512 9.37753 62.3202 8.95936 62.8285 8.64778C63.3369 8.31981 64.0584 8.15582 64.9932 8.15582H72.1266ZM68.7321 13.9118V36.7389H71.9299C72.635 36.7061 73.2664 36.5421 73.8239 36.2469C74.0535 36.1321 74.2831 35.9764 74.5127 35.7796C74.7423 35.5828 74.9472 35.3532 75.1276 35.0908C75.308 34.812 75.4474 34.4841 75.5458 34.1069C75.6606 33.7297 75.718 33.2952 75.718 32.8032V18.2903C75.718 17.7491 75.6606 17.2735 75.5458 16.8636C75.4474 16.4372 75.308 16.0682 75.1276 15.7567C74.9472 15.4451 74.7423 15.1827 74.5127 14.9695C74.2831 14.7563 74.0535 14.5841 73.8239 14.453C73.2664 14.1414 72.635 13.961 71.9299 13.9118H68.7321Z" fill="white"/>
</svg>
