<svg viewBox="-235 -210 855 340" width="1710" height="680" xmlns="http://www.w3.org/2000/svg"><defs>
  <style>
    /* Light mode colors (default) */
    :root {
      --stroke-color: rgb(0,0,0);
      --fill-gray: rgb(238,238,238);
      --fill-red: rgb(255,187,187);
      --fill-blue: rgb(153,221,255);
      --fill-black: rgb(0,0,0);
    }
    
    /* Dark mode colors */
    @media (prefers-color-scheme: dark) {
      :root {
        --stroke-color: rgb(220,220,220);
        --fill-gray: rgb(60,60,60);
        --fill-red: rgb(100,40,40);
        --fill-blue: rgb(30,70,110);
        --fill-black: rgb(220,220,220);
      }
    }
  </style>
</defs><path d="M582.8044524410958,-155.27316551088632L582.8044524410958,-83.04477137273554M582.8044524410958,-83.04477137273554L563.7380054740348,-79.30065150210301M582.8044524410958,-83.04477137273554L592.2298869712798,-75.47089637279521M563.7380054740348,-151.5290456402538L563.7380054740348,-79.30065150210301M563.7380054740348,-79.30065150210301L573.1634400042187,-71.72677650216268" style="fill:none;stroke:var(--stroke-color);stroke-width:1;stroke-linecap:round"></path><path d="M573.1634400042188,-71.72677650216266L563.7380054740348,-79.30065150210298L582.8044524410958,-83.04477137273554zM592.2298869712798,-75.47089637279521L573.1634400042188,-71.72677650216266L582.8044524410958,-83.04477137273554zM582.8044524410958,-83.04477137273554L563.7380054740348,-79.30065150210298L563.7380054740348,-151.5290456402538zM592.2298869712798,-75.47089637279521L582.8044524410958,-83.04477137273554L582.8044524410958,-155.27316551088632z" style="fill:var(--fill-gray); fill-opacity: 0.4"></path><path d="M573.1634400042187,-71.72677650216268L592.2298869712798,-75.47089637279521M592.2298869712798,-147.699290510946L592.2298869712798,-75.47089637279521" style="fill:none;stroke:var(--stroke-color);stroke-width:1;stroke-linecap:round"></path><path d="M582.8044524410958,-155.27316551088632L582.8044524410958,-83.04477137273554L563.7380054740348,-151.5290456402538z" style="fill:var(--fill-gray); fill-opacity: 0.4"></path><path d="M498.7212983727603,-170.9634135545269L498.7212983727603,-34.331337784710314M498.7212983727603,-34.331337784710314L479.65485140569933,-30.587217914077783M498.7212983727603,-34.331337784710314L508.1467329029443,-26.757462784769995M573.1634400042187,-143.95517064031347L573.1634400042187,-71.72677650216268" style="fill:none;stroke:var(--stroke-color);stroke-width:1;stroke-linecap:round"></path><path d="M563.7380054740348,-79.30065150210298L573.1634400042188,-71.72677650216266L573.1634400042188,-143.95517064031347zM573.1634400042188,-71.72677650216266L592.2298869712798,-75.47089637279521L592.2298869712798,-147.699290510946z" style="fill:var(--fill-gray); fill-opacity: 0.4"></path><path d="M582.8044524410958,-155.27316551088632L563.7380054740348,-151.5290456402538M582.8044524410958,-155.27316551088632L592.2298869712798,-147.699290510946" style="fill:none;stroke:var(--stroke-color);stroke-width:1;stroke-linecap:round"></path><path d="M592.2298869712798,-147.699290510946L592.2298869712798,-75.47089637279521L582.8044524410958,-155.27316551088632z" style="fill:var(--fill-gray); fill-opacity: 0.4"></path><path d="M479.65485140569933,-167.2192936838944L479.65485140569933,-30.587217914077783M479.65485140569933,-30.587217914077783L489.08028593588324,-23.013342914137464" style="fill:none;stroke:var(--stroke-color);stroke-width:1;stroke-linecap:round"></path><path d="M563.7380054740348,-151.5290456402538L563.7380054740348,-79.30065150210298L573.1634400042188,-143.95517064031347zM489.08028593588335,-23.01334291413746L479.65485140569933,-30.587217914077776L498.72129837276026,-34.33133778471031zM508.1467329029443,-26.75746278476999L489.08028593588335,-23.01334291413746L498.72129837276026,-34.33133778471031z" style="fill:var(--fill-gray); fill-opacity: 0.4"></path><path d="M563.7380054740348,-151.5290456402538L573.1634400042187,-143.95517064031347" style="fill:none;stroke:var(--stroke-color);stroke-width:1;stroke-linecap:round"></path><path d="M592.2298869712798,-147.699290510946L582.8044524410958,-155.27316551088632L563.7380054740348,-151.5290456402538z" style="fill:var(--fill-gray); fill-opacity: 0.4"></path><path d="M541.3386414880223,-107.26515467024335L544.2778444646005,-100.48108155581932L544.2778444646005,-106.88103012194732zM547.2170474411788,-102.54151972847657L544.2778444646005,-100.48108155581932L565.9500801824892,-111.13685442589666zM542.461317196205,-113.51838074280379L541.3386414880223,-107.26515467024335L544.2778444646005,-106.88103012194732z" style="fill:var(--fill-black)"></path><path d="M489.08028593588324,-23.013342914137464L508.1467329029443,-26.757462784769995M508.1467329029443,-163.3895385545866L508.1467329029443,-26.757462784769995" style="fill:none;stroke:var(--stroke-color);stroke-width:1;stroke-linecap:round"></path><path d="M542.461317196205,-113.51838074280379L546.0943717329961,-110.59901391239356L565.9500801824892,-111.13685442589666z" style="fill:var(--fill-black)"></path><path d="M505.9346581944898,-99.35149481496003L544.2778444646005,-106.88103012194732" style="fill:none;stroke:var(--stroke-color);stroke-width:1;stroke-linecap:round"></path><path d="M573.1634400042188,-143.95517064031347L573.1634400042188,-71.72677650216266L592.2298869712798,-147.699290510946z" style="fill:var(--fill-gray); fill-opacity: 0.4"></path><path d="M546.0943717329961,-110.59901391239356L547.2170474411788,-102.54151972847657L565.9500801824892,-111.13685442589666zM544.2778444646005,-100.48108155581932L547.2170474411788,-102.54151972847657L544.2778444646005,-106.88103012194732zM546.0943717329961,-110.59901391239356L542.461317196205,-113.51838074280379L544.2778444646005,-106.88103012194732zM547.2170474411788,-102.54151972847657L546.0943717329961,-110.59901391239356L544.2778444646005,-106.88103012194732z" style="fill:var(--fill-black)"></path><path d="M573.1634400042188,-143.95517064031347L592.2298869712798,-147.699290510946L563.7380054740348,-151.5290456402538z" style="fill:var(--fill-gray); fill-opacity: 0.4"></path><path d="M573.1634400042187,-143.95517064031347L592.2298869712798,-147.699290510946M414.6381443044248,-183.73012552316575L414.6381443044248,11.45855972831311M414.6381443044248,11.45855972831311L395.5716973373638,15.202679598945641M414.6381443044248,11.45855972831311L424.06357883460873,19.032434728253428" style="fill:none;stroke:var(--stroke-color);stroke-width:1;stroke-linecap:round"></path><path d="M498.72129837276026,-34.33133778471031L479.65485140569933,-30.587217914077776L479.65485140569933,-167.2192936838944zM508.1467329029443,-26.75746278476999L498.72129837276026,-34.33133778471031L498.72129837276026,-170.9634135545269z" style="fill:var(--fill-gray); fill-opacity: 0.4"></path><path d="M489.08028593588324,-159.64541868395406L489.08028593588324,-23.013342914137464M395.5716973373638,-179.9860056525332L395.5716973373638,15.202679598945641M395.5716973373638,15.202679598945641L404.99713186754775,22.77655459888596" style="fill:none;stroke:var(--stroke-color);stroke-width:1;stroke-linecap:round"></path><path d="M404.99713186754775,22.776554598885976L395.57169733736373,15.202679598945657L414.6381443044247,11.458559728313116zM424.06357883460873,19.03243472825343L404.99713186754775,22.776554598885976L414.6381443044247,11.458559728313116zM479.65485140569933,-30.587217914077776L489.08028593588335,-23.01334291413746L489.08028593588335,-159.64541868395406zM489.08028593588335,-23.01334291413746L508.1467329029443,-26.75746278476999L508.1467329029443,-163.3895385545866zM498.72129837276026,-170.9634135545269L498.72129837276026,-34.33133778471031L479.65485140569933,-167.2192936838944z" style="fill:var(--fill-gray); fill-opacity: 0.4"></path><path d="M404.99713186754775,22.77655459888596L424.06357883460873,19.032434728253428M424.06357883460873,-176.15625052322542L424.06357883460873,19.032434728253428" style="fill:none;stroke:var(--stroke-color);stroke-width:1;stroke-linecap:round"></path><path d="M508.1467329029443,-163.3895385545866L508.1467329029443,-26.75746278476999L498.72129837276026,-170.9634135545269z" style="fill:var(--fill-gray); fill-opacity: 0.4"></path><path d="M404.99713186754775,-172.4121306525929L404.99713186754775,22.77655459888596" style="fill:none;stroke:var(--stroke-color);stroke-width:1;stroke-linecap:round"></path><path d="M479.65485140569933,-167.2192936838944L479.65485140569933,-30.587217914077776L489.08028593588335,-159.64541868395406z" style="fill:var(--fill-gray); fill-opacity: 0.4"></path><path d="M457.25548741968674,-90.75356189805105L460.194690396265,-83.96948878362703L460.194690396265,-90.36943734975503zM463.13389337284326,-86.02992695628427L460.194690396265,-83.96948878362703L481.86692611415367,-94.62526165370436zM458.37816312786947,-97.00678797061151L457.25548741968674,-90.75356189805105L460.194690396265,-90.36943734975503zM458.37816312786947,-97.00678797061151L462.0112176646606,-94.08742114020127L481.86692611415367,-94.62526165370436z" style="fill:var(--fill-black)"></path><path d="M421.8515041261543,-82.83990204276773L460.194690396265,-90.36943734975503" style="fill:none;stroke:var(--stroke-color);stroke-width:1;stroke-linecap:round"></path><path d="M462.0112176646606,-94.08742114020127L463.13389337284326,-86.02992695628427L481.86692611415367,-94.62526165370436zM460.194690396265,-83.96948878362703L463.13389337284326,-86.02992695628427L460.194690396265,-90.36943734975503z" style="fill:var(--fill-black)"></path><path d="M498.7212983727603,-170.9634135545269L479.65485140569933,-167.2192936838944M498.7212983727603,-170.9634135545269L508.1467329029443,-163.3895385545866" style="fill:none;stroke:var(--stroke-color);stroke-width:1;stroke-linecap:round"></path><path d="M414.6381443044247,11.458559728313116L395.57169733736373,15.202679598945657L395.57169733736373,-179.9860056525332z" style="fill:var(--fill-gray); fill-opacity: 0.4"></path><path d="M462.0112176646606,-94.08742114020127L458.37816312786947,-97.00678797061151L460.194690396265,-90.36943734975503z" style="fill:var(--fill-black)"></path><path d="M424.06357883460873,19.03243472825343L414.6381443044247,11.458559728313116L414.6381443044247,-183.73012552316575z" style="fill:var(--fill-gray); fill-opacity: 0.4"></path><path d="M463.13389337284326,-86.02992695628427L462.0112176646606,-94.08742114020127L460.194690396265,-90.36943734975503z" style="fill:var(--fill-black)"></path><path d="M489.08028593588335,-159.64541868395406L489.08028593588335,-23.01334291413746L508.1467329029443,-163.3895385545866z" style="fill:var(--fill-gray); fill-opacity: 0.4"></path><path d="M479.65485140569933,-167.2192936838944L489.08028593588324,-159.64541868395406" style="fill:none;stroke:var(--stroke-color);stroke-width:1;stroke-linecap:round"></path><path d="M508.1467329029443,-163.3895385545866L498.72129837276026,-170.9634135545269L479.65485140569933,-167.2192936838944zM395.57169733736373,15.202679598945657L404.99713186754775,22.776554598885976L404.99713186754775,-172.41213065259288zM404.99713186754775,22.776554598885976L424.06357883460873,19.03243472825343L424.06357883460873,-176.15625052322542zM489.08028593588335,-159.64541868395406L508.1467329029443,-163.3895385545866L479.65485140569933,-167.2192936838944z" style="fill:var(--fill-gray); fill-opacity: 0.4"></path><path d="M489.08028593588324,-159.64541868395406L508.1467329029443,-163.3895385545866" style="fill:none;stroke:var(--stroke-color);stroke-width:1;stroke-linecap:round"></path><path d="M414.6381443044247,-183.73012552316575L414.6381443044247,11.458559728313116L395.57169733736373,-179.9860056525332z" style="fill:var(--fill-gray); fill-opacity: 0.4"></path><path d="M316.30905083704045,-91.05793574763852L316.30905083704045,-52.02020016217473M316.30905083704045,-52.02020016217473L201.91036664987595,-29.555480470071405M316.30905083704045,-52.02020016217473L335.1599198974083,-36.87245016229409" style="fill:none;stroke:var(--stroke-color);stroke-width:1;stroke-linecap:round"></path><path d="M373.17233335135126,-74.24196912585874L376.1115363279295,-67.45789601143471L376.1115363279295,-73.85784457756272zM379.0507393045078,-69.51833418409196L376.1115363279295,-67.45789601143471L397.7837720458182,-78.11366888151204z" style="fill:var(--fill-black)"></path><path d="M424.06357883460873,-176.15625052322542L424.06357883460873,19.03243472825343L414.6381443044247,-183.73012552316575z" style="fill:var(--fill-gray); fill-opacity: 0.4"></path><path d="M374.295009059534,-80.4951951984192L373.17233335135126,-74.24196912585874L376.1115363279295,-73.85784457756272zM374.295009059534,-80.4951951984192L377.92806359632505,-77.57582836800896L397.7837720458182,-78.11366888151204z" style="fill:var(--fill-black)"></path><path d="M337.7683500578188,-66.32830927057542L376.1115363279295,-73.85784457756272" style="fill:none;stroke:var(--stroke-color);stroke-width:1;stroke-linecap:round"></path><path d="M377.92806359632505,-77.57582836800896L379.0507393045078,-69.51833418409196L397.7837720458182,-78.11366888151204z" style="fill:var(--fill-black)"></path><path d="M395.57169733736373,-179.9860056525332L395.57169733736373,15.202679598945657L404.99713186754775,-172.41213065259288z" style="fill:var(--fill-gray); fill-opacity: 0.4"></path><path d="M376.1115363279295,-67.45789601143471L379.0507393045078,-69.51833418409196L376.1115363279295,-73.85784457756272zM377.92806359632505,-77.57582836800896L374.295009059534,-80.4951951984192L376.1115363279295,-73.85784457756272zM379.0507393045078,-69.51833418409196L377.92806359632505,-77.57582836800896L376.1115363279295,-73.85784457756272z" style="fill:var(--fill-black)"></path><path d="M404.99713186754775,-172.41213065259288L404.99713186754775,22.776554598885976L424.06357883460873,-176.15625052322542z" style="fill:var(--fill-gray); fill-opacity: 0.4"></path><path d="M316.30905083704045,-91.05793574763852L201.91036664987598,-68.5932160555352M316.30905083704045,-91.05793574763852L335.1599198974084,-75.9101857477579M414.6381443044248,-183.73012552316575L395.5716973373638,-179.9860056525332M414.6381443044248,-183.73012552316575L424.06357883460873,-176.15625052322542" style="fill:none;stroke:var(--stroke-color);stroke-width:1;stroke-linecap:round"></path><path d="M335.1599198974084,-36.87245016229409L316.30905083704045,-52.02020016217473L316.30905083704045,-91.05793574763854z" style="fill:var(--fill-gray); fill-opacity: 0.4"></path><path d="M395.5716973373638,-179.9860056525332L404.99713186754775,-172.4121306525929" style="fill:none;stroke:var(--stroke-color);stroke-width:1;stroke-linecap:round"></path><path d="M424.06357883460873,-176.15625052322542L414.6381443044247,-183.73012552316575L395.57169733736373,-179.9860056525332zM316.30905083704045,-91.05793574763854L316.30905083704045,-52.02020016217473L201.91036664987595,-68.5932160555352zM404.99713186754775,-172.41213065259288L424.06357883460873,-176.15625052322542L395.57169733736373,-179.9860056525332z" style="fill:var(--fill-gray); fill-opacity: 0.4"></path><path d="M404.99713186754775,-172.4121306525929L424.06357883460873,-176.15625052322542" style="fill:none;stroke:var(--stroke-color);stroke-width:1;stroke-linecap:round"></path><path d="M335.1599198974084,-75.9101857477579L335.1599198974084,-36.87245016229409L316.30905083704045,-91.05793574763854z" style="fill:var(--fill-gray); fill-opacity: 0.4"></path><path d="M220.76123571024388,-14.407730470190767L335.1599198974083,-36.87245016229409M335.1599198974084,-75.9101857477579L335.1599198974083,-36.87245016229409" style="fill:none;stroke:var(--stroke-color);stroke-width:1;stroke-linecap:round"></path><path d="M316.30905083704045,-52.02020016217473L201.91036664987595,-29.555480470071405L201.91036664987595,-68.5932160555352zM335.1599198974084,-36.87245016229409L220.76123571024388,-14.40773047019077L316.30905083704045,-52.02020016217473zM335.1599198974084,-75.9101857477579L316.30905083704045,-91.05793574763854L201.91036664987595,-68.5932160555352zM220.76123571024388,-14.40773047019077L201.91036664987595,-29.555480470071405L316.30905083704045,-52.02020016217473z" style="fill:var(--fill-gray); fill-opacity: 0.4"></path><path d="M220.76123571024388,-53.44546605565456L335.1599198974084,-75.9101857477579M201.91036664987598,-68.5932160555352L201.91036664987595,-29.555480470071405M201.91036664987595,-29.555480470071405L220.76123571024388,-14.407730470190767" style="fill:none;stroke:var(--stroke-color);stroke-width:1;stroke-linecap:round"></path><path d="M220.76123571024388,-14.40773047019077L335.1599198974084,-36.87245016229409L335.1599198974084,-75.9101857477579z" style="fill:var(--fill-gray); fill-opacity: 0.4"></path><path d="M132.18094520553993,-69.37211602917219L132.18094520553993,-10.815511430283188M132.18094520553993,-10.815511430283188L36.848706793037124,7.905088625341659M132.18094520553993,-10.815511430283188L160.4572493855504,11.906114043201447M201.91036664987598,-68.5932160555352L220.76123571024388,-53.44546605565456" style="fill:none;stroke:var(--stroke-color);stroke-width:1;stroke-linecap:round"></path><path d="M220.76123571024388,-53.44546605565456L335.1599198974084,-75.9101857477579L201.91036664987595,-68.5932160555352zM201.91036664987595,-68.5932160555352L201.91036664987595,-29.555480470071405L220.76123571024388,-53.44546605565456zM220.76123571024388,-53.44546605565456L220.76123571024388,-14.40773047019077L335.1599198974084,-75.9101857477579zM201.91036664987595,-29.555480470071405L220.76123571024388,-14.40773047019077L220.76123571024388,-53.44546605565456z" style="fill:var(--fill-gray); fill-opacity: 0.4"></path><path d="M144.90297968164515,-42.868614106342704L212.8640857449482,-43.817565531136566M144.90297968164515,-27.50873708987552L212.8640857449482,-43.817565531136566M152.32008550749222,-21.54866891409047L212.8640857449482,-43.817565531136566M152.32008550749222,-36.90854593055766L212.8640857449482,-43.817565531136566M220.76123571024388,-53.44546605565456L220.76123571024388,-14.407730470190767M132.18094520553993,-69.37211602917219L36.848706793037124,-50.65151597354735M132.18094520553993,-69.37211602917219L160.4572493855504,-46.650490555687554" style="fill:none;stroke:var(--stroke-color);stroke-width:1;stroke-linecap:round"></path><path d="M160.4572493855504,11.906114043201445L132.18094520553993,-10.815511430283188L132.18094520553993,-69.37211602917219z" style="fill:var(--fill-gray); fill-opacity: 0.4"></path><path d="M144.90297595376472,-27.508736464742153L144.90297595376472,-42.86861302344935L212.86409157256898,-43.81756684852275z" style="fill:var(--fill-red); fill-opacity: 0.4"></path><path d="M132.18094520553993,-69.37211602917219L132.18094520553993,-10.815511430283188L36.848706793037145,-50.65151597354734z" style="fill:var(--fill-gray); fill-opacity: 0.4"></path><path d="M152.32008192697648,-21.548668170541188L144.90297595376472,-27.508736464742153L212.86409157256898,-43.81756684852275z" style="fill:var(--fill-red); fill-opacity: 0.4"></path><path d="M144.90297968164515,-42.868614106342704L144.90297968164515,-27.50873708987552M144.90297968164515,-27.50873708987552L152.32008550749222,-21.54866891409047M144.9029778733423,-42.868613400401L144.9029778733423,-27.5087368416938M144.9029778733423,-27.5087368416938L49.57073946083953,-8.788136786068952M144.9029778733423,-27.5087368416938L152.32008384655407,-21.548668547492834" style="fill:none;stroke:var(--stroke-color);stroke-width:1;stroke-linecap:round"></path><path d="M144.90297595376472,-42.86861302344935L152.32008192697648,-36.90854472924838L212.86409157256898,-43.81756684852275z" style="fill:var(--fill-red); fill-opacity: 0.4"></path><path d="M132.18094520553993,-10.815511430283188L36.84870679303714,7.905088625341662L36.848706793037145,-50.65151597354734z" style="fill:var(--fill-gray); fill-opacity: 0.4"></path><path d="M152.32008192697648,-36.90854472924838L152.32008192697648,-21.548668170541188L212.86409157256898,-43.81756684852275z" style="fill:var(--fill-red); fill-opacity: 0.4"></path><path d="M144.90297968164515,-42.868614106342704L152.32008550749222,-36.90854593055766M144.9029778733423,-42.868613400401L49.57073946083953,-24.14801334477615M144.9029778733423,-42.868613400401L152.32008384655407,-36.90854510620003" style="fill:none;stroke:var(--stroke-color);stroke-width:1;stroke-linecap:round"></path><path d="M152.32008384655407,-21.548668547492834L144.90297787334234,-27.5087368416938L144.90297787334234,-42.868613400400996z" style="fill:var(--fill-blue); fill-opacity: 0.4"></path><path d="M144.90297595376472,-42.86861302344935L144.90297595376472,-27.508736464742153L152.32008192697648,-21.548668170541188z" style="fill:var(--fill-red); fill-opacity: 0.4"></path><path d="M36.848706793037124,-50.65151597354735L36.848706793037124,7.905088625341659M36.848706793037124,7.905088625341659L65.1250109730476,30.62671409882629" style="fill:none;stroke:var(--stroke-color);stroke-width:1;stroke-linecap:round"></path><path d="M65.12501097304762,30.626714098826298L36.84870679303714,7.905088625341662L132.18094520553993,-10.815511430283188z" style="fill:var(--fill-gray); fill-opacity: 0.4"></path><path d="M152.32008384655407,-36.90854510620002L152.32008384655407,-21.548668547492834L144.90297787334234,-42.868613400400996z" style="fill:var(--fill-blue); fill-opacity: 0.4"></path><path d="M144.90297595376472,-42.86861302344935L152.32008192697648,-21.548668170541188L152.32008192697648,-36.90854472924838z" style="fill:var(--fill-red); fill-opacity: 0.4"></path><path d="M152.32008550749222,-21.54866891409047L152.32008550749222,-36.90854593055766M56.987845434051266,-2.8280684918679833L152.32008384655407,-21.548668547492834M152.32008384655407,-36.90854510620003L152.32008384655407,-21.548668547492834" style="fill:none;stroke:var(--stroke-color);stroke-width:1;stroke-linecap:round"></path><path d="M160.4572493855504,11.906114043201445L65.12501097304762,30.626714098826298L132.18094520553993,-10.815511430283188zM160.4572493855504,-46.650490555687554L160.4572493855504,11.906114043201445L132.18094520553993,-69.37211602917219z" style="fill:var(--fill-gray); fill-opacity: 0.4"></path><path d="M65.1250109730476,30.62671409882629L160.4572493855504,11.906114043201447M160.4572493855504,-46.650490555687554L160.4572493855504,11.906114043201447" style="fill:none;stroke:var(--stroke-color);stroke-width:1;stroke-linecap:round"></path><path d="M144.90297787334234,-42.868613400400996L144.90297787334234,-27.5087368416938L49.57073946083955,-24.148013344776153z" style="fill:var(--fill-blue); fill-opacity: 0.4"></path><path d="M56.987845434051266,-18.18794505057518L152.32008384655407,-36.90854510620003" style="fill:none;stroke:var(--stroke-color);stroke-width:1;stroke-linecap:round"></path><path d="M160.4572493855504,-46.650490555687554L132.18094520553993,-69.37211602917219L36.848706793037145,-50.65151597354734z" style="fill:var(--fill-gray); fill-opacity: 0.4"></path><path d="M152.32008384655407,-21.548668547492834L56.98784543405128,-2.8280684918679833L144.90297787334234,-27.5087368416938z" style="fill:var(--fill-blue); fill-opacity: 0.4"></path><path d="M-32.88071530663104,-51.43041400838506L-32.880715306631046,26.645057162542532M-32.880715306631046,26.645057162542532L-109.14650317487497,41.62153664507267M-32.880715306631046,26.645057162542532L4.821022814104764,56.940557162303804" style="fill:none;stroke:var(--stroke-color);stroke-width:1;stroke-linecap:round"></path><path d="M152.32008384655407,-36.90854510620002L144.90297787334234,-42.868613400400996L49.57073946083955,-24.148013344776153zM56.98784543405128,-2.8280684918679833L152.32008384655407,-21.548668547492834L152.32008384655407,-36.90854510620002zM144.90297787334234,-27.5087368416938L49.57073946083955,-8.788136786068952L49.57073946083955,-24.148013344776153z" style="fill:var(--fill-blue); fill-opacity: 0.4"></path><path d="M36.848706793037124,-50.65151597354735L65.1250109730476,-27.92989050006271" style="fill:none;stroke:var(--stroke-color);stroke-width:1;stroke-linecap:round"></path><path d="M56.98784543405128,-2.8280684918679833L49.57073946083955,-8.788136786068952L144.90297787334234,-27.5087368416938z" style="fill:var(--fill-blue); fill-opacity: 0.4"></path><path d="M65.12501097304762,30.626714098826298L160.4572493855504,11.906114043201445L160.4572493855504,-46.650490555687554zM36.848706793037145,-50.65151597354734L36.84870679303714,7.905088625341662L65.12501097304762,-27.929890500062708z" style="fill:var(--fill-gray); fill-opacity: 0.4"></path><path d="M65.1250109730476,-27.92989050006271L160.4572493855504,-46.650490555687554M49.57073946083953,-24.14801334477615L49.57073946083953,-8.788136786068952M49.57073946083953,-8.788136786068952L56.987845434051266,-2.8280684918679833" style="fill:none;stroke:var(--stroke-color);stroke-width:1;stroke-linecap:round"></path><path d="M56.98784543405129,-18.187945050575184L152.32008384655407,-36.90854510620002L49.57073946083955,-24.148013344776153zM56.98784543405129,-18.187945050575184L56.98784543405128,-2.8280684918679833L152.32008384655407,-36.90854510620002z" style="fill:var(--fill-blue); fill-opacity: 0.4"></path><path d="M49.57073946083953,-24.14801334477615L56.987845434051266,-18.18794505057518" style="fill:none;stroke:var(--stroke-color);stroke-width:1;stroke-linecap:round"></path><path d="M36.84870679303714,7.905088625341662L65.12501097304762,30.626714098826298L65.12501097304762,-27.929890500062708z" style="fill:var(--fill-gray); fill-opacity: 0.4"></path><path d="M49.57073946083955,-24.148013344776153L49.57073946083955,-8.788136786068952L56.98784543405129,-18.187945050575184z" style="fill:var(--fill-blue); fill-opacity: 0.4"></path><path d="M65.12501097304762,-27.929890500062708L160.4572493855504,-46.650490555687554L36.848706793037145,-50.65151597354734z" style="fill:var(--fill-gray); fill-opacity: 0.4"></path><path d="M49.57073946083955,-8.788136786068952L56.98784543405128,-2.8280684918679833L56.98784543405129,-18.187945050575184z" style="fill:var(--fill-blue); fill-opacity: 0.4"></path><path d="M56.987845434051266,-18.18794505057518L56.987845434051266,-2.8280684918679833M-32.88071530663104,-51.43041400838506L-109.14650317487497,-36.45393452585491M-32.88071530663104,-51.43041400838506L4.821022814104764,-21.134914008623774" style="fill:none;stroke:var(--stroke-color);stroke-width:1;stroke-linecap:round"></path><path d="M-32.88071530663103,-51.43041400838505L-32.880715306631046,26.645057162542532L-109.14650317487497,-36.45393452585491zM-32.880715306631046,26.645057162542532L-109.14650317487497,41.62153664507268L-109.14650317487497,-36.45393452585491zM4.82102281410476,56.940557162303804L-32.880715306631046,26.645057162542532L-32.88071530663103,-51.43041400838505z" style="fill:var(--fill-gray); fill-opacity: 0.4"></path><path d="M-109.14650317487497,-36.45393452585491L-109.14650317487497,41.62153664507267M-109.14650317487497,41.62153664507267L-71.44476505413915,71.91703664483396M-11.052494546286077,-11.940604811071418L56.0012896508249,-13.039179056230745M-11.052494546286077,3.4192717476357752L56.0012896508249,-13.039179056230745M-3.6353885730743447,9.379340041836743L56.0012896508249,-13.039179056230745M-3.635388573074344,-5.980536516870453L56.0012896508249,-13.039179056230745M65.1250109730476,-27.92989050006271L65.1250109730476,30.62671409882629" style="fill:none;stroke:var(--stroke-color);stroke-width:1;stroke-linecap:round"></path><path d="M65.12501097304762,-27.929890500062708L65.12501097304762,30.626714098826298L160.4572493855504,-46.650490555687554zM-71.44476505413914,71.91703664483394L-109.14650317487497,41.62153664507268L-32.880715306631046,26.645057162542532z" style="fill:var(--fill-gray); fill-opacity: 0.4"></path><path d="M-177.399636642591,31.916328739949794L-104.99862570913216,27.393374751973685M-177.399636642591,47.27620529865699L-104.99862570913216,27.393374751973685M-169.982529490462,53.2362745401853L-104.99862570913216,27.393374751973685M-169.982529490462,37.87639798147811L-104.99862570913216,27.393374751973685M-178.87592869644882,-37.232835508946046L-178.87592869644885,60.36150711679337M-178.87592869644885,60.36150711679337L-209.0955314313689,66.29579656662665M-178.87592869644885,60.36150711679337L-131.7487542771532,98.23088353748598" style="fill:none;stroke:var(--stroke-color);stroke-width:1;stroke-linecap:round"></path><path d="M-11.052494297119399,3.419271778387157L-11.052494297119395,-11.94060478032004L56.00128958301936,-13.039179277863509zM-3.6353883239076645,9.379340072588125L-11.052494297119399,3.419271778387157L56.00128958301936,-13.039179277863509z" style="fill:var(--fill-red); fill-opacity: 0.4"></path><path d="M-11.052494546286077,-11.940604811071418L-11.052494546286077,3.4192717476357752M-11.052494546286077,3.4192717476357752L-3.6353885730743447,9.379340041836743M-11.052494192336482,-11.94060480089649L-11.052494192336487,3.4192717578107095M-11.052494192336487,3.4192717578107095L-87.3182820605804,18.395751240340847M-11.052494192336487,3.4192717578107095L-3.6353882191247546,9.379340052011676" style="fill:none;stroke:var(--stroke-color);stroke-width:1;stroke-linecap:round"></path><path d="M4.82102281410476,56.940557162303804L-71.44476505413914,71.91703664483394L-32.880715306631046,26.645057162542532z" style="fill:var(--fill-gray); fill-opacity: 0.4"></path><path d="M-177.3996400069892,47.27620741624898L-177.3996400069892,31.916330857541777L-104.99863069531865,27.3933745055009zM-11.052494297119395,-11.94060478032004L-3.635388323907663,-5.980536486119071L56.00128958301936,-13.039179277863509z" style="fill:var(--fill-red); fill-opacity: 0.4"></path><path d="M-177.399636642591,31.916328739949794L-177.399636642591,47.27620529865699M-177.399636642591,47.27620529865699L-169.982529490462,53.2362745401853M-177.3996403304,31.916330921050672L-177.3996403304,47.27620747975787M-177.3996403304,47.27620747975787L-207.6192430653201,53.21049692959114M-177.3996403304,47.27620747975787L-169.98253435718829,53.23627577395883" style="fill:none;stroke:var(--stroke-color);stroke-width:1;stroke-linecap:round"></path><path d="M-169.98253403377745,53.236275710449945L-177.3996400069892,47.27620741624898L-104.99863069531865,27.3933745055009zM-3.635388323907663,-5.980536486119071L-3.6353883239076645,9.379340072588125L56.00128958301936,-13.039179277863509z" style="fill:var(--fill-red); fill-opacity: 0.4"></path><path d="M-11.052494546286077,-11.940604811071418L-3.635388573074344,-5.980536516870453M-11.052494192336482,-11.94060480089649L-87.31828206058039,3.0358746816336497M-11.052494192336482,-11.94060480089649L-3.6353882191247493,-5.980536506695522M-209.0955314313689,-31.298546059112788L-209.0955314313689,66.29579656662665M-209.0955314313689,66.29579656662665L-161.96835701207328,104.16517298731924" style="fill:none;stroke:var(--stroke-color);stroke-width:1;stroke-linecap:round"></path><path d="M-3.6353882191247537,9.379340052011676L-11.052494192336487,3.4192717578107077L-11.052494192336486,-11.94060480089649z" style="fill:var(--fill-blue); fill-opacity: 0.4"></path><path d="M-11.052494297119395,-11.94060478032004L-11.052494297119399,3.419271778387157L-3.6353883239076645,9.379340072588125zM-177.3996400069892,31.916330857541777L-169.98253403377745,37.876399151742746L-104.99863069531865,27.3933745055009z" style="fill:var(--fill-red); fill-opacity: 0.4"></path><path d="M-177.399636642591,31.916328739949794L-169.982529490462,37.87639798147811M-177.3996403304,31.916330921050672L-207.6192430653201,37.850620370883945M-177.3996403304,31.916330921050672L-169.98253435718829,37.87639921525164" style="fill:none;stroke:var(--stroke-color);stroke-width:1;stroke-linecap:round"></path><path d="M-177.3996400069892,31.916330857541777L-177.3996400069892,47.27620741624898L-169.98253403377745,53.236275710449945z" style="fill:var(--fill-red); fill-opacity: 0.4"></path><path d="M-169.9825343571883,53.23627577395884L-177.39964033040002,47.27620747975787L-177.39964033040002,31.916330921050672z" style="fill:var(--fill-blue); fill-opacity: 0.4"></path><path d="M-169.98253403377745,37.876399151742746L-169.98253403377745,53.236275710449945L-104.99863069531865,27.3933745055009z" style="fill:var(--fill-red); fill-opacity: 0.4"></path><path d="M-109.14650317487497,-36.45393452585491L-71.44476505413915,-6.158434526093639" style="fill:none;stroke:var(--stroke-color);stroke-width:1;stroke-linecap:round"></path><path d="M4.821022814104764,-21.134914008623777L-32.88071530663103,-51.43041400838505L-109.14650317487497,-36.45393452585491z" style="fill:var(--fill-gray); fill-opacity: 0.4"></path><path d="M-177.39964033040002,31.916330921050672L-177.39964033040002,47.27620747975787L-207.6192430653201,37.850620370883945z" style="fill:var(--fill-blue); fill-opacity: 0.4"></path><path d="M4.821022814104764,-21.134914008623777L4.82102281410476,56.940557162303804L-32.88071530663103,-51.43041400838505z" style="fill:var(--fill-gray); fill-opacity: 0.4"></path><path d="M-71.44476505413915,71.91703664483396L4.821022814104764,56.940557162303804M4.821022814104764,-21.134914008623774L4.821022814104764,56.940557162303804" style="fill:none;stroke:var(--stroke-color);stroke-width:1;stroke-linecap:round"></path><path d="M-177.39964033040002,47.27620747975787L-207.6192430653201,53.210496929591145L-207.6192430653201,37.850620370883945zM-3.6353882191247524,-5.980536506695521L-3.6353882191247537,9.379340052011676L-11.052494192336486,-11.94060480089649z" style="fill:var(--fill-blue); fill-opacity: 0.4"></path><path d="M-11.052494297119395,-11.94060478032004L-3.6353883239076645,9.379340072588125L-3.635388323907663,-5.980536486119071z" style="fill:var(--fill-red); fill-opacity: 0.4"></path><path d="M-3.6353885730743447,9.379340041836743L-3.635388573074344,-5.980536516870453M-79.90117608736867,24.355819534541816L-3.6353882191247546,9.379340052011676M-3.6353882191247493,-5.980536506695522L-3.6353882191247546,9.379340052011676" style="fill:none;stroke:var(--stroke-color);stroke-width:1;stroke-linecap:round"></path><path d="M-177.3996400069892,31.916330857541777L-169.98253403377745,53.236275710449945L-169.98253403377745,37.876399151742746z" style="fill:var(--fill-red); fill-opacity: 0.4"></path><path d="M-169.9825343571883,37.87639921525164L-169.9825343571883,53.23627577395884L-177.39964033040002,31.916330921050672z" style="fill:var(--fill-blue); fill-opacity: 0.4"></path><path d="M-207.6192430653201,37.850620370883945L-207.6192430653201,53.21049692959114M-207.6192430653201,53.21049692959114L-200.20213709210836,59.1705652237921" style="fill:none;stroke:var(--stroke-color);stroke-width:1;stroke-linecap:round"></path><path d="M-200.20213709210836,59.1705652237921L-207.6192430653201,53.210496929591145L-177.39964033040002,47.27620747975787zM-169.9825343571883,53.23627577395884L-200.20213709210836,59.1705652237921L-177.39964033040002,47.27620747975787z" style="fill:var(--fill-blue); fill-opacity: 0.4"></path><path d="M-169.982529490462,53.2362745401853L-169.982529490462,37.87639798147811M-200.20213709210836,59.1705652237921L-169.98253435718829,53.23627577395883M-169.98253435718829,37.87639921525164L-169.98253435718829,53.23627577395883" style="fill:none;stroke:var(--stroke-color);stroke-width:1;stroke-linecap:round"></path><path d="M-11.052494192336486,-11.94060480089649L-11.052494192336487,3.4192717578107077L-87.31828206058039,3.03587468163365z" style="fill:var(--fill-blue); fill-opacity: 0.4"></path><path d="M-178.87592869644882,60.361507116793355L-209.0955314313689,66.29579656662665L-209.0955314313689,-31.29854605911278z" style="fill:var(--fill-gray); fill-opacity: 0.4"></path><path d="M-169.9825343571883,37.87639921525164L-177.39964033040002,31.916330921050672L-207.6192430653201,37.850620370883945z" style="fill:var(--fill-blue); fill-opacity: 0.4"></path><path d="M-79.90117608736867,8.995942975834616L-3.6353882191247493,-5.980536506695522" style="fill:none;stroke:var(--stroke-color);stroke-width:1;stroke-linecap:round"></path><path d="M-3.6353882191247537,9.379340052011676L-79.90117608736867,24.355819534541816L-11.052494192336487,3.4192717578107077z" style="fill:var(--fill-blue); fill-opacity: 0.4"></path><path d="M-207.6192430653201,37.850620370883945L-200.20213709210836,43.81068866508491M-200.20213709210836,43.81068866508491L-169.98253435718829,37.87639921525164" style="fill:none;stroke:var(--stroke-color);stroke-width:1;stroke-linecap:round"></path><path d="M-109.14650317487497,-36.45393452585491L-109.14650317487497,41.62153664507268L-71.44476505413914,-6.158434526093639z" style="fill:var(--fill-gray); fill-opacity: 0.4"></path><path d="M-200.20213709210836,59.1705652237921L-169.9825343571883,53.23627577395884L-169.9825343571883,37.87639921525164zM-3.6353882191247524,-5.980536506695521L-11.052494192336486,-11.94060480089649L-87.31828206058039,3.03587468163365zM-207.6192430653201,37.850620370883945L-207.6192430653201,53.210496929591145L-200.20213709210836,43.81068866508491zM-11.052494192336487,3.4192717578107077L-87.31828206058039,18.395751240340843L-87.31828206058039,3.03587468163365z" style="fill:var(--fill-blue); fill-opacity: 0.4"></path><path d="M-178.87592869644882,-37.23283550894605L-178.87592869644882,60.361507116793355L-209.0955314313689,-31.29854605911278z" style="fill:var(--fill-gray); fill-opacity: 0.4"></path><path d="M-200.20213709210836,43.81068866508491L-169.9825343571883,37.87639921525164L-207.6192430653201,37.850620370883945zM-207.6192430653201,53.210496929591145L-200.20213709210836,59.1705652237921L-200.20213709210836,43.81068866508491zM-79.90117608736867,24.355819534541816L-3.6353882191247537,9.379340052011676L-3.6353882191247524,-5.980536506695521zM-79.90117608736867,24.355819534541816L-87.31828206058039,18.395751240340843L-11.052494192336487,3.4192717578107077zM-200.20213709210836,43.81068866508491L-200.20213709210836,59.1705652237921L-169.9825343571883,37.87639921525164z" style="fill:var(--fill-blue); fill-opacity: 0.4"></path><path d="M-200.20213709210836,43.81068866508491L-200.20213709210836,59.1705652237921" style="fill:none;stroke:var(--stroke-color);stroke-width:1;stroke-linecap:round"></path><path d="M-161.96835701207328,104.16517298731924L-209.0955314313689,66.29579656662665L-178.87592869644882,60.361507116793355zM-109.14650317487497,41.62153664507268L-71.44476505413914,71.91703664483394L-71.44476505413914,-6.158434526093639z" style="fill:var(--fill-gray); fill-opacity: 0.4"></path><path d="M-87.31828206058039,3.0358746816336497L-87.3182820605804,18.395751240340847M-87.3182820605804,18.395751240340847L-79.90117608736867,24.355819534541816" style="fill:none;stroke:var(--stroke-color);stroke-width:1;stroke-linecap:round"></path><path d="M-71.44476505413914,71.91703664483394L4.82102281410476,56.940557162303804L4.821022814104764,-21.134914008623777z" style="fill:var(--fill-gray); fill-opacity: 0.4"></path><path d="M-178.87592869644882,-37.232835508946046L-209.0955314313689,-31.298546059112788M-178.87592869644882,-37.232835508946046L-131.7487542771532,0.6365409117465527" style="fill:none;stroke:var(--stroke-color);stroke-width:1;stroke-linecap:round"></path><path d="M-131.7487542771532,98.23088353748597L-178.87592869644882,60.361507116793355L-178.87592869644882,-37.23283550894605z" style="fill:var(--fill-gray); fill-opacity: 0.4"></path><path d="M-79.90117608736865,8.99594297583462L-3.6353882191247524,-5.980536506695521L-87.31828206058039,3.03587468163365z" style="fill:var(--fill-blue); fill-opacity: 0.4"></path><path d="M-87.31828206058039,3.0358746816336497L-79.90117608736867,8.995942975834616" style="fill:none;stroke:var(--stroke-color);stroke-width:1;stroke-linecap:round"></path><path d="M-79.90117608736865,8.99594297583462L-79.90117608736867,24.355819534541816L-3.6353882191247524,-5.980536506695521zM-87.31828206058039,3.03587468163365L-87.31828206058039,18.395751240340843L-79.90117608736865,8.99594297583462z" style="fill:var(--fill-blue); fill-opacity: 0.4"></path><path d="M-71.44476505413914,-6.158434526093639L4.821022814104764,-21.134914008623777L-109.14650317487497,-36.45393452585491z" style="fill:var(--fill-gray); fill-opacity: 0.4"></path><path d="M-71.44476505413915,-6.158434526093639L4.821022814104764,-21.134914008623774" style="fill:none;stroke:var(--stroke-color);stroke-width:1;stroke-linecap:round"></path><path d="M-87.31828206058039,18.395751240340843L-79.90117608736867,24.355819534541816L-79.90117608736865,8.99594297583462z" style="fill:var(--fill-blue); fill-opacity: 0.4"></path><path d="M-71.44476505413915,-6.158434526093639L-71.44476505413915,71.91703664483396M-79.90117608736867,8.995942975834616L-79.90117608736867,24.355819534541816M-209.0955314313689,-31.298546059112788L-161.96835701207328,6.570830361579827" style="fill:none;stroke:var(--stroke-color);stroke-width:1;stroke-linecap:round"></path><path d="M-131.7487542771532,98.23088353748597L-161.96835701207328,104.16517298731924L-178.87592869644882,60.361507116793355zM-71.44476505413914,-6.158434526093639L-71.44476505413914,71.91703664483394L4.821022814104764,-21.134914008623777zM-209.0955314313689,-31.29854605911278L-209.0955314313689,66.29579656662665L-161.96835701207328,6.570830361579826zM-131.7487542771532,0.636540911746551L-178.87592869644882,-37.23283550894605L-209.0955314313689,-31.29854605911278zM-209.0955314313689,66.29579656662665L-161.96835701207328,104.16517298731924L-161.96835701207328,6.570830361579826zM-131.7487542771532,0.636540911746551L-131.7487542771532,98.23088353748597L-178.87592869644882,-37.23283550894605z" style="fill:var(--fill-gray); fill-opacity: 0.4"></path><path d="M-161.96835701207328,104.16517298731924L-131.7487542771532,98.23088353748598M-131.7487542771532,0.6365409117465527L-131.7487542771532,98.23088353748598M-161.96835701207328,6.570830361579827L-161.96835701207328,104.16517298731924" style="fill:none;stroke:var(--stroke-color);stroke-width:1;stroke-linecap:round"></path><path d="M-161.96835701207328,104.16517298731924L-131.7487542771532,98.23088353748597L-131.7487542771532,0.636540911746551zM-161.96835701207328,6.570830361579826L-131.7487542771532,0.636540911746551L-209.0955314313689,-31.29854605911278zM-161.96835701207328,6.570830361579826L-161.96835701207328,104.16517298731924L-131.7487542771532,0.636540911746551z" style="fill:var(--fill-gray); fill-opacity: 0.4"></path><path d="M-161.96835701207328,6.570830361579827L-131.7487542771532,0.6365409117465527" style="fill:none;stroke:var(--stroke-color);stroke-width:1;stroke-linecap:round"></path></svg>