<svg width="3012" height="800" viewBox="0 0 3012 800" fill="none" xmlns="http://www.w3.org/2000/svg">
<path d="M166.614 219.959C157.103 217.136 150.848 212.316 146.686 206.461C142.533 200.575 140.472 193.414 140.472 185.786C140.442 173.547 145.959 160.4 155.719 151.577C160.25 147.433 168.188 142.644 177.708 138.242C192 131.598 209.875 125.614 226.228 121.356C234.395 119.245 242.192 117.531 248.944 116.386C255.677 115.225 261.423 114.648 265.138 114.648C266.652 114.648 267.797 114.758 268.375 114.858L268.673 114.922L268.723 114.938L269.83 111.552L267.719 114.355C268.345 114.823 268.684 114.903 268.723 114.938L269.83 111.552L267.719 114.355C268.684 115.081 270.606 116.616 273.095 118.613C281.85 125.664 297.884 138.773 313.091 150.208C320.709 155.934 328.089 161.222 334.453 165.241C337.639 167.238 340.548 168.93 343.277 170.22C344.661 170.867 345.977 171.431 347.38 171.869C348.784 172.302 350.228 172.675 352.159 172.691C352.977 172.691 353.883 172.611 354.869 172.367H354.888C357.545 171.705 361.131 170.644 365.175 169.419C377.275 165.723 393.191 160.416 393.22 160.4L387.972 144.595C387.963 144.611 386.209 145.192 383.431 146.114C379.248 147.484 372.756 149.595 366.452 151.577C360.178 153.563 353.983 155.436 350.856 156.208H350.886L352.161 161.431V156.048C351.872 156.048 351.444 156.062 350.886 156.208L352.161 161.431V156.048V158.513L352.689 156.077C352.68 156.077 352.559 156.048 352.161 156.048V158.513L352.689 156.077C352.63 156.077 352.042 155.895 351.205 155.542C349.62 154.866 347.181 153.545 344.353 151.789C339.364 148.722 333.1 144.32 326.477 139.414C316.527 132.059 305.761 123.544 296.819 116.355C292.338 112.759 288.314 109.497 285.047 106.873C281.759 104.209 279.3 102.242 277.706 101.047C276.522 100.161 275.397 99.6422 274.341 99.2594C272.767 98.6922 271.313 98.4188 269.8 98.2438C268.306 98.0641 266.772 98 265.139 98C258.109 98.0141 249.036 99.275 238.548 101.405C222.844 104.613 204.22 109.836 187.12 116.289C178.575 119.516 170.419 123.047 163.169 126.852C155.898 130.677 149.555 134.709 144.527 139.27C131.152 151.466 123.852 168.739 123.822 185.784C123.822 196.395 126.72 207.041 133.073 216.055C139.408 225.073 149.217 232.214 161.916 235.923L166.614 219.959Z" fill="#007A55"/>
<path d="M369.739 150.049L423.109 123.872C423.109 123.872 430.448 142.227 405.581 158.614C391.072 168.161 375.805 165.739 375.805 165.739L369.739 150.049Z" fill="#007A55"/>
<path d="M196.95 402.912L229.056 511.48L220.87 614.069L257.42 621.228L277.15 504.612L270.258 389.203L196.95 402.912Z" fill="#007A55"/>
<path d="M480.492 526.334L556.33 573.445L530.725 660.308L566.498 672.856L610.636 547.108L540.425 474.727L480.492 526.334Z" fill="#007A55"/>
<path d="M723.062 528.366L646.977 547.98L560.403 468.069L547.087 478.049L487.355 533.271L427.222 574.62L380.603 701.139L340.897 696.708L367.288 594.588L387.266 508.014L300.692 494.71L172.609 454.375L127.566 537.981L46.8875 651.952L0 647.391L74.2844 521.335L84.2734 358.191L126.798 223.541L273.295 165.833L353.973 231.667L484.088 196.381L527.109 201.705L616.044 295.031L712.298 376.864L713.105 388.153L718.103 458.647L723.062 528.366Z" fill="#009966"/>
<path d="M692.48 433.665L679.166 415.909L681.386 428.119C681.386 428.119 672.513 442.534 681.386 445.861C690.269 449.197 692.48 433.665 692.48 433.665Z" fill="#007A55"/>
<path d="M631.092 355.641L586.297 383.591C586.297 383.591 610.927 410.828 641.48 400.586L631.092 355.641Z" fill="#00BC7D"/>
<path d="M353.973 231.667L249.095 274.953L310.681 196.706L353.973 231.667Z" fill="#007A55"/>
<path d="M348.425 485.822L234.106 445.861L166.405 380.38L159.742 475.842L160.122 477.58L172.62 454.391L300.692 494.71L387.266 508.014L401.697 453.633L385.045 479.163L348.425 485.822Z" fill="#007A55"/>
<path d="M646.977 547.98L567.066 423.119L487.355 533.255L567.066 471.389L646.977 547.98Z" fill="#007A55"/>
<path d="M706.911 505.529L707.736 522.998L693.595 524.675L706.911 505.529Z" fill="#007A55"/>
<path d="M718.103 458.647L649.466 378.169L698.584 369.833L713.105 388.153L718.103 458.647Z" fill="#00BC7D"/>
<path d="M643.063 357.723C643.063 357.723 661.756 311.305 708.064 317.534C754.384 323.744 773.127 356.514 799.997 348.562C800.325 359.273 773.745 371.722 751.905 368.789C738.678 367.011 689.919 353.351 686.216 387.542C678.975 401.701 638.273 380.205 643.063 357.723Z" fill="#5EE9B5"/>
<path d="M1022 224H1132V481.5H1274.5V574H1022V224ZM1289.6 459C1289.6 434 1295.6 412.5 1307.6 394.5C1319.6 376.5 1336.1 362.667 1357.1 353C1378.1 343.333 1401.93 338.5 1428.6 338.5C1455.26 338.5 1479.1 343.333 1500.1 353C1521.1 362.667 1537.6 376.5 1549.6 394.5C1561.6 412.5 1567.6 434 1567.6 459C1567.6 483.667 1561.6 505 1549.6 523C1537.6 541 1521.1 554.833 1500.1 564.5C1479.1 574.167 1455.26 579 1428.6 579C1401.93 579 1378.1 574.167 1357.1 564.5C1336.1 554.833 1319.6 541 1307.6 523C1295.6 505 1289.6 483.667 1289.6 459ZM1390.1 459C1390.1 468.333 1391.93 476.167 1395.6 482.5C1399.26 488.833 1403.93 493.667 1409.6 497C1415.6 500 1421.93 501.5 1428.6 501.5C1435.26 501.5 1441.43 500 1447.1 497C1453.1 493.667 1457.93 488.833 1461.6 482.5C1465.26 476.167 1467.1 468.333 1467.1 459C1467.1 449.667 1465.26 441.833 1461.6 435.5C1457.93 429.167 1453.1 424.333 1447.1 421C1441.43 417.667 1435.26 416 1428.6 416C1421.93 416 1415.6 417.667 1409.6 421C1403.93 424.333 1399.26 429.167 1395.6 435.5C1391.93 441.833 1390.1 449.667 1390.1 459ZM1602.7 591.5H1696.2C1697.54 599.833 1700.04 606.167 1703.7 610.5C1707.37 614.833 1711.87 617.667 1717.2 619C1722.87 620.667 1729.04 621.5 1735.7 621.5C1745.7 621.5 1754.2 619.333 1761.2 615C1768.2 611 1773.54 605 1777.2 597C1780.87 589.333 1782.7 580 1782.7 569V344H1875.2V569C1875.2 600.333 1869.37 625.333 1857.7 644C1846.04 662.667 1830.04 676 1809.7 684C1789.7 692.333 1766.7 696.5 1740.7 696.5C1708.37 696.5 1682.54 692 1663.2 683C1644.2 674.333 1630.04 662 1620.7 646C1611.7 630.333 1605.7 612.167 1602.7 591.5ZM1597.7 454C1597.7 427.333 1602.87 405.667 1613.2 389C1623.87 372 1637.37 359.5 1653.7 351.5C1670.04 343.167 1686.87 339 1704.2 339C1723.54 339 1740.7 343.5 1755.7 352.5C1771.04 361.167 1783.2 374 1792.2 391C1801.2 408 1805.7 429 1805.7 454C1805.7 478.667 1801.2 499.667 1792.2 517C1783.2 534 1771.04 547 1755.7 556C1740.7 564.667 1723.54 569 1704.2 569C1686.87 569 1670.04 565 1653.7 557C1637.37 548.667 1623.87 536 1613.2 519C1602.87 502 1597.7 480.333 1597.7 454ZM1700.7 454C1700.7 462.333 1702.54 469.5 1706.2 475.5C1709.87 481.5 1714.87 486.167 1721.2 489.5C1727.54 492.5 1734.37 494 1741.7 494C1748.37 494 1754.87 492.667 1761.2 490C1767.54 487 1772.7 482.667 1776.7 477C1780.7 471 1782.7 463.333 1782.7 454C1782.7 447 1781.54 441 1779.2 436C1776.87 431 1773.7 426.833 1769.7 423.5C1765.7 420.167 1761.2 417.833 1756.2 416.5C1751.54 414.833 1746.7 414 1741.7 414C1734.37 414 1727.54 415.667 1721.2 419C1714.87 422 1709.87 426.5 1706.2 432.5C1702.54 438.167 1700.7 445.333 1700.7 454ZM2165.99 406.5V361.5H2222.49C2230.82 361.5 2237.65 360.333 2242.99 358C2248.32 355.667 2252.32 352.333 2254.99 348C2257.65 343.667 2258.99 338.5 2258.99 332.5C2258.99 323.5 2255.99 317 2249.99 313C2244.32 308.667 2235.15 306.5 2222.49 306.5H2194.99V491.5H2232.49C2240.82 491.5 2248.49 490.833 2255.49 489.5C2262.49 488.167 2268.15 485.333 2272.49 481C2276.82 476.667 2278.99 469.833 2278.99 460.5C2278.99 454.833 2277.65 450.333 2274.99 447C2272.65 443.333 2269.32 440.667 2264.99 439C2260.65 437 2255.65 435.667 2249.99 435C2244.65 434.333 2238.82 434 2232.49 434H2165.99V374H2247.49C2264.49 374 2281.49 376 2298.49 380C2315.82 383.667 2331.65 389.667 2345.99 398C2360.32 406.333 2371.82 417.167 2380.49 430.5C2389.49 443.5 2393.99 459.333 2393.99 478C2393.99 501.333 2388.15 520 2376.49 534C2365.15 548 2348.49 558.167 2326.49 564.5C2304.82 570.833 2278.49 574 2247.49 574H2084.99V224H2237.49C2263.49 224 2286.65 227.333 2306.99 234C2327.65 240.667 2343.99 250.667 2355.99 264C2367.99 277.333 2373.99 294 2373.99 314C2373.99 333.667 2367.99 350.5 2355.99 364.5C2343.99 378.167 2327.65 388.667 2306.99 396C2286.65 403 2263.49 406.5 2237.49 406.5H2165.99ZM2541.26 484C2541.26 494.333 2542.76 502.5 2545.76 508.5C2548.76 514.167 2555.26 517 2565.26 517C2571.26 517 2576.26 515.833 2580.26 513.5C2584.59 511.167 2587.92 507.667 2590.26 503C2592.59 498 2593.76 491.667 2593.76 484V344H2691.26V574H2593.76V540.5C2587.42 552.167 2578.42 561.667 2566.76 569C2555.42 576 2540.76 579.5 2522.76 579.5C2491.42 579.5 2469.59 572.167 2457.26 557.5C2444.92 542.5 2438.76 521.333 2438.76 494V344H2541.26V484ZM2741.49 184H2838.99V574H2741.49V184ZM2888.95 184H2986.45V574H2888.95V184Z" fill="black"/>
</svg>
