<?xml version="1.0" encoding="UTF-8" standalone="no"?>
<!-- Created with Inkscape (http://www.inkscape.org/) -->

<svg
   width="48.004421"
   height="66.496063"
   viewBox="0 0 12.70117 17.593751"
   version="1.1"
   id="svg1"
   sodipodi:docname="modsrc_toggle_switch2.svg"
   inkscape:version="1.4 (86a8ad7, 2024-10-11)"
   xmlns:inkscape="http://www.inkscape.org/namespaces/inkscape"
   xmlns:sodipodi="http://sodipodi.sourceforge.net/DTD/sodipodi-0.dtd"
   xmlns="http://www.w3.org/2000/svg"
   xmlns:svg="http://www.w3.org/2000/svg">
  <sodipodi:namedview
     id="namedview1"
     pagecolor="#4e4e4e"
     bordercolor="#000000"
     borderopacity="0.25"
     inkscape:showpageshadow="2"
     inkscape:pageopacity="0.0"
     inkscape:pagecheckerboard="0"
     inkscape:deskcolor="#d1d1d1"
     inkscape:document-units="mm"
     inkscape:zoom="2.9405047"
     inkscape:cx="62.404253"
     inkscape:cy="90.970778"
     inkscape:window-width="2560"
     inkscape:window-height="1369"
     inkscape:window-x="-8"
     inkscape:window-y="-7"
     inkscape:window-maximized="1"
     inkscape:current-layer="layer1" />
  <defs
     id="defs1" />
  <g
     inkscape:label="Ebene 1"
     inkscape:groupmode="layer"
     id="layer1"
     transform="translate(-100.14453,-95.25)">
    <g
       id="ellipse68"
       transform="scale(-1)"
       style="fill:#2db159;fill-opacity:1">
      <path
         style="fill:#2db159;fill-opacity:1"
         d="m -110.86042,-104.04674 a 0.79374999,0.75604689 0 0 1 -0.79375,0.75605 0.79374999,0.75604689 0 0 1 -0.79375,-0.75605 0.79374999,0.75604689 0 0 1 0.79375,-0.75604 0.79374999,0.75604689 0 0 1 0.79375,0.75604 z"
         id="path15" />
      <path
         style="fill:#2db159;fill-opacity:1"
         d="m -111.6543,-105.19922 c -0.64267,0 -1.1914,0.50961 -1.1914,1.15234 -1e-5,0.64274 0.54873,1.15235 1.1914,1.15235 0.64268,0 1.19141,-0.50961 1.19141,-1.15235 -1e-5,-0.64273 -0.54874,-1.15234 -1.19141,-1.15234 z m 0,0.79297 c 0.23408,0 0.39649,0.16701 0.39649,0.35937 0,0.19238 -0.16241,0.35938 -0.39649,0.35938 -0.23407,0 -0.39648,-0.167 -0.39648,-0.35938 0,-0.19236 0.16241,-0.35937 0.39648,-0.35937 z"
         id="path16" />
    </g>
    <g
       id="ellipse69"
       transform="scale(-1)"
       style="fill:#2db159;fill-opacity:1">
      <path
         style="fill:#2db159;fill-opacity:1"
         d="m -102.92292,-111.69054 a 0.79374999,0.75604689 0 0 1 -0.79375,0.75605 0.79374999,0.75604689 0 0 1 -0.79375,-0.75605 0.79374999,0.75604689 0 0 1 0.79375,-0.75604 0.79374999,0.75604689 0 0 1 0.79375,0.75604 z"
         id="path9" />
      <path
         style="fill:#2db159;fill-opacity:1"
         d="m -103.7168,-112.84375 c -0.64267,0 -1.1914,0.50961 -1.1914,1.15234 -1e-5,0.64274 0.54873,1.1543 1.1914,1.1543 0.64268,0 1.19141,-0.51156 1.19141,-1.1543 -1e-5,-0.64273 -0.54874,-1.15234 -1.19141,-1.15234 z m 0,0.79492 c 0.23408,0 0.39649,0.16506 0.39649,0.35742 0,0.19237 -0.16241,0.35938 -0.39649,0.35938 -0.23407,0 -0.39648,-0.16701 -0.39648,-0.35938 0,-0.19236 0.16241,-0.35742 0.39648,-0.35742 z"
         id="path10" />
    </g>
    <g
       id="ellipse70"
       transform="scale(-1)"
       style="fill:#2db159;fill-opacity:1">
      <path
         style="fill:#2db159;fill-opacity:1"
         d="m -100.54167,-106.56821 a 0.79374999,0.75604689 0 0 1 -0.79375,0.75605 0.79374999,0.75604689 0 0 1 -0.79375,-0.75605 0.79374999,0.75604689 0 0 1 0.79375,-0.75604 0.79374999,0.75604689 0 0 1 0.79375,0.75604 z"
         id="path7" />
      <path
         style="fill:#2db159;fill-opacity:1"
         d="m -101.33594,-107.7207 c -0.64267,0 -1.18944,0.50961 -1.18945,1.15234 0,0.64274 0.54678,1.15234 1.18945,1.15234 0.64268,0 1.19141,-0.5096 1.19141,-1.15234 -1e-5,-0.64273 -0.54874,-1.15234 -1.19141,-1.15234 z m 0,0.79297 c 0.23408,0 0.39649,0.167 0.39649,0.35937 0,0.19237 -0.16241,0.35938 -0.39649,0.35938 -0.23408,0 -0.39648,-0.16701 -0.39648,-0.35938 0,-0.19237 0.16241,-0.35937 0.39648,-0.35937 z"
         id="path8" />
    </g>
    <g
       id="ellipse71"
       transform="scale(-1)"
       style="fill:#2db159;fill-opacity:1">
      <path
         style="fill:#2db159;fill-opacity:1"
         d="m -100.54167,-101.52525 a 0.79374999,0.75604689 0 0 1 -0.79375,0.75604 0.79374999,0.75604689 0 0 1 -0.79375,-0.75604 0.79374999,0.75604689 0 0 1 0.79375,-0.75605 0.79374999,0.75604689 0 0 1 0.79375,0.75605 z"
         id="path5" />
      <path
         style="fill:#2db159;fill-opacity:1"
         d="m -101.33594,-102.67773 c -0.64267,0 -1.18945,0.5096 -1.18945,1.15234 1e-5,0.64273 0.54678,1.15234 1.18945,1.15234 0.64267,0 1.1914,-0.50961 1.19141,-1.15234 0,-0.64274 -0.54873,-1.15234 -1.19141,-1.15234 z m 0,0.79296 c 0.23408,0 0.39649,0.16701 0.39649,0.35938 0,0.19237 -0.16241,0.35937 -0.39649,0.35937 -0.23407,0 -0.39648,-0.167 -0.39648,-0.35937 0,-0.19237 0.1624,-0.35938 0.39648,-0.35938 z"
         id="path6" />
    </g>
    <g
       id="ellipse72"
       transform="scale(-1)"
       style="fill:#2db159;fill-opacity:1">
      <path
         style="fill:#2db159;fill-opacity:1"
         d="m -102.92292,-96.402924 a 0.79374999,0.75604689 0 0 1 -0.79375,0.756047 0.79374999,0.75604689 0 0 1 -0.79375,-0.756047 0.79374999,0.75604689 0 0 1 0.79375,-0.756046 0.79374999,0.75604689 0 0 1 0.79375,0.756046 z"
         id="path3" />
      <path
         style="fill:#2db159;fill-opacity:1"
         d="m -103.7168,-97.556641 c -0.64267,0 -1.1914,0.511561 -1.1914,1.154297 0,0.642737 0.54873,1.152344 1.1914,1.152344 0.64268,0 1.19141,-0.509607 1.19141,-1.152344 0,-0.642736 -0.54873,-1.154297 -1.19141,-1.154297 z m 0,0.794922 c 0.23408,0 0.39649,0.167005 0.39649,0.359375 0,0.19237 -0.16241,0.359375 -0.39649,0.359375 -0.23407,0 -0.39648,-0.167005 -0.39648,-0.359375 0,-0.19237 0.16241,-0.359375 0.39648,-0.359375 z"
         id="path4" />
    </g>
    <g
       id="path73">
      <path
         style="fill:#ffffff;stroke-miterlimit:10"
         d="m 111.05885,103.54138 -6.15156,-6.045729"
         id="path13" />
      <path
         style="fill:#2db159;stroke-miterlimit:10"
         d="m 105.20508,97.193359 -0.59375,0.603516 6.15039,6.046875 0.59375,-0.60352 z"
         id="path14" />
    </g>
    <g
       id="path74">
      <path
         style="fill:#2db159"
         d="m 106.19581,97.577671 -1.88383,-0.587375 0.59531,1.680105 z"
         id="path11" />
      <path
         style="fill:#2db159"
         d="m 104.09961,96.785156 0.74609,2.109375 1.61914,-1.371094 z m 0.42578,0.410156 1.40234,0.435547 -0.96093,0.816407 z"
         id="path12" />
    </g>
  </g>
</svg>
