<svg class="main-svg" xmlns="http://www.w3.org/2000/svg" xmlns:xlink="http://www.w3.org/1999/xlink" width="1012" height="500" style="" viewBox="0 0 1012 500"><rect x="0" y="0" width="1012" height="500" style="fill: rgb(255, 255, 255); fill-opacity: 1;"/><defs id="defs-fa9a23"><g class="clips"><clipPath id="clipfa9a23xyplot" class="plotclip"><rect width="852" height="300"/></clipPath><clipPath class="axesclip" id="clipfa9a23x"><rect x="80" y="0" width="852" height="500"/></clipPath><clipPath class="axesclip" id="clipfa9a23y"><rect x="0" y="120" width="1012" height="300"/></clipPath><clipPath class="axesclip" id="clipfa9a23xy"><rect x="80" y="120" width="852" height="300"/></clipPath></g><g class="gradients"/><g class="patterns"/></defs><g class="bglayer"/><g class="layer-below"><g class="imagelayer"/><g class="shapelayer"/></g><g class="cartesianlayer"><g class="subplot xy"><g class="layer-subplot"><g class="shapelayer"/><g class="imagelayer"/></g><g class="minor-gridlayer"><g class="x"/><g class="y"/></g><g class="gridlayer"><g class="x"><path class="xgrid crisp" transform="translate(109.38,0)" d="M0,120v300" style="stroke: rgb(255, 255, 255); stroke-opacity: 1; stroke-width: 1px;"/><path class="xgrid crisp" transform="translate(197.51999999999998,0)" d="M0,120v300" style="stroke: rgb(255, 255, 255); stroke-opacity: 1; stroke-width: 1px;"/><path class="xgrid crisp" transform="translate(285.65999999999997,0)" d="M0,120v300" style="stroke: rgb(255, 255, 255); stroke-opacity: 1; stroke-width: 1px;"/><path class="xgrid crisp" transform="translate(373.79,0)" d="M0,120v300" style="stroke: rgb(255, 255, 255); stroke-opacity: 1; stroke-width: 1px;"/><path class="xgrid crisp" transform="translate(461.93,0)" d="M0,120v300" style="stroke: rgb(255, 255, 255); stroke-opacity: 1; stroke-width: 1px;"/><path class="xgrid crisp" transform="translate(550.0699999999999,0)" d="M0,120v300" style="stroke: rgb(255, 255, 255); stroke-opacity: 1; stroke-width: 1px;"/><path class="xgrid crisp" transform="translate(638.21,0)" d="M0,120v300" style="stroke: rgb(255, 255, 255); stroke-opacity: 1; stroke-width: 1px;"/><path class="xgrid crisp" transform="translate(726.34,0)" d="M0,120v300" style="stroke: rgb(255, 255, 255); stroke-opacity: 1; stroke-width: 1px;"/><path class="xgrid crisp" transform="translate(814.48,0)" d="M0,120v300" style="stroke: rgb(255, 255, 255); stroke-opacity: 1; stroke-width: 1px;"/><path class="xgrid crisp" transform="translate(902.62,0)" d="M0,120v300" style="stroke: rgb(255, 255, 255); stroke-opacity: 1; stroke-width: 1px;"/></g><g class="y"><path class="ygrid crisp" transform="translate(0,412.17)" d="M80,0h852" style="stroke: rgb(238, 238, 238); stroke-opacity: 1; stroke-width: 1px;"/><path class="ygrid crisp" transform="translate(0,349.39)" d="M80,0h852" style="stroke: rgb(238, 238, 238); stroke-opacity: 1; stroke-width: 1px;"/><path class="ygrid crisp" transform="translate(0,223.82)" d="M80,0h852" style="stroke: rgb(238, 238, 238); stroke-opacity: 1; stroke-width: 1px;"/><path class="ygrid crisp" transform="translate(0,161.04)" d="M80,0h852" style="stroke: rgb(238, 238, 238); stroke-opacity: 1; stroke-width: 1px;"/></g></g><g class="zerolinelayer"><path class="yzl zl crisp" transform="translate(0,286.61)" d="M80,0h852" style="stroke: rgb(255, 255, 255); stroke-opacity: 1; stroke-width: 2px;"/></g><g class="layer-between"><g class="shapelayer"/><g class="imagelayer"/></g><path class="xlines-below"/><path class="ylines-below"/><g class="overlines-below"/><g class="xaxislayer-below"/><g class="yaxislayer-below"/><g class="overaxes-below"/><g class="overplot"><g class="xy" transform="translate(80,120)" clip-path="url(#clipfa9a23xyplot)"><g class="scatterlayer mlayer"><g class="trace scatter trace2c0e25" style="stroke-miterlimit: 2; opacity: 1;"><g class="fills"/><g class="errorbars"/><g class="lines"><path class="js-line" d="M0,157.44L29.38,150.66L58.76,125.25L88.14,126.53L117.52,132.08L146.9,131.42L176.28,131.89L205.66,146.04L235.03,147.24L264.41,139.33L293.79,155.51L323.17,149L352.55,125.4L381.93,99.03L411.31,77.78L440.69,91.41L470.07,83.61L499.45,88.13L528.83,73.66L558.21,54.6L587.59,39.54L616.97,44.09L646.34,26.44L675.72,24.33L705.1,35.07L734.48,20.65L763.86,22.97L793.24,19.06L822.62,19.56L852,15" style="vector-effect: none; fill: none; stroke: rgb(203, 136, 151); stroke-opacity: 1; stroke-width: 2px; opacity: 1;"/></g><g class="points"/><g class="text"/></g><g class="trace scatter trace664806" style="stroke-miterlimit: 2; opacity: 1;"><g class="fills"/><g class="errorbars"/><g class="lines"><path class="js-line" d="M0,161.07L29.38,182.9L58.76,193.45L88.14,194.2L117.52,183.66L146.9,182.84L176.28,180.83L205.66,188.48L235.03,203.81L264.41,204.34L293.79,213.13L323.17,209.17L352.55,231.94L381.93,242.4L411.31,237.62L440.69,243.29L470.07,221.67L499.45,208.04L528.83,207.85L558.21,208.26L587.59,225.38L616.97,236.31L646.34,237.31L675.72,248.11L705.1,275.11L734.48,274.05L763.86,278.78L793.24,285L822.62,279.12L852,283.34" style="vector-effect: none; fill: none; stroke: rgb(148, 173, 224); stroke-opacity: 1; stroke-width: 2px; opacity: 1;"/></g><g class="points"/><g class="text"/></g><g class="trace scatter trace9f6b0a" style="stroke-miterlimit: 2; opacity: 1;"><g class="fills"/><g class="errorbars"/><g class="lines"><path class="js-line" d="M0,163.24L29.38,157.36L58.76,168.97L88.14,169.37L117.52,171.13L146.9,168.35L176.28,167.05L205.66,173.32L235.03,167.6L264.41,187.16L293.79,170.55L352.55,173.95L381.93,172.18L411.31,179.69L440.69,197.32L470.07,210.28L499.45,208.92L528.83,221.08L558.21,207.5L587.59,210.14L616.97,199.94L646.34,228.25L675.72,247.53L705.1,246.3L734.48,227.25L763.86,226.45L793.24,240.95L822.62,241.78L852,267.09" style="vector-effect: none; fill: none; stroke: rgb(243, 186, 112); stroke-opacity: 1; stroke-width: 2px; opacity: 1;"/></g><g class="points"/><g class="text"/></g><g class="trace scatter trace58d0d7" style="stroke-miterlimit: 2; opacity: 1;"><g class="fills"/><g class="errorbars"/><g class="lines"><path class="js-line" d="M0,184.13L29.38,174.19L58.76,154.71L88.14,160.91L117.52,174.97L146.9,177.08L176.28,181.71L205.66,182.19L235.03,184.05L264.41,169.85L293.79,156.85L323.17,146L352.55,159.9L381.93,130.39L411.31,131.05L440.69,142.03L470.07,141.77L499.45,134.84L528.83,154.05L558.21,164.41L587.59,166.42L616.97,190.68L646.34,187.06L675.72,171.62L705.1,176.74L734.48,177.97L763.86,188.01L793.24,205L822.62,229.2L852,239.42" style="vector-effect: none; fill: none; stroke: rgb(232, 97, 193); stroke-opacity: 1; stroke-width: 2px; opacity: 1;"/></g><g class="points"/><g class="text"/></g><g class="trace scatter trace405b7c" style="stroke-miterlimit: 2; opacity: 1;"><g class="fills"/><g class="errorbars"/><g class="lines"><path class="js-line" d="M0,176.12L29.38,174.37L58.76,176.93L88.14,174.37L117.52,188.57L146.9,213.68L176.28,212.47L205.66,213.48L235.03,198.41L264.41,224.33L293.79,207.2L323.17,194.77L352.55,192.66L381.93,161.9L411.31,164.26L440.69,145.8L470.07,153.89L499.45,168.82L528.83,185.09L558.21,168.36L587.59,167.23L616.97,161.08L646.34,158.82L675.72,149.64L705.1,158.26L734.48,150.09L763.86,130.02L822.62,125.31L852,127.42" style="vector-effect: none; fill: none; stroke: rgb(153, 202, 205); stroke-opacity: 1; stroke-width: 2px; opacity: 1;"/></g><g class="points"/><g class="text"/></g></g></g></g><g class="zerolinelayer-above"/><path class="xlines-above crisp" d="M79,420.5H933M79,119.5H933" style="fill: none; stroke-width: 1px; stroke: rgb(204, 204, 204); stroke-opacity: 1;"/><path class="ylines-above crisp" d="M79.5,120V420M932.5,120V420" style="fill: none; stroke-width: 1px; stroke: rgb(204, 204, 204); stroke-opacity: 1;"/><g class="overlines-above"/><g class="xaxislayer-above"><path class="xtick ticks crisp" d="M0,421v5M0,119v-5" transform="translate(109.38,0)" style="stroke: rgb(0, 0, 0); stroke-opacity: 0; stroke-width: 1px;"/><path class="xtick ticks crisp" d="M0,421v5M0,119v-5" transform="translate(197.51999999999998,0)" style="stroke: rgb(0, 0, 0); stroke-opacity: 0; stroke-width: 1px;"/><path class="xtick ticks crisp" d="M0,421v5M0,119v-5" transform="translate(285.65999999999997,0)" style="stroke: rgb(0, 0, 0); stroke-opacity: 0; stroke-width: 1px;"/><path class="xtick ticks crisp" d="M0,421v5M0,119v-5" transform="translate(373.79,0)" style="stroke: rgb(0, 0, 0); stroke-opacity: 0; stroke-width: 1px;"/><path class="xtick ticks crisp" d="M0,421v5M0,119v-5" transform="translate(461.93,0)" style="stroke: rgb(0, 0, 0); stroke-opacity: 0; stroke-width: 1px;"/><path class="xtick ticks crisp" d="M0,421v5M0,119v-5" transform="translate(550.0699999999999,0)" style="stroke: rgb(0, 0, 0); stroke-opacity: 0; stroke-width: 1px;"/><path class="xtick ticks crisp" d="M0,421v5M0,119v-5" transform="translate(638.21,0)" style="stroke: rgb(0, 0, 0); stroke-opacity: 0; stroke-width: 1px;"/><path class="xtick ticks crisp" d="M0,421v5M0,119v-5" transform="translate(726.34,0)" style="stroke: rgb(0, 0, 0); stroke-opacity: 0; stroke-width: 1px;"/><path class="xtick ticks crisp" d="M0,421v5M0,119v-5" transform="translate(814.48,0)" style="stroke: rgb(0, 0, 0); stroke-opacity: 0; stroke-width: 1px;"/><path class="xtick ticks crisp" d="M0,421v5M0,119v-5" transform="translate(902.62,0)" style="stroke: rgb(0, 0, 0); stroke-opacity: 0; stroke-width: 1px;"/><g class="xtick"><text text-anchor="middle" x="0" y="440.4" transform="translate(109.38,0)" style="font-family: 'IBM Plex Sans', sans-serif; font-size: 12px; fill: rgb(119, 119, 119); fill-opacity: 1; white-space: pre;"><tspan class="line" dy="0em" x="0" y="440.4">Sep 26</tspan><tspan class="line" dy="1.3em" x="0" y="440.4">2025</tspan></text></g><g class="xtick"><text text-anchor="middle" x="0" y="440.4" style="font-family: 'IBM Plex Sans', sans-serif; font-size: 12px; fill: rgb(119, 119, 119); fill-opacity: 1; white-space: pre;" transform="translate(197.51999999999998,0)">Sep 29</text></g><g class="xtick"><text text-anchor="middle" x="0" y="440.4" style="font-family: 'IBM Plex Sans', sans-serif; font-size: 12px; fill: rgb(119, 119, 119); fill-opacity: 1; white-space: pre;" transform="translate(285.65999999999997,0)">Oct 2</text></g><g class="xtick"><text text-anchor="middle" x="0" y="440.4" style="font-family: 'IBM Plex Sans', sans-serif; font-size: 12px; fill: rgb(119, 119, 119); fill-opacity: 1; white-space: pre;" transform="translate(373.79,0)">Oct 5</text></g><g class="xtick"><text text-anchor="middle" x="0" y="440.4" style="font-family: 'IBM Plex Sans', sans-serif; font-size: 12px; fill: rgb(119, 119, 119); fill-opacity: 1; white-space: pre;" transform="translate(461.93,0)">Oct 8</text></g><g class="xtick"><text text-anchor="middle" x="0" y="440.4" style="font-family: 'IBM Plex Sans', sans-serif; font-size: 12px; fill: rgb(119, 119, 119); fill-opacity: 1; white-space: pre;" transform="translate(550.0699999999999,0)">Oct 11</text></g><g class="xtick"><text text-anchor="middle" x="0" y="440.4" style="font-family: 'IBM Plex Sans', sans-serif; font-size: 12px; fill: rgb(119, 119, 119); fill-opacity: 1; white-space: pre;" transform="translate(638.21,0)">Oct 14</text></g><g class="xtick"><text text-anchor="middle" x="0" y="440.4" style="font-family: 'IBM Plex Sans', sans-serif; font-size: 12px; fill: rgb(119, 119, 119); fill-opacity: 1; white-space: pre;" transform="translate(726.34,0)">Oct 17</text></g><g class="xtick"><text text-anchor="middle" x="0" y="440.4" style="font-family: 'IBM Plex Sans', sans-serif; font-size: 12px; fill: rgb(119, 119, 119); fill-opacity: 1; white-space: pre;" transform="translate(814.48,0)">Oct 20</text></g><g class="xtick"><text text-anchor="middle" x="0" y="440.4" style="font-family: 'IBM Plex Sans', sans-serif; font-size: 12px; fill: rgb(119, 119, 119); fill-opacity: 1; white-space: pre;" transform="translate(902.62,0)">Oct 23</text></g></g><g class="yaxislayer-above"><path class="ytick ticks crisp" d="M79,0h-5M933,0h5" transform="translate(0,412.17)" style="stroke: rgb(0, 0, 0); stroke-opacity: 0; stroke-width: 1px;"/><path class="ytick ticks crisp" d="M79,0h-5M933,0h5" transform="translate(0,349.39)" style="stroke: rgb(0, 0, 0); stroke-opacity: 0; stroke-width: 1px;"/><path class="ytick ticks crisp" d="M79,0h-5M933,0h5" transform="translate(0,286.61)" style="stroke: rgb(0, 0, 0); stroke-opacity: 0; stroke-width: 1px;"/><path class="ytick ticks crisp" d="M79,0h-5M933,0h5" transform="translate(0,223.82)" style="stroke: rgb(0, 0, 0); stroke-opacity: 0; stroke-width: 1px;"/><path class="ytick ticks crisp" d="M79,0h-5M933,0h5" transform="translate(0,161.04)" style="stroke: rgb(0, 0, 0); stroke-opacity: 0; stroke-width: 1px;"/><g class="ytick"><text text-anchor="end" x="71.6" y="4.199999999999999" transform="translate(0,412.17)" style="font-family: 'IBM Plex Sans', sans-serif; font-size: 12px; fill: rgb(119, 119, 119); fill-opacity: 1; white-space: pre;">−10k</text></g><g class="ytick"><text text-anchor="end" x="71.6" y="4.199999999999999" style="font-family: 'IBM Plex Sans', sans-serif; font-size: 12px; fill: rgb(119, 119, 119); fill-opacity: 1; white-space: pre;" transform="translate(0,349.39)">−5k</text></g><g class="ytick"><text text-anchor="end" x="71.6" y="4.199999999999999" style="font-family: 'IBM Plex Sans', sans-serif; font-size: 12px; fill: rgb(119, 119, 119); fill-opacity: 1; white-space: pre;" transform="translate(0,286.61)">0</text></g><g class="ytick"><text text-anchor="end" x="71.6" y="4.199999999999999" style="font-family: 'IBM Plex Sans', sans-serif; font-size: 12px; fill: rgb(119, 119, 119); fill-opacity: 1; white-space: pre;" transform="translate(0,223.82)">5k</text></g><g class="ytick"><text text-anchor="end" x="71.6" y="4.199999999999999" style="font-family: 'IBM Plex Sans', sans-serif; font-size: 12px; fill: rgb(119, 119, 119); fill-opacity: 1; white-space: pre;" transform="translate(0,161.04)">10k</text></g></g><g class="overaxes-above"/></g></g><g class="polarlayer"/><g class="smithlayer"/><g class="ternarylayer"/><g class="geolayer"/><g class="funnelarealayer"/><g class="pielayer"/><g class="iciclelayer"/><g class="treemaplayer"/><g class="sunburstlayer"/><g class="glimages"/><defs id="topdefs-fa9a23"><g class="clips"/><clipPath id="legendfa9a23"><rect width="391" height="29" x="0" y="0"/></clipPath></defs><g class="layer-above"><g class="imagelayer"/><g class="shapelayer"/></g><g class="infolayer"><g class="legend" pointer-events="all" transform="translate(310.5,82)"><rect class="bg" shape-rendering="crispEdges" style="stroke: rgb(68, 68, 68); stroke-opacity: 1; fill: rgb(255, 255, 255); fill-opacity: 1; stroke-width: 0px;" width="391" height="29" x="0" y="0"/><g class="scrollbox" transform="" clip-path="url(#legendfa9a23)"><g class="groups"><g class="traces" transform="translate(0,14.5)" style="opacity: 1;"><text class="legendtext" text-anchor="start" x="40" y="4.680000000000001" style="font-family: 'IBM Plex Sans', sans-serif; font-size: 12px; fill: rgb(119, 119, 119); fill-opacity: 1; white-space: pre;">Lion</text><g class="layers" style="opacity: 1;"><g class="legendfill"/><g class="legendlines"><path class="js-line" d="M5,0h30" style="fill: none; stroke: rgb(203, 136, 151); stroke-opacity: 1; stroke-width: 2px;"/></g><g class="legendsymbols"><g class="legendpoints"/></g></g><rect class="legendtoggle" x="0" y="-9.5" width="65.0546875" height="19" style="fill: rgb(0, 0, 0); fill-opacity: 0;"/></g><g class="traces" transform="translate(67.5546875,14.5)" style="opacity: 1;"><text class="legendtext" text-anchor="start" x="40" y="4.680000000000001" style="font-family: 'IBM Plex Sans', sans-serif; font-size: 12px; fill: rgb(119, 119, 119); fill-opacity: 1; white-space: pre;">Tiger</text><g class="layers" style="opacity: 1;"><g class="legendfill"/><g class="legendlines"><path class="js-line" d="M5,0h30" style="fill: none; stroke: rgb(148, 173, 224); stroke-opacity: 1; stroke-width: 2px;"/></g><g class="legendsymbols"><g class="legendpoints"/></g></g><rect class="legendtoggle" x="0" y="-9.5" width="69.625" height="19" style="fill: rgb(0, 0, 0); fill-opacity: 0;"/></g><g class="traces" transform="translate(139.6796875,14.5)" style="opacity: 1;"><text class="legendtext" text-anchor="start" x="40" y="4.680000000000001" style="font-family: 'IBM Plex Sans', sans-serif; font-size: 12px; fill: rgb(119, 119, 119); fill-opacity: 1; white-space: pre;">Elephant</text><g class="layers" style="opacity: 1;"><g class="legendfill"/><g class="legendlines"><path class="js-line" d="M5,0h30" style="fill: none; stroke: rgb(243, 186, 112); stroke-opacity: 1; stroke-width: 2px;"/></g><g class="legendsymbols"><g class="legendpoints"/></g></g><rect class="legendtoggle" x="0" y="-9.5" width="90.5625" height="19" style="fill: rgb(0, 0, 0); fill-opacity: 0;"/></g><g class="traces" transform="translate(232.7421875,14.5)" style="opacity: 1;"><text class="legendtext" text-anchor="start" x="40" y="4.680000000000001" style="font-family: 'IBM Plex Sans', sans-serif; font-size: 12px; fill: rgb(119, 119, 119); fill-opacity: 1; white-space: pre;">Giraffe</text><g class="layers" style="opacity: 1;"><g class="legendfill"/><g class="legendlines"><path class="js-line" d="M5,0h30" style="fill: none; stroke: rgb(232, 97, 193); stroke-opacity: 1; stroke-width: 2px;"/></g><g class="legendsymbols"><g class="legendpoints"/></g></g><rect class="legendtoggle" x="0" y="-9.5" width="78.921875" height="19" style="fill: rgb(0, 0, 0); fill-opacity: 0;"/></g><g class="traces" transform="translate(314.1640625,14.5)" style="opacity: 1;"><text class="legendtext" text-anchor="start" x="40" y="4.680000000000001" style="font-family: 'IBM Plex Sans', sans-serif; font-size: 12px; fill: rgb(119, 119, 119); fill-opacity: 1; white-space: pre;">Zebra</text><g class="layers" style="opacity: 1;"><g class="legendfill"/><g class="legendlines"><path class="js-line" d="M5,0h30" style="fill: none; stroke: rgb(153, 202, 205); stroke-opacity: 1; stroke-width: 2px;"/></g><g class="legendsymbols"><g class="legendpoints"/></g></g><rect class="legendtoggle" x="0" y="-9.5" width="73.71875" height="19" style="fill: rgb(0, 0, 0); fill-opacity: 0;"/></g></g></g><rect class="scrollbar" rx="20" ry="3" width="0" height="0" style="fill: rgb(128, 139, 164); fill-opacity: 1;" x="0" y="0"/></g><g class="g-gtitle"><text class="gtitle" x="506" y="40" text-anchor="middle" dy="0.7em" style="opacity: 1; font-family: 'IBM Plex Sans', sans-serif; font-size: 17px; fill: rgb(68, 68, 68); fill-opacity: 1; font-weight: 600; white-space: pre;">Line chart</text></g><g class="g-xtitle"/><g class="g-ytitle"/></g></svg>