<?xml version="1.0" encoding="UTF-8"?>
<svg xmlns="http://www.w3.org/2000/svg" viewBox="-206.726 -206.326 382.558 366.111" width="800" height="400">>
<defs>
<style>
.node-0{fill:#ced2cd;stroke:#000000;stroke-width:2.500px;opacity:1.0;}
.node-1{fill:#ced2cd;stroke:#000000;stroke-width:2.500px;opacity:1.0;}
.node-2{fill:#ced2cd;stroke:#000000;stroke-width:2.500px;opacity:1.0;}
.node-3{fill:#ced2cd;stroke:#000000;stroke-width:2.500px;opacity:1.0;}
.node-4{fill:#ced2cd;stroke:#000000;stroke-width:2.500px;opacity:1.0;}
.node-5{fill:#ced2cd;stroke:#000000;stroke-width:2.500px;opacity:1.0;}
.node-6{fill:#ced2cd;stroke:#000000;stroke-width:2.500px;opacity:1.0;}
.node-7{fill:#ced2cd;stroke:#000000;stroke-width:2.500px;opacity:1.0;}
.node-8{fill:#ced2cd;stroke:#000000;stroke-width:2.500px;opacity:1.0;}
.node-9{fill:#ced2cd;stroke:#000000;stroke-width:2.500px;opacity:1.0;}
.node-10{fill:#ced2cd;stroke:#000000;stroke-width:2.500px;opacity:1.0;}
.node-11{fill:#ced2cd;stroke:#000000;stroke-width:2.500px;opacity:1.0;}
.node-12{fill:#ced2cd;stroke:#000000;stroke-width:2.500px;opacity:1.0;}
.node-13{fill:#ced2cd;stroke:#000000;stroke-width:2.500px;opacity:1.0;}
.node-14{fill:#ced2cd;stroke:#000000;stroke-width:2.500px;opacity:1.0;}
.node-15{fill:#ced2cd;stroke:#000000;stroke-width:2.500px;opacity:1.0;}
.node-16{fill:#ced2cd;stroke:#000000;stroke-width:2.500px;opacity:1.0;}
.node-17{fill:#ced2cd;stroke:#000000;stroke-width:2.500px;opacity:1.0;}
.node-18{fill:#ced2cd;stroke:#000000;stroke-width:2.500px;opacity:1.0;}
.node-19{fill:#ced2cd;stroke:#000000;stroke-width:2.500px;opacity:1.0;}
.node-20{fill:#ced2cd;stroke:#000000;stroke-width:2.500px;opacity:1.0;}
.node-21{fill:#ced2cd;stroke:#000000;stroke-width:2.500px;opacity:1.0;}
.node-22{fill:#ced2cd;stroke:#000000;stroke-width:2.500px;opacity:1.0;}
.node-23{fill:#ced2cd;stroke:#000000;stroke-width:2.500px;opacity:1.0;}
.node-24{fill:#ced2cd;stroke:#000000;stroke-width:2.500px;opacity:1.0;}
.node-25{fill:#ced2cd;stroke:#000000;stroke-width:2.500px;opacity:1.0;}
.node-26{fill:#ced2cd;stroke:#000000;stroke-width:2.500px;opacity:1.0;}
.node-27{fill:#ced2cd;stroke:#000000;stroke-width:2.500px;opacity:1.0;}
.node-28{fill:#ced2cd;stroke:#000000;stroke-width:2.500px;opacity:1.0;}
.node-29{fill:#ced2cd;stroke:#000000;stroke-width:2.500px;opacity:1.0;}
.node-30{fill:#ced2cd;stroke:#000000;stroke-width:2.500px;opacity:1.0;}
</style>

</defs>
<polygon class="node-0" points="92.955,-173.049 93.178,-176.600 93.845,-180.095 94.945,-183.479 96.460,-186.699 98.366,-189.703 100.634,-192.444 103.228,-194.880 106.107,-196.971 109.225,-198.686 112.533,-199.995 115.979,-200.880 119.509,-201.326 123.067,-201.326 126.598,-200.880 130.044,-199.995 133.352,-198.686 136.470,-196.971 139.349,-194.880 141.942,-192.444 144.211,-189.703 146.117,-186.699 147.632,-183.479 148.732,-180.095 149.398,-176.600 149.622,-173.049 149.398,-169.498 148.732,-166.003 147.632,-162.619 146.117,-159.399 144.211,-156.395 141.942,-153.653 139.349,-151.218 136.470,-149.126 133.352,-147.412 130.044,-146.102 126.598,-145.217 123.067,-144.771 119.509,-144.771 115.979,-145.217 112.533,-146.102 109.225,-147.412 106.107,-149.126 103.228,-151.218 100.634,-153.653 98.366,-156.395 96.460,-159.399 94.945,-162.619 93.845,-166.003 93.178,-169.498"/>
<polygon class="node-1" points="66.589,-138.970 66.761,-140.784 67.413,-142.248 68.502,-143.269 70.063,-144.568 90.634,-161.167 94.342,-164.157 97.962,-167.070 99.259,-167.828 100.879,-168.057 102.720,-167.744 104.667,-166.908 106.598,-165.602 108.390,-163.908 109.932,-161.933 111.127,-159.800 111.899,-157.643 112.200,-155.599 112.011,-153.795 111.344,-152.345 110.241,-151.339 105.373,-147.394 93.803,-138.026 89.996,-134.955 80.861,-127.597 79.577,-126.823 77.966,-126.576 76.130,-126.871 74.185,-127.690 72.252,-128.981 70.453,-130.664 68.901,-132.632 67.693,-134.762 66.906,-136.920"/>
<polygon class="node-2" points="120.165,-39.880 120.365,-43.055 120.961,-46.180 121.944,-49.206 123.298,-52.085 125.003,-54.771 127.031,-57.222 129.350,-59.400 131.924,-61.270 134.712,-62.802 137.670,-63.974 140.751,-64.765 143.907,-65.164 147.089,-65.164 150.245,-64.765 153.327,-63.974 156.285,-62.802 159.072,-61.270 161.646,-59.400 163.965,-57.222 165.993,-54.771 167.698,-52.085 169.052,-49.206 170.036,-46.180 170.632,-43.055 170.831,-39.880 170.831,-39.880 170.632,-36.705 170.036,-33.580 169.052,-30.554 167.698,-27.676 165.993,-24.990 163.965,-22.538 161.646,-20.361 159.072,-18.491 156.285,-16.958 153.327,-15.787 150.245,-14.996 147.089,-14.597 143.907,-14.597 140.751,-14.996 137.670,-15.787 134.712,-16.958 131.924,-18.491 129.350,-20.361 127.031,-22.538 125.003,-24.990 123.298,-27.676 121.944,-30.554 120.961,-33.580 120.365,-36.705"/>
<polygon class="node-3" points="46.050,-135.208 46.274,-138.759 46.941,-142.254 48.040,-145.638 49.555,-148.857 51.462,-151.862 53.730,-154.603 56.323,-157.039 59.202,-159.130 62.320,-160.845 65.628,-162.154 69.075,-163.039 72.605,-163.485 76.163,-163.485 79.693,-163.039 83.139,-162.154 86.448,-160.845 89.566,-159.130 92.444,-157.039 95.038,-154.603 97.306,-151.862 99.213,-148.857 100.727,-145.638 101.827,-142.254 102.494,-138.759 102.717,-135.208 102.494,-131.657 101.827,-128.162 100.727,-124.778 99.213,-121.558 97.306,-118.554 95.038,-115.812 92.444,-113.377 89.566,-111.285 86.448,-109.571 83.139,-108.261 79.693,-107.376 76.163,-106.930 72.605,-106.930 69.075,-107.376 65.628,-108.261 62.320,-109.571 59.202,-111.285 56.323,-113.377 53.730,-115.812 51.462,-118.554 49.555,-121.558 48.040,-124.778 46.941,-128.162 46.274,-131.657"/>
<polygon class="node-4" points="83.220,-63.300 83.425,-65.120 83.970,-67.216 84.823,-69.456 85.928,-71.701 87.217,-73.808 88.608,-75.645 90.015,-77.097 91.349,-78.073 92.525,-78.511 93.471,-78.384 95.742,-77.196 116.116,-66.537 127.527,-60.566 130.014,-59.219 130.546,-58.331 130.736,-56.953 130.572,-55.174 130.065,-53.103 129.246,-50.872 128.167,-48.621 126.896,-46.491 125.512,-44.616 124.102,-43.114 122.756,-42.078 121.557,-41.575 120.581,-41.636 109.181,-47.595 104.630,-49.975 100.081,-52.354 90.894,-57.169 88.921,-58.208 83.863,-60.921 83.369,-61.870"/>
<polygon class="node-5" points="12.392,-160.530 12.613,-162.065 13.168,-163.945 14.021,-166.051 15.119,-168.252 16.392,-170.408 17.761,-172.384 19.139,-174.057 20.441,-175.321 21.583,-176.096 22.495,-176.334 23.120,-176.021 25.188,-174.904 31.912,-171.056 47.739,-161.992 56.808,-156.796 57.229,-156.142 57.309,-154.985 57.042,-153.398 56.446,-151.482 55.557,-149.355 54.432,-147.153 53.142,-145.013 51.767,-143.069 50.394,-141.445 49.108,-140.241 47.992,-139.534 47.115,-139.368 44.465,-140.830 39.991,-143.384 33.238,-147.250 17.467,-156.281 12.981,-158.851 12.517,-159.436"/>
<polygon class="node-6" points="70.435,-106.676 70.499,-107.393 71.170,-108.206 72.407,-109.065 74.131,-109.916 76.236,-110.704 78.587,-111.381 81.038,-111.904 83.434,-112.241 85.625,-112.369 87.474,-112.281 88.863,-111.983 89.707,-111.493 89.951,-110.842 91.077,-105.888 98.600,-71.726 98.496,-71.001 97.785,-70.183 96.514,-69.323 94.760,-68.476 92.635,-67.693 90.273,-67.025 87.821,-66.513 85.433,-66.190 83.261,-66.076 81.439,-66.178 80.084,-66.490 79.279,-66.992 79.075,-67.652 78.506,-69.990 73.289,-93.688 72.731,-96.221 71.008,-104.066"/>
<polygon class="node-7" points="-7.919,-167.549 -7.716,-170.786 -7.108,-173.973 -6.105,-177.058 -4.724,-179.994 -2.986,-182.733 -0.918,-185.233 1.447,-187.454 4.072,-189.360 6.915,-190.923 9.931,-192.118 13.073,-192.924 16.292,-193.331 19.536,-193.331 22.755,-192.924 25.897,-192.118 28.913,-190.923 31.756,-189.360 34.381,-187.454 36.746,-185.233 38.813,-182.733 40.552,-179.994 41.933,-177.058 42.936,-173.973 43.544,-170.786 43.747,-167.549 43.544,-164.311 42.936,-161.124 41.933,-158.039 40.552,-155.103 38.813,-152.364 36.746,-149.864 34.381,-147.644 31.756,-145.737 28.913,-144.174 25.897,-142.980 22.755,-142.173 19.536,-141.766 16.292,-141.766 13.073,-142.173 9.931,-142.980 6.915,-144.174 4.072,-145.737 1.447,-147.644 -0.918,-149.864 -2.986,-152.364 -4.724,-155.103 -6.105,-158.039 -7.108,-161.124 -7.716,-164.311"/>
<polygon class="node-8" points="60.517,-69.515 60.740,-73.066 61.407,-76.561 62.507,-79.945 64.022,-83.165 65.928,-86.169 68.196,-88.911 70.790,-91.346 73.669,-93.438 76.787,-95.152 80.095,-96.462 83.541,-97.347 87.071,-97.793 90.629,-97.793 94.159,-97.347 97.606,-96.462 100.914,-95.152 104.032,-93.438 106.911,-91.346 109.504,-88.911 111.772,-86.169 113.679,-83.165 115.194,-79.945 116.293,-76.561 116.960,-73.066 117.184,-69.515 116.960,-65.964 116.293,-62.469 115.194,-59.085 113.679,-55.865 111.772,-52.861 109.504,-50.120 106.911,-47.684 104.032,-45.593 100.914,-43.878 97.606,-42.569 94.159,-41.684 90.629,-41.238 87.071,-41.238 83.541,-41.684 80.095,-42.569 76.787,-43.878 73.669,-45.593 70.790,-47.684 68.196,-50.120 65.928,-52.861 64.022,-55.865 62.507,-59.085 61.407,-62.469 60.740,-65.964"/>
<polygon class="node-9" points="-33.254,-135.862 -33.196,-137.667 -32.662,-139.131 -31.685,-140.160 -25.027,-145.579 -21.397,-148.524 -14.593,-154.045 -9.102,-158.493 -5.531,-161.379 -4.371,-162.307 -3.197,-163.096 -1.682,-163.367 0.080,-163.100 1.977,-162.315 3.891,-161.059 5.702,-159.411 7.295,-157.476 8.570,-155.375 9.448,-153.239 9.873,-151.203 9.819,-149.396 9.288,-147.929 8.315,-146.897 -3.657,-137.166 -17.528,-125.910 -19.016,-124.736 -20.193,-123.950 -21.710,-123.684 -23.473,-123.954 -25.371,-124.743 -27.285,-126.003 -29.094,-127.653 -30.685,-129.590 -31.958,-131.692 -32.833,-133.827"/>
<polygon class="node-10" points="37.245,-38.871 37.424,-40.726 38.081,-42.234 39.176,-43.301 40.663,-44.487 47.680,-49.981 58.060,-58.106 65.351,-63.808 66.787,-64.412 68.508,-64.475 70.407,-63.992 72.363,-62.995 74.254,-61.545 75.961,-59.734 77.377,-57.676 78.413,-55.499 79.004,-53.341 79.113,-51.337 78.732,-49.614 77.886,-48.279 75.988,-46.762 67.011,-39.716 65.249,-38.336 63.557,-37.013 56.227,-31.287 51.511,-27.608 50.222,-26.788 48.607,-26.498 46.768,-26.756 44.821,-27.545 42.888,-28.817 41.091,-30.491 39.542,-32.461 38.338,-34.605 37.556,-36.788"/>
<polygon class="node-11" points="-53.954,-132.220 -53.731,-135.771 -53.064,-139.266 -51.965,-142.650 -50.450,-145.870 -48.543,-148.874 -46.275,-151.615 -43.681,-154.051 -40.803,-156.143 -37.685,-157.857 -34.376,-159.167 -30.930,-160.051 -27.400,-160.497 -23.842,-160.497 -20.312,-160.051 -16.865,-159.167 -13.557,-157.857 -10.439,-156.143 -7.561,-154.051 -4.967,-151.615 -2.699,-148.874 -0.792,-145.870 0.723,-142.650 1.822,-139.266 2.489,-135.771 2.712,-132.220 2.489,-128.669 1.822,-125.174 0.723,-121.790 -0.792,-118.570 -2.699,-115.566 -4.967,-112.824 -7.561,-110.389 -10.439,-108.297 -13.557,-106.583 -16.865,-105.273 -20.312,-104.389 -23.842,-103.943 -27.400,-103.943 -30.930,-104.389 -34.376,-105.273 -37.685,-106.583 -40.803,-108.297 -43.681,-110.389 -46.275,-112.824 -48.543,-115.566 -50.450,-118.570 -51.965,-121.790 -53.064,-125.174 -53.731,-128.669"/>
<polygon class="node-12" points="16.711,-35.217 16.935,-38.769 17.601,-42.264 18.701,-45.648 20.216,-48.867 22.122,-51.871 24.390,-54.613 26.984,-57.049 29.863,-59.140 32.981,-60.854 36.289,-62.164 39.735,-63.049 43.265,-63.495 46.824,-63.495 50.354,-63.049 53.800,-62.164 57.108,-60.854 60.226,-59.140 63.105,-57.049 65.699,-54.613 67.967,-51.871 69.873,-48.867 71.388,-45.648 72.488,-42.264 73.154,-38.769 73.378,-35.217 73.378,-35.217 73.154,-31.666 72.488,-28.171 71.388,-24.787 69.873,-21.568 67.967,-18.564 65.699,-15.822 63.105,-13.386 60.226,-11.295 57.108,-9.581 53.800,-8.271 50.354,-7.386 46.824,-6.940 43.265,-6.940 39.735,-7.386 36.289,-8.271 32.981,-9.581 29.863,-11.295 26.984,-13.386 24.390,-15.822 22.122,-18.564 20.216,-21.568 18.701,-24.787 17.601,-28.171 16.935,-31.666"/>
<polygon class="node-13" points="-31.310,-104.929 -30.892,-105.803 -29.880,-106.702 -28.337,-107.569 -26.361,-108.351 -24.074,-108.997 -21.622,-109.469 -19.158,-109.734 -16.837,-109.778 -14.804,-109.598 -13.188,-109.203 -12.090,-108.621 -11.580,-107.886 -9.466,-94.781 -6.113,-73.955 -5.694,-71.349 -5.294,-68.334 -5.796,-67.453 -6.885,-66.555 -8.493,-65.696 -10.520,-64.930 -12.838,-64.305 -15.301,-63.861 -17.754,-63.625 -20.045,-63.612 -22.027,-63.823 -23.578,-64.244 -24.599,-64.850 -25.026,-65.602 -30.479,-99.506"/>
<polygon class="node-14" points="-20.348,-59.860 -20.149,-61.355 -19.637,-63.216 -18.843,-65.327 -17.816,-67.553 -16.623,-69.755 -15.336,-71.796 -14.038,-73.546 -12.810,-74.896 -11.729,-75.761 -10.863,-76.087 -10.267,-75.852 -7.895,-74.612 -5.785,-73.506 1.510,-69.648 8.852,-65.751 16.082,-61.912 23.337,-58.055 25.875,-56.648 26.147,-55.840 26.093,-54.539 25.718,-52.827 25.044,-50.812 24.114,-48.621 22.986,-46.390 21.731,-44.261 20.428,-42.367 19.159,-40.826 18.004,-39.737 17.034,-39.166 16.312,-39.151 11.442,-41.736 -5.384,-50.669 -19.773,-58.313 -20.219,-58.824"/>
<polygon class="node-15" points="40.344,-8.652 40.899,-9.563 42.033,-10.505 43.675,-11.420 45.722,-12.250 48.045,-12.943 50.498,-13.455 52.928,-13.755 55.180,-13.823 57.115,-13.655 58.610,-13.262 59.571,-12.668 59.938,-11.911 62.175,-0.866 68.366,29.831 68.958,32.824 68.687,33.700 67.817,34.635 66.400,35.570 64.528,36.446 62.316,37.209 59.905,37.811 57.445,38.213 55.092,38.390 52.992,38.332 51.279,38.042 50.059,37.538 49.409,36.852 48.217,31.079 46.510,22.619 44.261,11.473 41.995,0.227 40.403,-7.831"/>
<polygon class="node-16" points="-43.484,-67.176 -43.261,-70.727 -42.594,-74.222 -41.494,-77.606 -39.979,-80.826 -38.073,-83.830 -35.805,-86.571 -33.211,-89.007 -30.332,-91.099 -27.214,-92.813 -23.906,-94.123 -20.460,-95.007 -16.930,-95.453 -13.372,-95.453 -9.842,-95.007 -6.395,-94.123 -3.087,-92.813 0.031,-91.099 2.910,-89.007 5.503,-86.571 7.772,-83.830 9.678,-80.826 11.193,-77.606 12.293,-74.222 12.959,-70.727 13.183,-67.176 12.959,-63.625 12.293,-60.130 11.193,-56.746 9.678,-53.526 7.772,-50.522 5.503,-47.780 2.910,-45.345 0.031,-43.253 -3.087,-41.539 -6.395,-40.229 -9.842,-39.345 -13.372,-38.899 -16.930,-38.899 -20.460,-39.345 -23.906,-40.229 -27.214,-41.539 -30.332,-43.253 -33.211,-45.345 -35.805,-47.780 -38.073,-50.522 -39.979,-53.526 -41.494,-56.746 -42.594,-60.130 -43.261,-63.625"/>
<polygon class="node-17" points="30.802,34.639 31.025,31.088 31.692,27.593 32.791,24.209 34.306,20.989 36.213,17.985 38.481,15.243 41.075,12.808 43.953,10.716 47.071,9.002 50.380,7.692 53.826,6.807 57.356,6.361 60.914,6.361 64.444,6.807 67.891,7.692 71.199,9.002 74.317,10.716 77.195,12.808 79.789,15.243 82.057,17.985 83.964,20.989 85.479,24.209 86.578,27.593 87.245,31.088 87.468,34.639 87.468,34.639 87.245,38.190 86.578,41.685 85.479,45.069 83.964,48.289 82.057,51.293 79.789,54.034 77.195,56.470 74.317,58.562 71.199,60.276 67.891,61.586 64.444,62.470 60.914,62.916 57.356,62.916 53.826,62.470 50.380,61.586 47.071,60.276 43.953,58.562 41.075,56.470 38.481,54.034 36.213,51.293 34.306,48.289 32.791,45.069 31.692,41.685 31.025,38.190"/>
<polygon class="node-18" points="-117.639,23.030 -117.440,19.855 -116.843,16.730 -115.860,13.705 -114.506,10.826 -112.801,8.140 -110.773,5.689 -108.454,3.511 -105.880,1.641 -103.092,0.108 -100.134,-1.063 -97.053,-1.854 -93.897,-2.253 -90.715,-2.253 -87.559,-1.854 -84.478,-1.063 -81.520,0.108 -78.732,1.641 -76.158,3.511 -73.839,5.689 -71.811,8.140 -70.106,10.826 -68.752,13.705 -67.769,16.730 -67.172,19.855 -66.973,23.030 -66.973,23.030 -67.172,26.206 -67.769,29.331 -68.752,32.356 -70.106,35.235 -71.811,37.921 -73.839,40.372 -76.158,42.550 -78.732,44.420 -81.520,45.953 -84.478,47.124 -87.559,47.915 -90.715,48.314 -93.897,48.314 -97.053,47.915 -100.134,47.124 -103.092,45.953 -105.880,44.420 -108.454,42.550 -110.773,40.372 -112.801,37.921 -114.506,35.235 -115.860,32.356 -116.843,29.331 -117.440,26.206"/>
<polygon class="node-19" points="-181.381,129.502 -181.181,126.327 -180.585,123.202 -179.602,120.176 -178.247,117.297 -176.542,114.611 -174.514,112.160 -172.195,109.982 -169.622,108.112 -166.834,106.580 -163.876,105.408 -160.794,104.617 -157.638,104.219 -154.457,104.219 -151.300,104.617 -148.219,105.408 -145.261,106.580 -142.473,108.112 -139.899,109.982 -137.580,112.160 -135.552,114.611 -133.847,117.297 -132.493,120.176 -131.510,123.202 -130.914,126.327 -130.714,129.502 -130.914,132.677 -131.510,135.802 -132.493,138.828 -133.847,141.706 -135.552,144.392 -137.580,146.844 -139.899,149.022 -142.473,150.891 -145.261,152.424 -148.219,153.595 -151.300,154.386 -154.457,154.785 -157.638,154.785 -160.794,154.386 -163.876,153.595 -166.834,152.424 -169.622,150.891 -172.195,149.022 -174.514,146.844 -176.542,144.392 -178.247,141.706 -179.602,138.828 -180.585,135.802 -181.181,132.677"/>
<polygon class="node-20" points="-75.397,-38.405 -75.083,-40.142 -74.343,-41.470 -73.223,-42.306 -71.332,-43.532 -67.178,-46.160 -58.656,-51.538 -45.874,-59.604 -41.973,-62.056 -39.960,-63.307 -38.716,-63.946 -37.192,-64.028 -35.486,-63.550 -33.704,-62.541 -31.958,-61.064 -30.359,-59.212 -29.005,-57.103 -27.983,-54.867 -27.357,-52.646 -27.166,-50.580 -27.422,-48.797 -28.109,-47.411 -29.183,-46.507 -41.573,-38.676 -45.837,-35.984 -58.853,-27.771 -62.753,-25.314 -64.039,-24.746 -65.592,-24.737 -67.314,-25.287 -69.098,-26.361 -70.830,-27.892 -72.404,-29.784 -73.718,-31.918 -74.692,-34.159 -75.263,-36.368"/>
<polygon class="node-21" points="-93.039,0.069 -92.903,-1.182 -82.320,-26.155 -79.461,-32.895 -77.415,-37.709 -76.567,-38.655 -75.199,-39.285 -73.397,-39.560 -71.273,-39.463 -68.963,-38.999 -66.610,-38.198 -64.362,-37.111 -62.362,-35.805 -60.734,-34.363 -59.580,-32.874 -58.974,-31.434 -58.954,-30.131 -59.926,-27.817 -66.723,-11.713 -70.535,-2.735 -73.368,3.886 -74.705,6.985 -75.698,7.852 -77.191,8.391 -79.090,8.568 -81.277,8.372 -83.613,7.816 -85.953,6.933 -88.148,5.780 -90.061,4.430 -91.572,2.966 -92.586,1.481"/>
<polygon class="node-22" points="-135.102,76.081 -134.742,74.582 -125.067,58.364 -115.720,42.717 -111.972,36.581 -111.188,35.305 -109.895,34.392 -108.175,33.898 -106.135,33.854 -103.903,34.264 -101.619,35.101 -99.428,36.314 -97.467,37.825 -95.859,39.540 -94.705,41.351 -94.077,43.145 -94.016,44.808 -94.524,46.236 -95.849,48.453 -110.599,73.131 -116.158,82.430 -117.633,84.863 -118.798,85.878 -120.416,86.487 -122.384,86.650 -124.579,86.358 -126.863,85.628 -129.092,84.508 -131.126,83.067 -132.838,81.395 -134.119,79.598 -134.890,77.789"/>
<polygon class="node-23" points="-155.565,109.925 -155.042,108.388 -152.631,104.369 -144.169,90.262 -134.452,74.075 -133.297,72.923 -131.683,72.179 -129.711,71.889 -127.506,72.070 -125.206,72.712 -122.955,73.775 -120.895,75.191 -119.155,76.872 -117.845,78.711 -117.047,80.595 -116.811,82.403 -117.152,84.022 -118.445,86.226 -119.947,88.750 -124.679,96.649 -128.290,102.669 -136.772,116.797 -138.286,119.206 -139.597,120.234 -141.338,120.836 -143.399,120.976 -145.650,120.645 -147.950,119.862 -150.155,118.678 -152.125,117.166 -153.738,115.423 -154.892,113.556 -155.513,111.684"/>
<polygon class="node-24" points="-96.623,-33.634 -96.400,-37.185 -95.733,-40.680 -94.634,-44.064 -93.119,-47.283 -91.212,-50.288 -88.944,-53.029 -86.350,-55.465 -83.472,-57.556 -80.354,-59.270 -77.045,-60.580 -73.599,-61.465 -70.069,-61.911 -66.511,-61.911 -62.981,-61.465 -59.534,-60.580 -56.226,-59.270 -53.108,-57.556 -50.230,-55.465 -47.636,-53.029 -45.368,-50.288 -43.461,-47.283 -41.946,-44.064 -40.847,-40.680 -40.180,-37.185 -39.957,-33.634 -39.957,-33.634 -40.180,-30.083 -40.847,-26.587 -41.946,-23.203 -43.461,-19.984 -45.368,-16.980 -47.636,-14.238 -50.230,-11.802 -53.108,-9.711 -56.226,-7.997 -59.534,-6.687 -62.981,-5.802 -66.511,-5.356 -70.069,-5.356 -73.599,-5.802 -77.045,-6.687 -80.354,-7.997 -83.472,-9.711 -86.350,-11.802 -88.944,-14.238 -91.212,-16.980 -93.119,-19.984 -94.634,-23.203 -95.733,-26.587 -96.400,-30.083"/>
<polygon class="node-25" points="-155.993,79.402 -155.756,75.642 -155.050,71.941 -153.886,68.358 -152.282,64.949 -150.263,61.768 -147.862,58.865 -145.115,56.286 -142.067,54.072 -138.766,52.257 -135.263,50.870 -131.614,49.933 -127.876,49.461 -124.109,49.461 -120.371,49.933 -116.722,50.870 -113.219,52.257 -109.918,54.072 -106.870,56.286 -104.124,58.865 -101.722,61.768 -99.703,64.949 -98.099,68.358 -96.935,71.941 -96.229,75.642 -95.993,79.402 -95.993,79.402 -96.229,83.162 -96.935,86.862 -98.099,90.446 -99.703,93.854 -101.722,97.035 -104.124,99.938 -106.870,102.517 -109.918,104.732 -113.219,106.547 -116.722,107.933 -120.371,108.870 -124.109,109.343 -127.876,109.343 -131.614,108.870 -135.263,107.933 -138.766,106.547 -142.067,104.732 -145.115,102.517 -147.862,99.938 -150.263,97.035 -152.282,93.854 -153.886,90.446 -155.050,86.862 -155.756,83.162"/>
<polygon class="node-26" points="-104.677,97.589 -104.569,96.475 -104.270,95.301 -103.799,94.141 -103.187,93.068 -102.470,92.148 -101.695,91.440 -100.910,90.989 -100.165,90.822 -99.505,90.951 -71.110,103.448 -68.801,104.467 -66.502,105.486 -63.771,106.701 -63.290,107.207 -62.979,107.962 -62.857,108.918 -62.933,110.014 -63.201,111.183 -63.644,112.351 -64.236,113.444 -64.938,114.393 -65.707,115.140 -66.493,115.636 -67.249,115.851 -67.925,115.772 -79.812,110.543 -101.089,101.175 -103.252,100.189 -103.852,99.915 -104.307,99.365 -104.588,98.573"/>
<polygon class="node-27" points="-183.858,44.699 -183.785,42.866 -183.247,40.819 -182.279,38.686 -180.941,36.602 -179.317,34.698 -177.509,33.093 -175.631,31.888 -173.801,31.159 -172.134,30.952 -170.735,31.279 -167.882,33.479 -166.153,34.816 -160.131,39.589 -141.763,54.159 -139.494,56.030 -138.849,57.311 -138.662,58.976 -138.946,60.920 -139.683,63.022 -140.826,65.150 -142.304,67.169 -144.024,68.952 -145.878,70.389 -147.749,71.388 -149.519,71.886 -151.078,71.853 -152.328,71.291 -160.446,64.858 -182.622,47.284 -183.462,46.203"/>
<polygon class="node-28" points="-106.819,80.277 -106.075,79.432 -105.290,78.816 -101.503,79.449 -100.874,79.655 -93.851,82.735 -91.615,83.716 -86.815,85.828 -67.851,94.175 -65.253,95.351 -64.783,95.878 -64.486,96.649 -64.379,97.618 -64.470,98.723 -64.752,99.895 -65.208,101.059 -65.810,102.143 -66.518,103.079 -67.290,103.808 -68.076,104.284 -68.827,104.477 -69.496,104.375 -74.300,102.261 -102.700,89.762 -104.947,88.766 -105.512,88.416 -105.923,87.797 -106.154,86.949"/>
<polygon class="node-29" points="-92.091,105.472 -91.891,102.297 -91.295,99.172 -90.312,96.147 -88.957,93.268 -87.253,90.582 -85.225,88.131 -82.906,85.953 -80.332,84.083 -77.544,82.550 -74.586,81.379 -71.505,80.588 -68.348,80.189 -65.167,80.189 -62.011,80.588 -58.929,81.379 -55.971,82.550 -53.183,84.083 -50.610,85.953 -48.290,88.131 -46.263,90.582 -44.558,93.268 -43.203,96.147 -42.220,99.172 -41.624,102.297 -41.424,105.472 -41.624,108.647 -42.220,111.773 -43.203,114.798 -44.558,117.677 -46.263,120.363 -48.290,122.814 -50.610,124.992 -53.183,126.862 -55.971,128.395 -58.929,129.566 -62.011,130.357 -65.167,130.756 -68.348,130.756 -71.505,130.357 -74.586,129.566 -77.544,128.395 -80.332,126.862 -82.906,124.992 -85.225,122.814 -87.253,120.363 -88.957,117.677 -90.312,114.798 -91.295,111.773 -91.891,108.647"/>
<polygon class="node-30" points="-201.726,39.461 -201.526,36.286 -200.930,33.161 -199.947,30.135 -198.593,27.256 -196.888,24.570 -194.860,22.119 -192.541,19.941 -189.967,18.071 -187.179,16.538 -184.221,15.367 -181.140,14.576 -177.983,14.177 -174.802,14.177 -171.646,14.576 -168.564,15.367 -165.606,16.538 -162.819,18.071 -160.245,19.941 -157.926,22.119 -155.898,24.570 -154.193,27.256 -152.838,30.135 -151.855,33.161 -151.259,36.286 -151.059,39.461 -151.059,39.461 -151.259,42.636 -151.855,45.761 -152.838,48.787 -154.193,51.665 -155.898,54.351 -157.926,56.803 -160.245,58.980 -162.819,60.850 -165.606,62.383 -168.564,63.554 -171.646,64.345 -174.802,64.744 -177.983,64.744 -181.140,64.345 -184.221,63.554 -187.179,62.383 -189.967,60.850 -192.541,58.980 -194.860,56.803 -196.888,54.351 -198.593,51.665 -199.947,48.787 -200.930,45.761 -201.526,42.636"/>
</svg>