<?xml version="1.0" encoding="UTF-8"?>
<svg xmlns="http://www.w3.org/2000/svg" viewBox="-259.752 -229.862 439.506 471.678" width="400" height="300">>
<defs>
<style>
.node-0{fill:#dcdcc8;stroke:#000000;stroke-width:2.500px;opacity:1.0;}
.node-1{fill:#dcdcc8;stroke:#000000;stroke-width:2.500px;opacity:1.0;}
.node-2{fill:#dcdcc8;stroke:#000000;stroke-width:2.500px;opacity:1.0;}
.node-3{fill:#dcdcc8;stroke:#000000;stroke-width:2.500px;opacity:1.0;}
.node-4{fill:#dcdcc8;stroke:#000000;stroke-width:2.500px;opacity:1.0;}
.node-5{fill:#dcdcc8;stroke:#000000;stroke-width:2.500px;opacity:1.0;}
.node-6{fill:#dcdcc8;stroke:#000000;stroke-width:2.500px;opacity:1.0;}
.node-7{fill:#dcdcc8;stroke:#000000;stroke-width:2.500px;opacity:1.0;}
.node-8{fill:#dcdcc8;stroke:#000000;stroke-width:2.500px;opacity:1.0;}
.node-9{fill:#dcdcc8;stroke:#000000;stroke-width:2.500px;opacity:1.0;}
.node-10{fill:#dcdcc8;stroke:#000000;stroke-width:2.500px;opacity:1.0;}
.node-11{fill:#dcdcc8;stroke:#000000;stroke-width:2.500px;opacity:1.0;}
.node-12{fill:#dcdcc8;stroke:#000000;stroke-width:2.500px;opacity:1.0;}
.node-13{fill:#dcdcc8;stroke:#000000;stroke-width:2.500px;opacity:1.0;}
.node-14{fill:#dcdcc8;stroke:#000000;stroke-width:2.500px;opacity:1.0;}
.node-15{fill:#dcdcc8;stroke:#000000;stroke-width:2.500px;opacity:1.0;}
.node-16{fill:#dcdcc8;stroke:#000000;stroke-width:2.500px;opacity:1.0;}
.node-17{fill:#dcdcc8;stroke:#000000;stroke-width:2.500px;opacity:1.0;}
.node-18{fill:#dcdcc8;stroke:#000000;stroke-width:2.500px;opacity:1.0;}
.node-19{fill:#dcdcc8;stroke:#000000;stroke-width:2.500px;opacity:1.0;}
.node-20{fill:#dcdcc8;stroke:#000000;stroke-width:2.500px;opacity:1.0;}
.node-21{fill:#dcdcc8;stroke:#000000;stroke-width:2.500px;opacity:1.0;}
.node-22{fill:#dcdcc8;stroke:#000000;stroke-width:2.500px;opacity:1.0;}
.node-23{fill:#dcdcc8;stroke:#000000;stroke-width:2.500px;opacity:1.0;}
.node-24{fill:#dcdcc8;stroke:#000000;stroke-width:2.500px;opacity:1.0;}
.node-25{fill:#dcdcc8;stroke:#000000;stroke-width:2.500px;opacity:1.0;}
.node-26{fill:#dcdcc8;stroke:#000000;stroke-width:2.500px;opacity:1.0;}
.node-27{fill:#dcdcc8;stroke:#000000;stroke-width:2.500px;opacity:1.0;}
.node-28{fill:#dcdcc8;stroke:#000000;stroke-width:2.500px;opacity:1.0;}
.node-29{fill:#dcdcc8;stroke:#000000;stroke-width:2.500px;opacity:1.0;}
.node-30{fill:#dcdcc8;stroke:#000000;stroke-width:2.500px;opacity:1.0;}
.node-31{fill:#dcdcc8;stroke:#000000;stroke-width:2.500px;opacity:1.0;}
.node-32{fill:#dcdcc8;stroke:#000000;stroke-width:2.500px;opacity:1.0;}
.node-33{fill:#dcdcc8;stroke:#000000;stroke-width:2.500px;opacity:1.0;}
.node-34{fill:#dcdcc8;stroke:#000000;stroke-width:2.500px;opacity:1.0;}
.node-35{fill:#dcdcc8;stroke:#000000;stroke-width:2.500px;opacity:1.0;}
.node-36{fill:#dcdcc8;stroke:#000000;stroke-width:2.500px;opacity:1.0;}
.node-37{fill:#dcdcc8;stroke:#000000;stroke-width:2.500px;opacity:1.0;}
.node-38{fill:#dcdcc8;stroke:#000000;stroke-width:2.500px;opacity:1.0;}
.node-39{fill:#dcdcc8;stroke:#000000;stroke-width:2.500px;opacity:1.0;}
.node-40{fill:#dcdcc8;stroke:#000000;stroke-width:2.500px;opacity:1.0;}
.node-41{fill:#dcdcc8;stroke:#000000;stroke-width:2.500px;opacity:1.0;}
.node-42{fill:#dcdcc8;stroke:#000000;stroke-width:2.500px;opacity:1.0;}
.node-43{fill:#dcdcc8;stroke:#000000;stroke-width:2.500px;opacity:1.0;}
.node-44{fill:#dcdcc8;stroke:#000000;stroke-width:2.500px;opacity:1.0;}
.node-45{fill:#dcdcc8;stroke:#000000;stroke-width:2.500px;opacity:1.0;}
.node-46{fill:#dcdcc8;stroke:#000000;stroke-width:2.500px;opacity:1.0;}
</style>

</defs>
<polygon class="node-0" points="66.109,85.854 66.339,82.198 67.025,78.600 68.157,75.117 69.716,71.803 71.679,68.710 74.014,65.888 76.684,63.380 79.647,61.228 82.857,59.463 86.262,58.115 89.810,57.204 93.444,56.745 97.107,56.745 100.741,57.204 104.288,58.115 107.694,59.463 110.903,61.228 113.867,63.380 116.537,65.888 118.872,68.710 120.834,71.803 122.394,75.117 123.526,78.600 124.212,82.198 124.442,85.854 124.442,85.854 124.212,89.509 123.526,93.107 122.394,96.591 120.834,99.905 118.872,102.998 116.537,105.820 113.867,108.327 110.903,110.480 107.694,112.245 104.288,113.593 100.741,114.504 97.107,114.963 93.444,114.963 89.810,114.504 86.262,113.593 82.857,112.245 79.647,110.480 76.684,108.327 74.014,105.820 71.679,102.998 69.716,99.905 68.157,96.591 67.025,93.107 66.339,89.509"/>
<polygon class="node-1" points="-169.651,207.707 -169.421,204.052 -168.734,200.454 -167.603,196.970 -166.043,193.656 -164.080,190.563 -161.746,187.741 -159.076,185.234 -156.112,183.081 -152.903,181.316 -149.497,179.968 -145.949,179.057 -142.315,178.598 -138.653,178.598 -135.019,179.057 -131.471,179.968 -128.065,181.316 -124.856,183.081 -121.892,185.234 -119.222,187.741 -116.888,190.563 -114.925,193.656 -113.366,196.970 -112.234,200.454 -111.547,204.052 -111.317,207.707 -111.547,211.363 -112.234,214.961 -113.366,218.444 -114.925,221.758 -116.888,224.851 -119.222,227.673 -121.892,230.181 -124.856,232.333 -128.065,234.098 -131.471,235.446 -135.019,236.357 -138.653,236.816 -142.315,236.816 -145.949,236.357 -149.497,235.446 -152.903,234.098 -156.112,232.333 -159.076,230.181 -161.746,227.673 -164.080,224.851 -166.043,221.758 -167.603,218.444 -168.734,214.961 -169.421,211.363"/>
<polygon class="node-2" points="-51.842,142.749 -51.618,139.198 -50.951,135.703 -49.852,132.319 -48.337,129.099 -46.430,126.095 -44.162,123.353 -41.569,120.918 -38.690,118.826 -35.572,117.112 -32.264,115.802 -28.817,114.917 -25.287,114.471 -21.729,114.471 -18.199,114.917 -14.753,115.802 -11.445,117.112 -8.327,118.826 -5.448,120.918 -2.854,123.353 -0.586,126.095 1.320,129.099 2.835,132.319 3.935,135.703 4.602,139.198 4.825,142.749 4.602,146.300 3.935,149.795 2.835,153.179 1.320,156.398 -0.586,159.403 -2.854,162.144 -5.448,164.580 -8.327,166.671 -11.445,168.386 -14.753,169.695 -18.199,170.580 -21.729,171.026 -25.287,171.026 -28.817,170.580 -32.264,169.695 -35.572,168.386 -38.690,166.671 -41.569,164.580 -44.162,162.144 -46.430,159.403 -48.337,156.398 -49.852,153.179 -50.951,149.795 -51.618,146.300"/>
<polygon class="node-3" points="-131.979,183.364 -131.650,182.311 -129.333,179.639 -121.220,170.286 -115.014,163.143 -96.502,141.839 -95.644,141.230 -94.362,141.067 -92.736,141.358 -90.867,142.087 -88.874,143.207 -86.882,144.647 -85.015,146.318 -83.392,148.115 -82.113,149.923 -81.260,151.631 -80.886,153.130 -81.015,154.327 -81.638,155.145 -85.627,159.787 -87.594,162.071 -97.820,173.846 -108.056,185.614 -116.643,195.471 -117.679,195.904 -119.110,195.885 -120.846,195.415 -122.779,194.523 -124.787,193.265 -126.744,191.720 -128.527,189.985 -130.023,188.170 -131.139,186.389 -131.805,184.752"/>
<polygon class="node-4" points="15.076,92.857 15.239,90.487 15.701,88.384 16.433,86.679 17.390,85.481 18.510,84.865 21.753,84.461 33.853,83.032 66.826,79.148 70.528,78.761 71.763,79.194 72.962,80.225 74.049,81.788 74.956,83.785 75.627,86.090 76.018,88.559 76.106,91.037 75.885,93.368 75.369,95.405 74.591,97.021 73.598,98.113 72.454,98.614 54.287,100.759 51.285,101.113 45.274,101.823 27.280,103.944 20.894,104.682 19.661,104.366 18.450,103.445 17.336,101.977 16.390,100.053 15.670,97.796 15.223,95.346"/>
<polygon class="node-5" points="-92.327,145.888 -92.197,143.560 -91.859,141.530 -91.334,139.927 -90.655,138.850 -89.865,138.369 -87.006,138.123 -81.796,137.677 -68.840,136.571 -50.478,135.009 -49.620,135.272 -48.765,136.146 -47.966,137.574 -47.274,139.467 -46.731,141.706 -46.372,144.151 -46.220,146.647 -46.284,149.039 -46.559,151.174 -47.030,152.921 -47.666,154.168 -48.427,154.837 -53.811,155.340 -59.460,155.829 -69.678,156.713 -82.863,157.835 -88.325,158.265 -89.188,157.810 -90.031,156.759 -90.803,155.177 -91.454,153.164 -91.943,150.846 -92.240,148.369"/>
<polygon class="node-6" points="-13.932,118.493 -13.822,117.343 -13.227,116.582 -11.867,115.021 -4.834,107.251 10.825,89.970 12.622,87.988 13.517,87.511 14.820,87.488 16.447,87.920 18.299,88.781 20.257,90.016 22.199,91.547 24.004,93.279 25.556,95.102 26.760,96.902 27.539,98.566 27.845,99.989 27.658,101.082 24.088,105.084 20.374,109.211 4.783,126.421 1.375,130.176 0.550,130.722 -0.694,130.817 -2.277,130.455 -4.100,129.659 -6.050,128.478 -8.003,126.987 -9.837,125.280 -11.436,123.464 -12.700,121.652 -13.550,119.960"/>
<polygon class="node-7" points="-117.218,148.313 -116.994,144.762 -116.327,141.267 -115.228,137.883 -113.713,134.664 -111.806,131.659 -109.538,128.918 -106.945,126.482 -104.066,124.391 -100.948,122.676 -97.640,121.367 -94.193,120.482 -90.663,120.036 -87.105,120.036 -83.575,120.482 -80.129,121.367 -76.821,122.676 -73.703,124.391 -70.824,126.482 -68.230,128.918 -65.962,131.659 -64.056,134.664 -62.541,137.883 -61.441,141.267 -60.774,144.762 -60.551,148.313 -60.774,151.864 -61.441,155.359 -62.541,158.743 -64.056,161.963 -65.962,164.967 -68.230,167.709 -70.824,170.144 -73.703,172.236 -76.821,173.950 -80.129,175.260 -83.575,176.145 -87.105,176.591 -90.663,176.591 -94.193,176.145 -97.640,175.260 -100.948,173.950 -104.066,172.236 -106.945,170.144 -109.538,167.709 -111.806,164.967 -113.713,161.963 -115.228,158.743 -116.327,155.359 -116.994,151.864"/>
<polygon class="node-8" points="-8.331,94.735 -8.108,91.184 -7.441,87.689 -6.342,84.305 -4.827,81.085 -2.920,78.081 -0.652,75.340 1.942,72.904 4.820,70.812 7.938,69.098 11.247,67.788 14.693,66.904 18.223,66.458 21.781,66.458 25.311,66.904 28.758,67.788 32.066,69.098 35.184,70.812 38.062,72.904 40.656,75.340 42.924,78.081 44.831,81.085 46.346,84.305 47.445,87.689 48.112,91.184 48.335,94.735 48.112,98.286 47.445,101.781 46.346,105.165 44.831,108.385 42.924,111.389 40.656,114.131 38.062,116.566 35.184,118.658 32.066,120.372 28.758,121.682 25.311,122.566 21.781,123.012 18.223,123.012 14.693,122.566 11.247,121.682 7.938,120.372 4.820,118.658 1.942,116.566 -0.652,114.131 -2.920,111.389 -4.827,108.385 -6.342,105.165 -7.441,101.781 -8.108,98.286"/>
<polygon class="node-9" points="-120.800,107.476 -120.379,105.498 -119.390,103.538 -117.896,101.722 -115.990,100.161 -113.793,98.956 -111.442,98.180 -109.085,97.884 -106.870,98.085 -104.937,98.772 -103.406,99.900 -102.374,101.399 -94.354,116.563 -88.954,126.783 -88.443,128.542 -88.524,130.475 -89.193,132.461 -90.407,134.374 -92.089,136.095 -94.135,137.515 -96.415,138.545 -98.787,139.120 -101.101,139.205 -103.212,138.794 -104.988,137.912 -106.316,136.616 -109.382,130.926 -118.320,114.009 -119.104,112.501 -119.872,111.000 -120.627,109.350"/>
<polygon class="node-10" points="-10.818,54.049 -10.527,52.069 -9.656,50.091 -8.259,48.239 -6.424,46.629 -4.266,45.363 -1.921,44.521 0.464,44.154 2.739,44.287 4.762,44.910 6.404,45.985 7.563,47.444 11.932,56.185 16.036,64.424 20.613,73.611 21.011,75.439 20.810,77.408 20.024,79.395 18.701,81.273 16.925,82.926 14.808,84.249 12.481,85.160 10.092,85.600 7.791,85.543 5.722,84.992 4.016,83.981 2.778,82.575 0.830,78.723 -9.390,58.253 -10.509,55.906"/>
<polygon class="node-11" points="-139.681,105.804 -139.457,102.253 -138.791,98.758 -137.691,95.374 -136.176,92.155 -134.269,89.150 -132.001,86.409 -129.408,83.973 -126.529,81.882 -123.411,80.168 -120.103,78.858 -116.656,77.973 -113.126,77.527 -109.568,77.527 -106.038,77.973 -102.592,78.858 -99.284,80.168 -96.166,81.882 -93.287,83.973 -90.693,86.409 -88.425,89.150 -86.519,92.155 -85.004,95.374 -83.904,98.758 -83.237,102.253 -83.014,105.804 -83.237,109.355 -83.904,112.851 -85.004,116.235 -86.519,119.454 -88.425,122.458 -90.693,125.200 -93.287,127.636 -96.166,129.727 -99.284,131.441 -102.592,132.751 -106.038,133.636 -109.568,134.082 -113.126,134.082 -116.656,133.636 -120.103,132.751 -123.411,131.441 -126.529,129.727 -129.408,127.636 -132.001,125.200 -134.269,122.458 -136.176,119.454 -137.691,116.235 -138.791,112.851 -139.457,109.355"/>
<polygon class="node-12" points="-29.619,52.098 -29.396,48.547 -28.729,45.052 -27.630,41.668 -26.115,38.448 -24.208,35.444 -21.940,32.702 -19.346,30.267 -16.468,28.175 -13.350,26.461 -10.041,25.151 -6.595,24.266 -3.065,23.820 0.493,23.820 4.023,24.266 7.470,25.151 10.778,26.461 13.896,28.175 16.774,30.267 19.368,32.702 21.636,35.444 23.543,38.448 25.058,41.668 26.157,45.052 26.824,48.547 27.047,52.098 27.047,52.098 26.824,55.649 26.157,59.144 25.058,62.528 23.543,65.747 21.636,68.752 19.368,71.493 16.774,73.929 13.896,76.020 10.778,77.735 7.470,79.044 4.023,79.929 0.493,80.375 -3.065,80.375 -6.595,79.929 -10.041,79.044 -13.350,77.735 -16.468,76.020 -19.346,73.929 -21.940,71.493 -24.208,68.752 -26.115,65.747 -27.630,62.528 -28.729,59.144 -29.396,55.649"/>
<polygon class="node-13" points="-179.609,108.463 -179.580,106.004 -179.361,103.742 -178.967,101.816 -178.422,100.350 -177.762,99.434 -177.026,99.126 -161.460,98.335 -143.095,97.405 -138.040,97.151 -137.278,97.347 -136.526,98.158 -135.831,99.532 -135.238,101.384 -134.782,103.596 -134.493,106.031 -134.390,108.534 -134.477,110.949 -134.751,113.124 -135.194,114.923 -135.777,116.231 -136.465,116.968 -137.214,117.086 -139.346,117.217 -144.751,117.512 -157.801,118.175 -170.877,118.838 -173.563,118.968 -175.745,119.027 -176.501,119.021 -177.261,118.392 -177.978,117.181 -178.606,115.462 -179.107,113.345 -179.449,110.962"/>
<polygon class="node-14" points="-102.045,80.782 -101.727,79.828 -84.501,60.332 -75.875,50.570 -75.028,50.077 -73.763,50.032 -72.159,50.436 -70.318,51.264 -68.355,52.464 -66.394,53.961 -64.556,55.661 -62.959,57.456 -61.702,59.234 -60.865,60.884 -60.500,62.301 -60.629,63.397 -62.742,65.890 -64.253,67.615 -81.457,87.082 -83.176,89.028 -85.078,91.164 -86.930,93.212 -87.944,93.536 -89.348,93.409 -91.055,92.839 -92.957,91.862 -94.934,90.539 -96.862,88.953 -98.621,87.204 -100.099,85.401 -101.205,83.659 -101.867,82.086"/>
<polygon class="node-15" points="-71.453,55.164 -71.372,52.799 -71.104,50.709 -70.664,49.026 -70.081,47.856 -69.390,47.272 -66.321,47.010 -63.799,46.811 -53.025,45.993 -39.558,44.973 -28.751,44.161 -27.982,44.523 -27.222,45.489 -26.519,46.998 -25.916,48.956 -25.452,51.239 -25.156,53.703 -25.046,56.195 -25.129,58.557 -25.400,60.641 -25.843,62.316 -26.428,63.477 -27.120,64.051 -30.024,64.306 -59.546,66.545 -67.735,67.159 -68.503,66.806 -69.264,65.850 -69.969,64.349 -70.573,62.398 -71.040,60.119 -71.339,57.657"/>
<polygon class="node-16" points="-201.906,109.114 -201.706,105.939 -201.110,102.814 -200.127,99.789 -198.773,96.910 -197.068,94.224 -195.040,91.773 -192.721,89.595 -190.147,87.725 -187.359,86.192 -184.401,85.021 -181.320,84.230 -178.163,83.831 -174.982,83.831 -171.826,84.230 -168.744,85.021 -165.786,86.192 -162.998,87.725 -160.425,89.595 -158.106,91.773 -156.078,94.224 -154.373,96.910 -153.018,99.789 -152.035,102.814 -151.439,105.939 -151.239,109.114 -151.439,112.290 -152.035,115.415 -153.018,118.440 -154.373,121.319 -156.078,124.005 -158.106,126.456 -160.425,128.634 -162.998,130.504 -165.786,132.037 -168.744,133.208 -171.826,133.999 -174.982,134.398 -178.163,134.398 -181.320,133.999 -184.401,133.208 -187.359,132.037 -190.147,130.504 -192.721,128.634 -195.040,126.456 -197.068,124.005 -198.773,121.319 -200.127,118.440 -201.110,115.415 -201.706,112.290"/>
<polygon class="node-17" points="6.962,27.470 7.437,26.401 13.968,18.720 17.313,14.787 32.150,-2.646 33.205,-3.212 34.662,-3.325 36.430,-2.978 38.399,-2.193 40.444,-1.019 42.437,0.470 44.252,2.180 45.776,4.004 46.913,5.828 47.591,7.536 47.768,9.022 47.433,10.191 45.589,12.405 37.404,22.031 25.945,35.508 22.291,39.696 21.117,40.139 19.564,40.124 17.728,39.653 15.726,38.754 13.683,37.485 11.727,35.925 9.981,34.172 8.556,32.337 7.540,30.534 6.997,28.877"/>
<polygon class="node-18" points="-96.710,57.186 -96.486,53.635 -95.819,50.140 -94.720,46.756 -93.205,43.536 -91.298,40.532 -89.030,37.790 -86.437,35.355 -83.558,33.263 -80.440,31.549 -77.132,30.239 -73.685,29.354 -70.155,28.908 -66.597,28.908 -63.067,29.354 -59.621,30.239 -56.313,31.549 -53.195,33.263 -50.316,35.355 -47.722,37.790 -45.454,40.532 -43.548,43.536 -42.033,46.756 -40.933,50.140 -40.266,53.635 -40.043,57.186 -40.043,57.186 -40.266,60.737 -40.933,64.232 -42.033,67.616 -43.548,70.835 -45.454,73.840 -47.722,76.581 -50.316,79.017 -53.195,81.108 -56.313,82.823 -59.621,84.132 -63.067,85.017 -66.597,85.463 -70.155,85.463 -73.685,85.017 -77.132,84.132 -80.440,82.823 -83.558,81.108 -86.437,79.017 -89.030,76.581 -91.298,73.840 -93.205,70.835 -94.720,67.616 -95.819,64.232 -96.486,60.737"/>
<polygon class="node-19" points="13.781,3.994 13.985,0.756 14.592,-2.431 15.595,-5.516 16.976,-8.451 18.715,-11.191 20.783,-13.690 23.147,-15.911 25.772,-17.818 28.615,-19.381 31.631,-20.575 34.774,-21.382 37.992,-21.788 41.236,-21.788 44.455,-21.382 47.597,-20.575 50.613,-19.381 53.456,-17.818 56.081,-15.911 58.446,-13.690 60.514,-11.191 62.252,-8.451 63.633,-5.516 64.636,-2.431 65.244,0.756 65.448,3.994 65.448,3.994 65.244,7.232 64.636,10.418 63.633,13.504 62.252,16.439 60.514,19.178 58.446,21.678 56.081,23.899 53.456,25.806 50.613,27.369 47.597,28.563 44.455,29.370 41.236,29.776 37.992,29.776 34.774,29.370 31.631,28.563 28.615,27.369 25.772,25.806 23.147,23.899 20.783,21.678 18.715,19.178 16.976,16.439 15.595,13.504 14.592,10.418 13.985,7.232"/>
<polygon class="node-20" points="124.087,48.299 124.287,45.124 124.883,41.999 125.866,38.973 127.221,36.095 128.925,33.409 130.953,30.957 133.272,28.779 135.846,26.909 138.634,25.377 141.592,24.206 144.673,23.415 147.830,23.016 151.011,23.016 154.167,23.415 157.249,24.206 160.207,25.377 162.995,26.909 165.569,28.779 167.888,30.957 169.916,33.409 171.620,36.095 172.975,38.973 173.958,41.999 174.554,45.124 174.754,48.299 174.754,48.299 174.554,51.474 173.958,54.599 172.975,57.625 171.620,60.504 169.916,63.190 167.888,65.641 165.569,67.819 162.995,69.689 160.207,71.221 157.249,72.393 154.167,73.184 151.011,73.582 147.830,73.582 144.673,73.184 141.592,72.393 138.634,71.221 135.846,69.689 133.272,67.819 130.953,65.641 128.925,63.190 127.221,60.504 125.866,57.625 124.883,54.599 124.287,51.474"/>
<polygon class="node-21" points="61.962,5.906 62.005,3.401 62.173,0.964 62.454,-1.250 62.833,-3.102 63.284,-4.476 63.779,-5.286 64.288,-5.481 94.009,-4.865 102.057,-4.692 107.328,-4.534 107.832,-4.464 108.305,-3.772 108.716,-2.504 109.040,-0.738 109.255,1.415 109.350,3.820 109.317,6.324 109.159,8.772 108.885,11.009 108.514,12.894 108.068,14.309 107.575,15.166 107.066,15.410 99.006,15.243 88.158,15.016 80.002,14.843 69.128,14.610 66.570,14.554 63.946,14.474 63.442,14.353 62.974,13.615 62.569,12.303 62.253,10.502 62.046,8.324"/>
<polygon class="node-22" points="108.844,3.401 108.998,2.978 109.368,2.373 109.933,1.625 110.656,0.780 111.492,-0.108 112.389,-0.983 113.290,-1.791 114.138,-2.481 114.880,-3.010 115.470,-3.344 115.871,-3.462 116.056,-3.356 119.370,0.001 126.130,6.884 139.576,20.584 141.202,22.275 141.326,22.442 141.222,22.820 140.898,23.388 140.374,24.108 139.682,24.935 138.867,25.818 137.979,26.701 132.595,27.655 132.422,27.537 127.427,22.477 124.047,19.036 108.917,3.616"/>
<polygon class="node-23" points="98.581,14.072 98.723,13.659 99.082,13.064 99.637,12.323 100.352,11.482 101.183,10.595 102.078,9.717 102.980,8.904 103.832,8.206 104.582,7.668 105.182,7.323 105.593,7.192 105.791,7.285 112.508,14.113 119.245,20.977 124.298,26.125 129.280,31.220 129.381,31.408 129.474,35.528 128.666,36.410 127.781,37.294 126.876,38.128 126.007,38.857 125.228,39.437 124.590,39.830 124.131,40.012 123.880,39.972 120.516,36.545 102.002,17.684 98.667,14.275"/>
<polygon class="node-24" points="78.991,5.416 79.214,1.865 79.881,-1.630 80.980,-5.014 82.495,-8.234 84.402,-11.238 86.670,-13.979 89.264,-16.415 92.142,-18.507 95.260,-20.221 98.568,-21.530 102.015,-22.415 105.545,-22.861 109.103,-22.861 112.633,-22.415 116.079,-21.530 119.388,-20.221 122.506,-18.507 125.384,-16.415 127.978,-13.979 130.246,-11.238 132.153,-8.234 133.668,-5.014 134.767,-1.630 135.434,1.865 135.657,5.416 135.657,5.416 135.434,8.967 134.767,12.462 133.668,15.846 132.153,19.066 130.246,22.070 127.978,24.812 125.384,27.247 122.506,29.339 119.388,31.053 116.079,32.363 112.633,33.248 109.103,33.694 105.545,33.694 102.015,33.248 98.568,32.363 95.260,31.053 92.142,29.339 89.264,27.247 86.670,24.812 84.402,22.070 82.495,19.066 80.980,15.846 79.881,12.462 79.214,8.967"/>
<polygon class="node-25" points="1.297,-46.427 1.384,-47.651 2.032,-49.060 3.199,-50.565 4.813,-52.072 6.771,-53.485 8.952,-54.716 11.217,-55.688 13.425,-56.339 15.437,-56.629 17.127,-56.540 18.388,-56.076 19.140,-55.268 27.323,-40.032 33.220,-29.047 37.630,-20.735 38.079,-19.756 37.961,-18.520 37.284,-17.103 36.090,-15.596 34.455,-14.092 32.481,-12.686 30.292,-11.467 28.026,-10.511 25.825,-9.879 23.827,-9.609 22.159,-9.720 20.924,-10.203 20.201,-11.029 19.066,-13.135 5.002,-39.324 2.574,-43.873 1.776,-45.464"/>
<polygon class="node-26" points="-193.884,124.469 -193.299,122.113 -192.946,121.307 -191.941,119.040 -191.363,117.742 -189.021,112.487 -188.411,111.165 -187.850,110.030 -186.339,108.128 -184.382,106.665 -182.102,105.733 -179.643,105.391 -177.159,105.660 -174.806,106.523 -172.732,107.926 -171.068,109.782 -169.917,111.972 -169.352,114.360 -169.410,116.795 -170.085,119.125 -173.367,126.494 -175.215,130.563 -176.652,132.520 -178.550,134.055 -180.790,135.070 -183.232,135.502 -185.723,135.323 -188.105,134.546 -190.229,133.218 -191.961,131.423 -193.194,129.275 -193.848,126.907"/>
<polygon class="node-27" points="-15.530,-50.588 -15.326,-53.826 -14.718,-57.012 -13.716,-60.098 -12.334,-63.033 -10.596,-65.772 -8.528,-68.272 -6.163,-70.493 -3.539,-72.400 -0.696,-73.963 2.321,-75.157 5.463,-75.964 8.682,-76.370 11.926,-76.370 15.144,-75.964 18.287,-75.157 21.303,-73.963 24.146,-72.400 26.770,-70.493 29.135,-68.272 31.203,-65.772 32.942,-63.033 34.323,-60.098 35.325,-57.012 35.933,-53.826 36.137,-50.588 36.137,-50.588 35.933,-47.350 35.325,-44.163 34.323,-41.078 32.942,-38.143 31.203,-35.404 29.135,-32.904 26.770,-30.683 24.146,-28.776 21.303,-27.213 18.287,-26.019 15.144,-25.212 11.926,-24.806 8.682,-24.806 5.463,-25.212 2.321,-26.019 -0.696,-27.213 -3.539,-28.776 -6.163,-30.683 -8.528,-32.904 -10.596,-35.404 -12.334,-38.143 -13.716,-41.078 -14.718,-44.163 -15.326,-47.350"/>
<polygon class="node-28" points="102.931,-18.902 103.025,-20.159 105.090,-29.068 110.481,-52.222 110.957,-54.050 111.305,-55.251 112.247,-56.265 113.725,-57.027 115.644,-57.491 117.885,-57.627 120.306,-57.427 122.756,-56.903 125.081,-56.087 127.134,-55.033 128.786,-53.804 129.935,-52.480 130.506,-51.142 130.466,-49.876 129.422,-45.378 127.275,-36.161 124.044,-22.289 122.940,-17.563 122.496,-15.773 122.095,-14.586 121.104,-13.591 119.585,-12.852 117.633,-12.416 115.371,-12.309 112.941,-12.538 110.496,-13.088 108.189,-13.926 106.165,-14.999 104.552,-16.239 103.451,-17.568"/>
<polygon class="node-29" points="31.634,-63.570 31.643,-64.362 31.848,-64.939 32.236,-65.267 40.184,-70.219 46.225,-73.972 60.322,-82.732 62.219,-83.894 62.680,-84.104 63.285,-84.040 63.997,-83.705 64.770,-83.121 65.556,-82.324 66.306,-81.365 66.972,-80.303 67.513,-79.206 67.894,-78.142 68.092,-77.178 68.094,-76.376 67.900,-75.784 67.523,-75.441 63.538,-72.959 61.548,-71.721 55.553,-67.996 39.364,-57.938 35.492,-55.545 32.723,-60.457 32.191,-61.555 31.820,-62.614"/>
<polygon class="node-30" points="95.427,-52.273 95.627,-55.448 96.223,-58.573 97.206,-61.598 98.560,-64.477 100.265,-67.163 102.293,-69.614 104.612,-71.792 107.186,-73.662 109.974,-75.195 112.932,-76.366 116.013,-77.157 119.169,-77.556 122.351,-77.556 125.507,-77.157 128.589,-76.366 131.547,-75.195 134.334,-73.662 136.908,-71.792 139.227,-69.614 141.255,-67.163 142.960,-64.477 144.314,-61.598 145.298,-58.573 145.894,-55.448 146.093,-52.273 146.093,-52.273 145.894,-49.097 145.298,-45.972 144.314,-42.947 142.960,-40.068 141.255,-37.382 139.227,-34.931 136.908,-32.753 134.334,-30.883 131.547,-29.350 128.589,-28.179 125.507,-27.388 122.351,-26.989 119.169,-26.989 116.013,-27.388 112.932,-28.179 109.974,-29.350 107.186,-30.883 104.612,-32.753 102.293,-34.931 100.265,-37.382 98.560,-40.068 97.206,-42.947 96.223,-45.972 95.627,-49.097"/>
<polygon class="node-31" points="20.993,-67.115 21.122,-67.782 21.439,-68.212 25.528,-70.756 51.745,-87.045 53.556,-88.135 53.993,-88.385 54.579,-88.362 55.277,-88.067 56.044,-87.518 56.832,-86.750 57.590,-85.812 58.271,-84.761 58.833,-83.665 59.240,-82.592 59.467,-81.609 59.498,-80.779 59.333,-80.153 58.982,-79.770 40.889,-68.528 28.746,-60.984 28.225,-60.879 23.048,-62.037 22.348,-63.072 21.761,-64.165 21.323,-65.247 21.062,-66.252"/>
<polygon class="node-32" points="56.144,-73.190 56.264,-74.025 56.662,-75.354 57.311,-77.093 58.171,-79.133 59.189,-81.346 60.300,-83.593 61.434,-85.733 62.521,-87.630 63.491,-89.167 64.284,-90.246 64.850,-90.800 65.154,-90.793 69.920,-88.473 86.684,-80.206 96.282,-75.469 101.202,-73.034 103.628,-71.801 103.615,-71.166 103.319,-70.014 102.760,-68.417 101.973,-66.475 101.007,-64.311 99.923,-62.060 98.789,-59.864 97.676,-57.861 96.655,-56.176 95.789,-54.916 95.133,-54.160 94.728,-53.955 89.915,-56.326 85.091,-58.702 70.672,-65.808 58.647,-71.734 56.308,-72.901"/>
<polygon class="node-33" points="-212.333,125.788 -212.109,122.237 -211.443,118.742 -210.343,115.358 -208.828,112.138 -206.922,109.134 -204.653,106.393 -202.060,103.957 -199.181,101.866 -196.063,100.151 -192.755,98.842 -189.309,97.957 -185.778,97.511 -182.220,97.511 -178.690,97.957 -175.244,98.842 -171.936,100.151 -168.818,101.866 -165.939,103.957 -163.345,106.393 -161.077,109.134 -159.171,112.138 -157.656,115.358 -156.556,118.742 -155.889,122.237 -155.666,125.788 -155.889,129.339 -156.556,132.834 -157.656,136.218 -159.171,139.438 -161.077,142.442 -163.345,145.184 -165.939,147.619 -168.818,149.711 -171.936,151.425 -175.244,152.735 -178.690,153.620 -182.220,154.066 -185.778,154.066 -189.309,153.620 -192.755,152.735 -196.063,151.425 -199.181,149.711 -202.060,147.619 -204.653,145.184 -206.922,142.442 -208.828,139.438 -210.343,136.218 -211.443,132.834 -212.109,129.339"/>
<polygon class="node-34" points="-227.800,188.834 -216.641,167.204 -212.448,159.086 -208.254,150.963 -206.855,148.255 -205.439,145.536 -204.994,145.610 -204.019,145.969 -202.577,146.590 -200.758,147.434 -198.676,148.448 -196.462,149.569 -194.255,150.726 -192.194,151.846 -190.408,152.860 -189.010,153.702 -188.087,154.321 -187.698,154.677 -196.076,170.970 -208.670,195.339 -210.057,197.970 -210.216,198.046 -210.922,197.833 -212.131,197.344 -213.768,196.610 -215.729,195.676 -217.892,194.602 -220.120,193.455 -222.273,192.306 -224.217,191.229 -225.829,190.291 -227.007,189.551 -227.678,189.054"/>
<polygon class="node-35" points="32.339,-81.884 32.562,-85.436 33.229,-88.931 34.328,-92.315 35.843,-95.534 37.750,-98.538 40.018,-101.280 42.612,-103.716 45.490,-105.807 48.608,-107.521 51.917,-108.831 55.363,-109.716 58.893,-110.162 62.451,-110.162 65.981,-109.716 69.427,-108.831 72.736,-107.521 75.854,-105.807 78.732,-103.716 81.326,-101.280 83.594,-98.538 85.501,-95.534 87.016,-92.315 88.115,-88.931 88.782,-85.436 89.005,-81.884 88.782,-78.333 88.115,-74.838 87.016,-71.454 85.501,-68.235 83.594,-65.231 81.326,-62.489 78.732,-60.053 75.854,-57.962 72.736,-56.248 69.427,-54.938 65.981,-54.053 62.451,-53.607 58.893,-53.607 55.363,-54.053 51.917,-54.938 48.608,-56.248 45.490,-57.962 42.612,-60.053 40.018,-62.489 37.750,-65.231 35.843,-68.235 34.328,-71.454 33.229,-74.838 32.562,-78.333"/>
<polygon class="node-36" points="-247.267,193.439 -247.043,189.888 -246.376,186.393 -245.277,183.009 -243.762,179.789 -241.855,176.785 -239.587,174.043 -236.994,171.608 -234.115,169.516 -230.997,167.802 -227.689,166.492 -224.242,165.607 -220.712,165.162 -217.154,165.162 -213.624,165.607 -210.178,166.492 -206.869,167.802 -203.751,169.516 -200.873,171.608 -198.279,174.043 -196.011,176.785 -194.104,179.789 -192.590,183.009 -191.490,186.393 -190.823,189.888 -190.600,193.439 -190.823,196.990 -191.490,200.485 -192.590,203.869 -194.104,207.089 -196.011,210.093 -198.279,212.834 -200.873,215.270 -203.751,217.362 -206.869,219.076 -210.178,220.386 -213.624,221.270 -217.154,221.716 -220.712,221.716 -224.242,221.270 -227.689,220.386 -230.997,219.076 -234.115,217.362 -236.994,215.270 -239.587,212.834 -241.855,210.093 -243.762,207.089 -245.277,203.869 -246.376,200.485 -247.043,196.990"/>
<polygon class="node-37" points="79.148,-196.585 79.371,-200.136 80.038,-203.631 81.137,-207.015 82.652,-210.234 84.559,-213.239 86.827,-215.980 89.421,-218.416 92.299,-220.507 95.417,-222.221 98.726,-223.531 102.172,-224.416 105.702,-224.862 109.260,-224.862 112.790,-224.416 116.237,-223.531 119.545,-222.221 122.663,-220.507 125.541,-218.416 128.135,-215.980 130.403,-213.239 132.310,-210.234 133.825,-207.015 134.924,-203.631 135.591,-200.136 135.814,-196.585 135.591,-193.034 134.924,-189.538 133.825,-186.154 132.310,-182.935 130.403,-179.931 128.135,-177.189 125.541,-174.753 122.663,-172.662 119.545,-170.948 116.237,-169.638 112.790,-168.753 109.260,-168.307 105.702,-168.307 102.172,-168.753 98.726,-169.638 95.417,-170.948 92.299,-172.662 89.421,-174.753 86.827,-177.189 84.559,-179.931 82.652,-182.935 81.137,-186.154 80.038,-189.538 79.371,-193.034"/>
<polygon class="node-38" points="-234.727,76.346 -234.468,74.911 -233.703,73.267 -232.480,71.517 -230.877,69.771 -228.993,68.138 -226.948,66.721 -224.869,65.610 -222.888,64.873 -221.128,64.558 -219.701,64.684 -218.696,65.242 -208.343,78.451 -203.319,84.874 -191.575,99.911 -191.038,100.855 -191.018,102.140 -191.516,103.684 -192.502,105.391 -193.913,107.153 -195.661,108.860 -197.635,110.404 -199.713,111.689 -201.762,112.633 -203.655,113.178 -205.272,113.288 -206.512,112.958 -207.298,112.208 -208.971,110.080 -212.107,106.078 -215.523,101.718 -227.484,86.442 -230.894,82.085 -234.464,77.480"/>
<polygon class="node-39" points="49.049,-146.496 49.344,-147.774 50.248,-148.985 51.705,-150.054 53.623,-150.914 55.882,-151.510 58.340,-151.806 60.842,-151.782 63.232,-151.440 65.358,-150.801 67.088,-149.907 68.313,-148.812 68.955,-147.586 69.107,-144.429 69.759,-118.426 69.954,-110.589 70.034,-105.922 69.971,-104.640 69.286,-103.395 68.024,-102.265 66.262,-101.322 64.113,-100.623 61.711,-100.214 59.206,-100.119 56.757,-100.346 54.518,-100.879 52.628,-101.685 51.207,-102.714 50.343,-103.900 50.092,-105.170 49.895,-112.770"/>
<polygon class="node-40" points="51.326,-152.503 51.750,-153.548 53.771,-155.642 55.773,-157.703 63.537,-165.696 73.132,-175.573 82.979,-185.704 83.996,-186.175 85.393,-186.172 87.083,-185.696 88.958,-184.776 90.902,-183.470 92.792,-181.861 94.509,-180.048 95.946,-178.147 97.012,-176.276 97.640,-174.553 97.791,-173.087 97.455,-171.970 95.121,-169.526 81.756,-155.750 71.990,-145.696 65.957,-139.531 64.864,-139.145 63.406,-139.236 61.674,-139.797 59.777,-140.793 57.834,-142.162 55.967,-143.817 54.294,-145.654 52.919,-147.559 51.930,-149.411 51.387,-151.094"/>
<polygon class="node-41" points="-254.752,71.577 -254.529,68.026 -253.862,64.531 -252.762,61.147 -251.247,57.928 -249.341,54.923 -247.073,52.182 -244.479,49.746 -241.600,47.655 -238.482,45.941 -235.174,44.631 -231.728,43.746 -228.198,43.300 -224.640,43.300 -221.109,43.746 -217.663,44.631 -214.355,45.941 -211.237,47.655 -208.358,49.746 -205.764,52.182 -203.496,54.923 -201.590,57.928 -200.075,61.147 -198.975,64.531 -198.309,68.026 -198.085,71.577 -198.309,75.129 -198.975,78.624 -200.075,82.008 -201.590,85.227 -203.496,88.231 -205.764,90.973 -208.358,93.409 -211.237,95.500 -214.355,97.214 -217.663,98.524 -221.109,99.409 -224.640,99.855 -228.198,99.855 -231.728,99.409 -235.174,98.524 -238.482,97.214 -241.600,95.500 -244.479,93.409 -247.073,90.973 -249.341,88.231 -251.247,85.227 -252.762,82.008 -253.862,78.624 -254.529,75.129"/>
<polygon class="node-42" points="-40.106,-176.432 -39.883,-179.983 -39.216,-183.478 -38.117,-186.862 -36.602,-190.082 -34.695,-193.086 -32.427,-195.827 -29.833,-198.263 -26.955,-200.355 -23.837,-202.069 -20.528,-203.379 -17.082,-204.263 -13.552,-204.709 -9.994,-204.709 -6.464,-204.263 -3.017,-203.379 0.291,-202.069 3.409,-200.355 6.287,-198.263 8.881,-195.827 11.149,-193.086 13.056,-190.082 14.571,-186.862 15.670,-183.478 16.337,-179.983 16.560,-176.432 16.337,-172.881 15.670,-169.386 14.571,-166.002 13.056,-162.782 11.149,-159.778 8.881,-157.036 6.287,-154.601 3.409,-152.509 0.291,-150.795 -3.017,-149.485 -6.464,-148.600 -9.994,-148.154 -13.552,-148.154 -17.082,-148.600 -20.528,-149.485 -23.837,-150.795 -26.955,-152.509 -29.833,-154.601 -32.427,-157.036 -34.695,-159.778 -36.602,-162.782 -38.117,-166.002 -39.216,-169.386 -39.883,-172.881"/>
<polygon class="node-43" points="9.855,-156.515 9.942,-156.783 10.266,-157.613 10.807,-158.953 11.531,-160.720 12.393,-162.802 13.339,-165.068 14.309,-167.376 15.241,-169.581 16.079,-171.545 16.768,-173.144 17.266,-174.277 17.541,-174.873 17.576,-174.896 20.424,-173.768 26.088,-171.392 34.588,-167.826 54.418,-159.506 60.076,-157.126 62.894,-155.914 62.875,-155.807 62.616,-155.130 62.132,-153.924 61.454,-152.266 60.626,-150.259 59.697,-148.030 58.728,-145.719 57.779,-143.471 56.910,-141.427 56.175,-139.716 55.620,-138.445 55.280,-137.694 55.178,-137.510 29.683,-148.196"/>
<polygon class="node-44" points="30.713,-146.722 30.937,-150.273 31.603,-153.768 32.703,-157.152 34.218,-160.371 36.124,-163.376 38.392,-166.117 40.986,-168.553 43.865,-170.644 46.983,-172.358 50.291,-173.668 53.737,-174.553 57.267,-174.999 60.826,-174.999 64.356,-174.553 67.802,-173.668 71.110,-172.358 74.228,-170.644 77.107,-168.553 79.701,-166.117 81.969,-163.376 83.875,-160.371 85.390,-157.152 86.490,-153.768 87.156,-150.273 87.380,-146.722 87.156,-143.171 86.490,-139.675 85.390,-136.291 83.875,-133.072 81.969,-130.068 79.701,-127.326 77.107,-124.890 74.228,-122.799 71.110,-121.085 67.802,-119.775 64.356,-118.890 60.826,-118.444 57.267,-118.444 53.737,-118.890 50.291,-119.775 46.983,-121.085 43.865,-122.799 40.986,-124.890 38.392,-127.326 36.124,-130.068 34.218,-133.072 32.703,-136.291 31.603,-139.675 30.937,-143.171"/>
<polygon class="node-45" points="56.942,-141.595 57.342,-144.044 58.322,-146.346 59.818,-148.356 61.739,-149.948 63.961,-151.023 66.347,-151.512 68.746,-151.385 71.008,-150.649 73.097,-149.360 83.034,-142.724 84.392,-141.813 84.929,-141.433 86.813,-139.996 88.263,-138.106 89.188,-135.882 89.530,-133.464 89.267,-131.003 88.417,-128.654 87.032,-126.565 85.199,-124.867 83.034,-123.666 80.672,-123.039 78.263,-123.024 75.957,-123.622 73.899,-124.797 72.617,-125.632 70.198,-127.248 65.154,-130.617 61.071,-133.344 59.278,-134.894 57.941,-136.872 57.146,-139.153"/>
<polygon class="node-46" points="51.575,-132.787 51.799,-136.338 52.465,-139.833 53.565,-143.217 55.080,-146.437 56.986,-149.441 59.254,-152.183 61.848,-154.618 64.727,-156.710 67.845,-158.424 71.153,-159.734 74.599,-160.618 78.129,-161.064 81.688,-161.064 85.218,-160.618 88.664,-159.734 91.972,-158.424 95.090,-156.710 97.969,-154.618 100.563,-152.183 102.831,-149.441 104.737,-146.437 106.252,-143.217 107.352,-139.833 108.018,-136.338 108.242,-132.787 108.018,-129.236 107.352,-125.741 106.252,-122.357 104.737,-119.137 102.831,-116.133 100.563,-113.392 97.969,-110.956 95.090,-108.864 91.972,-107.150 88.664,-105.840 85.218,-104.956 81.688,-104.510 78.129,-104.510 74.599,-104.956 71.153,-105.840 67.845,-107.150 64.727,-108.864 61.848,-110.956 59.254,-113.392 56.986,-116.133 55.080,-119.137 53.565,-122.357 52.465,-125.741 51.799,-129.236"/>
</svg>