<?xml version="1.0" encoding="utf-8" standalone="no"?>
<!DOCTYPE svg PUBLIC "-//W3C//DTD SVG 1.1//EN"
  "http://www.w3.org/Graphics/SVG/1.1/DTD/svg11.dtd">
<svg xmlns:xlink="http://www.w3.org/1999/xlink" width="460.8pt" height="345.6pt" viewBox="0 0 460.8 345.6" xmlns="http://www.w3.org/2000/svg" version="1.1">
 <metadata>
  <rdf:RDF xmlns:dc="http://purl.org/dc/elements/1.1/" xmlns:cc="http://creativecommons.org/ns#" xmlns:rdf="http://www.w3.org/1999/02/22-rdf-syntax-ns#">
   <cc:Work>
    <dc:type rdf:resource="http://purl.org/dc/dcmitype/StillImage"/>
    <dc:date>2025-09-05T07:52:26.541060</dc:date>
    <dc:format>image/svg+xml</dc:format>
    <dc:creator>
     <cc:Agent>
      <dc:title>Matplotlib v3.10.1, https://matplotlib.org/</dc:title>
     </cc:Agent>
    </dc:creator>
   </cc:Work>
  </rdf:RDF>
 </metadata>
 <defs>
  <style type="text/css">*{stroke-linejoin: round; stroke-linecap: butt}</style>
 </defs>
 <g id="figure_1">
  <g id="patch_1">
   <path d="M 0 345.6 
L 460.8 345.6 
L 460.8 0 
L 0 0 
z
" style="fill: #ffffff"/>
  </g>
  <g id="axes_1">
   <g id="patch_2">
    <path d="M 57.6 307.584 
L 414.72 307.584 
L 414.72 41.472 
L 57.6 41.472 
z
" style="fill: #ffffff"/>
   </g>
   <g id="FillBetweenPolyCollection_1">
    <path d="M 61.135842 53.568 
L 61.135842 111.564245 
L 64.671683 158.904667 
L 68.207525 162.030821 
L 71.743366 215.778876 
L 75.279208 219.677328 
L 78.81505 240.079509 
L 82.350891 241.124003 
L 85.886733 241.454178 
L 89.422574 242.408277 
L 92.958416 248.612634 
L 96.494257 237.299663 
L 100.030099 241.721641 
L 103.565941 257.454327 
L 107.101782 244.773893 
L 110.637624 264.568893 
L 114.173465 244.234176 
L 117.709307 270.130091 
L 121.245149 269.706283 
L 124.78099 276.662212 
L 128.316832 278.851339 
L 131.852673 284.969299 
L 135.388515 276.123081 
L 138.924356 282.226767 
L 142.460198 277.911372 
L 145.99604 277.993383 
L 149.531881 276.194345 
L 153.067723 280.484414 
L 156.603564 279.972193 
L 160.139406 274.984064 
L 163.675248 273.724233 
L 167.211089 273.699154 
L 170.746931 277.127466 
L 174.282772 273.29334 
L 177.818614 276.75085 
L 181.354455 275.281551 
L 184.890297 275.345935 
L 188.426139 268.958512 
L 191.96198 273.749852 
L 195.497822 276.498149 
L 199.033663 275.803978 
L 202.569505 279.42344 
L 206.105347 275.746903 
L 209.641188 275.045475 
L 213.17703 273.38234 
L 216.712871 278.422721 
L 220.248713 276.311842 
L 223.784554 271.63834 
L 227.320396 273.976063 
L 230.856238 273.022704 
L 234.392079 271.23765 
L 237.927921 272.60492 
L 241.463762 275.959099 
L 244.999604 274.96241 
L 248.535446 271.902437 
L 252.071287 273.147192 
L 255.607129 269.690563 
L 259.14297 274.7855 
L 262.678812 275.512896 
L 266.214653 274.468439 
L 269.750495 275.788947 
L 273.286337 272.782245 
L 276.822178 276.802324 
L 280.35802 274.990033 
L 283.893861 273.87815 
L 287.429703 276.697859 
L 290.965545 272.170532 
L 294.501386 279.071028 
L 298.037228 277.320311 
L 301.573069 281.495928 
L 305.108911 280.41887 
L 308.644752 280.994917 
L 312.180594 277.821137 
L 315.716436 283.821844 
L 319.252277 280.415377 
L 322.788119 281.37664 
L 326.32396 287.717909 
L 329.859802 283.430878 
L 333.395644 280.731353 
L 336.931485 284.613953 
L 340.467327 281.004879 
L 344.003168 285.27224 
L 347.53901 285.19468 
L 351.074851 284.776984 
L 354.610693 279.656431 
L 358.146535 283.254054 
L 361.682376 278.383084 
L 365.218218 282.943006 
L 368.754059 290.85176 
L 372.289901 283.093393 
L 375.825743 281.24564 
L 379.361584 282.610692 
L 382.897426 280.902168 
L 386.433267 295.488 
L 389.969109 290.411767 
L 393.50495 294.1795 
L 397.040792 288.092309 
L 400.576634 294.208365 
L 404.112475 292.775865 
L 407.648317 291.62141 
L 407.648317 253.689639 
L 407.648317 253.689639 
L 404.112475 239.869842 
L 400.576634 264.197916 
L 397.040792 252.956295 
L 393.50495 272.431452 
L 389.969109 263.300868 
L 386.433267 277.37745 
L 382.897426 246.551188 
L 379.361584 251.4345 
L 375.825743 254.42559 
L 372.289901 257.15232 
L 368.754059 270.986642 
L 365.218218 259.500816 
L 361.682376 251.296647 
L 358.146535 256.940301 
L 354.610693 253.773004 
L 351.074851 259.357023 
L 347.53901 263.246955 
L 344.003168 262.937687 
L 340.467327 253.464347 
L 336.931485 264.455011 
L 333.395644 256.611809 
L 329.859802 261.700537 
L 326.32396 266.93758 
L 322.788119 256.583205 
L 319.252277 256.463542 
L 315.716436 263.131504 
L 312.180594 252.626644 
L 308.644752 260.625116 
L 305.108911 256.159134 
L 301.573069 260.664773 
L 298.037228 252.791077 
L 294.501386 251.948163 
L 290.965545 242.95454 
L 287.429703 252.928742 
L 283.893861 251.978858 
L 280.35802 250.371401 
L 276.822178 248.235158 
L 273.286337 242.251987 
L 269.750495 247.320027 
L 266.214653 250.345425 
L 262.678812 244.009706 
L 259.14297 247.294582 
L 255.607129 233.712715 
L 252.071287 243.516072 
L 248.535446 242.640685 
L 244.999604 246.60861 
L 241.463762 246.079134 
L 237.927921 240.798546 
L 234.392079 240.624065 
L 230.856238 237.312977 
L 227.320396 234.663699 
L 223.784554 241.838081 
L 220.248713 246.54827 
L 216.712871 252.99722 
L 213.17703 240.132221 
L 209.641188 243.685703 
L 206.105347 246.719177 
L 202.569505 248.45723 
L 199.033663 251.256178 
L 195.497822 252.042573 
L 191.96198 245.738724 
L 188.426139 245.042074 
L 184.890297 248.846037 
L 181.354455 250.513814 
L 177.818614 256.01594 
L 174.282772 243.944612 
L 170.746931 247.322028 
L 167.211089 248.245029 
L 163.675248 250.051692 
L 160.139406 247.098403 
L 156.603564 255.461098 
L 153.067723 258.566574 
L 149.531881 253.140143 
L 145.99604 253.206443 
L 142.460198 253.328765 
L 138.924356 260.628595 
L 135.388515 247.047716 
L 131.852673 261.673024 
L 128.316832 253.451734 
L 124.78099 248.23901 
L 121.245149 242.581894 
L 117.709307 241.194115 
L 114.173465 202.971021 
L 110.637624 228.567544 
L 107.101782 210.450346 
L 103.565941 225.567824 
L 100.030099 206.809623 
L 96.494257 199.181575 
L 92.958416 216.690325 
L 89.422574 207.037377 
L 85.886733 208.19323 
L 82.350891 205.946041 
L 78.81505 206.438004 
L 75.279208 182.658175 
L 71.743366 182.239949 
L 68.207525 117.025485 
L 64.671683 109.523577 
L 61.135842 53.568 
z
" clip-path="url(#p97647e5158)" style="fill: #cd5c5c; fill-opacity: 0.3"/>
   </g>
   <g id="FillBetweenPolyCollection_2">
    <path d="M 61.135842 188.033268 
L 61.135842 257.631355 
L 64.671683 262.400471 
L 68.207525 257.190871 
L 71.743366 278.733553 
L 75.279208 264.482649 
L 78.81505 284.639797 
L 82.350891 263.846164 
L 85.886733 264.039127 
L 89.422574 261.601662 
L 92.958416 268.358633 
L 96.494257 254.95877 
L 100.030099 260.102419 
L 103.565941 247.78268 
L 107.101782 256.183426 
L 110.637624 269.474944 
L 114.173465 252.742152 
L 117.709307 252.436588 
L 121.245149 268.747705 
L 124.78099 246.490541 
L 128.316832 232.021377 
L 131.852673 265.352921 
L 135.388515 256.905877 
L 138.924356 267.061259 
L 142.460198 254.549696 
L 145.99604 252.124843 
L 149.531881 252.698298 
L 153.067723 243.186284 
L 156.603564 243.212556 
L 160.139406 250.21495 
L 163.675248 243.906781 
L 167.211089 266.302699 
L 170.746931 256.157342 
L 174.282772 255.763257 
L 177.818614 255.767688 
L 181.354455 256.823424 
L 184.890297 256.538374 
L 188.426139 259.541285 
L 191.96198 251.929857 
L 195.497822 255.228987 
L 199.033663 247.518586 
L 202.569505 261.286071 
L 206.105347 261.186296 
L 209.641188 248.091766 
L 213.17703 242.700945 
L 216.712871 243.364499 
L 220.248713 270.495512 
L 223.784554 266.156858 
L 227.320396 252.154717 
L 230.856238 279.59873 
L 234.392079 246.921011 
L 237.927921 272.146406 
L 241.463762 259.44935 
L 244.999604 256.571455 
L 248.535446 267.647095 
L 252.071287 270.970099 
L 255.607129 268.690912 
L 259.14297 234.097899 
L 262.678812 257.95528 
L 266.214653 257.314278 
L 269.750495 272.217671 
L 273.286337 259.320504 
L 276.822178 280.42177 
L 280.35802 273.813079 
L 283.893861 251.984009 
L 287.429703 274.256396 
L 290.965545 265.940787 
L 294.501386 265.540882 
L 298.037228 258.450587 
L 301.573069 276.174397 
L 305.108911 279.479818 
L 308.644752 262.836578 
L 312.180594 276.721948 
L 315.716436 271.598625 
L 319.252277 265.799269 
L 322.788119 277.982404 
L 326.32396 265.674 
L 329.859802 281.172201 
L 333.395644 263.5567 
L 336.931485 273.365819 
L 340.467327 274.528244 
L 344.003168 272.993377 
L 347.53901 272.526893 
L 351.074851 276.740171 
L 354.610693 288.023626 
L 358.146535 281.915183 
L 361.682376 282.018399 
L 365.218218 277.629836 
L 368.754059 286.874558 
L 372.289901 285.188117 
L 375.825743 275.304925 
L 379.361584 278.925576 
L 382.897426 280.146415 
L 386.433267 283.144378 
L 389.969109 291.337656 
L 393.50495 282.643976 
L 397.040792 270.280115 
L 400.576634 288.806767 
L 404.112475 290.28059 
L 407.648317 260.331688 
L 407.648317 163.998708 
L 407.648317 163.998708 
L 404.112475 222.230398 
L 400.576634 227.773582 
L 397.040792 205.035673 
L 393.50495 222.326943 
L 389.969109 240.471241 
L 386.433267 219.048847 
L 382.897426 189.176173 
L 379.361584 213.87438 
L 375.825743 221.78843 
L 372.289901 237.217736 
L 368.754059 250.069223 
L 365.218218 221.967015 
L 361.682376 250.419918 
L 358.146535 242.919644 
L 354.610693 240.139339 
L 351.074851 229.022876 
L 347.53901 221.45988 
L 344.003168 228.392045 
L 340.467327 215.232755 
L 336.931485 211.295725 
L 333.395644 197.893278 
L 329.859802 232.501647 
L 326.32396 205.152087 
L 322.788119 225.918624 
L 319.252277 214.9718 
L 315.716436 228.250182 
L 312.180594 237.379543 
L 308.644752 209.100807 
L 305.108911 225.876564 
L 301.573069 233.639187 
L 298.037228 196.067112 
L 294.501386 224.621819 
L 290.965545 207.551835 
L 287.429703 233.094861 
L 283.893861 197.22491 
L 280.35802 231.033753 
L 276.822178 231.504362 
L 273.286337 213.145722 
L 269.750495 224.23732 
L 266.214653 200.704103 
L 262.678812 200.639462 
L 259.14297 169.47426 
L 255.607129 227.026453 
L 252.071287 229.11948 
L 248.535446 223.557205 
L 244.999604 193.804824 
L 241.463762 201.471691 
L 237.927921 221.572471 
L 234.392079 195.091655 
L 230.856238 235.80187 
L 227.320396 200.530861 
L 223.784554 213.380386 
L 220.248713 232.121764 
L 216.712871 197.094896 
L 213.17703 191.75987 
L 209.641188 186.733376 
L 206.105347 208.54399 
L 202.569505 207.499682 
L 199.033663 194.988726 
L 195.497822 201.533484 
L 191.96198 202.100967 
L 188.426139 206.907057 
L 184.890297 202.264858 
L 181.354455 201.722012 
L 177.818614 206.978293 
L 174.282772 199.598458 
L 170.746931 196.981581 
L 167.211089 224.666928 
L 163.675248 184.04985 
L 160.139406 198.780785 
L 156.603564 183.485228 
L 153.067723 177.749541 
L 149.531881 195.791556 
L 145.99604 194.050568 
L 142.460198 209.603344 
L 138.924356 216.922846 
L 135.388515 193.324612 
L 131.852673 209.266712 
L 128.316832 183.924452 
L 124.78099 179.806643 
L 121.245149 202.665695 
L 117.709307 201.300531 
L 114.173465 201.226206 
L 110.637624 219.170725 
L 107.101782 201.056376 
L 103.565941 189.019062 
L 100.030099 209.653775 
L 96.494257 199.462112 
L 92.958416 209.859801 
L 89.422574 205.92131 
L 85.886733 210.479277 
L 82.350891 208.934038 
L 78.81505 241.161256 
L 75.279208 204.263605 
L 71.743366 220.240683 
L 68.207525 182.401481 
L 64.671683 188.636456 
L 61.135842 188.033268 
z
" clip-path="url(#p97647e5158)" style="fill: #808080; fill-opacity: 0.3"/>
   </g>
   <g id="matplotlib.axis_1">
    <g id="xtick_1">
     <g id="line2d_1">
      <defs>
       <path id="mf252562f4c" d="M 0 0 
L 0 3.5 
" style="stroke: #000000; stroke-width: 0.8"/>
      </defs>
      <g>
       <use xlink:href="#mf252562f4c" x="61.135842" y="307.584" style="stroke: #000000; stroke-width: 0.8"/>
      </g>
     </g>
     <g id="text_1">
      <text style="font-size: 10px; font-family: 'DejaVu Sans', 'Bitstream Vera Sans', 'Computer Modern Sans Serif', 'Lucida Grande', 'Verdana', 'Geneva', 'Lucid', 'Arial', 'Helvetica', 'Avant Garde', sans-serif; text-anchor: middle" x="61.135842" y="322.182437" transform="rotate(-0 61.135842 322.182437)">0</text>
     </g>
    </g>
    <g id="xtick_2">
     <g id="line2d_2">
      <g>
       <use xlink:href="#mf252562f4c" x="131.852673" y="307.584" style="stroke: #000000; stroke-width: 0.8"/>
      </g>
     </g>
     <g id="text_2">
      <text style="font-size: 10px; font-family: 'DejaVu Sans', 'Bitstream Vera Sans', 'Computer Modern Sans Serif', 'Lucida Grande', 'Verdana', 'Geneva', 'Lucid', 'Arial', 'Helvetica', 'Avant Garde', sans-serif; text-anchor: middle" x="131.852673" y="322.182437" transform="rotate(-0 131.852673 322.182437)">20</text>
     </g>
    </g>
    <g id="xtick_3">
     <g id="line2d_3">
      <g>
       <use xlink:href="#mf252562f4c" x="202.569505" y="307.584" style="stroke: #000000; stroke-width: 0.8"/>
      </g>
     </g>
     <g id="text_3">
      <text style="font-size: 10px; font-family: 'DejaVu Sans', 'Bitstream Vera Sans', 'Computer Modern Sans Serif', 'Lucida Grande', 'Verdana', 'Geneva', 'Lucid', 'Arial', 'Helvetica', 'Avant Garde', sans-serif; text-anchor: middle" x="202.569505" y="322.182437" transform="rotate(-0 202.569505 322.182437)">40</text>
     </g>
    </g>
    <g id="xtick_4">
     <g id="line2d_4">
      <g>
       <use xlink:href="#mf252562f4c" x="273.286337" y="307.584" style="stroke: #000000; stroke-width: 0.8"/>
      </g>
     </g>
     <g id="text_4">
      <text style="font-size: 10px; font-family: 'DejaVu Sans', 'Bitstream Vera Sans', 'Computer Modern Sans Serif', 'Lucida Grande', 'Verdana', 'Geneva', 'Lucid', 'Arial', 'Helvetica', 'Avant Garde', sans-serif; text-anchor: middle" x="273.286337" y="322.182437" transform="rotate(-0 273.286337 322.182437)">60</text>
     </g>
    </g>
    <g id="xtick_5">
     <g id="line2d_5">
      <g>
       <use xlink:href="#mf252562f4c" x="344.003168" y="307.584" style="stroke: #000000; stroke-width: 0.8"/>
      </g>
     </g>
     <g id="text_5">
      <text style="font-size: 10px; font-family: 'DejaVu Sans', 'Bitstream Vera Sans', 'Computer Modern Sans Serif', 'Lucida Grande', 'Verdana', 'Geneva', 'Lucid', 'Arial', 'Helvetica', 'Avant Garde', sans-serif; text-anchor: middle" x="344.003168" y="322.182437" transform="rotate(-0 344.003168 322.182437)">80</text>
     </g>
    </g>
    <g id="xtick_6">
     <g id="line2d_6">
      <g>
       <use xlink:href="#mf252562f4c" x="414.72" y="307.584" style="stroke: #000000; stroke-width: 0.8"/>
      </g>
     </g>
     <g id="text_6">
      <text style="font-size: 10px; font-family: 'DejaVu Sans', 'Bitstream Vera Sans', 'Computer Modern Sans Serif', 'Lucida Grande', 'Verdana', 'Geneva', 'Lucid', 'Arial', 'Helvetica', 'Avant Garde', sans-serif; text-anchor: middle" x="414.72" y="322.182437" transform="rotate(-0 414.72 322.182437)">100</text>
     </g>
    </g>
    <g id="text_7">
     <text style="font-size: 10px; font-family: 'DejaVu Sans', 'Bitstream Vera Sans', 'Computer Modern Sans Serif', 'Lucida Grande', 'Verdana', 'Geneva', 'Lucid', 'Arial', 'Helvetica', 'Avant Garde', sans-serif; text-anchor: middle" x="236.16" y="335.860562" transform="rotate(-0 236.16 335.860562)">Distance from place field center (cm)</text>
    </g>
   </g>
   <g id="matplotlib.axis_2">
    <g id="ytick_1">
     <g id="line2d_7">
      <defs>
       <path id="m8682387d8a" d="M 0 0 
L -3.5 0 
" style="stroke: #000000; stroke-width: 0.8"/>
      </defs>
      <g>
       <use xlink:href="#m8682387d8a" x="57.6" y="300.34378" style="stroke: #000000; stroke-width: 0.8"/>
      </g>
     </g>
     <g id="text_8">
      <text style="font-size: 10px; font-family: 'DejaVu Sans', 'Bitstream Vera Sans', 'Computer Modern Sans Serif', 'Lucida Grande', 'Verdana', 'Geneva', 'Lucid', 'Arial', 'Helvetica', 'Avant Garde', sans-serif; text-anchor: end" x="50.6" y="304.142999" transform="rotate(-0 50.6 304.142999)">0.0</text>
     </g>
    </g>
    <g id="ytick_2">
     <g id="line2d_8">
      <g>
       <use xlink:href="#m8682387d8a" x="57.6" y="247.36329" style="stroke: #000000; stroke-width: 0.8"/>
      </g>
     </g>
     <g id="text_9">
      <text style="font-size: 10px; font-family: 'DejaVu Sans', 'Bitstream Vera Sans', 'Computer Modern Sans Serif', 'Lucida Grande', 'Verdana', 'Geneva', 'Lucid', 'Arial', 'Helvetica', 'Avant Garde', sans-serif; text-anchor: end" x="50.6" y="251.162509" transform="rotate(-0 50.6 251.162509)">0.1</text>
     </g>
    </g>
    <g id="ytick_3">
     <g id="line2d_9">
      <g>
       <use xlink:href="#m8682387d8a" x="57.6" y="194.3828" style="stroke: #000000; stroke-width: 0.8"/>
      </g>
     </g>
     <g id="text_10">
      <text style="font-size: 10px; font-family: 'DejaVu Sans', 'Bitstream Vera Sans', 'Computer Modern Sans Serif', 'Lucida Grande', 'Verdana', 'Geneva', 'Lucid', 'Arial', 'Helvetica', 'Avant Garde', sans-serif; text-anchor: end" x="50.6" y="198.182019" transform="rotate(-0 50.6 198.182019)">0.2</text>
     </g>
    </g>
    <g id="ytick_4">
     <g id="line2d_10">
      <g>
       <use xlink:href="#m8682387d8a" x="57.6" y="141.40231" style="stroke: #000000; stroke-width: 0.8"/>
      </g>
     </g>
     <g id="text_11">
      <text style="font-size: 10px; font-family: 'DejaVu Sans', 'Bitstream Vera Sans', 'Computer Modern Sans Serif', 'Lucida Grande', 'Verdana', 'Geneva', 'Lucid', 'Arial', 'Helvetica', 'Avant Garde', sans-serif; text-anchor: end" x="50.6" y="145.201529" transform="rotate(-0 50.6 145.201529)">0.3</text>
     </g>
    </g>
    <g id="ytick_5">
     <g id="line2d_11">
      <g>
       <use xlink:href="#m8682387d8a" x="57.6" y="88.42182" style="stroke: #000000; stroke-width: 0.8"/>
      </g>
     </g>
     <g id="text_12">
      <text style="font-size: 10px; font-family: 'DejaVu Sans', 'Bitstream Vera Sans', 'Computer Modern Sans Serif', 'Lucida Grande', 'Verdana', 'Geneva', 'Lucid', 'Arial', 'Helvetica', 'Avant Garde', sans-serif; text-anchor: end" x="50.6" y="92.221039" transform="rotate(-0 50.6 92.221039)">0.4</text>
     </g>
    </g>
    <g id="text_13">
     <text style="font-size: 10px; font-family: 'DejaVu Sans', 'Bitstream Vera Sans', 'Computer Modern Sans Serif', 'Lucida Grande', 'Verdana', 'Geneva', 'Lucid', 'Arial', 'Helvetica', 'Avant Garde', sans-serif; text-anchor: middle" x="28.617188" y="174.528" transform="rotate(-90 28.617188 174.528)">Normalized spike rate during opto stim</text>
    </g>
   </g>
   <g id="line2d_12">
    <path d="M 61.135842 85.35927 
L 64.671683 133.134809 
L 68.207525 138.784274 
L 71.743366 198.094879 
L 75.279208 199.138654 
L 78.81505 223.151836 
L 82.350891 223.855177 
L 85.886733 224.874831 
L 89.422574 225.673482 
L 92.958416 232.041954 
L 96.494257 219.785562 
L 100.030099 224.064949 
L 103.565941 241.921808 
L 107.101782 228.237858 
L 110.637624 248.129193 
L 114.173465 226.456683 
L 117.709307 257.649293 
L 121.245149 255.935168 
L 124.78099 262.785038 
L 128.316832 265.583953 
L 131.852673 272.358155 
L 135.388515 262.319329 
L 138.924356 271.340875 
L 142.460198 265.117393 
L 145.99604 267.816261 
L 149.531881 266.004684 
L 153.067723 269.035779 
L 156.603564 267.308651 
L 160.139406 261.983302 
L 163.675248 263.684772 
L 167.211089 261.959145 
L 170.746931 262.872004 
L 174.282772 259.246164 
L 177.818614 265.566551 
L 181.354455 264.459405 
L 184.890297 263.398784 
L 188.426139 256.601841 
L 191.96198 261.388366 
L 195.497822 263.478394 
L 199.033663 264.176828 
L 202.569505 264.873733 
L 206.105347 260.286747 
L 209.641188 259.666732 
L 213.17703 257.197953 
L 216.712871 265.57635 
L 220.248713 262.670484 
L 223.784554 257.857786 
L 227.320396 254.974647 
L 230.856238 256.541747 
L 234.392079 257.175237 
L 237.927921 254.763213 
L 241.463762 259.915728 
L 244.999604 259.816207 
L 248.535446 258.565301 
L 252.071287 258.783152 
L 255.607129 253.032389 
L 259.14297 261.625927 
L 262.678812 261.532216 
L 266.214653 263.44751 
L 269.750495 261.525943 
L 273.286337 258.532717 
L 276.822178 264.35715 
L 280.35802 263.711833 
L 283.893861 263.06346 
L 287.429703 264.406596 
L 290.965545 257.633434 
L 294.501386 266.028546 
L 298.037228 264.532264 
L 301.573069 270.846629 
L 305.108911 267.882768 
L 308.644752 270.578978 
L 312.180594 265.621839 
L 315.716436 273.15958 
L 319.252277 270.028535 
L 322.788119 268.812037 
L 326.32396 277.361259 
L 329.859802 273.13147 
L 333.395644 268.912796 
L 336.931485 274.254976 
L 340.467327 268.346436 
L 344.003168 275.140873 
L 347.53901 273.974702 
L 351.074851 272.354476 
L 354.610693 266.899401 
L 358.146535 269.632548 
L 361.682376 265.873588 
L 365.218218 271.75081 
L 368.754059 282.840519 
L 372.289901 271.67407 
L 375.825743 271.025405 
L 379.361584 269.985287 
L 382.897426 264.228337 
L 386.433267 286.438554 
L 389.969109 277.369913 
L 393.50495 284.759453 
L 397.040792 274.857825 
L 400.576634 281.750142 
L 404.112475 270.98807 
L 407.648317 276.55127 
" clip-path="url(#p97647e5158)" style="fill: none; stroke: #cd5c5c; stroke-width: 1.5; stroke-linecap: square"/>
   </g>
   <g id="line2d_13">
    <path d="M 61.135842 222.745489 
L 64.671683 227.750788 
L 68.207525 225.97539 
L 71.743366 251.105601 
L 75.279208 233.970754 
L 78.81505 263.782157 
L 82.350891 237.649661 
L 85.886733 240.486267 
L 89.422574 233.625744 
L 92.958416 239.93343 
L 96.494257 230.839559 
L 100.030099 235.71198 
L 103.565941 222.449139 
L 107.101782 230.377899 
L 110.637624 246.243988 
L 114.173465 224.80073 
L 117.709307 227.846573 
L 121.245149 238.285586 
L 124.78099 211.991033 
L 128.316832 208.677182 
L 131.852673 236.850842 
L 135.388515 227.896247 
L 138.924356 240.928565 
L 142.460198 230.888603 
L 145.99604 224.834044 
L 149.531881 225.341883 
L 153.067723 212.437548 
L 156.603564 214.413598 
L 160.139406 225.230067 
L 163.675248 218.342864 
L 167.211089 245.240424 
L 170.746931 225.442592 
L 174.282772 226.467177 
L 177.818614 232.245233 
L 181.354455 228.437105 
L 184.890297 230.639108 
L 188.426139 235.220512 
L 191.96198 227.913847 
L 195.497822 233.624267 
L 199.033663 223.452233 
L 202.569505 236.810254 
L 206.105347 234.889176 
L 209.641188 218.88884 
L 213.17703 220.604642 
L 216.712871 219.780489 
L 220.248713 250.898601 
L 223.784554 238.293138 
L 227.320396 224.569093 
L 230.856238 260.854839 
L 234.392079 222.086885 
L 237.927921 246.017297 
L 241.463762 234.121654 
L 244.999604 225.717427 
L 248.535446 246.335484 
L 252.071287 250.580143 
L 255.607129 247.978385 
L 259.14297 201.466484 
L 262.678812 231.586058 
L 266.214653 226.757993 
L 269.750495 246.338976 
L 273.286337 237.256753 
L 276.822178 255.958926 
L 280.35802 252.330097 
L 283.893861 227.939413 
L 287.429703 254.851767 
L 290.965545 240.736038 
L 294.501386 244.313413 
L 298.037228 224.907815 
L 301.573069 257.580267 
L 305.108911 254.093137 
L 308.644752 235.585947 
L 312.180594 256.093868 
L 315.716436 248.688172 
L 319.252277 245.191871 
L 322.788119 252.788561 
L 326.32396 237.640033 
L 329.859802 258.305689 
L 333.395644 234.380144 
L 336.931485 242.967439 
L 340.467327 242.420866 
L 344.003168 253.312443 
L 347.53901 248.446387 
L 351.074851 253.932399 
L 354.610693 267.855162 
L 358.146535 261.469915 
L 361.682376 267.764678 
L 365.218218 248.538723 
L 368.754059 269.25438 
L 372.289901 260.149884 
L 375.825743 248.042152 
L 379.361584 250.886572 
L 382.897426 244.156655 
L 386.433267 254.190966 
L 389.969109 269.472964 
L 393.50495 257.335039 
L 397.040792 240.426521 
L 400.576634 260.619744 
L 404.112475 257.571336 
L 407.648317 218.375158 
" clip-path="url(#p97647e5158)" style="fill: none; stroke: #808080; stroke-width: 1.5; stroke-linecap: square"/>
   </g>
   <g id="patch_3">
    <path d="M 57.6 307.584 
L 57.6 41.472 
" style="fill: none; stroke: #000000; stroke-width: 0.8; stroke-linejoin: miter; stroke-linecap: square"/>
   </g>
   <g id="patch_4">
    <path d="M 57.6 307.584 
L 414.72 307.584 
" style="fill: none; stroke: #000000; stroke-width: 0.8; stroke-linejoin: miter; stroke-linecap: square"/>
   </g>
   <g id="legend_1">
    <g id="line2d_14">
     <path d="M 320.42 54.570437 
L 330.42 54.570437 
L 340.42 54.570437 
" style="fill: none; stroke: #cd5c5c; stroke-width: 1.5; stroke-linecap: square"/>
    </g>
    <g id="text_14">
     <text style="font-size: 10px; font-family: 'DejaVu Sans', 'Bitstream Vera Sans', 'Computer Modern Sans Serif', 'Lucida Grande', 'Verdana', 'Geneva', 'Lucid', 'Arial', 'Helvetica', 'Avant Garde', sans-serif; text-anchor: start" x="348.42" y="58.070437" transform="rotate(-0 348.42 58.070437)">transfected</text>
    </g>
    <g id="line2d_15">
     <path d="M 320.42 69.248562 
L 330.42 69.248562 
L 340.42 69.248562 
" style="fill: none; stroke: #808080; stroke-width: 1.5; stroke-linecap: square"/>
    </g>
    <g id="text_15">
     <text style="font-size: 10px; font-family: 'DejaVu Sans', 'Bitstream Vera Sans', 'Computer Modern Sans Serif', 'Lucida Grande', 'Verdana', 'Geneva', 'Lucid', 'Arial', 'Helvetica', 'Avant Garde', sans-serif; text-anchor: start" x="348.42" y="72.748562" transform="rotate(-0 348.42 72.748562)">control</text>
    </g>
   </g>
  </g>
 </g>
 <defs>
  <clipPath id="p97647e5158">
   <rect x="57.6" y="41.472" width="357.12" height="266.112"/>
  </clipPath>
 </defs>
</svg>
